<svg xmlns="http://www.w3.org/2000/svg" xmlns:xlink="http://www.w3.org/1999/xlink" width="250" height="148" viewBox="0 0 250 148">
  <defs>
    <clipPath id="clip-path">
      <rect id="Rectángulo_344156" data-name="Rectángulo 344156" width="224.191" height="127.477" fill="none"/>
    </clipPath>
    <clipPath id="clip-path-7">
      <rect id="Rectángulo_344148" data-name="Rectángulo 344148" width="7.28" height="15.445" fill="none"/>
    </clipPath>
    <clipPath id="clip-path-8">
      <rect id="Rectángulo_344149" data-name="Rectángulo 344149" width="9.996" height="17.654" fill="none"/>
    </clipPath>
    <clipPath id="clip-path-9">
      <rect id="Rectángulo_344150" data-name="Rectángulo 344150" width="7.273" height="11.806" fill="none"/>
    </clipPath>
    <clipPath id="clip-path-10">
      <rect id="Rectángulo_344151" data-name="Rectángulo 344151" width="7.532" height="13.568" fill="none"/>
    </clipPath>
    <clipPath id="clip-path-11">
      <rect id="Rectángulo_344152" data-name="Rectángulo 344152" width="11.11" height="4.924" fill="none"/>
    </clipPath>
    <clipPath id="clip-path-12">
      <rect id="Rectángulo_344153" data-name="Rectángulo 344153" width="10.555" height="5.243" fill="none"/>
    </clipPath>
  </defs>
  <g id="Grupo_985462" data-name="Grupo 985462" transform="translate(2471 6315)">
    <g id="Grupo_985452" data-name="Grupo 985452" transform="translate(-2458.413 -6304.784)">
      <g id="Grupo_984852" data-name="Grupo 984852" clip-path="url(#clip-path)">
        <g id="Grupo_984823" data-name="Grupo 984823">
          <g id="Grupo_984822" data-name="Grupo 984822" clip-path="url(#clip-path)">
            <path id="Trazado_657773" data-name="Trazado 657773" d="M558.222,157.119h45.287l-7.377,5.323v10.473a2.187,2.187,0,0,1-2.187,2.187H558.222a2.187,2.187,0,0,1-2.187-2.187v-13.61a2.187,2.187,0,0,1,2.187-2.187" transform="translate(-379.318 -107.184)" fill="#f5f5f5"/>
            <path id="Trazado_657774" data-name="Trazado 657774" d="M568.86,180.238c0,.044,6.83.079,15.254.079s15.255-.036,15.255-.079-6.829-.079-15.255-.079-15.254.036-15.254.079" transform="translate(-388.067 -122.901)" fill="#e0e0e0"/>
            <path id="Trazado_657775" data-name="Trazado 657775" d="M568.86,192.891c0,.044,6.83.079,15.254.079s15.255-.036,15.255-.079-6.829-.079-15.255-.079-15.254.036-15.254.079" transform="translate(-388.067 -131.533)" fill="#e0e0e0"/>
            <rect id="Rectángulo_344122" data-name="Rectángulo 344122" width="2.119" height="7.099" transform="translate(108.006 11.289)" fill="#e0e0e0"/>
            <rect id="Rectángulo_344123" data-name="Rectángulo 344123" width="2.119" height="8.128" transform="translate(90.304 10.26)" fill="#e0e0e0"/>
            <rect id="Rectángulo_344124" data-name="Rectángulo 344124" width="2.119" height="9.821" transform="translate(94.73 8.566)" fill="#e0e0e0"/>
            <rect id="Rectángulo_344125" data-name="Rectángulo 344125" width="2.119" height="9.283" transform="translate(99.155 9.105)" fill="#e0e0e0"/>
            <rect id="Rectángulo_344126" data-name="Rectángulo 344126" width="2.119" height="12.423" transform="translate(103.58 5.964)" fill="#e0e0e0"/>
            <rect id="Rectángulo_344127" data-name="Rectángulo 344127" width="2.119" height="12.363" transform="translate(112.431 6.025)" fill="#e0e0e0"/>
            <rect id="Rectángulo_344128" data-name="Rectángulo 344128" width="2.119" height="8.302" transform="translate(116.856 10.085)" fill="#e0e0e0"/>
            <rect id="Rectángulo_344129" data-name="Rectángulo 344129" width="2.119" height="11.818" transform="translate(121.282 6.57)" fill="#e0e0e0"/>
            <rect id="Rectángulo_344130" data-name="Rectángulo 344130" width="2.119" height="14.48" transform="translate(125.707 3.907)" fill="#e0e0e0"/>
            <rect id="Rectángulo_344131" data-name="Rectángulo 344131" width="2.119" height="11.879" transform="translate(130.133 6.509)" fill="#e0e0e0"/>
            <path id="Trazado_657776" data-name="Trazado 657776" d="M553.773,17.729,571.3,15.051A17.729,17.729,0,1,1,555.72.107Z" transform="translate(-365.681 0)" fill="#ebebeb"/>
            <path id="Trazado_657777" data-name="Trazado 657777" d="M605.152.513,603.024,14.1l13.336-2.5S614.4,3.98,605.152.513" transform="translate(-411.373 -0.35)" fill="#e0e0e0"/>
            <path id="Trazado_657778" data-name="Trazado 657778" d="M28.745,140.444a8.69,8.69,0,1,1,8.829,8.589,8.722,8.722,0,0,1-8.829-8.589m12.844-.207a4.155,4.155,0,1,0-4.088,4.241,4.169,4.169,0,0,0,4.088-4.241" transform="translate(-19.608 -89.757)" fill="#f5f5f5"/>
            <path id="Trazado_657779" data-name="Trazado 657779" d="M28.745,140.446a8.722,8.722,0,0,1,8.549-8.869l.073,4.555a4.174,4.174,0,0,0,.133,8.347l.073,4.555a8.718,8.718,0,0,1-8.829-8.589" transform="translate(-19.608 -89.76)" fill="#e0e0e0"/>
            <path id="Trazado_657780" data-name="Trazado 657780" d="M53.193,129.369A9.929,9.929,0,0,1,63.36,139.26l-5.3.085A4.367,4.367,0,0,0,53.283,135Z" transform="translate(-36.287 -88.252)" fill="#ebebeb"/>
            <rect id="Rectángulo_344132" data-name="Rectángulo 344132" width="11.046" height="13.132" transform="translate(54.548 81.337)" fill="#f5f5f5"/>
            <rect id="Rectángulo_344133" data-name="Rectángulo 344133" width="49.918" height="14.813" transform="translate(5.01 80.481)" fill="#e0e0e0"/>
            <path id="Trazado_657781" data-name="Trazado 657781" d="M180.956,254.477H168.618v-1.246h12.338a.623.623,0,1,1,0,1.246" transform="translate(-115.028 -172.75)" fill="#e0e0e0"/>
            <path id="Trazado_657782" data-name="Trazado 657782" d="M180.956,297.167H168.618v-1.246h12.338a.623.623,0,1,1,0,1.246" transform="translate(-115.028 -201.872)" fill="#e0e0e0"/>
            <rect id="Rectángulo_344134" data-name="Rectángulo 344134" width="5.897" height="14.813" transform="translate(45.106 80.481)" fill="#ebebeb"/>
            <rect id="Rectángulo_344135" data-name="Rectángulo 344135" width="5.898" height="14.813" transform="translate(9.757 80.645)" fill="#ebebeb"/>
            <path id="Trazado_657783" data-name="Trazado 657783" d="M183.466,262.618c0,.036-2.391.065-5.339.065s-5.339-.029-5.339-.065,2.39-.065,5.339-.065,5.339.029,5.339.065" transform="translate(-117.873 -179.109)" fill="#e0e0e0"/>
            <path id="Trazado_657784" data-name="Trazado 657784" d="M183.466,268.814c0,.036-2.391.065-5.339.065s-5.339-.029-5.339-.065,2.39-.065,5.339-.065,5.339.029,5.339.065" transform="translate(-117.873 -183.336)" fill="#e0e0e0"/>
            <path id="Trazado_657785" data-name="Trazado 657785" d="M183.466,276.443c0,.036-2.391.065-5.339.065s-5.339-.029-5.339-.065,2.39-.066,5.339-.066,5.339.03,5.339.066" transform="translate(-117.873 -188.54)" fill="#e0e0e0"/>
            <path id="Trazado_657786" data-name="Trazado 657786" d="M183.466,284.072c0,.036-2.391.065-5.339.065s-5.339-.029-5.339-.065,2.39-.065,5.339-.065,5.339.029,5.339.065" transform="translate(-117.873 -193.745)" fill="#e0e0e0"/>
            <path id="Trazado_657787" data-name="Trazado 657787" d="M183.466,291.7c0,.036-2.391.065-5.339.065s-5.339-.029-5.339-.065,2.39-.065,5.339-.065,5.339.029,5.339.065" transform="translate(-117.873 -198.949)" fill="#e0e0e0"/>
            <rect id="Rectángulo_344136" data-name="Rectángulo 344136" width="22.458" height="2.667" transform="translate(19.477 86.569)" fill="#ebebeb"/>
            <rect id="Rectángulo_344137" data-name="Rectángulo 344137" width="11.215" height="8.001" transform="translate(54.266 95.585)" fill="#fafafa"/>
            <rect id="Rectángulo_344138" data-name="Rectángulo 344138" width="47.728" height="8.582" transform="translate(6.663 95.294)" fill="#f5f5f5"/>
            <path id="Trazado_657788" data-name="Trazado 657788" d="M170.048,300.422H182.1a.29.29,0,0,0,0-.581H170.048Z" transform="translate(-116.004 -204.547)" fill="#f5f5f5"/>
            <path id="Trazado_657789" data-name="Trazado 657789" d="M170.048,325.6H182.26a.133.133,0,0,0,.133-.133v-.314a.133.133,0,0,0-.133-.133H170.048Z" transform="translate(-116.004 -221.721)" fill="#f5f5f5"/>
            <path id="Trazado_657790" data-name="Trazado 657790" d="M182.23,305.4c0,.036-2.483.066-5.545.066s-5.545-.03-5.545-.066,2.482-.065,5.545-.065,5.545.029,5.545.065" transform="translate(-116.749 -208.292)" fill="#e0e0e0"/>
            <path id="Trazado_657791" data-name="Trazado 657791" d="M182.23,310.159c0,.036-2.483.066-5.545.066s-5.545-.03-5.545-.066,2.482-.065,5.545-.065,5.545.029,5.545.065" transform="translate(-116.749 -211.541)" fill="#e0e0e0"/>
            <path id="Trazado_657792" data-name="Trazado 657792" d="M182.23,314.923c0,.036-2.483.065-5.545.065s-5.545-.029-5.545-.065,2.482-.066,5.545-.066,5.545.029,5.545.066" transform="translate(-116.749 -214.79)" fill="#e0e0e0"/>
            <path id="Trazado_657793" data-name="Trazado 657793" d="M182.23,319.685c0,.036-2.483.065-5.545.065s-5.545-.029-5.545-.065,2.482-.065,5.545-.065,5.545.029,5.545.065" transform="translate(-116.749 -218.039)" fill="#e0e0e0"/>
            <rect id="Rectángulo_344139" data-name="Rectángulo 344139" width="11.447" height="21.69" transform="translate(55.735 104.639)" fill="#ebebeb"/>
            <rect id="Rectángulo_344140" data-name="Rectángulo 344140" width="53.733" height="23.518" transform="translate(2.002 103.876)" fill="#e0e0e0"/>
            <path id="Trazado_657794" data-name="Trazado 657794" d="M184.557,397.568H170.745v-1.525h13.812a.763.763,0,1,1,0,1.525" transform="translate(-116.479 -270.174)" fill="#e0e0e0"/>
            <path id="Trazado_657795" data-name="Trazado 657795" d="M184.971,328.369H170.746v-1.525h14.225a.35.35,0,0,1,.35.35v.825a.35.35,0,0,1-.35.35" transform="translate(-116.48 -222.968)" fill="#e0e0e0"/>
            <path id="Trazado_657796" data-name="Trazado 657796" d="M186.815,338.251c0,.036-2.563.065-5.723.065s-5.724-.029-5.724-.065,2.562-.065,5.724-.065,5.723.029,5.723.065" transform="translate(-119.633 -230.705)" fill="#e0e0e0"/>
            <path id="Trazado_657797" data-name="Trazado 657797" d="M186.815,347c0,.036-2.563.065-5.723.065s-5.724-.029-5.724-.065,2.562-.066,5.724-.066,5.723.029,5.723.066" transform="translate(-119.633 -236.676)" fill="#e0e0e0"/>
            <path id="Trazado_657798" data-name="Trazado 657798" d="M186.815,355.757c0,.036-2.563.065-5.723.065s-5.724-.029-5.724-.065,2.562-.065,5.724-.065,5.723.029,5.723.065" transform="translate(-119.633 -242.647)" fill="#e0e0e0"/>
            <path id="Trazado_657799" data-name="Trazado 657799" d="M186.815,364.511c0,.036-2.563.066-5.723.066s-5.724-.03-5.724-.066,2.562-.065,5.724-.065,5.723.029,5.723.065" transform="translate(-119.633 -248.618)" fill="#e0e0e0"/>
            <path id="Trazado_657800" data-name="Trazado 657800" d="M186.815,373.263c0,.036-2.563.065-5.723.065s-5.724-.029-5.724-.065,2.562-.065,5.724-.065,5.723.029,5.723.065" transform="translate(-119.633 -254.589)" fill="#e0e0e0"/>
            <path id="Trazado_657801" data-name="Trazado 657801" d="M186.815,382.017c0,.036-2.563.065-5.723.065s-5.724-.029-5.724-.065,2.562-.065,5.724-.065,5.723.029,5.723.065" transform="translate(-119.633 -260.561)" fill="#e0e0e0"/>
            <path id="Trazado_657802" data-name="Trazado 657802" d="M186.815,390.77c0,.036-2.563.066-5.723.066s-5.724-.029-5.724-.066,2.562-.066,5.724-.066,5.723.029,5.723.066" transform="translate(-119.633 -266.532)" fill="#e0e0e0"/>
            <path id="Trazado_657803" data-name="Trazado 657803" d="M54.245,354.392V355.7c0,1.576-.788,2.476-2.308,2.476s-2.307-.9-2.307-2.476v-5.122c0-1.576.788-2.476,2.307-2.476s2.308.9,2.308,2.476v.957H52.782V350.48c0-.7-.31-.971-.8-.971s-.8.267-.8.971V355.8c0,.7.309.957.8.957s.8-.253.8-.957v-1.407Z" transform="translate(-33.857 -237.469)" fill="#ebebeb"/>
            <path id="Trazado_657804" data-name="Trazado 657804" d="M66.715,350.578a2.353,2.353,0,1,1,4.7,0V355.7a2.353,2.353,0,1,1-4.7,0Zm1.548,5.22c0,.7.31.971.8.971s.8-.267.8-.971V350.48c0-.7-.31-.971-.8-.971s-.8.267-.8.971Z" transform="translate(-45.512 -237.469)" fill="#ebebeb"/>
            <path id="Trazado_657805" data-name="Trazado 657805" d="M84.642,348.457H86.19V356.9h2.547v1.407H84.642Z" transform="translate(-57.741 -237.711)" fill="#ebebeb"/>
            <path id="Trazado_657806" data-name="Trazado 657806" d="M99.248,350.578a2.353,2.353,0,1,1,4.7,0V355.7a2.353,2.353,0,1,1-4.7,0Zm1.548,5.22c0,.7.31.971.8.971s.8-.267.8-.971V350.48c0-.7-.31-.971-.8-.971s-.8.267-.8.971Z" transform="translate(-67.705 -237.469)" fill="#ebebeb"/>
            <path id="Trazado_657807" data-name="Trazado 657807" d="M118.5,348.457v7.6c0,.7.31.957.8.957s.8-.253.8-.957v-7.6h1.464v7.5c0,1.576-.788,2.476-2.308,2.476s-2.308-.9-2.308-2.476v-7.5Z" transform="translate(-79.784 -237.711)" fill="#ebebeb"/>
            <path id="Trazado_657808" data-name="Trazado 657808" d="M138.028,358.306a3.027,3.027,0,0,1-.141-1.21v-1.548c0-.915-.31-1.252-1.013-1.252h-.535v4.01h-1.548v-9.849h2.336c1.6,0,2.294.746,2.294,2.265v.774a1.964,1.964,0,0,1-1.013,2c.774.324,1.027,1.069,1.027,2.1v1.519a2.9,2.9,0,0,0,.169,1.2Zm-1.689-8.442v3.025h.605c.577,0,.929-.253.929-1.041v-.971c0-.7-.239-1.013-.788-1.013Z" transform="translate(-91.953 -237.711)" fill="#ebebeb"/>
            <path id="Trazado_657809" data-name="Trazado 657809" d="M60.675,309.849H59.546l.059-.292H62.2l-.064.292H61.009l-.58,2.906h-.333Z" transform="translate(-40.621 -211.174)" fill="#e0e0e0"/>
            <path id="Trazado_657810" data-name="Trazado 657810" d="M67.87,312.057l-1.755,2.714c-.3.457-.521.6-.868.6a.779.779,0,0,1-.571-.215l.174-.237a.561.561,0,0,0,.425.174c.206,0,.365-.1.553-.388l.169-.255-.6-2.39h.329l.5,2.047,1.311-2.047Z" transform="translate(-44.121 -212.88)" fill="#e0e0e0"/>
            <path id="Trazado_657811" data-name="Trazado 657811" d="M76.961,313.015a1.354,1.354,0,0,1-1.362,1.43.9.9,0,0,1-.914-.526l-.274,1.389h-.325l.654-3.29h.311l-.078.384a1.217,1.217,0,0,1,.937-.4.971.971,0,0,1,1.051,1.014m-.329.018a.7.7,0,0,0-.791-.749,1.049,1.049,0,0,0-1.037,1.128.7.7,0,0,0,.79.745,1.048,1.048,0,0,0,1.037-1.124" transform="translate(-50.541 -212.842)" fill="#e0e0e0"/>
            <path id="Trazado_657812" data-name="Trazado 657812" d="M84.32,313.426A1.364,1.364,0,0,1,85.709,312a.984.984,0,0,1,1.092,1.014,1.365,1.365,0,0,1-1.389,1.43.99.99,0,0,1-1.092-1.019m2.157-.393a.7.7,0,0,0-.79-.749,1.055,1.055,0,0,0-1.042,1.128.7.7,0,0,0,.79.745,1.051,1.051,0,0,0,1.042-1.124" transform="translate(-57.522 -212.842)" fill="#e0e0e0"/>
            <path id="Trazado_657813" data-name="Trazado 657813" d="M95.714,312.018l-.42,2.111a1.28,1.28,0,0,1-1.4,1.2,1.524,1.524,0,0,1-1.069-.361l.192-.247a1.257,1.257,0,0,0,.9.32.941.941,0,0,0,1.041-.859l.055-.266a1.246,1.246,0,0,1-.96.412.952.952,0,0,1-1.06-.969A1.327,1.327,0,0,1,94.366,312a.921.921,0,0,1,.937.548l.1-.53Zm-.548.964c0-.439-.3-.7-.8-.7a1.019,1.019,0,0,0-1.046,1.06c0,.439.292.7.795.7a1.022,1.022,0,0,0,1.047-1.06" transform="translate(-63.324 -212.842)" fill="#e0e0e0"/>
            <path id="Trazado_657814" data-name="Trazado 657814" d="M104.949,312l-.059.315c-.032,0-.055,0-.092,0a.951.951,0,0,0-.973.891l-.242,1.22h-.324l.475-2.4h.311l-.082.439a1.087,1.087,0,0,1,.987-.456" transform="translate(-70.442 -212.842)" fill="#e0e0e0"/>
            <path id="Trazado_657815" data-name="Trazado 657815" d="M111.458,312.019l-.48,2.4h-.311l.078-.379a1.231,1.231,0,0,1-.937.4.969.969,0,0,1-1.046-1.019A1.352,1.352,0,0,1,110.119,312a.9.9,0,0,1,.914.521l.1-.5Zm-.539,1.015a.7.7,0,0,0-.79-.749,1.055,1.055,0,0,0-1.042,1.128.7.7,0,0,0,.79.745,1.051,1.051,0,0,0,1.042-1.124" transform="translate(-74.196 -212.842)" fill="#e0e0e0"/>
            <path id="Trazado_657816" data-name="Trazado 657816" d="M120.889,313.015a1.354,1.354,0,0,1-1.362,1.43.9.9,0,0,1-.914-.526l-.274,1.389h-.324l.653-3.29h.311l-.078.384a1.217,1.217,0,0,1,.937-.4.971.971,0,0,1,1.051,1.014m-.329.018a.7.7,0,0,0-.79-.749,1.049,1.049,0,0,0-1.037,1.128.7.7,0,0,0,.79.745,1.048,1.048,0,0,0,1.037-1.124" transform="translate(-80.508 -212.842)" fill="#e0e0e0"/>
            <path id="Trazado_657817" data-name="Trazado 657817" d="M130.828,310.7a1.453,1.453,0,0,1-.028.274l-.274,1.366H130.2l.274-1.371a1.309,1.309,0,0,0,.023-.219c0-.343-.206-.539-.621-.539a.937.937,0,0,0-.978.841l-.255,1.288h-.325l.676-3.391h.324l-.27,1.348a1.172,1.172,0,0,1,.918-.379.753.753,0,0,1,.859.781" transform="translate(-87.537 -210.762)" fill="#e0e0e0"/>
            <path id="Trazado_657818" data-name="Trazado 657818" d="M138.912,312.057l-1.755,2.714c-.3.457-.521.6-.868.6a.779.779,0,0,1-.571-.215l.174-.237a.561.561,0,0,0,.425.174c.206,0,.366-.1.553-.388l.169-.255-.6-2.39h.329l.5,2.047,1.311-2.047Z" transform="translate(-92.585 -212.88)" fill="#e0e0e0"/>
            <path id="Trazado_657819" data-name="Trazado 657819" d="M63.908,1.277H15.159L23.1,7.008V18.282a2.354,2.354,0,0,0,2.354,2.354H63.908a2.354,2.354,0,0,0,2.354-2.354V3.631a2.354,2.354,0,0,0-2.354-2.354" transform="translate(-10.341 -0.871)" fill="#f5f5f5"/>
            <path id="Trazado_657820" data-name="Trazado 657820" d="M91.656,26.164c0,.047-7.352.085-16.42.085s-16.422-.038-16.422-.085,7.351-.085,16.422-.085,16.42.038,16.42.085" transform="translate(-40.122 -17.791)" fill="#e0e0e0"/>
            <path id="Trazado_657821" data-name="Trazado 657821" d="M91.656,39.784c0,.047-7.352.085-16.42.085s-16.422-.038-16.422-.085,7.351-.085,16.422-.085,16.42.038,16.42.085" transform="translate(-40.122 -27.082)" fill="#e0e0e0"/>
          </g>
        </g>
        <g id="Grupo_984825" data-name="Grupo 984825">
          <g id="Grupo_984824" data-name="Grupo 984824" clip-path="url(#clip-path)">
            <path id="Trazado_657822" data-name="Trazado 657822" d="M222.641,400.665c0,.046-49.844.083-111.315.083C49.833,400.747,0,400.71,0,400.665s49.833-.083,111.326-.083c61.471,0,111.315.037,111.315.083" transform="translate(0 -273.27)" fill="#263238"/>
          </g>
        </g>
        <g id="Grupo_984827" data-name="Grupo 984827">
          <g id="Grupo_984826" data-name="Grupo 984826" clip-path="url(#clip-path)">
            <path id="Trazado_657823" data-name="Trazado 657823" d="M635.069,371.392a.8.8,0,0,0,0-1.589.8.8,0,0,0,0,1.589" transform="translate(-432.71 -252.273)" fill="#fff"/>
          </g>
        </g>
        <g id="Grupo_984829" data-name="Grupo 984829">
          <g id="Grupo_984828" data-name="Grupo 984828" clip-path="url(#clip-path)">
            <path id="Trazado_657824" data-name="Trazado 657824" d="M257.9,184H119.362a4.63,4.63,0,0,1-4.63-4.63V90.887a4.63,4.63,0,0,1,4.63-4.63H257.9a4.63,4.63,0,0,1,4.63,4.63v88.481A4.63,4.63,0,0,1,257.9,184" transform="translate(-78.268 -58.843)" fill="#455a64"/>
            <path id="Trazado_657825" data-name="Trazado 657825" d="M253.983,382.485H105.163a5.657,5.657,0,0,1-5.656-5.657v-2.9H259.64v2.9a5.657,5.657,0,0,1-5.656,5.657" transform="translate(-67.882 -255.091)" fill="#455a64"/>
            <path id="Trazado_657826" data-name="Trazado 657826" d="M301.414,371.048l1.987,3.161h27.961l1.845-3.161Z" transform="translate(-205.62 -253.123)" fill="#263238"/>
            <path id="Trazado_657827" data-name="Trazado 657827" d="M261.264,370.843c0,.053-32.805.1-73.262.1s-73.27-.043-73.27-.1,32.8-.1,73.27-.1,73.262.043,73.262.1" transform="translate(-78.268 -252.917)" fill="#263238"/>
            <path id="Trazado_657828" data-name="Trazado 657828" d="M265.768,186.248H129.089a1.04,1.04,0,0,1-1.04-1.04V104.981a1.04,1.04,0,0,1,1.04-1.04H265.768a1.04,1.04,0,0,1,1.04,1.04v80.227a1.04,1.04,0,0,1-1.04,1.04" transform="translate(-87.353 -70.907)" fill="#ebebeb"/>
            <path id="Trazado_657829" data-name="Trazado 657829" d="M266.341,199.572H127.581l.149-76.276h138.61Z" transform="translate(-87.034 -84.11)" fill="#fff"/>
            <path id="Trazado_657830" data-name="Trazado 657830" d="M159.1,111.565a1.108,1.108,0,1,1-1.108-1.108,1.108,1.108,0,0,1,1.108,1.108" transform="translate(-107.024 -75.352)" fill="#263238"/>
            <path id="Trazado_657831" data-name="Trazado 657831" d="M137.966,111.565a1.108,1.108,0,1,1-1.108-1.108,1.108,1.108,0,0,1,1.108,1.108" transform="translate(-92.606 -75.352)" fill="#263238"/>
            <path id="Trazado_657832" data-name="Trazado 657832" d="M148.11,111.565A1.108,1.108,0,1,1,147,110.457a1.108,1.108,0,0,1,1.108,1.108" transform="translate(-99.526 -75.352)" fill="#263238"/>
            <rect id="Rectángulo_344144" data-name="Rectángulo 344144" width="138.908" height="7.366" transform="translate(40.548 108.096)" fill="#263238"/>
            <path id="Trazado_657833" data-name="Trazado 657833" d="M141.6,351.63v.236H140.49v-.187l.6-.566c.146-.139.172-.227.172-.31,0-.137-.094-.217-.279-.217a.423.423,0,0,0-.352.157l-.195-.15a.693.693,0,0,1,.57-.249c.326,0,.536.165.536.431a.6.6,0,0,1-.249.474l-.4.382Z" transform="translate(-95.8 -238.999)" fill="#fff"/>
            <path id="Trazado_657834" data-name="Trazado 657834" d="M144.569,351.667a.176.176,0,1,1,.352,0,.176.176,0,1,1-.352,0m0,.817a.176.176,0,1,1,.352,0,.176.176,0,1,1-.352,0" transform="translate(-98.623 -239.78)" fill="#fff"/>
            <path id="Trazado_657835" data-name="Trazado 657835" d="M146.592,350.411v1.5h-.278v-1.267H146v-.234Z" transform="translate(-99.596 -239.044)" fill="#fff"/>
            <path id="Trazado_657836" data-name="Trazado 657836" d="M150.1,351.571h-.266v.341h-.27v-.341h-.823v-.193l.74-.967h.3l-.7.924h.491v-.3h.262v.3h.266Z" transform="translate(-101.467 -239.044)" fill="#fff"/>
            <rect id="Rectángulo_344145" data-name="Rectángulo 344145" width="113.854" height="0.519" transform="translate(51.083 111.926)" fill="#fff"/>
            <rect id="Rectángulo_344146" data-name="Rectángulo 344146" width="35.58" height="1.384" transform="translate(50.997 111.367)" fill="#f4a338"/>
            <path id="Trazado_657837" data-name="Trazado 657837" d="M268.589,349.271a1.732,1.732,0,1,1-1.732-1.732,1.732,1.732,0,0,1,1.732,1.732" transform="translate(-180.863 -237.085)" fill="#f4a338"/>
            <path id="Trazado_657838" data-name="Trazado 657838" d="M525.418,350.668a.5.5,0,0,1-.549.487c-.409,0-.65-.264-.65-.746a.711.711,0,0,1,.735-.8.755.755,0,0,1,.394.1l-.1.21a.509.509,0,0,0-.285-.073c-.283,0-.461.176-.461.517v0a.512.512,0,0,1,.4-.157.469.469,0,0,1,.517.461m-.27.013c0-.156-.118-.255-.3-.255a.273.273,0,0,0-.3.257c0,.141.111.253.311.253a.26.26,0,0,0,.294-.255" transform="translate(-357.614 -238.499)" fill="#fff"/>
            <path id="Trazado_657839" data-name="Trazado 657839" d="M528.417,350.937a.176.176,0,1,1,.352,0,.176.176,0,1,1-.352,0m0,.817a.176.176,0,1,1,.352,0,.176.176,0,1,1-.352,0" transform="translate(-360.477 -239.282)" fill="#fff"/>
            <path id="Trazado_657840" data-name="Trazado 657840" d="M530.088,350.384c0-.493.27-.772.626-.772s.628.279.628.772-.27.772-.628.772-.626-.279-.626-.772m.973,0c0-.362-.141-.529-.347-.529s-.345.167-.345.529.142.529.345.529.347-.167.347-.529" transform="translate(-361.617 -238.499)" fill="#fff"/>
            <path id="Trazado_657841" data-name="Trazado 657841" d="M534.621,350.384c0-.493.27-.772.626-.772s.628.279.628.772-.27.772-.628.772-.626-.279-.626-.772m.973,0c0-.362-.141-.529-.347-.529s-.345.167-.345.529.142.529.345.529.347-.167.347-.529" transform="translate(-364.709 -238.499)" fill="#fff"/>
            <path id="Trazado_657842" data-name="Trazado 657842" d="M545.082,348.535h-.519v-1.5h1.493v.519h-.974Z" transform="translate(-371.492 -236.744)" fill="#fff"/>
            <path id="Trazado_657843" data-name="Trazado 657843" d="M546.054,354.687h-1.5v-1.493h.519v.974h.977Z" transform="translate(-371.488 -240.943)" fill="#fff"/>
            <path id="Trazado_657844" data-name="Trazado 657844" d="M553.558,354.679h-1.494v-.519h.975v-.978h.519Z" transform="translate(-376.609 -240.935)" fill="#fff"/>
            <path id="Trazado_657845" data-name="Trazado 657845" d="M553.557,348.532h-.519v-.974h-.977v-.519h1.5Z" transform="translate(-376.607 -236.744)" fill="#fff"/>
            <path id="Trazado_657846" data-name="Trazado 657846" d="M161.121,137.566h-8.179l-4.089,7.083,4.089,7.083h8.179l4.089-7.083Z" transform="translate(-101.545 -93.845)" fill="#ebebeb"/>
            <path id="Trazado_657847" data-name="Trazado 657847" d="M160.9,147.354a7.3,7.3,0,0,1-1-1.289,2.454,2.454,0,0,1-.337-1.569c.052-.315.185-.614.207-.932.029-.438-.155-.9,0-1.306.243-.641,1.106-.74,1.629-1.183.408-.345.606-.905,1.055-1.2a1.981,1.981,0,0,1,1.357-.183,5.112,5.112,0,0,0,1.389.12,9.153,9.153,0,0,0,.963-.257,1.315,1.315,0,0,1,.971.066.632.632,0,0,1,.261.85,1.056,1.056,0,0,1,1.363.742,1.6,1.6,0,0,1-.6,1.566,3.512,3.512,0,0,1-1.621.661,6.781,6.781,0,0,1-4.837-.754" transform="translate(-108.832 -95.164)" fill="#263238"/>
            <path id="Trazado_657848" data-name="Trazado 657848" d="M170.844,151.869c-.055-1.014-.339-3.092-.618-4.97a3.919,3.919,0,0,0-4.137-3.335l-.2.014c-2.174.273-3.156,2.273-2.823,4.439l.638,7.8h5.306s-.126-1.369-.127-1.382a2.524,2.524,0,0,0,1.962-2.566" transform="translate(-111.196 -97.93)" fill="#ffbe9d"/>
            <path id="Trazado_657849" data-name="Trazado 657849" d="M175.529,176.418a4.889,4.889,0,0,1-2.787-.594,2.591,2.591,0,0,0,2.828,1.137Z" transform="translate(-117.842 -119.944)" fill="#eb996e"/>
            <path id="Trazado_657850" data-name="Trazado 657850" d="M182.33,159.2a.3.3,0,0,1-.269.322.287.287,0,0,1-.327-.249.3.3,0,0,1,.268-.322.287.287,0,0,1,.327.249" transform="translate(-123.975 -108.431)" fill="#263238"/>
            <path id="Trazado_657851" data-name="Trazado 657851" d="M181.989,156.8c-.035.042-.273-.111-.6-.089s-.548.2-.585.162c-.018-.016.015-.089.113-.171a.825.825,0,0,1,.466-.178.791.791,0,0,1,.477.119c.1.07.143.138.126.157" transform="translate(-123.341 -106.778)" fill="#263238"/>
            <path id="Trazado_657852" data-name="Trazado 657852" d="M172.747,159.883a.3.3,0,0,1-.269.322.287.287,0,0,1-.327-.25.3.3,0,0,1,.269-.322.288.288,0,0,1,.327.25" transform="translate(-117.438 -108.898)" fill="#263238"/>
            <path id="Trazado_657853" data-name="Trazado 657853" d="M172.03,157.657c-.035.042-.273-.111-.6-.089s-.548.2-.585.162c-.018-.016.015-.089.113-.171a.825.825,0,0,1,.466-.179.794.794,0,0,1,.477.12c.1.07.143.138.126.157" transform="translate(-116.548 -107.362)" fill="#263238"/>
            <path id="Trazado_657854" data-name="Trazado 657854" d="M178.051,159.785a2.139,2.139,0,0,1,.517-.13c.082-.014.159-.036.168-.092a.417.417,0,0,0-.071-.24l-.285-.611a10.781,10.781,0,0,1-.656-1.6,10.851,10.851,0,0,1,.784,1.547l.276.615a.48.48,0,0,1,.064.32.206.206,0,0,1-.127.129.557.557,0,0,1-.139.029,2.112,2.112,0,0,1-.531.036" transform="translate(-121.238 -107.177)" fill="#263238"/>
            <path id="Trazado_657855" data-name="Trazado 657855" d="M171.433,153.824c-.026.09-.351.07-.726.141s-.674.195-.73.119c-.025-.036.023-.122.14-.215a1.283,1.283,0,0,1,1.109-.2c.143.046.217.111.206.153" transform="translate(-115.951 -104.798)" fill="#263238"/>
            <path id="Trazado_657856" data-name="Trazado 657856" d="M181.6,153.846c-.052.077-.279.016-.546.03s-.49.082-.547.009c-.025-.036.005-.111.1-.187a.792.792,0,0,1,.881-.031c.1.069.135.142.113.18" transform="translate(-123.132 -104.747)" fill="#263238"/>
            <path id="Trazado_657857" data-name="Trazado 657857" d="M161.194,162.359c-.037-.013-1.47-.33-1.328,1.1s1.693.965,1.691.923-.363-2.025-.363-2.025" transform="translate(-109.051 -110.732)" fill="#ffbe9d"/>
            <path id="Trazado_657858" data-name="Trazado 657858" d="M161.718,164.959c-.007,0-.023.02-.064.044a.251.251,0,0,1-.186.022.62.62,0,0,1-.34-.525.824.824,0,0,1,.034-.364.289.289,0,0,1,.168-.21.128.128,0,0,1,.154.054c.023.038.017.067.024.069s.029-.027.011-.085a.161.161,0,0,0-.065-.084.191.191,0,0,0-.142-.023.353.353,0,0,0-.238.248.856.856,0,0,0-.047.408.651.651,0,0,0,.425.582.268.268,0,0,0,.224-.06c.041-.04.045-.072.04-.075" transform="translate(-109.846 -111.777)" fill="#eb996e"/>
            <path id="Trazado_657859" data-name="Trazado 657859" d="M169.621,144.156c-.1.57-1.254,1.092-2.212,1.064a4.244,4.244,0,0,1-1.961-.775c-.406-.2-.406-.2-.957-.108-.446.072-.677.6-.927.974a5.7,5.7,0,0,1,.082,3.373.571.571,0,0,1-.145.342.457.457,0,0,1-.58-.088,1.778,1.778,0,0,1-.452-.909,5.918,5.918,0,0,1-.142-2.327,4.027,4.027,0,0,1,.968-2.1,3.813,3.813,0,0,1,2.6-1.187,4.683,4.683,0,0,1,2.775.788,2.741,2.741,0,0,1,.949.956" transform="translate(-110.697 -97.148)" fill="#263238"/>
            <path id="Trazado_657860" data-name="Trazado 657860" d="M176.963,167.006l-.729-.34a.248.248,0,0,0-.133-.033.213.213,0,0,0-.126.086.678.678,0,0,0-.081.746.57.57,0,0,0,.685.251.777.777,0,0,0,.4-.687Z" transform="translate(-119.939 -113.673)" fill="#eb996e"/>
            <path id="Trazado_657861" data-name="Trazado 657861" d="M176.352,167.512c.011.014-.152.117-.428.038a.668.668,0,0,1-.378-.307.7.7,0,0,1-.048-.6.725.725,0,0,1,.177-.265.665.665,0,0,1,.124-.093.21.21,0,0,1,.192-.011c.167.093.279.172.391.244.214.142.34.239.329.259s-.159-.042-.388-.158l-.389-.2c-.03-.008-.027-.008-.056.007a.556.556,0,0,0-.09.072.6.6,0,0,0-.134.208.566.566,0,0,0,.027.466.589.589,0,0,0,.285.271,1.547,1.547,0,0,0,.387.071" transform="translate(-119.69 -113.418)" fill="#263238"/>
            <path id="Trazado_657862" data-name="Trazado 657862" d="M170.966,156.492c-.016,0-.014-.133-.078-.357a1.5,1.5,0,0,0-.548-.785,1.423,1.423,0,1,0,0,2.283,1.493,1.493,0,0,0,.548-.785c.064-.224.062-.358.078-.357s.01.033.012.1a1.113,1.113,0,0,1-.027.277,1.488,1.488,0,0,1-.539.862,1.547,1.547,0,0,1-1.475.241,1.566,1.566,0,0,1,0-2.951,1.549,1.549,0,0,1,1.475.241,1.489,1.489,0,0,1,.539.862,1.112,1.112,0,0,1,.027.276c0,.064-.006.1-.012.1" transform="translate(-114.534 -105.689)" fill="#263238"/>
            <path id="Trazado_657863" data-name="Trazado 657863" d="M182.362,156.134c-.016,0-.014-.13-.077-.348a1.452,1.452,0,0,0-.534-.763,1.385,1.385,0,1,0,0,2.222,1.453,1.453,0,0,0,.534-.763c.063-.218.061-.348.077-.348s.01.032.012.094a1.075,1.075,0,0,1-.026.27,1.452,1.452,0,0,1-.525.841,1.511,1.511,0,0,1-1.439.236,1.527,1.527,0,0,1,0-2.879,1.511,1.511,0,0,1,1.439.235,1.451,1.451,0,0,1,.525.841,1.09,1.09,0,0,1,.026.27c0,.062-.006.094-.012.094" transform="translate(-122.36 -105.47)" fill="#263238"/>
            <path id="Trazado_657864" data-name="Trazado 657864" d="M178.046,157.9c-.033.031-.174-.061-.365-.055s-.329.1-.363.068.09-.229.36-.234.41.2.368.221" transform="translate(-120.958 -107.567)" fill="#263238"/>
            <path id="Trazado_657865" data-name="Trazado 657865" d="M165.56,159.174c.027.037-.25.29-.62.566a2.178,2.178,0,0,1-.719.434c-.027-.037.25-.29.62-.566a2.179,2.179,0,0,1,.719-.434" transform="translate(-112.028 -108.583)" fill="#263238"/>
            <path id="Trazado_657866" data-name="Trazado 657866" d="M226,159.448c0,.046-3.676.083-8.211.083s-8.212-.037-8.212-.083,3.676-.083,8.212-.083,8.211.037,8.211.083" transform="translate(-142.972 -108.716)" fill="#263238"/>
            <path id="Trazado_657867" data-name="Trazado 657867" d="M218.639,164.856c0,.046-1.952.083-4.36.083s-4.36-.037-4.36-.083,1.952-.083,4.36-.083,4.36.037,4.36.083" transform="translate(-143.203 -112.405)" fill="#263238"/>
          </g>
        </g>
        <g id="Grupo_984849" data-name="Grupo 984849">
          <g id="Grupo_984848" data-name="Grupo 984848" clip-path="url(#clip-path)">
            <path id="Trazado_657868" data-name="Trazado 657868" d="M407.726,199.581a12.522,12.522,0,0,1,5.9,7.618c1.533,5.491,6.228,19.793,6.228,19.793s2.683,3.156,2.97,5.493-.287,7.99-1.15,9.044a2.429,2.429,0,0,1-2.092.879l-11.291-1.071-4.446-29.771Z" transform="translate(-275.494 -136.151)" fill="#4adbd1"/>
            <path id="Trazado_657869" data-name="Trazado 657869" d="M276.926,189.395s-8.074,2.532-10.086,4.736l6.611,30.754-.106,9.7h38.277c0-.479.344-32.218.344-32.218l2.3-12.455-13.6-2.4-2.683-2.108-15.138.767-2.3,2.3Z" transform="translate(-182.034 -126.485)" fill="#4adbd1"/>
            <g id="Grupo_984832" data-name="Grupo 984832" transform="translate(91.339 88.979)" opacity="0.3">
              <g id="Grupo_984831" data-name="Grupo 984831">
                <g id="Grupo_984830" data-name="Grupo 984830" clip-path="url(#clip-path-7)">
                  <path id="Trazado_657870" data-name="Trazado 657870" d="M294.014,280.582c-.118-.261-.287-.543-.567-.6-.461-.095-.769.45-.926.894a40.434,40.434,0,0,1-5.028,9.818l-.1,4.722a24.266,24.266,0,0,0,5.854-6.435,9.528,9.528,0,0,0,.766-8.4" transform="translate(-287.394 -279.97)"/>
                </g>
              </g>
            </g>
            <path id="Trazado_657871" data-name="Trazado 657871" d="M234.088,212.845a47.787,47.787,0,0,0-3.765,5.994c-1.1,2.367-10.258,22.252-10.81,24.3s-1.973,8.522,2.209,10.021h8.6l8.633-17.456.441-20.261Z" transform="translate(-149.282 -145.199)" fill="#4adbd1"/>
            <path id="Trazado_657872" data-name="Trazado 657872" d="M234.243,297.044c-.011.013-.192-.169-.588-.394A6.6,6.6,0,0,0,231.85,296a8.652,8.652,0,0,0-1.316-.185,5.231,5.231,0,0,0-1.508.1,5.624,5.624,0,0,0-2.9,1.818,7.85,7.85,0,0,0-1.64,3.048,15.183,15.183,0,0,0-.517,2.814c-.08.813-.111,1.476-.139,1.933-.013.214-.025.388-.033.527a.093.093,0,1,1-.033,0c0-.139,0-.313,0-.528.009-.458.021-1.123.087-1.941a14.545,14.545,0,0,1,.488-2.846,7.874,7.874,0,0,1,1.662-3.115,5.716,5.716,0,0,1,2.986-1.857,5.305,5.305,0,0,1,1.551-.086,8.43,8.43,0,0,1,1.333.208,6.211,6.211,0,0,1,1.812.713,3.085,3.085,0,0,1,.427.316.783.783,0,0,1,.128.134" transform="translate(-152.651 -201.69)" fill="#263238"/>
            <path id="Trazado_657873" data-name="Trazado 657873" d="M243.894,288.947a.994.994,0,0,1,.289-.046,4.9,4.9,0,0,1,.8-.011,6.594,6.594,0,0,1,1.173.174,6.979,6.979,0,0,1,2.61,1.245,6.567,6.567,0,0,1,.873.8,4.914,4.914,0,0,1,.494.627.985.985,0,0,1,.146.254c-.025.018-.259-.327-.724-.8a7.524,7.524,0,0,0-.879-.761,7.475,7.475,0,0,0-2.556-1.219,7.52,7.52,0,0,0-1.145-.2c-.661-.064-1.076-.028-1.078-.059" transform="translate(-166.38 -197.068)" fill="#263238"/>
            <path id="Trazado_657874" data-name="Trazado 657874" d="M247.086,285.364a1.878,1.878,0,0,1-.4-.03c-.254-.033-.622-.07-1.077-.1a18.359,18.359,0,0,0-7.035.842c-.434.14-.783.263-1.022.355a1.845,1.845,0,0,1-.379.123,1.845,1.845,0,0,1,.355-.183c.232-.11.577-.251,1.009-.406a16.263,16.263,0,0,1,7.083-.847c.457.049.825.1,1.077.156a1.849,1.849,0,0,1,.388.094" transform="translate(-161.796 -194.443)" fill="#263238"/>
            <path id="Trazado_657875" data-name="Trazado 657875" d="M321.229,207a.556.556,0,0,1-.088-.1l-.234-.314-.865-1.2-3-4.227.133-.019-1.513,4.443-.034.1-.087-.056-.179-.115a9.175,9.175,0,0,1-1.873-1.581,11.149,11.149,0,0,1-1.337-1.849,15.429,15.429,0,0,1-1.471-3.557,24.041,24.041,0,0,1-.557-2.534l-.12-.693c-.014-.079-.031-.137-.04-.177a.2.2,0,0,1-.02-.059,2.9,2.9,0,0,1,.244.917c.124.6.3,1.467.606,2.513A15.779,15.779,0,0,0,312.289,202a11.147,11.147,0,0,0,1.326,1.817,9.1,9.1,0,0,0,1.841,1.55l.175.113-.121.044,1.526-4.438.049-.142.085.123,2.946,4.261.83,1.222.215.328a.563.563,0,0,1,.067.118" transform="translate(-211.441 -133.064)" fill="#263238"/>
            <g id="Grupo_984835" data-name="Grupo 984835" transform="translate(119.669 88.614)" opacity="0.3">
              <g id="Grupo_984834" data-name="Grupo 984834">
                <g id="Grupo_984833" data-name="Grupo 984833" clip-path="url(#clip-path-8)">
                  <path id="Trazado_657876" data-name="Trazado 657876" d="M376.619,278.822a18.054,18.054,0,0,0,9.854,17.654c.105-3.156-.047-6.874.058-10.031Z" transform="translate(-376.536 -278.822)"/>
                </g>
              </g>
            </g>
            <path id="Trazado_657877" data-name="Trazado 657877" d="M374.086,249.579s-1.39.386-.348,3.234,1.39,2.676,2.085,5.341,1.506,5.1,2.723,6.6,5.735,4.577,5.735,4.577l4.055-3.823a19.426,19.426,0,0,1-.508-4.785c.16-1.935.566-6.686.508-7.5a13.69,13.69,0,0,0-.927-2.781V249.1l-2.086-6.415s-1.158-.522-1.564,1.332l-.7-1.968s-1.1-.176-1.39,2.084a22.714,22.714,0,0,0,.232,5.388l-.579,3.939-.869,2.665-.753.116s-1.134-.31-1.754-2.443-2.3-4.682-3.865-4.219" transform="translate(-254.694 -165.12)" fill="#ffbe9d"/>
            <path id="Trazado_657878" data-name="Trazado 657878" d="M406.537,280.116a.623.623,0,0,1-.019-.146c-.008-.11-.017-.251-.029-.424-.021-.389-.05-.926-.086-1.6-.062-1.383-.149-3.309-.251-5.555l.018.047a.813.813,0,0,0-.821-.214,1.2,1.2,0,0,0-.752.551,5.408,5.408,0,0,0-.484,2.03c-.22,1.624-.429,3.17-.62,4.579-.1.7-.2,1.374-.336,1.993a13.012,13.012,0,0,1-.5,1.69,14.253,14.253,0,0,0-.436,1.376,4.227,4.227,0,0,0-.131,1.073,3.356,3.356,0,0,0,.161.909,1.294,1.294,0,0,1-.1-.222,2.515,2.515,0,0,1-.127-.684,4.1,4.1,0,0,1,.105-1.1,13.359,13.359,0,0,1,.416-1.393,13.3,13.3,0,0,0,.479-1.681c.13-.615.226-1.281.318-1.985l.607-4.58c.051-.362.09-.72.153-1.076a2.824,2.824,0,0,1,.358-1.018,1.361,1.361,0,0,1,.853-.619.968.968,0,0,1,.976.269l.017.021v.026c.077,2.248.143,4.174.191,5.558.017.67.031,1.208.041,1.6,0,.174,0,.315,0,.425a.646.646,0,0,1-.007.147" transform="translate(-274.251 -185.581)" fill="#eb996e"/>
            <path id="Trazado_657879" data-name="Trazado 657879" d="M407.461,262.608a1.644,1.644,0,0,1-.171-.363,9.25,9.25,0,0,1-.339-1.038,10.47,10.47,0,0,1-.291-1.6,4.661,4.661,0,0,1-.017-.967,2.067,2.067,0,0,1,.35-.993,1.419,1.419,0,0,1,.742-.557l.062-.018.032.056c.587,1.036,1.1,1.951,1.456,2.609l.416.777a.161.161,0,1,1-.051.029l-.458-.754c-.384-.644-.911-1.548-1.5-2.581l.094.038a1.264,1.264,0,0,0-.652.5,1.931,1.931,0,0,0-.324.915,4.657,4.657,0,0,0,.008.935,11.764,11.764,0,0,0,.253,1.583c.1.446.211.8.287,1.045a2.127,2.127,0,0,1,.11.384" transform="translate(-277.392 -175.372)" fill="#eb996e"/>
            <path id="Trazado_657880" data-name="Trazado 657880" d="M405.841,256a1.6,1.6,0,0,1-.037-.369l-.041-1.008c-.027-.852-.054-2.028-.072-3.328a28.648,28.648,0,0,1,.051-3.334,5.1,5.1,0,0,1,.217-.992,1.242,1.242,0,0,1,.149-.342,9.361,9.361,0,0,0-.25,1.346c-.081.842-.012,2.019,0,3.32s.027,2.476.024,3.329c0,.4-.009.735-.011,1.009a1.608,1.608,0,0,1-.027.37" transform="translate(-276.742 -168.246)" fill="#eb996e"/>
            <path id="Trazado_657881" data-name="Trazado 657881" d="M395.416,295.652c-.024-.019.23-.318.544-.86a7.156,7.156,0,0,0,.472-.989,7.078,7.078,0,0,0,.474-2.625,7.121,7.121,0,0,0-.1-1.092c-.1-.617-.238-.986-.209-1a.88.88,0,0,1,.115.251,4.617,4.617,0,0,1,.208.723,6.216,6.216,0,0,1,.134,1.11,6.589,6.589,0,0,1-.485,2.684,6.235,6.235,0,0,1-.513.994,4.6,4.6,0,0,1-.448.6c-.118.133-.187.2-.2.195" transform="translate(-269.745 -197.213)" fill="#eb996e"/>
            <path id="Trazado_657882" data-name="Trazado 657882" d="M410.948,303.464l3.519,1.221s3.36-1.738,5.678,0,4.33,6.318,3.693,8.172c0,0-1.6,1.974-2.816,2.264s-5.946-.856-7.914-1.27a22.718,22.718,0,0,1-5.361-2.62Z" transform="translate(-278.158 -207.018)" fill="#ffbe9d"/>
            <path id="Trazado_657883" data-name="Trazado 657883" d="M418.765,302.737a1.155,1.155,0,0,1-.037-.311l-.05-.85c-.037-.718-.086-1.711-.1-2.81a27.8,27.8,0,0,1,.081-2.814c.031-.359.07-.649.106-.848a1.128,1.128,0,0,1,.073-.305c.026,0-.029.445-.063,1.161s-.049,1.708-.032,2.8c.02,1.074.038,2.045.052,2.808,0,.36,0,.651,0,.852a1.15,1.15,0,0,1-.027.313" transform="translate(-285.543 -201.107)" fill="#eb996e"/>
            <path id="Trazado_657884" data-name="Trazado 657884" d="M435.121,301.493a11.129,11.129,0,0,0-1.17-1.055,6.438,6.438,0,0,0-7.134-.393,11.111,11.111,0,0,0-1.279.92,1.76,1.76,0,0,1,.29-.314,5.72,5.72,0,0,1,.929-.706,6.326,6.326,0,0,1,7.264.4,5.713,5.713,0,0,1,.846.8,1.763,1.763,0,0,1,.254.344" transform="translate(-290.295 -203.964)" fill="#263238"/>
            <path id="Trazado_657885" data-name="Trazado 657885" d="M432.385,294.776a6.911,6.911,0,0,0-1.464-.807,6.478,6.478,0,0,0-3.962-.119,9.227,9.227,0,0,0-2.049.853,9.727,9.727,0,0,0-1.484,1.049c-.4.337-.7.631-.9.836a2.562,2.562,0,0,1-.332.31,2.263,2.263,0,0,1,.285-.355,11.119,11.119,0,0,1,.874-.88,9.121,9.121,0,0,1,1.485-1.092,8.915,8.915,0,0,1,2.081-.88,6.357,6.357,0,0,1,4.049.169,4.649,4.649,0,0,1,1.083.611,2.967,2.967,0,0,1,.258.219c.057.052.085.082.081.086" transform="translate(-288.011 -200.181)" fill="#263238"/>
            <path id="Trazado_657886" data-name="Trazado 657886" d="M430.977,288.435c-.009.033-.624-.155-1.646-.294a13.2,13.2,0,0,0-1.8-.114,13.1,13.1,0,0,0-4.34.764,13.249,13.249,0,0,0-1.656.723c-.913.479-1.427.866-1.447.838a2.3,2.3,0,0,1,.352-.282,5.067,5.067,0,0,1,.437-.3c.175-.108.371-.242.6-.36a11.937,11.937,0,0,1,1.66-.764,12.429,12.429,0,0,1,4.392-.773,11.962,11.962,0,0,1,1.821.151c.258.033.487.091.689.134a4.877,4.877,0,0,1,.513.132,2.336,2.336,0,0,1,.427.144" transform="translate(-286.574 -196.383)" fill="#263238"/>
            <path id="Trazado_657887" data-name="Trazado 657887" d="M350.936,191.714a2.938,2.938,0,0,1,.244.936,9.129,9.129,0,0,1-.133,2.73,16.275,16.275,0,0,1-.455,1.9,14.438,14.438,0,0,1-.924,2.114c-.758,1.462-1.712,3.055-2.816,4.755l-.129.2v-.237c0-1.123,0-2.3-.005-3.527l.124.059-2.968,2.4L343.9,203a31.254,31.254,0,0,0-1.32,7.135,83.053,83.053,0,0,0,.126,10.923c.157,3.361.259,6.387.364,8.928s.193,4.6.269,6.017c.042.7.074,1.253.1,1.635.012.181.022.322.028.425s0,.145,0,.145-.01-.048-.021-.144-.025-.243-.044-.424c-.035-.373-.081-.924-.128-1.633-.1-1.419-.206-3.475-.322-6.016s-.249-5.568-.4-8.926a81.67,81.67,0,0,1-.139-10.943,31.19,31.19,0,0,1,1.333-7.171l.007-.023.019-.015,2.973-2.39.124-.1v.159c0,1.224,0,2.4-.005,3.527l-.129-.039c2.183-3.386,3.959-6.328,4.232-8.709a9.408,9.408,0,0,0,.171-2.71,4.582,4.582,0,0,0-.13-.7c-.05-.154-.071-.236-.071-.236" transform="translate(-233.495 -130.784)" fill="#263238"/>
            <path id="Trazado_657888" data-name="Trazado 657888" d="M349.475,320.7l-.113,0a.9.9,0,1,0,.113,0" transform="translate(-237.735 -218.775)" fill="#fff"/>
            <path id="Trazado_657889" data-name="Trazado 657889" d="M349.475,282.16l-.113,0a.9.9,0,1,0,.113,0" transform="translate(-237.735 -192.482)" fill="#fff"/>
            <path id="Trazado_657890" data-name="Trazado 657890" d="M349.356,243.839a.9.9,0,0,0,.119-1.788l-.113,0a.9.9,0,0,0-.005,1.792" transform="translate(-237.735 -165.12)" fill="#fff"/>
            <path id="Trazado_657891" data-name="Trazado 657891" d="M299.127,95.142a22.28,22.28,0,0,1-3.051-3.931,7.481,7.481,0,0,1-1.027-4.783c.157-.959.565-1.873.63-2.843.089-1.335-.472-2.729,0-3.981.74-1.955,3.372-2.257,4.967-3.608,1.243-1.052,1.848-2.76,3.215-3.644A6.039,6.039,0,0,1,308,71.8a15.625,15.625,0,0,0,4.236.365,27.946,27.946,0,0,0,2.936-.785,4.006,4.006,0,0,1,2.959.2,1.925,1.925,0,0,1,.794,2.589c1.634-.753,3.709.52,4.156,2.263a4.893,4.893,0,0,1-1.832,4.774,10.719,10.719,0,0,1-4.942,2.017c-5.005.943-10.434.411-14.747-2.3" transform="translate(-201.227 -48.565)" fill="#263238"/>
            <path id="Trazado_657892" data-name="Trazado 657892" d="M323.929,120.406c-.244-1.895-.444-3.475-.457-3.672,0,0,6.332-1.423,5.983-7.825-.169-3.094-1.035-9.438-1.885-15.168a11.943,11.943,0,0,0-12.613-10.156l-.617.041c-6.629.834-9.624,6.93-8.607,13.534l3.577,22.143s1.526,4.9,4.791,5.746l4.12,5.886.681-2.534,3.071-2.674a12.1,12.1,0,0,0,1.514-2.254,4.933,4.933,0,0,0,.442-3.067" transform="translate(-208.433 -57.002)" fill="#ffbe9d"/>
            <path id="Trazado_657893" data-name="Trazado 657893" d="M343.74,183.764a14.908,14.908,0,0,1-8.5-1.812s2.279,4.472,8.624,3.469Z" transform="translate(-228.696 -124.125)" fill="#eb996e"/>
            <path id="Trazado_657894" data-name="Trazado 657894" d="M364.48,131.259a.915.915,0,0,1-.819.98.876.876,0,0,1-1-.761.916.916,0,0,1,.818-.981.876.876,0,0,1,1,.761" transform="translate(-247.4 -89.019)" fill="#263238"/>
            <path id="Trazado_657895" data-name="Trazado 657895" d="M363.439,123.95c-.105.126-.831-.339-1.815-.271s-1.67.608-1.785.495c-.056-.05.045-.272.344-.522a2.51,2.51,0,0,1,1.419-.543,2.41,2.41,0,0,1,1.454.364c.318.212.434.42.382.477" transform="translate(-245.467 -83.979)" fill="#263238"/>
            <path id="Trazado_657896" data-name="Trazado 657896" d="M335.26,133.348a.916.916,0,0,1-.819.98.875.875,0,0,1-1-.761.916.916,0,0,1,.818-.981.876.876,0,0,1,1,.761" transform="translate(-227.467 -90.444)" fill="#263238"/>
            <path id="Trazado_657897" data-name="Trazado 657897" d="M333.074,126.56c-.105.127-.833-.339-1.815-.271s-1.67.608-1.785.495c-.056-.05.044-.272.344-.522a2.51,2.51,0,0,1,1.419-.544,2.414,2.414,0,0,1,1.454.364c.317.212.434.42.382.477" transform="translate(-224.752 -85.76)" fill="#263238"/>
            <path id="Trazado_657898" data-name="Trazado 657898" d="M351.432,133.048a6.508,6.508,0,0,1,1.577-.395c.249-.043.483-.109.514-.283a1.278,1.278,0,0,0-.217-.733l-.87-1.862a32.935,32.935,0,0,1-2-4.888,32.936,32.936,0,0,1,2.39,4.716q.44.982.84,1.875a1.458,1.458,0,0,1,.2.976.631.631,0,0,1-.388.395,1.707,1.707,0,0,1-.422.088,6.407,6.407,0,0,1-1.618.111" transform="translate(-239.054 -85.195)" fill="#263238"/>
            <path id="Trazado_657899" data-name="Trazado 657899" d="M331.253,114.874c-.079.274-1.069.213-2.213.429-1.149.193-2.056.593-2.225.364-.076-.11.07-.373.428-.657a3.919,3.919,0,0,1,3.381-.6c.435.142.662.338.629.468" transform="translate(-222.934 -77.943)" fill="#263238"/>
            <path id="Trazado_657900" data-name="Trazado 657900" d="M362.25,114.939c-.158.235-.851.048-1.666.092-.816.015-1.494.251-1.668.028-.077-.109.017-.339.3-.571a2.416,2.416,0,0,1,2.686-.1c.3.21.413.434.344.548" transform="translate(-244.829 -77.789)" fill="#263238"/>
            <path id="Trazado_657901" data-name="Trazado 657901" d="M300.031,140.9c-.112-.04-4.482-1.006-4.05,3.358s5.162,2.942,5.157,2.816-1.107-6.174-1.107-6.174" transform="translate(-201.893 -96.037)" fill="#ffbe9d"/>
            <path id="Trazado_657902" data-name="Trazado 657902" d="M301.63,148.823c-.021-.012-.071.061-.194.133a.763.763,0,0,1-.567.068,1.89,1.89,0,0,1-1.038-1.6,2.528,2.528,0,0,1,.105-1.11.882.882,0,0,1,.514-.64.389.389,0,0,1,.469.164c.07.116.051.206.075.211s.086-.082.033-.259a.488.488,0,0,0-.2-.256.576.576,0,0,0-.431-.07,1.074,1.074,0,0,0-.727.755,2.6,2.6,0,0,0-.143,1.243,1.983,1.983,0,0,0,1.3,1.775.818.818,0,0,0,.684-.184c.125-.121.138-.221.122-.228" transform="translate(-204.319 -99.222)" fill="#eb996e"/>
            <path id="Trazado_657903" data-name="Trazado 657903" d="M325.729,85.392c-.3,1.737-3.823,3.329-6.744,3.244-2.693-.078-4.023-1.415-5.98-2.364-1.239-.6-1.239-.6-2.919-.328-1.359.221-2.064,1.824-2.827,2.97,1.453,3.168.866,6.853.25,10.284a1.741,1.741,0,0,1-.442,1.043,1.392,1.392,0,0,1-1.769-.268,5.416,5.416,0,0,1-1.377-2.772,18.031,18.031,0,0,1-.432-7.1,12.275,12.275,0,0,1,2.952-6.407,11.631,11.631,0,0,1,7.933-3.62,14.282,14.282,0,0,1,8.462,2.4,8.368,8.368,0,0,1,2.892,2.914" transform="translate(-206.913 -54.615)" fill="#263238"/>
            <path id="Trazado_657904" data-name="Trazado 657904" d="M348.114,155.068l-2.224-1.037a.748.748,0,0,0-.4-.1.647.647,0,0,0-.385.261,2.069,2.069,0,0,0-.246,2.273,1.737,1.737,0,0,0,2.087.768,2.37,2.37,0,0,0,1.233-2.093Z" transform="translate(-235.094 -105.005)" fill="#eb996e"/>
            <path id="Trazado_657905" data-name="Trazado 657905" d="M346.436,156.779c.006.019-.1.083-.325.13a1.925,1.925,0,0,1-.957-.071,2,2,0,0,1-1.1-.918,2.05,2.05,0,0,1-.135-1.754,2.144,2.144,0,0,1,.516-.778,1.982,1.982,0,0,1,.361-.273.539.539,0,0,1,.515-.032,3.232,3.232,0,0,1,.346.2l.3.186.542.339a4.854,4.854,0,0,1,1.033.737,4.863,4.863,0,0,1-1.151-.535l-.562-.3-.311-.172a3.453,3.453,0,0,0-.315-.166.235.235,0,0,0-.243.023,1.745,1.745,0,0,0-.293.232,1.89,1.89,0,0,0-.433.663,1.8,1.8,0,0,0,.094,1.49,1.836,1.836,0,0,0,.919.845,2.176,2.176,0,0,0,.861.161c.212-.005.332-.026.339,0" transform="translate(-234.518 -104.396)" fill="#263238"/>
            <path id="Trazado_657906" data-name="Trazado 657906" d="M330.194,123.329a7.858,7.858,0,0,0-.174-1.105,4.54,4.54,0,0,0-1.662-2.471,4.485,4.485,0,0,0-4.249-.632,4.493,4.493,0,0,0-2.078,1.563,4.459,4.459,0,0,0,0,5.291,4.491,4.491,0,0,0,2.079,1.563,4.519,4.519,0,0,0,5.91-3.1,7.852,7.852,0,0,0,.174-1.1.246.246,0,0,1,0,.074c0,.059,0,.13,0,.217a2.1,2.1,0,0,1-.028.353,3.22,3.22,0,0,1-.086.476,4.305,4.305,0,0,1-.493,1.23,4.6,4.6,0,0,1-3.1,2.194,4.633,4.633,0,0,1-2.432-.192,4.629,4.629,0,0,1-2.157-1.611,4.607,4.607,0,0,1,0-5.483,4.633,4.633,0,0,1,2.157-1.61,4.632,4.632,0,0,1,2.432-.192,4.6,4.6,0,0,1,3.1,2.193,4.3,4.3,0,0,1,.493,1.23,3.217,3.217,0,0,1,.086.476,2.1,2.1,0,0,1,.028.353c0,.087,0,.159,0,.217a.246.246,0,0,1,0,.074" transform="translate(-218.978 -80.979)" fill="#263238"/>
            <path id="Trazado_657907" data-name="Trazado 657907" d="M364.939,122.233a7.859,7.859,0,0,0-.17-1.076,4.427,4.427,0,0,0-1.619-2.407,4.368,4.368,0,0,0-4.138-.616,4.373,4.373,0,0,0-2.024,1.522,4.342,4.342,0,0,0,0,5.153,4.379,4.379,0,0,0,2.024,1.523,4.4,4.4,0,0,0,5.758-3.023,7.858,7.858,0,0,0,.17-1.076,1.8,1.8,0,0,1,0,.284,2.043,2.043,0,0,1-.027.344,3.129,3.129,0,0,1-.083.464,4.47,4.47,0,0,1-3.5,3.338,4.515,4.515,0,0,1-2.371-.187,4.515,4.515,0,0,1-2.1-1.57,4.491,4.491,0,0,1,0-5.345,4.514,4.514,0,0,1,2.1-1.57,4.513,4.513,0,0,1,2.371-.187,4.471,4.471,0,0,1,3.5,3.338,3.122,3.122,0,0,1,.083.464,2.043,2.043,0,0,1,.027.344,1.8,1.8,0,0,1,0,.284" transform="translate(-242.84 -80.311)" fill="#263238"/>
            <path id="Trazado_657908" data-name="Trazado 657908" d="M351.467,127.665c-.018.018-.123-.07-.316-.161a1.82,1.82,0,0,0-.8-.176,1.8,1.8,0,0,0-.794.2c-.189.1-.29.192-.309.174s.058-.139.248-.274a1.57,1.57,0,0,1,1.712-.03c.194.127.274.25.259.263" transform="translate(-238.25 -86.748)" fill="#263238"/>
            <path id="Trazado_657909" data-name="Trazado 657909" d="M313.357,131.213a39.349,39.349,0,0,1-4.082,3.048,39.216,39.216,0,0,1,4.082-3.048" transform="translate(-210.982 -89.51)" fill="#263238"/>
            <g id="Grupo_984838" data-name="Grupo 984838" transform="translate(98.544 62.388)" opacity="0.3">
              <g id="Grupo_984837" data-name="Grupo 984837">
                <g id="Grupo_984836" data-name="Grupo 984836" clip-path="url(#clip-path-9)">
                  <path id="Trazado_657910" data-name="Trazado 657910" d="M310.136,196.3a12.822,12.822,0,0,0,4.657,11.48,1.052,1.052,0,0,0,.932.293,1.027,1.027,0,0,0,.483-.5,8.425,8.425,0,0,0,1.031-5.542c-.548,1.443-1.018,2.858-1.571,4.367-3.014-1.83-4.893-5.722-5.533-10.1" transform="translate(-310.066 -196.3)"/>
                </g>
              </g>
            </g>
            <g id="Grupo_984841" data-name="Grupo 984841" transform="translate(110.326 61.993)" opacity="0.3">
              <g id="Grupo_984840" data-name="Grupo 984840">
                <g id="Grupo_984839" data-name="Grupo 984839" clip-path="url(#clip-path-10)">
                  <path id="Trazado_657911" data-name="Trazado 657911" d="M347.138,205.26l2.538-.927.42,4.293s2.739-4.993,3.873-7.27.55-6.3.55-6.3.406,3.5-2.339,7.968l-2.072,3.368v-3.526Z" transform="translate(-347.138 -195.058)"/>
                </g>
              </g>
            </g>
            <g id="Grupo_984844" data-name="Grupo 984844" transform="translate(71.843 93.489)" opacity="0.3">
              <g id="Grupo_984843" data-name="Grupo 984843">
                <g id="Grupo_984842" data-name="Grupo 984842" clip-path="url(#clip-path-11)">
                  <path id="Trazado_657912" data-name="Trazado 657912" d="M235,294.686a6.785,6.785,0,0,0-3.678-.461,7.093,7.093,0,0,0-3.661,1.385,4.086,4.086,0,0,0-1.6,3.455l.127.018c.885-2.4,2.647-4.142,4.919-4.353a7.463,7.463,0,0,1,6.048,2.465A3.254,3.254,0,0,0,235,294.686" transform="translate(-226.052 -294.159)"/>
                </g>
              </g>
            </g>
            <g id="Grupo_984847" data-name="Grupo 984847" transform="translate(135.594 94.674)" opacity="0.3">
              <g id="Grupo_984846" data-name="Grupo 984846">
                <g id="Grupo_984845" data-name="Grupo 984845" clip-path="url(#clip-path-12)">
                  <path id="Trazado_657913" data-name="Trazado 657913" d="M436.039,299.681a5.816,5.816,0,0,0-3.279-1.689,7.368,7.368,0,0,0-6.117,1.771l.484-.393a7.714,7.714,0,0,1,4.073-1.107,5.9,5.9,0,0,1,3.883,1.551,10.354,10.354,0,0,1,2.063,3.317,4.158,4.158,0,0,0-1.109-3.45" transform="translate(-426.643 -297.889)"/>
                </g>
              </g>
            </g>
            <path id="Trazado_657914" data-name="Trazado 657914" d="M404.715,222.173a1.553,1.553,0,0,1,.114-.347l.361-.924c.307-.779.729-1.855,1.175-3.052s.83-2.288,1.106-3.078l.331-.935a.183.183,0,1,1,.061.019c-.061.227-.157.552-.281.952-.248.8-.616,1.9-1.062,3.1s-.886,2.27-1.222,3.039c-.168.384-.308.693-.41.9a1.563,1.563,0,0,1-.173.322" transform="translate(-276.088 -145.647)" fill="#263238"/>
            <path id="Trazado_657915" data-name="Trazado 657915" d="M275.673,227.2c-.045.009-.39-1.5-.771-3.378s-.654-3.4-.609-3.411.39,1.5.771,3.378.654,3.4.609,3.411" transform="translate(-187.115 -150.359)" fill="#263238"/>
            <path id="Trazado_657916" data-name="Trazado 657916" d="M274.26,256.82c.1.051-1.164-9.9-1.164-9.9s.8-7.554,1.247-7.9l.011-2.665s1.236-.748,1.567.46c0,0,1.1-.951,1.287,1.313s.231,4.578.231,4.578l2.439,6.1.4.2a51.6,51.6,0,0,1,.829-5.479c.3-.7.513-2.412,1.669-2.156s1.252,1.213,1.045,2.771a22.828,22.828,0,0,0-.371,4.173,27.621,27.621,0,0,1,.413,4.982,9.933,9.933,0,0,1-2.116,4.921,37.925,37.925,0,0,1-3.995,4.812c-.367.283-3.494-6.2-3.494-6.2" transform="translate(-186.302 -161.076)" fill="#ffbe9d"/>
            <path id="Trazado_657917" data-name="Trazado 657917" d="M278.286,255.21a2.114,2.114,0,0,1,.007-.426l.079-1.156c.074-.976.188-2.323.325-3.81l.2-2.1a3.737,3.737,0,0,0,.011-.9,1.273,1.273,0,0,0-.3-.687,1.369,1.369,0,0,0-1-.437,2.622,2.622,0,0,0-.415.053c0-.005.031-.023.1-.052a1.09,1.09,0,0,1,.314-.065,1.4,1.4,0,0,1,1.083.422,1.384,1.384,0,0,1,.354.745,3.755,3.755,0,0,1,.005.934l-.185,2.1c-.136,1.487-.269,2.832-.373,3.8-.053.461-.1.847-.132,1.152a2.11,2.11,0,0,1-.071.42" transform="translate(-189.096 -167.566)" fill="#eb996e"/>
            <path id="Trazado_657918" data-name="Trazado 657918" d="M281.75,262.957a3.442,3.442,0,0,0-.432.786,13.278,13.278,0,0,0-.406,2.148c-.131.851-.259,1.62-.36,2.175a5.014,5.014,0,0,1-.2.894,5.019,5.019,0,0,1,.081-.911c.071-.56.181-1.332.312-2.183a10.259,10.259,0,0,1,.46-2.166,2.06,2.06,0,0,1,.352-.581c.107-.121.183-.169.188-.163" transform="translate(-191.249 -179.384)" fill="#eb996e"/>
            <path id="Trazado_657919" data-name="Trazado 657919" d="M281.927,237.874a1.226,1.226,0,0,1,.085.313c.045.2.1.5.161.867.121.734.254,1.755.338,2.889s.1,2.163.089,2.908c-.006.372-.017.673-.031.881a1.212,1.212,0,0,1-.038.322,10.588,10.588,0,0,1-.048-1.2c-.017-.742-.054-1.767-.137-2.9s-.2-2.148-.29-2.884a10.583,10.583,0,0,1-.129-1.2" transform="translate(-192.322 -162.274)" fill="#eb996e"/>
            <path id="Trazado_657920" data-name="Trazado 657920" d="M300.916,266.276a.888.888,0,0,1-.821.07c-.467-.139-.684-.5-.643-.516a2.153,2.153,0,0,0,1.464.446" transform="translate(-204.278 -181.343)" fill="#eb996e"/>
            <path id="Trazado_657921" data-name="Trazado 657921" d="M244.908,297.361l-6.442,2.707h-3.838s-3.8,1.184-4.38,4.743-.667,5.39,1,5.83a21.408,21.408,0,0,0,8.719-.286c2.336-.775,8.456-5.713,8.456-5.713l.59-3.572Z" transform="translate(-156.812 -202.855)" fill="#ffbe9d"/>
            <path id="Trazado_657922" data-name="Trazado 657922" d="M277.779,297.184c-.008.008-.073-.052-.183-.168a3.985,3.985,0,0,1-.419-.532,7.286,7.286,0,0,1-.9-2.038,12.083,12.083,0,0,1-.4-2.189,4.093,4.093,0,0,1-.025-.92,6.678,6.678,0,0,1,.141.907,16.388,16.388,0,0,0,.44,2.157,8.512,8.512,0,0,0,.84,2.02c.29.481.525.742.5.763" transform="translate(-188.175 -198.745)" fill="#eb996e"/>
            <path id="Trazado_657923" data-name="Trazado 657923" d="M284.505,294.348a6.641,6.641,0,0,0,.367-1.381,4.449,4.449,0,0,0-.865-3.233c-.391-.549-.831-1.026-1.2-1.488a6.894,6.894,0,0,1-.871-1.316,3.452,3.452,0,0,1-.323-1.016,1.17,1.17,0,0,1-.011-.39,4.409,4.409,0,0,0,.438,1.353,7.376,7.376,0,0,0,.885,1.273c.373.453.819.928,1.219,1.489a4.641,4.641,0,0,1,.8,1.762,4.492,4.492,0,0,1,.043,1.582,4.08,4.08,0,0,1-.3,1.023,2.305,2.305,0,0,1-.13.258c-.033.057-.053.086-.058.083" transform="translate(-192.096 -194.78)" fill="#eb996e"/>
            <path id="Trazado_657924" data-name="Trazado 657924" d="M253.09,252.061a64.182,64.182,0,0,1-2.993-5.788,64.112,64.112,0,0,1,2.993,5.788" transform="translate(-170.611 -168.003)" fill="#fff"/>
            <path id="Trazado_657925" data-name="Trazado 657925" d="M292.29,217.917a40.03,40.03,0,0,1,2.092-4.7,39.967,39.967,0,0,1-2.092,4.7" transform="translate(-199.394 -145.456)" fill="#fff"/>
            <path id="Trazado_657926" data-name="Trazado 657926" d="M318.4,244.435a29.015,29.015,0,0,1-2.792-3.373,29,29,0,0,1,2.792,3.373" transform="translate(-215.299 -164.448)" fill="#fff"/>
            <path id="Trazado_657927" data-name="Trazado 657927" d="M317,277.338a23.913,23.913,0,0,1,2.334-3.219A23.942,23.942,0,0,1,317,277.338" transform="translate(-216.254 -186.999)" fill="#fff"/>
            <path id="Trazado_657928" data-name="Trazado 657928" d="M302.841,320.321a3.078,3.078,0,0,1-.373-.639c-.209-.406-.479-.975-.752-1.615s-.494-1.231-.641-1.662a3.086,3.086,0,0,1-.2-.712,3.509,3.509,0,0,1,.31.67l.684,1.639.7,1.63a3.513,3.513,0,0,1,.267.688" transform="translate(-205.249 -215.361)" fill="#fff"/>
            <path id="Trazado_657929" data-name="Trazado 657929" d="M327.1,309.088a23.009,23.009,0,0,1-3.827-.741,23.017,23.017,0,0,1,3.827.741" transform="translate(-220.528 -210.343)" fill="#fff"/>
            <path id="Trazado_657930" data-name="Trazado 657930" d="M357.211,258.909a47.243,47.243,0,0,1,3.8-4.1,47.269,47.269,0,0,1-3.8,4.1" transform="translate(-243.683 -173.826)" fill="#fff"/>
            <path id="Trazado_657931" data-name="Trazado 657931" d="M369.666,313.412c-.035.029-1.063-1.16-2.3-2.656s-2.2-2.733-2.168-2.762,1.063,1.16,2.3,2.656,2.2,2.733,2.168,2.762" transform="translate(-249.135 -210.108)" fill="#fff"/>
            <path id="Trazado_657932" data-name="Trazado 657932" d="M234.494,300.6c.024.045-.916.522-1.939,1.307s-1.735,1.559-1.773,1.525a2.4,2.4,0,0,1,.432-.54,10.295,10.295,0,0,1,2.644-2.017,2.4,2.4,0,0,1,.635-.274" transform="translate(-157.435 -205.063)" fill="#fff"/>
            <path id="Trazado_657933" data-name="Trazado 657933" d="M247.2,278.506a13.16,13.16,0,0,1-1.631,2.452,13.154,13.154,0,0,1,1.631-2.452" transform="translate(-167.519 -189.992)" fill="#fff"/>
            <path id="Trazado_657934" data-name="Trazado 657934" d="M267.847,294.377a4.2,4.2,0,0,1-.617-2.716c.049,0,.066.627.238,1.374s.423,1.321.379,1.342" transform="translate(-182.27 -198.966)" fill="#fff"/>
            <path id="Trazado_657935" data-name="Trazado 657935" d="M266.711,231.247a9.446,9.446,0,0,1-2.472.352,9.454,9.454,0,0,1,2.472-.352" transform="translate(-180.259 -157.74)" fill="#fff"/>
            <path id="Trazado_657936" data-name="Trazado 657936" d="M281.186,206.552a9.795,9.795,0,0,1-2.224,1.232,9.79,9.79,0,0,1,2.224-1.232" transform="translate(-190.303 -140.903)" fill="#fff"/>
            <path id="Trazado_657937" data-name="Trazado 657937" d="M320.184,210.464a22.229,22.229,0,0,1-2.32-3.047,22.158,22.158,0,0,1,2.32,3.047" transform="translate(-216.84 -141.496)" fill="#fff"/>
            <path id="Trazado_657938" data-name="Trazado 657938" d="M370.807,235.236a7.785,7.785,0,0,1-1.923-3.09c.045-.019.387.722.919,1.572s1.041,1.487,1,1.519" transform="translate(-251.644 -158.365)" fill="#fff"/>
            <path id="Trazado_657939" data-name="Trazado 657939" d="M390.794,248.131a18.9,18.9,0,0,1-1.461,3.219,18.88,18.88,0,0,1,1.461-3.219" transform="translate(-265.593 -169.271)" fill="#fff"/>
            <path id="Trazado_657940" data-name="Trazado 657940" d="M389.971,214.245a35.135,35.135,0,0,1-3.084-3.706,35.218,35.218,0,0,1,3.084,3.706" transform="translate(-263.927 -143.625)" fill="#fff"/>
            <path id="Trazado_657941" data-name="Trazado 657941" d="M367.228,194.513a14.442,14.442,0,0,1-.122-3.087,14.444,14.444,0,0,1,.122,3.087" transform="translate(-250.405 -130.588)" fill="#fff"/>
            <path id="Trazado_657942" data-name="Trazado 657942" d="M382.764,199.8a24.037,24.037,0,0,1-3.947.528,23.961,23.961,0,0,1,3.947-.528" transform="translate(-258.423 -136.292)" fill="#fff"/>
            <path id="Trazado_657943" data-name="Trazado 657943" d="M423.741,217.379a39.041,39.041,0,0,1-2.213-4.573,38.978,38.978,0,0,1,2.213,4.573" transform="translate(-287.558 -145.172)" fill="#fff"/>
            <path id="Trazado_657944" data-name="Trazado 657944" d="M422.2,243.149a20.229,20.229,0,0,1,.716-3.586,20.23,20.23,0,0,1-.716,3.586" transform="translate(-288.013 -163.426)" fill="#fff"/>
            <path id="Trazado_657945" data-name="Trazado 657945" d="M435.787,258.889a41.432,41.432,0,0,1-1.729-4.939,41.435,41.435,0,0,1,1.729,4.939" transform="translate(-296.105 -173.24)" fill="#fff"/>
            <path id="Trazado_657946" data-name="Trazado 657946" d="M430.735,276.944a5.583,5.583,0,0,1-2.963-1.605c.032-.038.618.446,1.437.886s1.541.671,1.526.719" transform="translate(-291.818 -187.83)" fill="#fff"/>
            <path id="Trazado_657947" data-name="Trazado 657947" d="M457.1,300.49a8.988,8.988,0,0,1-.989-2.222,8.96,8.96,0,0,1,.989,2.222" transform="translate(-311.149 -203.473)" fill="#fff"/>
            <path id="Trazado_657948" data-name="Trazado 657948" d="M327.729,333.856a12.332,12.332,0,0,1-.33-2.834,12.351,12.351,0,0,1,.33,2.834" transform="translate(-223.333 -225.818)" fill="#fff"/>
            <path id="Trazado_657949" data-name="Trazado 657949" d="M396.383,332.388a11.689,11.689,0,0,1,.578-2.718,11.689,11.689,0,0,1-.578,2.718" transform="translate(-270.398 -224.895)" fill="#fff"/>
          </g>
        </g>
        <g id="Grupo_984851" data-name="Grupo 984851">
          <g id="Grupo_984850" data-name="Grupo 984850" clip-path="url(#clip-path)">
            <path id="Trazado_657950" data-name="Trazado 657950" d="M409.432,86.332l2.792-4.92a13.182,13.182,0,1,1,3.157,3.512l0,.006Z" transform="translate(-279.308 -41.859)" fill="#fafafa"/>
            <path id="Trazado_657951" data-name="Trazado 657951" d="M409.432,86.2l5.963-1.362.061-.014-.038-.05,0-.006-.057.057a13.485,13.485,0,0,0,2.707,1.632,13.208,13.208,0,0,0,3.609,1.031,11.845,11.845,0,0,0,2.084.105c.359-.02.724-.029,1.092-.06l1.112-.168a13.282,13.282,0,0,0,8.226-5.281,13.125,13.125,0,0,0,2.225-5.085,13.416,13.416,0,0,0-.155-5.856,12.985,12.985,0,0,0-2.822-5.414l-.538-.591c-.177-.2-.387-.363-.579-.545s-.381-.368-.6-.521l-.632-.472a5.56,5.56,0,0,0-.654-.433l-.668-.406-.7-.339a6.152,6.152,0,0,0-.706-.314,13.433,13.433,0,0,0-5.9-.906,12.988,12.988,0,0,0-5.416,1.6,13.354,13.354,0,0,0-6.248,7.689,14.229,14.229,0,0,0-.572,4.282,13.092,13.092,0,0,0,.645,3.7,13.347,13.347,0,0,0,1.32,2.833v-.039L409.432,86.2l2.825-4.9.011-.02-.012-.02a13.368,13.368,0,0,1-1.3-2.822,13.052,13.052,0,0,1-.624-3.67,14.147,14.147,0,0,1,.581-4.241,13.24,13.24,0,0,1,6.2-7.6,12.85,12.85,0,0,1,5.356-1.575,13.287,13.287,0,0,1,5.829.9,6.047,6.047,0,0,1,.7.31l.691.336.659.4a5.491,5.491,0,0,1,.646.427l.624.467c.213.15.391.344.589.514s.4.342.572.539l.531.584a12.838,12.838,0,0,1,2.789,5.347,13.283,13.283,0,0,1,.158,5.786,12.988,12.988,0,0,1-2.193,5.029,13.162,13.162,0,0,1-8.129,5.242l-1.1.17c-.365.031-.726.041-1.082.063a11.747,11.747,0,0,1-2.066-.1,13.142,13.142,0,0,1-3.584-1.007,13.475,13.475,0,0,1-2.7-1.606l-.245-.188.188.244,0,.006.023-.064L409.432,86.2" transform="translate(-279.308 -41.723)" fill="#263238"/>
            <path id="Trazado_657952" data-name="Trazado 657952" d="M464.669,98.279a1.286,1.286,0,1,0,1.286-1.286,1.286,1.286,0,0,0-1.286,1.286" transform="translate(-316.989 -66.167)" fill="#263238"/>
            <path id="Trazado_657953" data-name="Trazado 657953" d="M448.476,98.279a1.286,1.286,0,1,0,1.286-1.286,1.286,1.286,0,0,0-1.286,1.286" transform="translate(-305.943 -66.167)" fill="#263238"/>
            <path id="Trazado_657954" data-name="Trazado 657954" d="M431.954,97.636a1.286,1.286,0,1,0,1.757-.471,1.286,1.286,0,0,0-1.757.471" transform="translate(-294.554 -66.167)" fill="#263238"/>
          </g>
        </g>
      </g>
    </g>
    <rect id="Rectángulo_344410" data-name="Rectángulo 344410" width="250" height="148" transform="translate(-2471 -6315)" fill="none"/>
  </g>
</svg>
