<svg xmlns="http://www.w3.org/2000/svg" xmlns:xlink="http://www.w3.org/1999/xlink" width="93" height="94" viewBox="0 0 93 94">
  <defs>
    <clipPath id="clip-path">
      <rect id="Rectángulo_342994" data-name="Rectángulo 342994" width="61.955" height="61.369" fill="#12263f"/>
    </clipPath>
  </defs>
  <g id="Grupo_981504" data-name="Grupo 981504" transform="translate(0.275 -0.334)">
    <ellipse id="Elipse_4870" data-name="Elipse 4870" cx="46.5" cy="47" rx="46.5" ry="47" transform="translate(-0.275 0.334)" fill="#4adbd1"/>
    <g id="Grupo_981514" data-name="Grupo 981514" transform="translate(15.248 16.649)">
      <g id="Grupo_981513" data-name="Grupo 981513" clip-path="url(#clip-path)">
        <path id="Trazado_655653" data-name="Trazado 655653" d="M23.362,34.636c1.034-.777,2.023-1.511,3-2.263.114-.088.151-.276.222-.419.008-.017,0-.042,0-.063A2.521,2.521,0,0,0,25.2,29a9.324,9.324,0,0,1-4.641-7.126c-.016-.1-.041-.206-.069-.343a3.053,3.053,0,0,1-3.04-2.6c-.264-1.678-.156-3.318,1.488-4.2a8.216,8.216,0,0,1-1.329-2.3c-.9-4.763.389-9.9,6.082-11.932A8.729,8.729,0,0,1,26.5.028C31.891-.016,37.281,0,42.67.007c.948,0,1.294.356,1.295,1.324,0,2.216,0,4.431,0,6.647a7.171,7.171,0,0,1-2.724,5.8c-.136.113-.258.244-.515.49a3.369,3.369,0,0,1,2.791,1.537,4.561,4.561,0,0,1,.42,2.919c-.119,1.518-1.248,2.525-3.056,2.794-.107.495-.2,1.013-.334,1.518a10.013,10.013,0,0,1-5.3,6.538.884.884,0,0,0-.5.822,2.553,2.553,0,0,0,1.438,2.913,17.267,17.267,0,0,1,1.988,1.461q1.611-1.6,3.211-3.2c.618-.617,1.252-1.22,1.838-1.867a.9.9,0,0,0,.19-.709,9.96,9.96,0,0,1,8.967-12.2,11.182,11.182,0,0,1,2.532.247c1.005.187,1.282.983.671,1.808-1.2,1.625-2.424,3.238-3.622,4.836l3.128,3.07c1.521-1.14,3.1-2.328,4.687-3.512.987-.738,1.706-.459,1.968.755a9.538,9.538,0,0,1-8.345,11.39,17.131,17.131,0,0,1-3.549-.133.864.864,0,0,0-.833.249c-.348.372-.736.706-1.026.981l1.145,2.75a7.426,7.426,0,0,1,1.415-.356c.933-.061,1.873-.017,2.811-.017,1.5,0,1.5,0,2.04,1.405.183-.1.362-.2.541-.291a1.016,1.016,0,0,1,1.29.165c.955.943,1.908,1.888,2.846,2.848.609.623.234,1.213-.125,1.774.041.051.059.1.089.109,1.311.459,1.311.459,1.311,1.861q0,1.47,0,2.94c0,1.05-.12,1.207-1.148,1.527-.08.025-.155.064-.263.11.1.179.181.345.274.506a1.053,1.053,0,0,1-.191,1.391c-.889.889-1.772,1.783-2.667,2.665-.6.591-.8.585-1.976-.005-.057.182-.118.356-.167.534a1.058,1.058,0,0,1-1.1.869c-1.3,0-2.6.029-3.9-.017a4.189,4.189,0,0,1-1.129-.394c0,.4.007.894,0,1.39a3.056,3.056,0,0,1-3.128,3.109q-15.273.013-30.545,0A3.059,3.059,0,0,1,12.27,58.2c-.005-.468,0-.936,0-1.25a12.565,12.565,0,0,1-1.7.316c-.977.052-1.959.015-2.939.014-1.1,0-1.226-.1-1.575-1.17a2.474,2.474,0,0,0-.112-.246c-.165.093-.314.173-.459.259a1.075,1.075,0,0,1-1.445-.188c-.885-.892-1.77-1.785-2.668-2.665a1.109,1.109,0,0,1-.184-1.548c.078-.123.141-.256.232-.424-.234-.066-.439-.116-.638-.182A1.029,1.029,0,0,1,0,50.074c0-1.321,0-2.642,0-3.963a1.051,1.051,0,0,1,.87-1.1c.163-.044.325-.094.539-.156-.085-.166-.147-.311-.228-.445a1.124,1.124,0,0,1,.214-1.548c.764-.742,1.509-1.5,2.262-2.256.967-.967,1.07-.983,2.248-.355.032-.019.085-.031.094-.058.483-1.322.482-1.322,1.918-1.322,1,0,2-.038,3,.017a6.463,6.463,0,0,1,1.339.366,11.516,11.516,0,0,1,.621-1.692,16.524,16.524,0,0,1,1.269-1.78,2.282,2.282,0,0,1-.424-.276A80.077,80.077,0,0,0,3.374,26.8a3.654,3.654,0,0,1-1.393-1.758C1.462,23.711.866,22.415.306,21.105A1.2,1.2,0,0,1,.621,19.4c.827-.83,1.667-1.647,2.48-2.491a1.207,1.207,0,0,1,1.5-.291c1.54.67,3.1,1.306,4.625,2a2.3,2.3,0,0,1,.9.767c3.8,5.575,8.654,10.234,13.237,15.251m-.415,20.48c-.492-.736-.781-1.364-.083-2.031.908-.868,1.782-1.772,2.67-2.661a1.06,1.06,0,0,1,1.393-.19c.162.091.326.176.513.277.055-.153.1-.27.139-.391.245-.839.482-1.022,1.359-1.025,1.214,0,2.428,0,3.641,0a1.077,1.077,0,0,1,1.159.883c.047.175.111.345.18.555.616-.395,1.21-.764,1.83-.16.961.936,1.9,1.89,2.847,2.845a1.024,1.024,0,0,1,.164,1.291c-.093.181-.191.359-.289.542,1.4.54,1.4.54,1.4,2.04v2.23c2.1,0,4.1.011,6.1-.006a1.006,1.006,0,0,0,1.056-1.107,16.787,16.787,0,0,0-.011-1.788,1.35,1.35,0,0,0-.325-.766c-.774-.821-1.581-1.611-2.386-2.4a1.094,1.094,0,0,1-.193-1.5c.084-.138.154-.285.232-.431-1.4-.55-1.4-.55-1.4-2.036V46.731c0-1.389,0-1.389,1.316-1.856.029-.01.045-.059.067-.089-.635-1.212-.624-1.285.343-2.25l1.672-1.672a1.608,1.608,0,0,0,.38-2.3,2.935,2.935,0,0,0-2.7-1.733c-1.852-.032-3.705-.019-5.558,0a1.686,1.686,0,0,0-.769.236c-2.056,1.161-4.111,2.324-6.149,3.518a1.519,1.519,0,0,1-1.719.009c-2.035-1.2-4.093-2.355-6.148-3.518a1.568,1.568,0,0,0-.7-.245c-1.917-.018-3.834-.039-5.75,0a3,3,0,0,0-2.877,2.742,1.406,1.406,0,0,0,.343.938c.7.773,1.462,1.488,2.2,2.228.682.686.719.964.253,1.79-.051.09-.094.184-.158.312l.572.167a1.063,1.063,0,0,1,.849,1.121c0,1.3,0,2.6,0,3.9a1.058,1.058,0,0,1-.871,1.1c-.177.049-.351.11-.532.167.652,1.3.645,1.34-.357,2.342-.678.678-1.362,1.349-2.028,2.038a.934.934,0,0,0-.286.529c-.031.723-.038,1.449,0,2.171a.9.9,0,0,0,.9.916c2.059.032,4.119.013,6.24.013,0-.706.026-1.362-.006-2.015-.053-1.084-.081-2.129,1.482-2.182m5.54-44.436-.2-.2c-1.834.782-3.672,1.556-5.5,2.362a.7.7,0,0,0-.284.536q-.037,1.852-.009,3.705a41.691,41.691,0,0,0,.14,4.716,8.094,8.094,0,0,0,8.025,6.841,7.96,7.96,0,0,0,8.025-6.887c.268-2.866.052-5.778.052-8.726-1.169-.32-2.422-.649-3.665-1.012a.726.726,0,0,0-.869.242,7.141,7.141,0,0,1-6.161,2.3,1.369,1.369,0,0,1-1.4-1,1.5,1.5,0,0,1,.689-1.529,11.656,11.656,0,0,0,1.158-1.348M41.907,2.1a1.779,1.779,0,0,0-.246-.044c-5.132,0-10.266-.083-15.4.038a6.777,6.777,0,0,0-6.331,4.5,11.035,11.035,0,0,0-.467,4.977,1.578,1.578,0,0,0,.955,1.37c.037-.641-.052-1.291.637-1.587,2.4-1.034,4.759-2.2,7.227-3.039,1.5-.509,2.776-.205,2.27,1.857-.183.746-.421,1.479-.649,2.271a5.045,5.045,0,0,0,3.172-2.024c.535-.766.744-.84,1.664-.59,1.98.539,3.96,1.081,5.962,1.629a4.491,4.491,0,0,0,1.185-2.869c.055-2.147.016-4.3.016-6.489M53,18.886a1.139,1.139,0,0,0-.16-.058c-4.9-.234-9.068,5.646-7.218,10.2a1.243,1.243,0,0,1-.326,1.548c-.439.4-.848.838-1.269,1.261l-2.928,2.939c.882,0,1.617-.01,2.352,0a3.236,3.236,0,0,1,1.323.108c1.321.671,2.159.063,2.908-.933.076-.1.191-.173.267-.275a1.589,1.589,0,0,1,1.965-.542,7.848,7.848,0,0,0,9.685-5.1,19.891,19.891,0,0,0,.4-2.183L59.8,25.79Q57.783,27.3,55.767,28.8c-.761.568-1.175.544-1.835-.114q-1.878-1.872-3.75-3.751c-.828-.828-.857-1.156-.169-2.074.98-1.309,1.96-2.617,2.982-3.98M10.4,55.209c.361-.635.126-1.561.979-1.912s1.327.511,1.884.63l1.807-1.734c-.192-.643-.986-1.117-.642-1.95.35-.848,1.28-.61,1.929-.985,0-.648,0-1.306,0-1.964,0-.147-.015-.294-.023-.431-2.256-.823-2.256-.823-1.167-3.136a9.512,9.512,0,0,1-.843-.668c-.891-.867-.883-.874-1.994-.308a1.023,1.023,0,0,1-1.59-.672c-.113-.379-.2-.766-.3-1.139H7.957c-.1.391-.184.763-.292,1.129a1.018,1.018,0,0,1-1.582.685c-.264-.137-.5-.326-.777-.437a.567.567,0,0,0-.483.029c-.548.468-1.066.97-1.557,1.426,1.065,2.349,1.065,2.349-1.189,3.082V49.32c.4.1.775.183,1.141.292a1.029,1.029,0,0,1,.664,1.6c-.138.263-.331.5-.441.774a.561.561,0,0,0,.046.481c.468.547.969,1.065,1.424,1.557,2.248-1.1,2.248-1.1,3.089,1.188Zm47.643-2.963c-1.064-2.095-1.064-2.095,1.236-2.98v-2.4c-2.266-.847-2.266-.847-1.163-3.143a9.052,9.052,0,0,1-.846-.662c-.9-.871-.888-.879-1.994-.314a1.023,1.023,0,0,1-1.593-.665c-.113-.38-.2-.767-.3-1.145H50.906c-.093.348-.179.675-.268,1-.27.989-.881,1.238-1.775.724-.912-.524-.912-.524-1.645.209l-.135.135c-.834.835-.834.835-.274,1.889a1.037,1.037,0,0,1-.667,1.641c-.377.114-.762.2-1.122.3V49.32c.419.106.816.187,1.2.309a1.022,1.022,0,0,1,.642,1.522c-.141.285-.35.539-.474.83a.556.556,0,0,0,.041.481c.467.548.967,1.067,1.422,1.558,2.273-1.09,2.273-1.09,3.09,1.189h2.4c.361-.63.125-1.557.975-1.909s1.329.5,2.017.657l1.707-1.71M11.988,25.254c-.714-.95-1.5-1.859-2.127-2.864a6.258,6.258,0,0,0-3.649-2.858c-.684-.2-1.4-.815-1.983-.692s-1.036.942-1.576,1.419a.6.6,0,0,0-.131.827c.431.947.847,1.9,1.224,2.871A2.927,2.927,0,0,0,4.82,25.323c1.392,1,2.752,2.051,4.064,3.035l3.1-3.1M34.813,52.422c-2.1,1.006-2.1,1.006-2.94-1.26h-2.4c-.854,2.276-.854,2.276-3.132,1.164a8.9,8.9,0,0,1-.717.889,9.418,9.418,0,0,1-.9.717c.261.9,1.059,1.368.715,2.2s-1.283.6-1.876.952v2.21H26.69a4.02,4.02,0,0,1,1.867-4.472,3.793,3.793,0,0,1,4.283.028,4.013,4.013,0,0,1,1.814,4.44h3.176V57.1c-.687-.355-1.573-.143-1.927-.969-.363-.848.5-1.329.632-1.931l-1.723-1.783M28.629,30.609c0,.55-.031,1.125.008,1.694a1.559,1.559,0,0,1-.747,1.508c-.832.578-1.625,1.213-2.5,1.875,1.742,1,3.392,1.955,5.06,2.879a.793.793,0,0,0,.628-.091c1.5-.839,3-1.7,4.492-2.557a3.2,3.2,0,0,0,.346-.271c-.9-.676-1.739-1.325-2.6-1.952a1.322,1.322,0,0,1-.6-1.191c.021-.654,0-1.309,0-1.894ZM20.7,34.778,13.423,26.97,10.6,29.794c1.414,1.319,2.887,2.634,4.288,4.024a2.624,2.624,0,0,0,2.516,1,19.986,19.986,0,0,1,3.3-.038m9.924,24.544c.467,0,.935-.024,1.4.008.374.025.522-.139.616-.474a2.04,2.04,0,0,0-3.028-2.3,2.083,2.083,0,0,0-.945,2.136c.09.464.3.7.813.64a9.445,9.445,0,0,1,1.144-.009M20.433,16.395c-.933.21-1.121.612-1,2.02a.911.911,0,0,0,1,.943Zm20.489,3c.845-.129,1-.4,1-1.649,0-.921-.223-1.216-1-1.323Z" transform="translate(0 0)" fill="#12263f"/>
        <path id="Trazado_655654" data-name="Trazado 655654" d="M48.111,347.615A4.089,4.089,0,1,1,44,343.528a4.1,4.1,0,0,1,4.108,4.088m-2.046,0a2.042,2.042,0,1,0-2.02,2.048,2.051,2.051,0,0,0,2.02-2.048" transform="translate(-34.821 -299.546)" fill="#12263f"/>
        <path id="Trazado_655655" data-name="Trazado 655655" d="M383.527,347.6a4.089,4.089,0,1,1-4.121-4.074,4.1,4.1,0,0,1,4.121,4.074m-2.046.01a2.042,2.042,0,1,0-2.02,2.049,2.051,2.051,0,0,0,2.02-2.049" transform="translate(-327.293 -299.544)" fill="#12263f"/>
      </g>
    </g>
  </g>
</svg>
