<svg xmlns="http://www.w3.org/2000/svg" width="93" height="94" viewBox="0 0 93 94">
  <g id="Grupo_981500" data-name="Grupo 981500" transform="translate(0.275 -0.334)">
    <ellipse id="Elipse_4870" data-name="Elipse 4870" cx="46.5" cy="47" rx="46.5" ry="47" transform="translate(-0.275 0.334)" fill="#f4a338"/>
    <g id="ofUhqc.tif" transform="translate(15.139 12.938)">
      <g id="Grupo_154919" data-name="Grupo 154919" transform="translate(0 0)">
        <path id="Trazado_195237" data-name="Trazado 195237" d="M-373.789,193.531a3.965,3.965,0,0,1-2.205-2.266c-1.374-2.827-2.809-5.624-4.194-8.445a2.786,2.786,0,0,1-.279-1.179q-.026-9.547,0-19.094a.922.922,0,0,0-.533-.969,3.09,3.09,0,0,1-.017-5.391.666.666,0,0,0,.357-.888,6.932,6.932,0,0,0-1.947-3.351,13.852,13.852,0,0,1-3.965-7.381A13.754,13.754,0,0,1-375.9,128.7a13.6,13.6,0,0,1,16.218,11.1,13.21,13.21,0,0,1-3.834,12A7.463,7.463,0,0,0-365.6,155.3a.668.668,0,0,0,.353.89,3.1,3.1,0,0,1-.067,5.427.827.827,0,0,0-.48.866q.015,9.58,0,19.159a2.786,2.786,0,0,1-.278,1.18c-1.386,2.822-2.822,5.62-4.2,8.448a4.016,4.016,0,0,1-2.206,2.266Zm-.374-44.182v6.337h2.087v-6.345l2.089-.621v7.014c.653,0,1.24.025,1.823-.018a.571.571,0,0,0,.395-.371,9.076,9.076,0,0,1,2.693-4.983,11.332,11.332,0,0,0,3.39-9.595,11.515,11.515,0,0,0-14.077-9.907,11.065,11.065,0,0,0-8.454,8.121,11.075,11.075,0,0,0,2.945,11.287,9.431,9.431,0,0,1,2.777,5.084.571.571,0,0,0,.4.364c.582.042,1.168.017,1.822.017v-7.015Zm-3.454,33.709a.689.689,0,0,0,.024.21c1.273,2.558,2.541,5.119,3.84,7.664a.841.841,0,0,0,.646.418,1.057,1.057,0,0,0,.65-.532c1.25-2.446,2.471-4.908,3.7-7.366.056-.112.092-.233.154-.393Zm-.721-21v18.821h2.024V162.06Zm6.211,18.845V162.084h-2.022v18.821Zm2.189-18.846V180.88h2.022V162.059Zm-3.115-4.228c-2.074,0-4.147-.007-6.221,0a1.093,1.093,0,0,0-1.2,1.034,1.08,1.08,0,0,0,1.173,1.061c4.1.01,8.207.018,12.311-.019a1.474,1.474,0,0,0,1.029-.535c.506-.7-.09-1.535-1.066-1.541C-369.037,157.821-371.046,157.83-373.054,157.831Z" transform="translate(404.482 -128.444)" fill="#12263f"/>
        <path id="Trazado_195238" data-name="Trazado 195238" d="M-125.607,274.889l-1.815,1.079-3.176-5.059-.111.028v25.433H-132.8V270.945l-.147-.038-3.178,5.073-1.8-1.121,6.137-9.82c.172.255.3.426.408.605q2.693,4.3,5.386,8.609a6.321,6.321,0,0,0,.389.5Z" transform="translate(188.322 -247.075)" fill="#12263f"/>
        <path id="Trazado_195239" data-name="Trazado 195239" d="M-449.269,325.906l1.795-1.124L-444.2,330V304.4h2.114v25.411l.14.053,3.189-5.086,1.793,1.126-6.151,9.844Z" transform="translate(458.719 -281.258)" fill="#12263f"/>
        <path id="Trazado_195240" data-name="Trazado 195240" d="M-521.128,397.73l1.8-1.125,3.284,5.237V376.218h2.114v25.42l.132.046,3.187-5.083,1.793,1.127-6.152,9.843Z" transform="translate(521.128 -343.633)" fill="#12263f"/>
        <path id="Trazado_195241" data-name="Trazado 195241" d="M-204.794,342.608l-3.179,5.069-1.794-1.124,6.149-9.842,6.154,9.84-1.791,1.13-3.285-5.237v25.63h-2.09V342.659Z" transform="translate(250.714 -309.323)" fill="#12263f"/>
        <path id="Trazado_195242" data-name="Trazado 195242" d="M-479.942,282.453h-1.99v-2.037h1.99Z" transform="translate(487.087 -260.43)" fill="#12263f"/>
        <path id="Trazado_195243" data-name="Trazado 195243" d="M-479.942,314.389h-1.99v-2.037h1.99Z" transform="translate(487.087 -288.166)" fill="#12263f"/>
        <path id="Trazado_195244" data-name="Trazado 195244" d="M-479.947,346.285h-2.014v-2.026h2.014Z" transform="translate(487.112 -315.877)" fill="#12263f"/>
        <path id="Trazado_195245" data-name="Trazado 195245" d="M-98.715,519.776h2v2.037h-2Z" transform="translate(154.267 -468.312)" fill="#12263f"/>
        <path id="Trazado_195246" data-name="Trazado 195246" d="M-99.022,553.932v-2h2.037v2Z" transform="translate(154.533 -496.237)" fill="#12263f"/>
        <path id="Trazado_195247" data-name="Trazado 195247" d="M-96.78,583.733v2.014h-2.026v-2.014Z" transform="translate(154.346 -523.858)" fill="#12263f"/>
        <path id="Trazado_195248" data-name="Trazado 195248" d="M-301.867,177.458l1.678,1.664-9.23,8.9-2.761-2.684,1.485-1.459,1.419,1.354Z" transform="translate(339.659 -171.012)" fill="#12263f"/>
      </g>
    </g>
  </g>
</svg>
