<svg xmlns="http://www.w3.org/2000/svg" xmlns:xlink="http://www.w3.org/1999/xlink" width="93" height="94" viewBox="0 0 93 94">
  <defs>
    <clipPath id="clip-path">
      <rect id="Rectángulo_343002" data-name="Rectángulo 343002" width="58.16" height="58.247" fill="#12263f"/>
    </clipPath>
  </defs>
  <g id="Grupo_981502" data-name="Grupo 981502" transform="translate(0.275 -0.334)">
    <ellipse id="Elipse_4870" data-name="Elipse 4870" cx="46.5" cy="47" rx="46.5" ry="47" transform="translate(-0.275 0.334)" fill="#f4a338"/>
    <g id="Grupo_981516" data-name="Grupo 981516" transform="translate(21.33 18.961)">
      <g id="Grupo_981515" data-name="Grupo 981515" clip-path="url(#clip-path)">
        <path id="Trazado_655656" data-name="Trazado 655656" d="M58.16,21.321c-1.375.827-3.167.262-3.993,2.307s.991,2.855,1.207,4.248l-4.986,5.043a5.54,5.54,0,0,1-1.3-.76c-1.3-1.3-2.587-.679-3.859-.032-.261.133-.423.516-.568.815-.489,1.005-.133,2.392-1.431,3.061-.159.082-.071.673-.071,1.028q0,9.849,0,19.7c0,.481,0,.961,0,1.52H0V3.838H5.442c.051-.454.1-.749.116-1.045A2.655,2.655,0,0,1,8.468.016q1.741-.033,3.484,0A2.73,2.73,0,0,1,14.908,2.79c.027.262.037.527.068.991h1.441c3.752,0,7.5.037,11.255-.028A6.541,6.541,0,0,0,30.176,3c1.506-.069,2.328,1.938,4.406,1.082,2.029-.836,1.533-2.585,2.332-4.063,2.048,0,4.226-.024,6.4.031.271.007.63.387.775.68a7.283,7.283,0,0,1,.391,1.413,2.7,2.7,0,0,0,4.044,1.737c.649-.38,1.3-.756,1.885-1.1L55.4,7.788C55.158,9.2,53.32,10.055,54.2,12.146c.852,2.03,2.71,1.344,3.963,2.317ZM1.747,5.619c-.03.514-.072.906-.073,1.3q0,24.129-.027,48.257c0,1.132.342,1.413,1.437,1.41,12.288-.036,24.576-.023,36.863-.023h1.265V35.709H36.946c-.872-1.36-.265-3.18-2.272-4.037-2.059-.879-2.941.978-4.654,1.247-1.343-1.38-2.773-2.848-4.2-4.319-.181-.187-.347-.389-.476-.535.214-1.565,2.049-2.378,1.255-4.408-.824-2.106-2.7-1.51-4.051-2.337V14.44c1.268-.893,3.155-.281,4.025-2.317.9-2.095-1.054-2.914-1.29-5.026l2.03-1.468H14.893V30.143h1.829v11.13H3.752V30.158l1.818-.095V5.619Zm48.677-.7c-1.708.961-2.917,2.063-4.948.909-1.5-.852-2.642-1.5-2.874-3.29a1.217,1.217,0,0,0-.957-.719c-1.168.171-2.479-.639-3.509.468a.2.2,0,0,0-.039.127c-.01,2.093-1.278,3.019-3.139,3.428-.338.075-.629.381-.966.439a2.34,2.34,0,0,1-1.32-.023c-2.241-1.1-2.219-1.112-3.983.6a11.93,11.93,0,0,1-1.379.995c1.371,1.692,1.862,2.984,1.007,5a4.318,4.318,0,0,1-3.954,2.853c0,1.118.058,2.143-.017,3.158-.066.9.261,1.254,1.143,1.4.712.12,1.839.349,1.989.8.687,2.05,2.632,4.151.257,6.347-.076.07-.057.242-.083.366l.286-.251,2.678,3.131c1.5-.949,2.721-1.863,4.7-.739,1.445.819,2.638,1.366,2.781,3.173a1.154,1.154,0,0,0,.827.741c1.189.087,2.389.035,3.7.035.055-2.063.922-3.09,2.831-3.988,2.071-.974,3.292-.094,4.536.664l3.293-2.972c-1.877-1.642-1.668-3.412-.5-5.24a1.14,1.14,0,0,0,.176-.5c.068-.86.618-1.171,1.377-1.36,2.123-.53,2.119-.549,2.119-2.757a2.252,2.252,0,0,1,0-.4c.221-1.2-.246-1.855-1.486-1.937a2.116,2.116,0,0,1-2.205-2.019,1.434,1.434,0,0,0-.251-.615,2.954,2.954,0,0,1,.194-3.968A1.3,1.3,0,0,0,52.7,7.547c-.686-.926-1.5-1.755-2.276-2.626M5.562,32.105v7.352H14.9V32.116a1.809,1.809,0,0,0-2.456,1c-.616,1.117-1.4,2.138-2.218,3.35-.8-1.188-1.588-2.209-2.219-3.318a1.819,1.819,0,0,0-2.442-1.039M13.088,7.482c0-.688,0-1.22,0-1.753-.036-4.483.7-3.938-4.46-3.944a.878.878,0,0,0-.514.1c-.262.212-.666.478-.676.735-.062,1.621-.031,3.245-.031,4.86ZM9.237,13.215H7.407V28.169h1.83Zm3.769,0H11.243V28.182h1.764ZM7.436,11.2h5.589V9.441H7.436Zm2.788,21.94,1.926-2.92H8.266l1.958,2.92" transform="translate(0 0)" fill="#12263f"/>
        <path id="Trazado_655657" data-name="Trazado 655657" d="M14.023,156.905c3.094,0,6.076-.036,9.056.014,1.624.027,3.236.172,4.25-1.726l1.323,1.469c-2.063,1.134-1.572,3.064-1.582,4.844-.012,2.136,0,4.271,0,6.521H14.023Zm5.252,5.916,4.173-4.016H15.83v7.476h9.318v-6.2l-5.436,5.527-2.622-2.434,1.151-1.3,1.035.945" transform="translate(-10.263 -113.586)" fill="#12263f"/>
        <rect id="Rectángulo_342995" data-name="Rectángulo 342995" width="20.534" height="1.634" transform="translate(18.773 45.305)" fill="#12263f"/>
        <rect id="Rectángulo_342996" data-name="Rectángulo 342996" width="20.529" height="1.617" transform="translate(18.775 49.087)" fill="#12263f"/>
        <rect id="Rectángulo_342997" data-name="Rectángulo 342997" width="16.786" height="1.698" transform="translate(18.824 35.828)" fill="#12263f"/>
        <rect id="Rectángulo_342998" data-name="Rectángulo 342998" width="16.772" height="1.691" transform="translate(18.802 39.627)" fill="#12263f"/>
        <rect id="Rectángulo_342999" data-name="Rectángulo 342999" width="16.759" height="1.6" transform="translate(18.794 52.884)" fill="#12263f"/>
        <rect id="Rectángulo_343000" data-name="Rectángulo 343000" width="7.396" height="1.689" transform="translate(18.806 32.09)" fill="#12263f"/>
        <rect id="Rectángulo_343001" data-name="Rectángulo 343001" width="1.683" height="1.575" transform="translate(37.61 52.875)" fill="#12263f"/>
        <path id="Trazado_655658" data-name="Trazado 655658" d="M119.891,46.974A11.134,11.134,0,0,1,108.64,35.787a11.249,11.249,0,0,1,11.254-11.373A11.392,11.392,0,0,1,131.2,35.79a11.255,11.255,0,0,1-11.309,11.184m9.451-11.194a9.465,9.465,0,1,0-9.509,9.419,9.521,9.521,0,0,0,9.509-9.419" transform="translate(-79.513 -17.868)" fill="#12263f"/>
        <path id="Trazado_655659" data-name="Trazado 655659" d="M130.2,53.513a7.351,7.351,0,0,1-7.492-7.43,7.471,7.471,0,0,1,7.4-7.58,7.594,7.594,0,0,1,7.613,7.553,7.471,7.471,0,0,1-7.518,7.457m-.039-13.166a5.688,5.688,0,1,0,5.714,5.733,5.788,5.788,0,0,0-5.714-5.733" transform="translate(-89.813 -28.18)" fill="#12263f"/>
      </g>
    </g>
  </g>
</svg>
