<svg xmlns="http://www.w3.org/2000/svg" xmlns:xlink="http://www.w3.org/1999/xlink" width="93" height="94" viewBox="0 0 93 94">
  <defs>
    <clipPath id="clip-path">
      <rect id="Rectángulo_58328" data-name="Rectángulo 58328" width="53.555" height="53.538" fill="#12263f"/>
    </clipPath>
  </defs>
  <g id="Grupo_982074" data-name="Grupo 982074" transform="translate(0.275 -0.334)">
    <ellipse id="Elipse_4870" data-name="Elipse 4870" cx="46.5" cy="47" rx="46.5" ry="47" transform="translate(-0.275 0.334)" fill="#f4a338"/>
    <g id="Grupo_180441" data-name="Grupo 180441" transform="translate(19.435 21.602)">
      <g id="Grupo_180440" data-name="Grupo 180440" clip-path="url(#clip-path)">
        <path id="Trazado_231951" data-name="Trazado 231951" d="M10.686,0h40.8a2.925,2.925,0,0,1,2.068,3.183c-.039,8.957-.018,17.914-.019,26.871a2.572,2.572,0,0,1-2.761,2.757q-6.07,0-12.141,0h-.641c0,1.54-.025,3,.014,4.452.013.465-.151.627-.568.7-.5.093-.981.24-1.5.371l1.021,1.724L32.3,44.733l-1.734-1.027c-.151.579-.323,1.111-.418,1.655-.063.358-.235.413-.547.409-1.043-.015-2.086-.006-3.13-.006H25.428c.75,2.607.381,5.179.486,7.774H0V47.925a1.963,1.963,0,0,0,.1-.3A12.842,12.842,0,0,1,8.71,36.971c.1-.04.2-.091.347-.157-.148-.119-.244-.2-.342-.274A6.858,6.858,0,0,1,8.2,26.089a1.313,1.313,0,0,0,.439-1.07q-.015-11.081,0-22.162a4.023,4.023,0,0,1,.08-.906A2.733,2.733,0,0,1,10.686,0m3.151,24.225a6.859,6.859,0,0,1,4.821,3,.813.813,0,0,0,.776.413q14.164-.014,28.328-.008h.565V5.216H13.837ZM50.06,3.459V29.374H19.7l.231,1.7H50.653c.852,0,1.142-.3,1.143-1.188q0-13.437,0-26.875c0-1.01-.259-1.266-1.281-1.266H11.659c-1.024,0-1.282.253-1.282,1.264q0,10.5,0,20.993v.617a6.271,6.271,0,0,1,1.145-.3c.482-.032.562-.245.561-.682q-.021-9.741-.01-19.482V3.459ZM18.121,31.109a5.169,5.169,0,1,0-5.165,5.147,5.21,5.21,0,0,0,5.165-5.147m18.1,5.319V32.86H32.638c.59,2.81-.151,5.142-2.557,6.742a5.64,5.64,0,0,1-6.5.082c-2.5-1.582-3.278-3.951-2.69-6.828h-1.23a7.213,7.213,0,0,1-2.712,3.912c.034.07.037.094.048.1a13.147,13.147,0,0,1,7.741,6.916.441.441,0,0,0,.308.226c1.2.016,2.4.01,3.6.01.163-.627.3-1.2.468-1.768a.742.742,0,0,1,.275-.412c.492-.288.989-.489,1.517-.01a7.733,7.733,0,0,0,.869.537.422.422,0,0,0,.644-.069q1.025-1.072,2.1-2.1a.425.425,0,0,0,.086-.643c-.26-.387-.5-.79-.721-1.2a.773.773,0,0,1-.107-.491,1.212,1.212,0,0,1,1.072-1.092,10.819,10.819,0,0,0,1.372-.344m-29.68,3.72A10.43,10.43,0,0,0,4.068,42.51c-2.059,2.643-2.42,5.721-2.277,8.923.005.115.232.305.366.315.5.038,1.007-.013,1.508.024.468.034.623-.116.617-.6-.026-1.887-.011-3.774-.011-5.661v-.6h1.82V45.6c0,1.869.01,3.739-.008,5.608,0,.415.1.571.544.563,1.473-.025,2.947-.008,4.421-.012a4.089,4.089,0,0,0,.457-.057L6.537,40.148m15.1,4.742v.663c0,1.887.011,3.774-.008,5.661,0,.42.112.589.549.557a10.459,10.459,0,0,1,1.4,0c.414.026.591-.1.564-.541-.035-.591.012-1.187-.013-1.779a12.4,12.4,0,0,0-.975-4.707,11.177,11.177,0,0,0-3.78-4.605L14.392,51.725c.231.018.37.037.508.037,1.456,0,2.912-.013,4.367.01.425.007.56-.121.556-.552-.02-1.9-.009-3.81-.009-5.715V44.89Zm5.187-12.079c-1.2,0-2.41.013-3.615-.009-.315-.006-.5.1-.522.392a9.312,9.312,0,0,0-.119,2.121,4.252,4.252,0,0,0,5.27,3.4,4.321,4.321,0,0,0,3.026-5.522.473.473,0,0,0-.533-.387c-1.169.021-2.338.008-3.507.008m-9.6,6.055c-.71,2.129-2.136,3.388-3.95,3.441-2.412.071-3.877-1.189-4.6-3.438l-.578.28,4.864,11.3L17.817,39.14l-.6-.274m-6.744-.546a2.5,2.5,0,0,0,2.674,2.245,2.37,2.37,0,0,0,2.236-2.259,10.039,10.039,0,0,0-4.91.014" fill="#12263f"/>
        <rect id="Rectángulo_58314" data-name="Rectángulo 58314" width="10.284" height="1.659" transform="translate(39.756 36.313)" fill="#12263f"/>
        <rect id="Rectángulo_58315" data-name="Rectángulo 58315" width="10.288" height="1.66" transform="translate(39.75 39.75)" fill="#12263f"/>
        <rect id="Rectángulo_58316" data-name="Rectángulo 58316" width="1.647" height="1.675" transform="translate(41.493 43.216)" fill="#12263f"/>
        <rect id="Rectángulo_58317" data-name="Rectángulo 58317" width="1.675" height="1.649" transform="translate(44.932 43.219)" fill="#12263f"/>
        <rect id="Rectángulo_58318" data-name="Rectángulo 58318" width="1.656" height="1.66" transform="translate(48.385 43.204)" fill="#12263f"/>
        <path id="Trazado_231952" data-name="Trazado 231952" d="M161.224,83.092V74.521h6V72.8h-6V69.352h-3.444v3.389H143.97V64.181h13.776v3.382h3.444V64.172H175v8.581h-5.982V74.49h5.972v8.6ZM162.98,71h10.277V65.91H162.98Zm0,10.364h10.277v-5.1H162.982Zm-17.27-10.362h10.277v-5.1H145.712Z" transform="translate(-128.399 -57.231)" fill="#12263f"/>
        <rect id="Rectángulo_58319" data-name="Rectángulo 58319" width="12.038" height="1.651" transform="translate(15.564 20.758)" fill="#12263f"/>
        <rect id="Rectángulo_58320" data-name="Rectángulo 58320" width="7.704" height="1.663" transform="translate(19.885 24.206)" fill="#12263f"/>
        <rect id="Rectángulo_58321" data-name="Rectángulo 58321" width="1.661" height="1.671" transform="translate(19.035 17.303)" fill="#12263f"/>
        <rect id="Rectángulo_58322" data-name="Rectángulo 58322" width="1.66" height="1.661" transform="translate(22.48 17.313)" fill="#12263f"/>
        <rect id="Rectángulo_58323" data-name="Rectángulo 58323" width="1.657" height="1.68" transform="translate(25.936 17.296)" fill="#12263f"/>
        <rect id="Rectángulo_58324" data-name="Rectángulo 58324" width="3.425" height="1.68" transform="translate(39.745 10.386)" fill="#12263f"/>
        <rect id="Rectángulo_58325" data-name="Rectángulo 58325" width="1.692" height="1.673" transform="translate(36.294 10.389)" fill="#12263f"/>
        <rect id="Rectángulo_58326" data-name="Rectángulo 58326" width="6.844" height="1.682" transform="translate(36.299 20.756)" fill="#12263f"/>
        <rect id="Rectángulo_58327" data-name="Rectángulo 58327" width="7.743" height="1.679" transform="translate(19.002 10.386)" fill="#12263f"/>
      </g>
    </g>
  </g>
</svg>
