<svg xmlns="http://www.w3.org/2000/svg" xmlns:xlink="http://www.w3.org/1999/xlink" width="315.001" height="310.668" viewBox="0 0 315.001 310.668">
  <defs>
    <linearGradient id="linear-gradient" x1="-1.444" y1="0.929" x2="-1.441" y2="0.929" gradientUnits="objectBoundingBox">
      <stop offset="0" stop-color="#f5f5f5"/>
      <stop offset="0.365" stop-color="#f5f5f5"/>
      <stop offset="1" stop-color="#afafaf"/>
    </linearGradient>
    <linearGradient id="linear-gradient-5" y1="0.974" x2="-0.078" y2="-0.228" gradientUnits="objectBoundingBox">
      <stop offset="0" stop-color="#f5f5f5"/>
      <stop offset="0.25" stop-color="#f5f5f5"/>
      <stop offset="1" stop-color="#afafaf"/>
    </linearGradient>
    <clipPath id="clip-path">
      <rect id="Rectángulo_342943" data-name="Rectángulo 342943" width="229.119" height="297.532" fill="none"/>
    </clipPath>
    <clipPath id="clip-path-3">
      <rect id="Rectángulo_342938" data-name="Rectángulo 342938" width="226.36" height="130.94" fill="none"/>
    </clipPath>
    <clipPath id="clip-path-4">
      <rect id="Rectángulo_342939" data-name="Rectángulo 342939" width="6.836" height="21.637" fill="none"/>
    </clipPath>
    <clipPath id="clip-path-5">
      <rect id="Rectángulo_342940" data-name="Rectángulo 342940" width="60.939" height="68.058" fill="none"/>
    </clipPath>
    <clipPath id="clip-path-7">
      <rect id="Rectángulo_59017" data-name="Rectángulo 59017" width="139.374" height="180.668" fill="none"/>
    </clipPath>
    <clipPath id="clip-path-9">
      <rect id="Rectángulo_59014" data-name="Rectángulo 59014" width="139.372" height="91.011" transform="translate(0.002 0.001)" fill="none"/>
    </clipPath>
    <clipPath id="clip-path-10">
      <rect id="Rectángulo_59015" data-name="Rectángulo 59015" width="137.691" height="79.725" transform="translate(0.875)" fill="none"/>
    </clipPath>
    <clipPath id="clip-path-11">
      <path id="Trazado_655648" data-name="Trazado 655648" d="M58.566,56.39c-.074,0-.144.009-.217.01-.213,0-.424.014-.632.03-.063,0-.129,0-.191.009-.047,0-.09.015-.137.02-.32.033-.635.077-.943.137-.025,0-.053.006-.078.011l-.021,0c-.062.013-.122.03-.184.044-.192.043-.383.087-.57.14-.091.026-.18.057-.27.085-.119.037-.24.07-.357.112-.03.011-.057.025-.087.035-.181.066-.357.141-.533.217-.085.036-.171.069-.255.108-.256.12-.507.249-.751.391l-12.85,7.468c.244-.142.495-.271.751-.391.084-.039.171-.072.257-.109.175-.076.351-.15.531-.216.147-.053.3-.1.447-.148.089-.028.177-.059.267-.084.188-.053.379-.1.572-.141.061-.013.121-.031.183-.043.033-.007.066-.01.1-.017.308-.059.623-.1.943-.137.108-.011.218-.02.328-.029.208-.016.419-.025.632-.03.12,0,.24-.006.361-.006.168,0,.339.009.511.017.138.007.277.012.417.023s.289.028.433.044.316.035.476.058c.135.019.271.044.407.067.171.029.342.06.515.1.117.024.235.051.354.078q.277.064.557.138c.117.031.235.063.353.1.2.058.408.123.614.19.1.032.192.061.289.095q.9.313,1.837.736c.1.044.194.092.292.138q.327.154.657.321.164.084.329.17c.292.155.584.312.879.482l.4.231,12.851-7.468-.4-.232q-.321-.186-.639-.357c-.081-.044-.16-.082-.241-.125q-.164-.087-.328-.17c-.084-.043-.17-.09-.254-.132-.135-.067-.269-.127-.4-.19-.1-.046-.193-.093-.29-.137l-.12-.057q-.4-.179-.8-.338l-.007,0h0q-.408-.163-.811-.3l-.1-.034c-.1-.034-.193-.063-.289-.095-.137-.045-.275-.094-.412-.135-.068-.02-.134-.036-.2-.055-.119-.034-.237-.066-.355-.1-.091-.024-.183-.053-.274-.076s-.188-.041-.282-.063c-.118-.027-.236-.054-.353-.079-.062-.013-.126-.03-.188-.042-.111-.021-.219-.035-.329-.054-.136-.023-.272-.048-.406-.067-.048-.007-.1-.017-.145-.024-.112-.015-.221-.022-.332-.034-.145-.016-.29-.033-.434-.044-.042,0-.086-.01-.128-.013-.1-.007-.192,0-.289-.01-.171-.008-.342-.015-.51-.017-.046,0-.094,0-.14,0h0" transform="translate(-40.489 -56.39)" fill="url(#linear-gradient)"/>
    </clipPath>
    <clipPath id="clip-path-12">
      <path id="Trazado_655649" data-name="Trazado 655649" d="M199.385,0c-.075,0-.147.009-.221.011-.206,0-.411.014-.612.029-.063,0-.13,0-.193.009-.048,0-.093.015-.141.02-.308.032-.611.075-.908.131-.034.006-.071.008-.1.015l-.031.007c-.076.015-.148.036-.223.053-.181.041-.361.082-.538.132-.095.027-.187.059-.281.088-.116.036-.235.069-.349.109-.03.011-.059.025-.089.036-.182.067-.359.141-.535.218-.086.037-.174.071-.258.11-.258.121-.51.25-.756.393l-12.85,7.468c.245-.143.5-.272.756-.393.084-.039.171-.072.256-.109.177-.077.354-.152.537-.218.144-.052.29-.1.437-.146.094-.03.187-.061.283-.089.175-.049.354-.091.533-.131.076-.018.151-.038.228-.054.044-.009.089-.013.133-.022.3-.056.6-.1.91-.131.11-.011.221-.021.333-.029.2-.015.406-.024.612-.029.123,0,.245-.006.369-.006.174,0,.35.009.527.017.136.007.272.011.41.022s.3.03.458.047.311.034.468.057c.125.018.251.041.377.062.176.03.352.062.53.1.123.025.247.054.371.082q.276.064.556.138c.116.031.231.062.348.1.2.059.408.123.614.19.1.033.2.063.3.1.3.1.6.215.909.337l.008,0,.009,0c.3.122.611.255.919.4.1.043.193.091.29.136q.33.155.662.324c.11.056.22.113.33.171.293.155.587.313.883.484.529.305,1.051.635,1.569.98l.184.121c.487.329.967.677,1.443,1.039l.234.179q.7.544,1.387,1.133l.249.218q.694.607,1.369,1.254c.048.047.1.1.144.142q.682.664,1.341,1.368l.073.077c.446.48.882.975,1.31,1.479.054.064.109.127.163.191.4.479.795.971,1.18,1.471q.136.177.271.355c.255.338.5.684.749,1.029.2.281.4.562.6.848.343.5.681,1.008,1.006,1.523l.033.051c.34.542.666,1.093.985,1.649.137.238.269.478.4.718.234.423.465.847.686,1.276.06.116.121.233.18.349q.432.857.83,1.726l.107.235q.4.891.762,1.794c.028.069.056.138.084.208q.359.907.674,1.822c.025.072.051.145.076.217q.309.908.573,1.819c.024.083.049.167.073.251.185.65.355,1.3.5,1.95l12.85-7.468q-.073-.316-.151-.632-.132-.535-.281-1.071c-.023-.082-.049-.164-.072-.247s-.049-.169-.074-.254c-.055-.189-.107-.377-.165-.565q-.161-.524-.336-1.048c-.023-.068-.048-.135-.071-.2s-.051-.147-.077-.22c-.07-.2-.138-.4-.211-.606q-.179-.494-.371-.987c-.029-.076-.061-.151-.091-.226s-.057-.141-.085-.211c-.072-.18-.142-.36-.217-.539q-.2-.482-.412-.961c-.043-.1-.089-.194-.133-.292l-.107-.236c-.07-.153-.138-.307-.209-.459q-.236-.5-.484-1c-.044-.088-.091-.175-.136-.263-.059-.118-.121-.234-.181-.352-.1-.2-.205-.406-.313-.607-.12-.225-.25-.445-.373-.668-.133-.24-.264-.48-.4-.718-.059-.1-.113-.207-.172-.309q-.4-.676-.812-1.339l-.036-.055q-.392-.623-.8-1.233c-.065-.1-.136-.19-.2-.286-.2-.286-.4-.567-.6-.848-.147-.206-.288-.419-.439-.622-.1-.138-.207-.271-.31-.407q-.135-.179-.271-.355c-.091-.117-.179-.238-.27-.354q-.389-.495-.79-.976c-.04-.047-.08-.093-.12-.141-.054-.064-.109-.127-.163-.191-.162-.191-.322-.383-.487-.569q-.39-.444-.789-.874l-.035-.036-.073-.077c-.236-.252-.473-.5-.713-.748-.207-.212-.418-.417-.629-.622-.048-.046-.094-.095-.142-.141l-.082-.081q-.439-.421-.887-.825c-.133-.119-.267-.233-.4-.35-.083-.072-.165-.145-.248-.217s-.165-.146-.248-.216q-.446-.376-.9-.734c-.08-.063-.16-.121-.24-.183l-.236-.18c-.138-.105-.276-.214-.415-.317q-.432-.317-.869-.617c-.052-.036-.105-.069-.158-.1l-.183-.121c-.174-.116-.347-.233-.521-.344q-.423-.27-.85-.521l-.2-.115q-.322-.186-.642-.359c-.081-.044-.161-.083-.242-.125q-.165-.087-.329-.171c-.085-.043-.171-.091-.256-.133-.136-.067-.271-.128-.406-.191-.1-.046-.194-.093-.29-.137-.04-.018-.08-.039-.12-.056q-.406-.181-.806-.342h0q-.408-.164-.811-.305l-.106-.035c-.1-.034-.2-.064-.294-.1-.138-.045-.276-.094-.413-.135-.068-.021-.135-.037-.2-.056-.116-.034-.232-.065-.347-.1-.091-.024-.183-.053-.274-.076s-.188-.041-.282-.063c-.124-.029-.248-.057-.371-.082-.064-.013-.129-.03-.193-.043-.113-.022-.225-.036-.338-.056S201.52.166,201.4.148c-.046-.007-.092-.017-.138-.023-.112-.015-.22-.022-.331-.034-.153-.017-.307-.035-.458-.047-.042,0-.084-.01-.126-.013-.1-.007-.189,0-.284-.009-.176-.009-.353-.016-.526-.017-.047,0-.1,0-.142,0h-.006" transform="translate(-181.294)" fill="url(#linear-gradient)"/>
    </clipPath>
    <clipPath id="clip-path-13">
      <path id="Trazado_655650" data-name="Trazado 655650" d="M413.479,216.49c.218.079.438.166.659.256.1.039.195.082.293.124.145.062.291.125.437.193.1.044.191.09.287.135q.224.107.45.222c.092.047.183.094.275.143.22.116.44.235.661.363.27.156.538.319.805.488l.043.026c.259.165.516.336.771.513.088.06.174.124.262.186.171.121.341.243.51.369.1.077.207.157.309.236q.229.176.456.357c.111.089.221.179.331.27q.217.179.432.364.169.145.337.294.21.186.418.378c.112.1.223.206.334.311.141.134.281.27.42.406.1.1.206.2.307.3.144.145.286.293.428.441.094.1.189.2.282.3.163.175.325.354.486.534.066.074.133.145.2.22q.34.387.672.785l.1.124q.281.341.556.689.35.446.688.9l.01.014c.319.433.628.877.93,1.325.055.082.111.164.166.246q.562.847,1.082,1.725c.045.075.09.15.135.226q.365.625.707,1.261c.084.157.165.315.247.473s.17.324.252.488c.118.236.234.474.347.712.034.071.07.142.1.213q.214.455.415.914c.035.079.068.158.1.238q.148.342.288.686c.042.1.083.206.124.309q.131.33.255.661c.035.094.071.187.105.281q.16.437.309.875c.007.022.016.044.023.067q.158.473.3.946c.031.1.059.2.089.3.064.218.126.436.186.654.032.119.063.239.094.358q.079.3.151.609c.029.12.057.24.084.359q.07.313.134.625c.022.11.046.22.067.329q.079.41.145.818c.006.039.014.078.02.116.049.311.092.62.13.929.011.088.019.175.029.262.025.222.048.443.067.664.009.1.017.21.025.315q.024.314.038.626c0,.1.01.2.014.3.01.295.017.589.017.88l12.85-7.468q0-.368-.01-.74c0-.046,0-.094-.006-.141,0-.1-.009-.2-.014-.3-.006-.118-.009-.235-.017-.354-.006-.09-.015-.182-.022-.272s-.016-.21-.025-.315c-.006-.07-.01-.14-.017-.21-.014-.152-.034-.3-.051-.456-.01-.086-.018-.172-.029-.259,0-.029-.006-.059-.01-.088q-.052-.411-.117-.823l0-.018c-.006-.039-.014-.078-.02-.116-.038-.231-.076-.463-.12-.694-.008-.041-.017-.082-.025-.124-.021-.109-.044-.219-.067-.328-.027-.134-.053-.269-.082-.4-.016-.074-.035-.149-.052-.223q-.041-.179-.084-.359c-.022-.092-.042-.184-.065-.276-.027-.11-.058-.221-.087-.331s-.062-.241-.095-.361c-.016-.059-.03-.119-.047-.178-.044-.158-.092-.316-.138-.474-.03-.1-.058-.2-.089-.3-.009-.029-.016-.058-.025-.087q-.13-.424-.272-.847l0-.01-.026-.075c-.085-.25-.171-.5-.262-.751-.014-.039-.03-.078-.044-.118-.034-.094-.07-.187-.106-.281-.05-.134-.1-.269-.151-.4-.033-.085-.069-.17-.1-.255q-.062-.157-.126-.313c-.031-.076-.06-.152-.092-.228-.063-.151-.129-.3-.194-.453-.035-.081-.069-.162-.1-.243-.013-.028-.024-.057-.037-.086q-.176-.4-.36-.791l-.016-.033c-.036-.077-.074-.152-.111-.229-.1-.2-.192-.4-.292-.6l-.048-.094c-.083-.166-.17-.33-.256-.5-.068-.132-.134-.264-.2-.4-.013-.024-.027-.047-.04-.071q-.343-.638-.709-1.263c-.02-.035-.039-.071-.059-.106s-.05-.078-.073-.117q-.521-.878-1.084-1.727c-.02-.03-.038-.062-.058-.093-.034-.052-.072-.1-.107-.152-.519-.769-1.062-1.52-1.629-2.243l-.03-.04c-.173-.219-.349-.435-.525-.649-.034-.041-.066-.083-.1-.124l-.006-.008q-.313-.376-.633-.741l-.032-.036c-.065-.074-.132-.145-.2-.219-.136-.151-.271-.3-.408-.452l-.08-.084c-.092-.1-.185-.194-.277-.291s-.208-.221-.313-.328c-.039-.04-.079-.077-.119-.117-.1-.1-.2-.2-.307-.3s-.176-.177-.265-.263c-.051-.049-.1-.1-.154-.144-.111-.1-.222-.208-.334-.31-.078-.072-.154-.146-.233-.217-.061-.055-.124-.107-.186-.162q-.169-.149-.338-.3c-.069-.059-.136-.121-.2-.179s-.151-.122-.226-.184q-.165-.137-.331-.27c-.058-.046-.115-.1-.173-.141-.095-.075-.191-.145-.286-.218s-.2-.158-.307-.234c-.042-.032-.084-.065-.126-.1-.127-.094-.256-.182-.384-.273-.087-.062-.174-.125-.262-.186l-.068-.048q-.346-.237-.7-.46l-.007,0-.042-.026c-.214-.136-.428-.268-.644-.395l-.161-.094q-.251-.144-.5-.28c-.053-.029-.106-.054-.16-.082-.093-.049-.185-.1-.278-.144-.073-.037-.147-.078-.219-.113s-.151-.071-.228-.107c-.1-.046-.193-.092-.29-.137-.05-.023-.1-.048-.15-.071-.1-.043-.19-.08-.284-.121s-.2-.085-.295-.125l-.1-.044q-.28-.112-.555-.212Z" transform="translate(-413.479 -209.022)" fill="url(#linear-gradient)"/>
    </clipPath>
    <clipPath id="clip-path-14">
      <path id="Trazado_655651" data-name="Trazado 655651" d="M547.581,422.026l2.388,1.379c.46.265.913.555,1.361.864l.081.057q.626.437,1.233.928l.136.111q.587.481,1.155,1.009l.135.126q.575.541,1.126,1.125l.094.1q.589.629,1.148,1.3l.012.014q.572.689,1.109,1.417l0,.006c.326.442.638.9.943,1.358.188.285.365.577.545.868.152.246.308.488.454.738.069.119.134.239.2.359.236.417.466.838.684,1.264.024.046.048.092.071.138q.392.779.741,1.573l.036.084q.338.778.631,1.566l.039.1q.3.806.542,1.618c.01.032.018.064.028.1q.233.78.416,1.56c.011.049.023.1.034.147.123.536.229,1.071.313,1.6l0,.024c.085.536.148,1.069.193,1.6,0,.044.007.087.01.131.041.529.064,1.053.063,1.57s-.027,1.012-.071,1.49c0,.044-.009.086-.013.129q-.066.658-.185,1.267-.016.082-.033.162-.122.589-.292,1.129c-.021.068-.044.133-.066.2a9.952,9.952,0,0,1-.378.968c-.016.035-.029.073-.045.108a8.512,8.512,0,0,1-.546.989c-.026.04-.056.075-.082.114a7.5,7.5,0,0,1-.528.7c-.067.079-.138.154-.208.229a6.814,6.814,0,0,1-.51.494c-.073.064-.144.13-.22.19a6.485,6.485,0,0,1-.785.547l12.851-7.468a6.516,6.516,0,0,0,.785-.547c.076-.06.147-.126.22-.19a6.875,6.875,0,0,0,.51-.494c.07-.075.141-.15.208-.229a7.515,7.515,0,0,0,.528-.7c.027-.039.057-.075.083-.115.006-.009.013-.017.018-.026a8.54,8.54,0,0,0,.513-.929c.005-.011.009-.023.015-.035.016-.034.029-.072.045-.107.093-.205.185-.413.266-.631.041-.109.075-.226.112-.338.022-.066.045-.131.066-.2s.041-.117.059-.179q.1-.338.181-.694c.019-.084.034-.172.051-.257.011-.054.022-.108.033-.162.016-.082.035-.162.049-.246q.055-.318.1-.649c.015-.122.026-.248.038-.372,0-.043.009-.086.013-.129s.012-.1.016-.153q.026-.315.04-.641t.016-.657c0-.013,0-.026,0-.039v-.076q0-.267-.008-.537c-.007-.219-.017-.437-.031-.658-.006-.1-.016-.2-.024-.3,0-.044-.007-.087-.01-.131-.006-.077-.011-.153-.018-.231q-.032-.332-.074-.666c-.029-.226-.061-.454-.1-.682l0-.018c0-.008,0-.017,0-.025q-.051-.321-.111-.643-.066-.354-.144-.709c-.018-.083-.039-.167-.058-.25l-.034-.147c-.025-.1-.047-.21-.073-.314q-.089-.36-.189-.721c-.049-.175-.1-.349-.153-.524l-.028-.1c-.01-.032-.018-.065-.028-.1q-.108-.352-.225-.7t-.241-.692c-.015-.042-.032-.084-.048-.126l-.038-.1c-.054-.145-.107-.291-.164-.436q-.129-.331-.266-.661c-.065-.157-.133-.313-.2-.47l-.036-.085c-.014-.032-.027-.064-.041-.1q-.146-.331-.3-.658-.168-.358-.345-.713c-.018-.036-.037-.071-.055-.106l-.071-.137c-.1-.19-.194-.381-.294-.569-.125-.234-.259-.464-.39-.695-.068-.119-.132-.24-.2-.358-.027-.047-.052-.095-.079-.142-.119-.2-.251-.4-.374-.6-.18-.291-.356-.583-.545-.868-.03-.046-.057-.094-.087-.139q-.415-.621-.856-1.219l0-.006h0q-.3-.4-.6-.793-.249-.317-.505-.624l-.012-.015-.007-.008q-.259-.312-.525-.614t-.529-.586c-.029-.031-.058-.061-.087-.092l-.094-.1c-.124-.132-.248-.264-.374-.393q-.283-.289-.573-.567c-.059-.057-.12-.111-.18-.167l-.135-.125c-.094-.088-.188-.177-.283-.263q-.3-.269-.6-.527c-.089-.075-.179-.146-.269-.22l-.136-.111c-.067-.054-.133-.11-.2-.163q-.3-.234-.6-.455c-.145-.106-.291-.208-.436-.31l-.081-.057-.074-.053q-.287-.2-.577-.382t-.575-.352l-.134-.078-2.389-1.379Z" transform="translate(-547.581 -414.558)" fill="url(#linear-gradient)"/>
    </clipPath>
    <linearGradient id="linear-gradient-9" x1="-1.444" y1="0.929" x2="-1.441" y2="0.929" gradientUnits="objectBoundingBox">
      <stop offset="0" stop-color="#f5f5f5"/>
      <stop offset="0.655" stop-color="#f5f5f5"/>
      <stop offset="1" stop-color="#afafaf"/>
    </linearGradient>
    <clipPath id="clip-path-15">
      <path id="Trazado_655652" data-name="Trazado 655652" d="M20.55,62.762l-.4-.232C9.055,56.126.036,61.266,0,74.013s8.924,28.267,20.017,34.672L42.55,121.693l8.774,5.066,30.2,17.435c7.506,4.334,13.605.853,13.63-7.767s-6.035-19.121-13.541-23.454l-2.388-1.379c.03-10.4-7.285-23.073-16.339-28.3a19.213,19.213,0,0,0-3.062-1.436C57.3,70.926,49.653,59.621,40.581,54.384a18.371,18.371,0,0,0-9.05-2.767c-5.8,0-10.015,4.033-10.981,11.145" transform="translate(0 -51.617)" fill="url(#linear-gradient-5)"/>
    </clipPath>
  </defs>
  <g id="Grupo_985586" data-name="Grupo 985586" transform="translate(10496.333 13230.93)">
    <g id="Grupo_985585" data-name="Grupo 985585">
      <g id="Grupo_985572" data-name="Grupo 985572" transform="translate(-10496.333 -13230.93)">
        <g id="Grupo_981397" data-name="Grupo 981397" clip-path="url(#clip-path)">
          <g id="Grupo_981396" data-name="Grupo 981396">
            <g id="Grupo_981395" data-name="Grupo 981395" clip-path="url(#clip-path)">
              <path id="Trazado_655560" data-name="Trazado 655560" d="M.028,5.457A1.82,1.82,0,0,1,.1,5.06a.094.094,0,0,1,.015-.086,1.5,1.5,0,0,1,.1-.384,1.972,1.972,0,0,1,.256-.554.776.776,0,0,1,.143-.227.666.666,0,0,1,.127-.157,1.345,1.345,0,0,1,.285-.284l.028-.029a1.984,1.984,0,0,1,.37-.213,3.141,3.141,0,0,1,2.914.37L219.247,127.5a9.6,9.6,0,0,1,4.336,7.505V293.277c0,.012,0,.024,0,.035v.948a2.966,2.966,0,0,1-1.563,2.621c-.062.041-.119.064-.181.105s-.142.086-.228.129a1.687,1.687,0,0,1-.37.128,2.5,2.5,0,0,1-.554.071,2.779,2.779,0,0,1-1.436-.413l-.113-.066-.01,0-4.131-2.384L4.335,172.821A9.576,9.576,0,0,1,0,165.316V6c0-.185.014-.37.028-.54" transform="translate(0 0.217)" fill="#fafafa"/>
              <path id="Trazado_655561" data-name="Trazado 655561" d="M1.323,3.344a3.144,3.144,0,0,1,2.914.37L219.15,127.723a9.6,9.6,0,0,1,4.336,7.5v14.157l5.528-3.241V132.086a9.561,9.561,0,0,0-4.321-7.491L9.765.587A3.011,3.011,0,0,0,6.625.331C5.843.8,2.247,2.86,1.323,3.344" transform="translate(0.099 0)" fill="#27debf"/>
              <path id="Trazado_655562" data-name="Trazado 655562" d="M.009,5.969C.026,3.233,1.955,2.128,4.336,3.5L219.25,127.51a9.571,9.571,0,0,1,4.33,7.5l0,14.164L.009,20.182Z" transform="translate(0.001 0.217)" fill="#27debf"/>
              <g id="Grupo_981385" data-name="Grupo 981385" transform="translate(1.438)" opacity="0.5">
                <g id="Grupo_981384" data-name="Grupo 981384">
                  <g id="Grupo_981383" data-name="Grupo 981383" clip-path="url(#clip-path-3)">
                    <path id="Trazado_655563" data-name="Trazado 655563" d="M4.238,3.718,219.146,127.726a8.9,8.9,0,0,1,3.051,3.214l5.5-3.187a8.654,8.654,0,0,0-3.012-3.162L9.769.583A3.047,3.047,0,0,0,6.621.327c-.777.477-4.37,2.52-5.284,3.01a3.132,3.132,0,0,1,2.9.381" transform="translate(-1.338 0)" fill="#fff"/>
                  </g>
                </g>
              </g>
              <g id="Grupo_981388" data-name="Grupo 981388" transform="translate(222.283 127.753)" opacity="0.15">
                <g id="Grupo_981387" data-name="Grupo 981387">
                  <g id="Grupo_981386" data-name="Grupo 981386" clip-path="url(#clip-path-4)">
                    <path id="Trazado_655564" data-name="Trazado 655564" d="M213.7,137.3l0-14.078a8.935,8.935,0,0,0-1.317-4.33l-5.515,3.172a8.765,8.765,0,0,1,1.293,4.3v14.161Z" transform="translate(-206.869 -118.894)"/>
                  </g>
                </g>
              </g>
              <path id="Trazado_655565" data-name="Trazado 655565" d="M24.011,20.713c1.351.78,2.447,3.1,2.447,5.179s-1.1,3.134-2.447,2.354-2.447-3.1-2.447-5.179,1.095-3.134,2.447-2.354" transform="translate(1.607 1.524)" fill="#fafafa"/>
              <path id="Trazado_655566" data-name="Trazado 655566" d="M15.814,15.971c1.352.78,2.447,3.1,2.447,5.179s-1.095,3.134-2.447,2.354-2.447-3.1-2.447-5.179,1.095-3.134,2.447-2.354" transform="translate(0.996 1.171)" fill="#fafafa"/>
              <path id="Trazado_655567" data-name="Trazado 655567" d="M7.616,11.23c1.352.78,2.447,3.1,2.447,5.179s-1.095,3.135-2.447,2.354-2.447-3.1-2.447-5.179S6.264,10.45,7.616,11.23" transform="translate(0.385 0.818)" fill="#fafafa"/>
              <path id="Trazado_655568" data-name="Trazado 655568" d="M206.614,286.963l.239-.133,4.569-2.634a4.59,4.59,0,0,0,2.261-3.357,4.825,4.825,0,0,0,.043-.633V136.01l-5.535,3.245V284.337a2.951,2.951,0,0,1-1.383,2.506c-.128.075-.193.12-.193.12" transform="translate(15.395 10.134)" fill="#e0e0e0"/>
              <path id="Trazado_655569" data-name="Trazado 655569" d="M210.188,149.093,11.865,34.591c-2.39-1.38-4.327-.261-4.327,2.5V59.9a9.564,9.564,0,0,0,4.326,7.493L210.188,181.9c2.389,1.379,4.326.261,4.326-2.5V156.586a9.561,9.561,0,0,0-4.326-7.494" transform="translate(0.562 2.533)" fill="#27debf"/>
              <path id="Trazado_655570" data-name="Trazado 655570" d="M191.246,153.871v4.376c0,1.38-.969,1.939-2.163,1.25l-87.12-50.3V99.825l87.12,50.3a4.781,4.781,0,0,1,2.163,3.747" transform="translate(7.597 7.438)" fill="#fafafa"/>
              <path id="Trazado_655571" data-name="Trazado 655571" d="M92.8,94.465c-1.195-.69-2.167-.131-2.172,1.249l-.016,4.4a4.749,4.749,0,0,0,2.158,3.741l10.041,5.767v-9.372Z" transform="translate(6.751 7.017)" fill="#455a64"/>
              <path id="Trazado_655572" data-name="Trazado 655572" d="M93.708,103.339a.844.844,0,0,0,.3.34.266.266,0,0,0,.3.008l1.043-.79a4.27,4.27,0,0,0,1.366,1.382c1.3.748,2.349-.048,2.349-1.775a5.633,5.633,0,0,0-2.349-4.489c-1.295-.748-2.349.049-2.349,1.776a5.51,5.51,0,0,0,.391,1.951l-1.052.8c-.167.125-.167.484,0,.8m3.01-.193a3.6,3.6,0,0,1-1.5-2.865c0-1.1.674-1.612,1.5-1.135a3.6,3.6,0,0,1,1.5,2.866c0,1.1-.672,1.611-1.5,1.134" transform="translate(6.973 7.282)" fill="#fafafa"/>
              <path id="Trazado_655573" data-name="Trazado 655573" d="M196.029,179.339,133.258,143.1c-.6-.345-1.081-.066-1.081.624v35.019a2.39,2.39,0,0,0,1.082,1.873l62.77,36.213c.6.345,1.082.066,1.082-.624V181.212a2.392,2.392,0,0,0-1.082-1.873" transform="translate(9.848 10.651)" fill="#27debf"/>
              <g id="Grupo_981391" data-name="Grupo 981391" transform="translate(144.023 156.586)" opacity="0.6">
                <g id="Grupo_981390" data-name="Grupo 981390">
                  <g id="Grupo_981389" data-name="Grupo 981389" clip-path="url(#clip-path-5)">
                    <path id="Trazado_655574" data-name="Trazado 655574" d="M194.975,181.006a1.487,1.487,0,0,0-.129-.174l-60.81-35.1v32.807a1.663,1.663,0,0,0,.13.174l60.809,35.077Z" transform="translate(-134.036 -145.728)" fill="#fff"/>
                  </g>
                </g>
              </g>
              <path id="Trazado_655575" data-name="Trazado 655575" d="M134.036,176.938v-3.1l17.045-6.676,10.46,13.969-3.6,4.054,18.74-11.714,18.294,31v7.715l-60.809-35.077a1.486,1.486,0,0,1-.129-.174" transform="translate(9.987 12.455)" fill="#fafafa"/>
              <path id="Trazado_655576" data-name="Trazado 655576" d="M138.282,158.019a6.824,6.824,0,0,0,2.85,5.445c1.574.909,2.85-.056,2.85-2.154a6.824,6.824,0,0,0-2.85-5.445c-1.574-.909-2.85.056-2.85,2.154" transform="translate(10.303 11.588)" fill="#fafafa"/>
              <path id="Trazado_655577" data-name="Trazado 655577" d="M125.837,138.78,81.463,113.16c-1.195-.69-2.163-.131-2.163,1.249v2.034a4.784,4.784,0,0,0,2.163,3.747l44.375,25.62c1.195.69,2.163.131,2.163-1.249v-2.034a4.785,4.785,0,0,0-2.164-3.747" transform="translate(5.909 8.409)" fill="#455a64"/>
              <path id="Trazado_655578" data-name="Trazado 655578" d="M124.711,146.854l-28.14-16.247c-1.195-.69-2.163-.2-2.163,1.094a4.639,4.639,0,0,0,2.163,3.592l28.14,16.247c1.195.69,2.163.2,2.163-1.094a4.639,4.639,0,0,0-2.163-3.592" transform="translate(7.034 9.708)" fill="#27debf"/>
              <path id="Trazado_655579" data-name="Trazado 655579" d="M131.336,159.414,13.046,91.12c-.956-.551-1.731-.173-1.731.845a3.68,3.68,0,0,0,1.731,2.842L131.336,163.1c.955.552,1.73.174,1.73-.843a3.685,3.685,0,0,0-1.73-2.843" transform="translate(0.843 6.77)" fill="#e0e0e0"/>
              <path id="Trazado_655580" data-name="Trazado 655580" d="M131.336,164.738,13.046,96.444c-.956-.551-1.731-.173-1.731.845a3.683,3.683,0,0,0,1.731,2.843l118.289,68.294c.955.552,1.73.174,1.73-.844a3.685,3.685,0,0,0-1.73-2.843" transform="translate(0.843 7.167)" fill="#e0e0e0"/>
              <path id="Trazado_655581" data-name="Trazado 655581" d="M131.336,170.062,13.046,101.768c-.956-.551-1.731-.173-1.731.845a3.683,3.683,0,0,0,1.731,2.843l118.289,68.294c.955.552,1.73.174,1.73-.843a3.685,3.685,0,0,0-1.73-2.843" transform="translate(0.843 7.564)" fill="#e0e0e0"/>
              <path id="Trazado_655582" data-name="Trazado 655582" d="M11.316,75.159v4.376a4.781,4.781,0,0,0,2.163,3.747L29.445,92.5c1.194.69,2.163.13,2.163-1.25V86.874a4.784,4.784,0,0,0-2.163-3.747L13.479,73.91c-1.195-.69-2.163-.131-2.163,1.249" transform="translate(0.843 5.485)" fill="#27debf"/>
              <path id="Trazado_655583" data-name="Trazado 655583" d="M196.029,222.1,133.258,185.86c-.6-.345-1.081-.066-1.081.624V221.5a2.39,2.39,0,0,0,1.082,1.873l62.77,36.213c.6.345,1.082.066,1.082-.624V223.974a2.392,2.392,0,0,0-1.082-1.873" transform="translate(9.848 13.837)" fill="#27debf"/>
              <g id="Grupo_981394" data-name="Grupo 981394" transform="translate(144.023 202.534)" opacity="0.6">
                <g id="Grupo_981393" data-name="Grupo 981393">
                  <g id="Grupo_981392" data-name="Grupo 981392" clip-path="url(#clip-path-5)">
                    <path id="Trazado_655584" data-name="Trazado 655584" d="M194.975,223.768a1.474,1.474,0,0,0-.129-.174l-60.81-35.1V221.3a1.674,1.674,0,0,0,.13.174l60.809,35.077Z" transform="translate(-134.036 -188.49)" fill="#fff"/>
                  </g>
                </g>
              </g>
              <path id="Trazado_655585" data-name="Trazado 655585" d="M134.036,219.7v-3.1l17.045-6.676,10.46,13.969-3.6,4.054,18.74-11.714,18.294,31v7.715l-60.809-35.077a1.493,1.493,0,0,1-.129-.174" transform="translate(9.987 15.641)" fill="#fafafa"/>
              <path id="Trazado_655586" data-name="Trazado 655586" d="M138.282,200.781a6.824,6.824,0,0,0,2.85,5.445c1.574.909,2.85-.056,2.85-2.154a6.824,6.824,0,0,0-2.85-5.445c-1.574-.908-2.85.056-2.85,2.154" transform="translate(10.303 14.774)" fill="#fafafa"/>
              <path id="Trazado_655587" data-name="Trazado 655587" d="M125.837,181.542l-44.374-25.62c-1.195-.69-2.163-.131-2.163,1.249v2.034a4.784,4.784,0,0,0,2.163,3.747l44.375,25.62c1.195.69,2.163.131,2.163-1.249v-2.034a4.785,4.785,0,0,0-2.164-3.747" transform="translate(5.909 11.596)" fill="#455a64"/>
              <path id="Trazado_655588" data-name="Trazado 655588" d="M124.711,189.616,96.571,173.37c-1.195-.69-2.163-.2-2.163,1.094a4.639,4.639,0,0,0,2.163,3.592l28.14,16.247c1.195.69,2.163.2,2.163-1.094a4.638,4.638,0,0,0-2.163-3.592" transform="translate(7.034 12.894)" fill="#27debf"/>
              <path id="Trazado_655589" data-name="Trazado 655589" d="M131.336,202.176,13.046,133.882c-.956-.551-1.731-.173-1.731.845a3.684,3.684,0,0,0,1.731,2.843l118.289,68.294c.955.552,1.73.174,1.73-.843a3.685,3.685,0,0,0-1.73-2.843" transform="translate(0.843 9.957)" fill="#e0e0e0"/>
              <path id="Trazado_655590" data-name="Trazado 655590" d="M131.336,207.5,13.046,139.206c-.956-.551-1.731-.174-1.731.845a3.683,3.683,0,0,0,1.731,2.843l118.289,68.294c.955.552,1.73.174,1.73-.845a3.683,3.683,0,0,0-1.73-2.842" transform="translate(0.843 10.353)" fill="#e0e0e0"/>
              <path id="Trazado_655591" data-name="Trazado 655591" d="M131.336,212.824,13.046,144.53c-.956-.551-1.731-.174-1.731.845a3.684,3.684,0,0,0,1.731,2.843l118.289,68.294c.955.552,1.73.174,1.73-.845a3.683,3.683,0,0,0-1.73-2.842" transform="translate(0.843 10.75)" fill="#e0e0e0"/>
              <path id="Trazado_655592" data-name="Trazado 655592" d="M11.316,117.921V122.3a4.781,4.781,0,0,0,2.163,3.747l15.966,9.218c1.194.69,2.163.13,2.163-1.25v-4.376a4.784,4.784,0,0,0-2.163-3.747l-15.966-9.217c-1.195-.69-2.163-.131-2.163,1.249" transform="translate(0.843 8.671)" fill="#27debf"/>
            </g>
          </g>
        </g>
      </g>
      <g id="Grupo_985573" data-name="Grupo 985573" transform="translate(-10437.91 -13100.93)">
        <g id="Grupo_182739" data-name="Grupo 182739" clip-path="url(#clip-path-7)">
          <g id="Grupo_182738" data-name="Grupo 182738">
            <g id="Grupo_182737" data-name="Grupo 182737" clip-path="url(#clip-path-7)">
              <path id="Trazado_235908" data-name="Trazado 235908" d="M134.21,180.221a1.324,1.324,0,0,1-.652-.2L2.875,104.5a5.439,5.439,0,0,1-2.43-4.2V3.8c0-.9.382-1.445,1.021-1.445a1.977,1.977,0,0,1,.959.3L133.113,78.147a5.455,5.455,0,0,1,2.428,4.2V178.2a2.628,2.628,0,0,1-.421,1.479,1.132,1.132,0,0,1-.91.543" fill="#fafafa"/>
              <path id="Trazado_235909" data-name="Trazado 235909" d="M138.258,178.579c-.287.152-2.346,1.327-3.249,1.841a2.7,2.7,0,0,0,.975-2.224V91.012l3.39-1.984V176.28a2.576,2.576,0,0,1-1.116,2.3" fill="#ebebeb"/>
              <path id="Trazado_235910" data-name="Trazado 235910" d="M1.466,2.807a1.511,1.511,0,0,1,.736.242L132.89,78.535a4.946,4.946,0,0,1,2.2,3.813V178.2c0,.839-.412,1.575-.882,1.575a.884.884,0,0,1-.428-.136L3.1,104.107a4.937,4.937,0,0,1-2.2-3.808V3.8c0-.372.074-1,.572-1m0-.894C.6,1.913,0,2.606,0,3.8v96.5a5.842,5.842,0,0,0,2.651,4.583l130.684,75.53a1.748,1.748,0,0,0,.875.256c1.035,0,1.776-1.134,1.776-2.469V82.348a5.851,5.851,0,0,0-2.648-4.587L2.649,2.275a2.4,2.4,0,0,0-1.183-.362" fill="#e0e0e0"/>
              <path id="Trazado_235911" data-name="Trazado 235911" d="M0,3.751v8.73L135.984,91.012l3.39-1.973V80.422a5.5,5.5,0,0,0-.8-2.65,5.334,5.334,0,0,0-1.844-1.932L6.033.353A1.892,1.892,0,0,0,4.1.2C3.618.5,1.3,1.818.823,2.06a.86.86,0,0,0-.2.137,1.29,1.29,0,0,0-.209.209,1.448,1.448,0,0,0-.169.266,1.253,1.253,0,0,0-.129.322,1.662,1.662,0,0,0-.081.362v.017A2.761,2.761,0,0,0,0,3.751" fill="#27debf"/>
              <g id="Grupo_182733" data-name="Grupo 182733" opacity="0.15">
                <g id="Grupo_182732" data-name="Grupo 182732">
                  <g id="Grupo_182731" data-name="Grupo 182731" clip-path="url(#clip-path-9)">
                    <path id="Trazado_235912" data-name="Trazado 235912" d="M0,3.751v8.73L135.984,91.012l3.39-1.973V80.422a5.5,5.5,0,0,0-.8-2.65,5.334,5.334,0,0,0-1.844-1.932L6.033.353A1.892,1.892,0,0,0,4.1.2C3.618.5,1.3,1.818.823,2.06a.86.86,0,0,0-.2.137,1.29,1.29,0,0,0-.209.209,1.448,1.448,0,0,0-.169.266,1.253,1.253,0,0,0-.129.322,1.662,1.662,0,0,0-.081.362v.017A2.761,2.761,0,0,0,0,3.751"/>
                  </g>
                </g>
              </g>
              <path id="Trazado_235913" data-name="Trazado 235913" d="M0,3.751v8.73L135.984,91.012V82.346a4.7,4.7,0,0,0-.322-1.643c-.032-.088-.065-.185-.1-.273a6.6,6.6,0,0,0-.362-.717,5.331,5.331,0,0,0-1.86-1.957L2.651,2.277A1.756,1.756,0,0,0,.622,2.2a1.29,1.29,0,0,0-.209.209,1.448,1.448,0,0,0-.169.266,1.253,1.253,0,0,0-.129.322,1.662,1.662,0,0,0-.081.362v.017A2.761,2.761,0,0,0,0,3.751" fill="#27debf"/>
              <path id="Trazado_235914" data-name="Trazado 235914" d="M17.07,14.488a4.361,4.361,0,0,1,1.653,3.5c0,1.406-.74,2.118-1.653,1.591a4.362,4.362,0,0,1-1.653-3.5c0-1.406.74-2.118,1.653-1.591" fill="#fafafa"/>
              <path id="Trazado_235915" data-name="Trazado 235915" d="M11.118,11.046a4.361,4.361,0,0,1,1.653,3.5c0,1.406-.74,2.118-1.653,1.591a4.361,4.361,0,0,1-1.653-3.5c0-1.406.74-2.118,1.653-1.591" fill="#fafafa"/>
              <path id="Trazado_235916" data-name="Trazado 235916" d="M5.166,7.6a4.361,4.361,0,0,1,1.653,3.5c0,1.406-.74,2.118-1.653,1.591a4.361,4.361,0,0,1-1.653-3.5c0-1.406.74-2.118,1.653-1.591" fill="#fafafa"/>
              <path id="Trazado_235917" data-name="Trazado 235917" d="M2.65,2.273,133.335,77.759a5.451,5.451,0,0,1,1.866,1.966l3.366-1.949a5.281,5.281,0,0,0-1.841-1.933L6.032.357A1.862,1.862,0,0,0,4.108.2C3.633.49,1.434,1.74.876,2.04a1.916,1.916,0,0,1,1.774.233" fill="#27debf"/>
              <g id="Grupo_182736" data-name="Grupo 182736" opacity="0.5">
                <g id="Grupo_182735" data-name="Grupo 182735">
                  <g id="Grupo_182734" data-name="Grupo 182734" clip-path="url(#clip-path-10)">
                    <path id="Trazado_235918" data-name="Trazado 235918" d="M2.65,2.273,133.335,77.759a5.451,5.451,0,0,1,1.866,1.966l3.366-1.949a5.281,5.281,0,0,0-1.841-1.933L6.032.357A1.862,1.862,0,0,0,4.108.2C3.633.49,1.434,1.74.876,2.04a1.916,1.916,0,0,1,1.774.233" fill="#fff"/>
                  </g>
                </g>
              </g>
              <path id="Trazado_235919" data-name="Trazado 235919" d="M130.054,96.661c0,1.229-.863,1.728-1.928,1.113a4.276,4.276,0,0,1-1.933-3.342c0-1.231.86-1.73,1.928-1.113a4.271,4.271,0,0,1,1.933,3.342" fill="#27debf"/>
              <path id="Trazado_235920" data-name="Trazado 235920" d="M116.647,88.581,99.424,78.637c-.568-.328-1.028-.1-1.028.52a2.2,2.2,0,0,0,1.027,1.706l17.224,9.944c.567.328,1.027.1,1.027-.52a2.2,2.2,0,0,0-1.027-1.706" fill="#e0e0e0"/>
              <path id="Trazado_235921" data-name="Trazado 235921" d="M93.716,75.171,76.493,65.227c-.568-.328-1.028-.095-1.028.52a2.2,2.2,0,0,0,1.027,1.706L93.716,77.4c.567.327,1.027.095,1.027-.52a2.2,2.2,0,0,0-1.027-1.706" fill="#e0e0e0"/>
              <path id="Trazado_235922" data-name="Trazado 235922" d="M70.785,61.76,53.562,51.816c-.568-.328-1.028-.1-1.028.52a2.2,2.2,0,0,0,1.027,1.706l17.224,9.944c.567.327,1.027.1,1.027-.52a2.2,2.2,0,0,0-1.027-1.706" fill="#e0e0e0"/>
              <path id="Trazado_235923" data-name="Trazado 235923" d="M47.854,48.35,30.631,38.406c-.568-.328-1.028-.095-1.028.52a2.2,2.2,0,0,0,1.027,1.706l17.224,9.944c.567.327,1.027.1,1.027-.52a2.2,2.2,0,0,0-1.027-1.706" fill="#e0e0e0"/>
              <path id="Trazado_235924" data-name="Trazado 235924" d="M24.923,34.939,7.7,25c-.568-.328-1.028-.1-1.028.52A2.2,2.2,0,0,0,7.7,27.221l17.224,9.944c.567.327,1.027.095,1.027-.52a2.2,2.2,0,0,0-1.027-1.706" fill="#e0e0e0"/>
              <path id="Trazado_235925" data-name="Trazado 235925" d="M128.375,108.181v1.907c0,.524-.368.736-.822.474l-4.587-2.652a1.827,1.827,0,0,1-.824-1.424l0-1.913c0-.525.365-.737.819-.474l4.6,2.658a1.817,1.817,0,0,1,.822,1.424" fill="#27debf"/>
              <path id="Trazado_235926" data-name="Trazado 235926" d="M118.679,102.4,106.321,95.3c-.568-.328-1.028-.1-1.028.52a2.205,2.205,0,0,0,1.027,1.706l12.359,7.108c.567.327,1.027.1,1.027-.52a2.2,2.2,0,0,0-1.027-1.706" fill="#e0e0e0"/>
              <path id="Trazado_235927" data-name="Trazado 235927" d="M130.054,105.655l-26.99-15.583v8.9l26.99,15.582Z" fill="none" stroke="#e0e0e0" stroke-linecap="round" stroke-linejoin="round" stroke-width="0.497"/>
              <path id="Trazado_235928" data-name="Trazado 235928" d="M128.375,121.538v1.907c0,.524-.368.736-.822.474l-4.587-2.652a1.825,1.825,0,0,1-.824-1.424l0-1.913c0-.525.365-.737.819-.475l4.6,2.659a1.817,1.817,0,0,1,.822,1.424" fill="#27debf"/>
              <path id="Trazado_235929" data-name="Trazado 235929" d="M118.679,115.761l-12.358-7.108c-.568-.328-1.028-.1-1.028.519a2.205,2.205,0,0,0,1.027,1.707l12.359,7.108c.567.328,1.027.1,1.027-.52a2.2,2.2,0,0,0-1.027-1.706" fill="#e0e0e0"/>
              <path id="Trazado_235930" data-name="Trazado 235930" d="M130.054,119.011l-26.99-15.583v8.9l26.99,15.582Z" fill="none" stroke="#e0e0e0" stroke-linecap="round" stroke-linejoin="round" stroke-width="0.497"/>
              <path id="Trazado_235931" data-name="Trazado 235931" d="M128.375,134.9V136.8c0,.524-.368.736-.822.474l-4.587-2.652a1.828,1.828,0,0,1-.824-1.424l0-1.914c0-.524.365-.737.819-.473l4.6,2.658a1.817,1.817,0,0,1,.822,1.424" fill="#27debf"/>
              <path id="Trazado_235932" data-name="Trazado 235932" d="M118.679,129.117l-12.358-7.108c-.568-.328-1.028-.1-1.028.519a2.205,2.205,0,0,0,1.027,1.707l12.359,7.108c.567.327,1.027.1,1.027-.52a2.2,2.2,0,0,0-1.027-1.706" fill="#e0e0e0"/>
              <path id="Trazado_235933" data-name="Trazado 235933" d="M130.054,132.367l-26.99-15.583v8.9l26.99,15.582Z" fill="none" stroke="#e0e0e0" stroke-linecap="round" stroke-linejoin="round" stroke-width="0.497"/>
              <path id="Trazado_235934" data-name="Trazado 235934" d="M128.375,148.251v1.907c0,.524-.368.736-.822.474l-4.587-2.652a1.826,1.826,0,0,1-.824-1.424l0-1.913c0-.525.365-.737.819-.475l4.6,2.659a1.817,1.817,0,0,1,.822,1.424" fill="#27debf"/>
              <path id="Trazado_235935" data-name="Trazado 235935" d="M118.679,142.474l-12.358-7.108c-.568-.328-1.028-.1-1.028.52a2.205,2.205,0,0,0,1.027,1.706l12.359,7.108c.567.328,1.027.1,1.027-.52a2.2,2.2,0,0,0-1.027-1.706" fill="#e0e0e0"/>
              <path id="Trazado_235936" data-name="Trazado 235936" d="M130.054,145.724l-26.99-15.583v8.9l26.99,15.582Z" fill="none" stroke="#e0e0e0" stroke-linecap="round" stroke-linejoin="round" stroke-width="0.497"/>
              <path id="Trazado_235937" data-name="Trazado 235937" d="M128.375,161.608v1.907c0,.524-.368.736-.822.474l-4.587-2.652a1.827,1.827,0,0,1-.824-1.424l0-1.913c0-.525.365-.737.819-.474l4.6,2.658a1.817,1.817,0,0,1,.822,1.424" fill="#27debf"/>
              <path id="Trazado_235938" data-name="Trazado 235938" d="M118.679,155.83l-12.358-7.108c-.568-.328-1.028-.1-1.028.519a2.205,2.205,0,0,0,1.027,1.707l12.359,7.108c.567.327,1.027.1,1.027-.52a2.2,2.2,0,0,0-1.027-1.706" fill="#e0e0e0"/>
              <path id="Trazado_235939" data-name="Trazado 235939" d="M130.054,159.081,103.064,143.5V152.4l26.99,15.582Z" fill="none" stroke="#e0e0e0" stroke-linecap="round" stroke-linejoin="round" stroke-width="0.497"/>
              <path id="Trazado_235940" data-name="Trazado 235940" d="M92.125,118.7l-28.25-16.31a4.194,4.194,0,0,1-1.9-3.287v-24.4c0-1.21.849-1.7,1.9-1.1l28.249,16.31a4.2,4.2,0,0,1,1.9,3.287v24.4c0,1.211-.85,1.7-1.9,1.1" fill="#fafafa"/>
              <path id="Trazado_235941" data-name="Trazado 235941" d="M92.125,118.7l-28.25-16.31a4.194,4.194,0,0,1-1.9-3.287v-24.4c0-1.21.849-1.7,1.9-1.1l28.249,16.31a4.2,4.2,0,0,1,1.9,3.287v24.4C94.023,118.817,93.173,119.307,92.125,118.7Z" fill="none" stroke="#e0e0e0" stroke-miterlimit="10" stroke-width="0.917"/>
              <path id="Trazado_235942" data-name="Trazado 235942" d="M95.753,88.177a.329.329,0,0,0,.164-.614l-.949-.548a.333.333,0,0,0-.449.121.328.328,0,0,0,.12.449l.95.548a.326.326,0,0,0,.164.044" fill="#27debf"/>
              <path id="Trazado_235943" data-name="Trazado 235943" d="M92.642,86.433l-2-1.153a.329.329,0,0,1-.121-.45.334.334,0,0,1,.45-.121l2,1.153a.329.329,0,0,1-.165.614.335.335,0,0,1-.164-.043m-3.994-2.306-2-1.154a.328.328,0,0,1-.121-.449.334.334,0,0,1,.45-.121l2,1.153a.329.329,0,0,1-.164.614.335.335,0,0,1-.164-.043M84.654,81.82l-2-1.153a.328.328,0,0,1-.121-.449.333.333,0,0,1,.449-.121l2,1.153a.329.329,0,0,1-.164.614.333.333,0,0,1-.164-.044M80.66,79.514l-2-1.153a.329.329,0,0,1-.12-.449.333.333,0,0,1,.449-.121l2,1.153a.329.329,0,0,1-.164.614.34.34,0,0,1-.165-.044m-3.994-2.306-2-1.153a.329.329,0,0,1,.329-.57l2,1.153a.329.329,0,0,1-.164.614.34.34,0,0,1-.165-.044M72.672,74.9l-2-1.153a.33.33,0,0,1-.121-.449.334.334,0,0,1,.45-.121l2,1.153a.329.329,0,0,1-.164.614.34.34,0,0,1-.165-.044M68.678,72.6l-2-1.153a.329.329,0,1,1,.329-.57l2,1.153a.329.329,0,0,1-.164.614.334.334,0,0,1-.165-.044M64.684,70.29l-2-1.153a.329.329,0,0,1-.121-.449.333.333,0,0,1,.45-.121l2,1.153a.329.329,0,0,1-.165.614.333.333,0,0,1-.164-.044" fill="#27debf"/>
              <path id="Trazado_235944" data-name="Trazado 235944" d="M60.854,68.028a.329.329,0,0,0,.164-.614l-.948-.548a.334.334,0,0,0-.45.121.33.33,0,0,0,.121.449l.949.548a.323.323,0,0,0,.164.044" fill="#27debf"/>
              <path id="Trazado_235945" data-name="Trazado 235945" d="M97.212,124.411a.329.329,0,0,0,.329-.329v-1.1a.329.329,0,1,0-.658,0v1.1a.329.329,0,0,0,.329.329" fill="#27debf"/>
              <path id="Trazado_235946" data-name="Trazado 235946" d="M96.883,120.886v-2.1a.329.329,0,0,1,.658,0v2.1a.329.329,0,0,1-.658,0m0-4.2v-2.1a.329.329,0,0,1,.658,0v2.1a.329.329,0,1,1-.658,0m0-4.2v-2.1a.329.329,0,0,1,.658,0v2.1a.329.329,0,0,1-.658,0m0-4.2v-2.1a.328.328,0,1,1,.657,0v2.1a.329.329,0,1,1-.658,0m0-4.2v-2.1a.328.328,0,1,1,.657,0v2.1a.328.328,0,1,1-.657,0m0-4.2v-2.1a.328.328,0,1,1,.657,0v2.1a.328.328,0,1,1-.657,0m0-4.2v-2.1a.328.328,0,0,1,.657,0v2.1a.328.328,0,1,1-.657,0" fill="#27debf"/>
              <path id="Trazado_235947" data-name="Trazado 235947" d="M97.213,91.8a.329.329,0,0,0,.329-.329v-1.1a.329.329,0,1,0-.658,0v1.1a.329.329,0,0,0,.329.329" fill="#27debf"/>
              <path id="Trazado_235948" data-name="Trazado 235948" d="M60.826,105.088a.329.329,0,0,0,.165-.614l-.95-.547a.332.332,0,0,0-.449.12.328.328,0,0,0,.12.449l.95.548a.326.326,0,0,0,.164.044" fill="#27debf"/>
              <path id="Trazado_235949" data-name="Trazado 235949" d="M92.64,123.507l-2-1.153a.33.33,0,0,1,.329-.571l2,1.154a.329.329,0,0,1-.165.614.323.323,0,0,1-.164-.044m-4-2.307-2-1.154a.329.329,0,1,1,.328-.57l2,1.154a.328.328,0,0,1-.164.613.339.339,0,0,1-.165-.043m-4-2.308-2-1.154a.33.33,0,0,1-.121-.449.334.334,0,0,1,.45-.121l2,1.154a.329.329,0,0,1-.165.614.333.333,0,0,1-.164-.044m-4-2.308-2-1.155a.328.328,0,0,1,.328-.569l2,1.154a.329.329,0,0,1-.164.614.337.337,0,0,1-.165-.044m-4-2.309-2-1.153a.33.33,0,0,1-.121-.45.333.333,0,0,1,.45-.121l2,1.154a.329.329,0,0,1-.164.614.323.323,0,0,1-.164-.044m-4-2.307-2-1.154a.329.329,0,0,1,.329-.57l2,1.154a.329.329,0,0,1,.121.449.332.332,0,0,1-.285.164.336.336,0,0,1-.165-.043m-4-2.308-2-1.154a.328.328,0,0,1-.121-.449.332.332,0,0,1,.449-.121l2,1.154a.328.328,0,0,1,.121.449.328.328,0,0,1-.449.121m-4-2.308-2-1.154a.329.329,0,0,1-.12-.449.333.333,0,0,1,.449-.121l2,1.154a.329.329,0,0,1-.165.614.333.333,0,0,1-.164-.044" fill="#27debf"/>
              <path id="Trazado_235950" data-name="Trazado 235950" d="M95.753,125.253a.329.329,0,0,0,.164-.614l-.949-.548a.33.33,0,0,0-.329.571l.95.547a.326.326,0,0,0,.164.044" fill="#27debf"/>
              <path id="Trazado_235951" data-name="Trazado 235951" d="M58.417,69.4a.329.329,0,0,0,.329-.329v-1.1a.329.329,0,0,0-.658,0v1.1a.329.329,0,0,0,.329.329" fill="#27debf"/>
              <path id="Trazado_235952" data-name="Trazado 235952" d="M58.088,98.486v-2.1a.329.329,0,1,1,.658,0v2.1a.329.329,0,1,1-.658,0m0-4.2v-2.1a.329.329,0,0,1,.658,0v2.1a.329.329,0,1,1-.658,0m0-4.2v-2.1a.329.329,0,1,1,.658,0v2.1a.329.329,0,0,1-.658,0m0-4.2v-2.1a.328.328,0,1,1,.657,0v2.1a.329.329,0,0,1-.658,0m0-4.2v-2.1a.328.328,0,1,1,.657,0v2.1a.328.328,0,0,1-.657,0m0-4.2v-2.1a.328.328,0,1,1,.657,0v2.1a.328.328,0,1,1-.657,0m0-4.2v-2.1a.328.328,0,0,1,.657,0v2.1a.328.328,0,1,1-.657,0" fill="#27debf"/>
              <path id="Trazado_235953" data-name="Trazado 235953" d="M58.416,102.011a.329.329,0,0,0,.329-.329v-1.1a.329.329,0,0,0-.658,0v1.1a.329.329,0,0,0,.329.329" fill="#27debf"/>
              <path id="Trazado_235954" data-name="Trazado 235954" d="M59.713,69.106l-2.92-1.686a.329.329,0,0,1-.164-.285V63.763a.328.328,0,0,1,.493-.285l2.92,1.686a.331.331,0,0,1,.164.285v3.372a.329.329,0,0,1-.493.285m-2.427-4.774v2.613l2.262,1.307V65.639Z" fill="#27debf"/>
              <path id="Trazado_235955" data-name="Trazado 235955" d="M59.713,106.182l-2.92-1.686a.329.329,0,0,1-.164-.285v-3.372a.328.328,0,0,1,.164-.285.333.333,0,0,1,.329,0l2.92,1.686a.331.331,0,0,1,.164.285V105.9a.329.329,0,0,1-.493.285m-2.427-4.774v2.613l2.262,1.307v-2.613Z" fill="#27debf"/>
              <path id="Trazado_235956" data-name="Trazado 235956" d="M98.508,91.5l-2.92-1.687a.328.328,0,0,1-.164-.285V86.162a.328.328,0,0,1,.493-.285l2.919,1.686a.33.33,0,0,1,.165.285V91.22a.33.33,0,0,1-.493.285m-2.427-4.774v2.612l2.262,1.307V88.038Z" fill="#27debf"/>
              <path id="Trazado_235957" data-name="Trazado 235957" d="M98.508,128.581l-2.92-1.686a.329.329,0,0,1-.164-.285v-3.372a.329.329,0,0,1,.164-.285.333.333,0,0,1,.329,0l2.919,1.686a.33.33,0,0,1,.165.285V128.3a.329.329,0,0,1-.493.285m-2.427-4.774v2.613l2.262,1.307v-2.613Z" fill="#27debf"/>
              <path id="Trazado_235958" data-name="Trazado 235958" d="M56.947,86.058a3.522,3.522,0,0,0,1.47,2.809c.812.469,1.47-.028,1.47-1.111a3.519,3.519,0,0,0-1.47-2.809c-.812-.469-1.47.028-1.47,1.111" fill="#27debf"/>
              <path id="Trazado_235959" data-name="Trazado 235959" d="M76.359,76.643a3.52,3.52,0,0,0,1.47,2.809c.812.469,1.471-.029,1.471-1.111a3.52,3.52,0,0,0-1.471-2.809c-.812-.469-1.47.028-1.47,1.111" fill="#27debf"/>
              <path id="Trazado_235960" data-name="Trazado 235960" d="M76.359,113.719a3.522,3.522,0,0,0,1.47,2.809c.812.469,1.471-.029,1.471-1.111a3.523,3.523,0,0,0-1.471-2.81c-.812-.468-1.47.029-1.47,1.112" fill="#27debf"/>
              <path id="Trazado_235961" data-name="Trazado 235961" d="M95.744,108.507a3.52,3.52,0,0,0,1.47,2.809c.812.469,1.47-.029,1.47-1.111a3.519,3.519,0,0,0-1.47-2.809c-.812-.469-1.47.028-1.47,1.111" fill="#27debf"/>
              <path id="Trazado_235962" data-name="Trazado 235962" d="M70.592,93.271l1.777,1.251a.723.723,0,0,1,.249.377,11.609,11.609,0,0,0,.45,1.508.372.372,0,0,1-.1.385l-1,.864a.3.3,0,0,0-.063.369l1.43,2.477a.306.306,0,0,0,.351.13l1.249-.436a.373.373,0,0,1,.382.108,11.774,11.774,0,0,0,1.081,1.144.725.725,0,0,1,.2.4l.195,2.165a.525.525,0,0,0,.232.363l1.945,1.123a.145.145,0,0,0,.235-.12l.19-1.89a.2.2,0,0,1,.259-.183,3.862,3.862,0,0,0,.937.1.481.481,0,0,1,.377.187l1.438,2.163a.261.261,0,0,0,.344.081l1.253-.723a.262.262,0,0,0,.1-.339l-1.154-2.327a.482.482,0,0,1,.027-.42,3.871,3.871,0,0,0,.385-.858.207.207,0,0,1,.289-.134l1.731.781a.145.145,0,0,0,.222-.143V99.426a.522.522,0,0,0-.2-.382l-1.777-1.251a.723.723,0,0,1-.249-.377,11.56,11.56,0,0,0-.45-1.508.372.372,0,0,1,.1-.385l1-.864a.3.3,0,0,0,.063-.368l-1.43-2.478a.306.306,0,0,0-.351-.13l-1.249.436a.373.373,0,0,1-.382-.108A11.654,11.654,0,0,0,79.6,90.867a.729.729,0,0,1-.2-.4L79.205,88.3a.525.525,0,0,0-.232-.363l-1.945-1.123a.145.145,0,0,0-.235.12l-.19,1.89a.2.2,0,0,1-.259.183,3.863,3.863,0,0,0-.937-.095.481.481,0,0,1-.376-.187L73.592,86.56a.261.261,0,0,0-.344-.081L72,87.2a.262.262,0,0,0-.1.339l1.154,2.327a.482.482,0,0,1-.026.42,3.827,3.827,0,0,0-.386.858.207.207,0,0,1-.289.134L70.615,90.5a.145.145,0,0,0-.222.143v2.247a.522.522,0,0,0,.2.382m4.122.989c0-2.1,1.471-2.945,3.286-1.9a7.26,7.26,0,0,1,3.287,5.692c0,2.1-1.471,2.945-3.287,1.9a7.263,7.263,0,0,1-3.286-5.692" fill="#27debf"/>
              <path id="Trazado_235963" data-name="Trazado 235963" d="M42.168,89.938,13.919,73.628a4.2,4.2,0,0,1-1.9-3.288v-24.4c0-1.209.849-1.7,1.9-1.1l28.249,16.31a4.192,4.192,0,0,1,1.9,3.287v24.4c0,1.211-.85,1.7-1.9,1.1" fill="#fafafa"/>
              <path id="Trazado_235964" data-name="Trazado 235964" d="M42.168,89.938,13.919,73.628a4.2,4.2,0,0,1-1.9-3.288v-24.4c0-1.209.849-1.7,1.9-1.1l28.249,16.31a4.192,4.192,0,0,1,1.9,3.287v24.4C44.066,90.052,43.216,90.543,42.168,89.938Z" fill="none" stroke="#e0e0e0" stroke-miterlimit="10" stroke-width="0.917"/>
              <path id="Trazado_235965" data-name="Trazado 235965" d="M45.8,59.412a.328.328,0,0,0,.164-.613l-.949-.549a.333.333,0,0,0-.449.121.33.33,0,0,0,.12.45l.95.547a.326.326,0,0,0,.164.044" fill="#27debf"/>
              <path id="Trazado_235966" data-name="Trazado 235966" d="M42.686,57.667l-2-1.153a.328.328,0,0,1-.12-.449.333.333,0,0,1,.45-.121l2,1.153a.329.329,0,0,1-.165.614.32.32,0,0,1-.163-.044m-3.994-2.306-2-1.153a.327.327,0,0,1-.12-.449.333.333,0,0,1,.449-.121l2,1.153a.329.329,0,0,1-.166.614.322.322,0,0,1-.163-.044m-4-2.306-2-1.153a.327.327,0,0,1-.122-.449.334.334,0,0,1,.45-.121l2,1.153a.329.329,0,0,1-.166.614.339.339,0,0,1-.164-.044M30.7,50.749l-2-1.153a.326.326,0,0,1-.121-.449.332.332,0,0,1,.448-.121l2,1.153a.329.329,0,1,1-.328.57m-4-2.306-2-1.153a.329.329,0,0,1,.33-.57l2,1.153a.33.33,0,0,1,.122.45.334.334,0,0,1-.285.164.347.347,0,0,1-.166-.044m-3.994-2.306-2-1.153a.329.329,0,0,1-.121-.449.334.334,0,0,1,.45-.121l2,1.153a.329.329,0,0,1-.164.614.344.344,0,0,1-.166-.044m-3.993-2.306-2-1.153a.329.329,0,1,1,.328-.57l2,1.153a.329.329,0,0,1-.164.614.336.336,0,0,1-.164-.044m-3.995-2.306-2-1.153a.329.329,0,0,1-.122-.449.333.333,0,0,1,.45-.121l2,1.153a.329.329,0,0,1-.164.614.334.334,0,0,1-.165-.044" fill="#27debf"/>
              <path id="Trazado_235967" data-name="Trazado 235967" d="M10.9,39.264a.329.329,0,0,0,.164-.614l-.948-.548a.332.332,0,0,0-.449.121.328.328,0,0,0,.12.449l.949.548a.333.333,0,0,0,.164.044" fill="#27debf"/>
              <path id="Trazado_235968" data-name="Trazado 235968" d="M47.256,95.646a.329.329,0,0,0,.329-.329v-1.1a.329.329,0,1,0-.658,0v1.1a.329.329,0,0,0,.329.329" fill="#27debf"/>
              <path id="Trazado_235969" data-name="Trazado 235969" d="M46.927,92.121v-2.1a.329.329,0,0,1,.657,0v2.1a.329.329,0,1,1-.657,0m0-4.2v-2.1a.329.329,0,1,1,.657,0v2.1a.329.329,0,1,1-.657,0m0-4.2v-2.1a.329.329,0,1,1,.657,0v2.1a.329.329,0,0,1-.657,0m0-4.2v-2.1a.328.328,0,1,1,.657,0v2.1a.329.329,0,1,1-.657,0m0-4.2v-2.1a.328.328,0,1,1,.657,0v2.1a.328.328,0,1,1-.657,0m0-4.2v-2.1a.328.328,0,1,1,.657,0v2.1a.328.328,0,1,1-.657,0m0-4.2v-2.1a.328.328,0,0,1,.657,0v2.1a.328.328,0,1,1-.657,0" fill="#27debf"/>
              <path id="Trazado_235970" data-name="Trazado 235970" d="M47.257,63.037a.328.328,0,0,0,.328-.329v-1.1a.328.328,0,1,0-.657,0v1.1a.329.329,0,0,0,.329.329" fill="#27debf"/>
              <path id="Trazado_235971" data-name="Trazado 235971" d="M10.87,76.324a.329.329,0,0,0,.164-.614l-.949-.548a.332.332,0,0,0-.449.121.328.328,0,0,0,.12.449l.95.548a.336.336,0,0,0,.164.044" fill="#27debf"/>
              <path id="Trazado_235972" data-name="Trazado 235972" d="M42.684,94.743l-2-1.154a.33.33,0,0,1-.121-.449.334.334,0,0,1,.45-.121l2,1.154a.329.329,0,0,1-.165.614.333.333,0,0,1-.164-.044m-4-2.307-2-1.154a.329.329,0,1,1,.328-.57l2,1.153a.329.329,0,0,1-.164.614.339.339,0,0,1-.165-.043m-4-2.308-2-1.154a.33.33,0,0,1-.121-.45.334.334,0,0,1,.45-.12l2,1.154a.328.328,0,0,1-.164.613.332.332,0,0,1-.164-.043m-4-2.308-2-1.156a.328.328,0,0,1,.329-.568l2,1.154a.329.329,0,0,1-.164.614.337.337,0,0,1-.165-.044m-4-2.309-2-1.153a.329.329,0,0,1-.121-.45.333.333,0,0,1,.45-.121l2,1.154a.329.329,0,0,1-.164.614.333.333,0,0,1-.164-.044m-4-2.307-2-1.154a.329.329,0,0,1,.329-.57l2,1.154a.328.328,0,0,1-.165.613A.335.335,0,0,1,22.7,83.2m-4-2.308-2-1.154a.329.329,0,1,1,.328-.57l2,1.154a.328.328,0,0,1,.121.449.332.332,0,0,1-.285.165A.34.34,0,0,1,18.7,80.9m-4-2.308-2-1.154a.33.33,0,0,1-.121-.449.334.334,0,0,1,.45-.121l2,1.154a.329.329,0,0,1-.165.614.333.333,0,0,1-.164-.044" fill="#27debf"/>
              <path id="Trazado_235973" data-name="Trazado 235973" d="M45.8,96.489a.329.329,0,0,0,.164-.614l-.949-.548a.332.332,0,0,0-.449.121.328.328,0,0,0,.12.449l.95.548a.326.326,0,0,0,.164.044" fill="#27debf"/>
              <path id="Trazado_235974" data-name="Trazado 235974" d="M8.461,40.638a.329.329,0,0,0,.329-.329V39.214a.329.329,0,1,0-.658,0v1.095a.329.329,0,0,0,.329.329" fill="#27debf"/>
              <path id="Trazado_235975" data-name="Trazado 235975" d="M8.131,69.721v-2.1a.329.329,0,0,1,.658,0v2.1a.329.329,0,1,1-.658,0m0-4.2v-2.1a.329.329,0,0,1,.658,0v2.1a.329.329,0,1,1-.658,0m0-4.2v-2.1a.329.329,0,0,1,.658,0v2.1a.329.329,0,0,1-.658,0m0-4.2v-2.1a.329.329,0,1,1,.657,0v2.1a.329.329,0,0,1-.658,0m0-4.2v-2.1a.329.329,0,1,1,.657,0v2.1a.329.329,0,1,1-.657,0m0-4.2v-2.1a.329.329,0,0,1,.657,0v2.1a.329.329,0,1,1-.657,0m0-4.2v-2.1a.329.329,0,0,1,.657,0v2.1a.329.329,0,1,1-.657,0" fill="#27debf"/>
              <path id="Trazado_235976" data-name="Trazado 235976" d="M8.46,73.246a.329.329,0,0,0,.329-.329v-1.1a.329.329,0,1,0-.658,0v1.1a.329.329,0,0,0,.329.329" fill="#27debf"/>
              <path id="Trazado_235977" data-name="Trazado 235977" d="M9.756,40.342l-2.92-1.686a.329.329,0,0,1-.164-.285V35a.329.329,0,0,1,.164-.285.333.333,0,0,1,.329,0l2.92,1.686a.331.331,0,0,1,.164.285v3.372a.329.329,0,0,1-.493.285M7.329,35.568v2.613l2.262,1.307V36.875Z" fill="#27debf"/>
              <path id="Trazado_235978" data-name="Trazado 235978" d="M9.756,77.418l-2.92-1.687a.327.327,0,0,1-.164-.285V72.075a.329.329,0,0,1,.493-.285l2.92,1.686a.331.331,0,0,1,.164.285v3.372a.33.33,0,0,1-.493.285M7.329,72.644v2.613l2.262,1.307V73.951Z" fill="#27debf"/>
              <path id="Trazado_235979" data-name="Trazado 235979" d="M48.552,62.741l-2.92-1.687a.328.328,0,0,1-.164-.285V57.4a.329.329,0,0,1,.493-.286L48.88,58.8a.33.33,0,0,1,.165.285v3.372a.329.329,0,0,1-.493.285m-2.427-4.774v2.612l2.262,1.307V59.274Z" fill="#27debf"/>
              <path id="Trazado_235980" data-name="Trazado 235980" d="M48.552,99.817l-2.92-1.686a.329.329,0,0,1-.164-.285V94.474a.329.329,0,0,1,.493-.285l2.919,1.686a.33.33,0,0,1,.165.285v3.372a.329.329,0,0,1-.493.285m-2.427-4.774v2.613l2.262,1.307V96.35Z" fill="#27debf"/>
              <path id="Trazado_235981" data-name="Trazado 235981" d="M6.99,57.293A3.52,3.52,0,0,0,8.46,60.1c.812.469,1.47-.029,1.47-1.111a3.519,3.519,0,0,0-1.47-2.809c-.812-.469-1.47.028-1.47,1.111" fill="#27debf"/>
              <path id="Trazado_235982" data-name="Trazado 235982" d="M26.4,47.878a3.52,3.52,0,0,0,1.47,2.809c.812.469,1.47-.029,1.47-1.111a3.519,3.519,0,0,0-1.47-2.809c-.812-.469-1.47.028-1.47,1.111" fill="#27debf"/>
              <path id="Trazado_235983" data-name="Trazado 235983" d="M26.4,84.954a3.52,3.52,0,0,0,1.47,2.809c.812.469,1.47-.029,1.47-1.111a3.519,3.519,0,0,0-1.47-2.809c-.812-.469-1.47.028-1.47,1.111" fill="#27debf"/>
              <path id="Trazado_235984" data-name="Trazado 235984" d="M45.787,79.743a3.52,3.52,0,0,0,1.47,2.809c.812.469,1.471-.029,1.471-1.111a3.52,3.52,0,0,0-1.471-2.809c-.812-.469-1.47.028-1.47,1.111" fill="#27debf"/>
              <path id="Trazado_235985" data-name="Trazado 235985" d="M20.635,64.506l1.777,1.251a.723.723,0,0,1,.249.377,11.561,11.561,0,0,0,.45,1.508.37.37,0,0,1-.1.385l-1,.864a.3.3,0,0,0-.063.368l1.43,2.478a.305.305,0,0,0,.351.13l1.249-.436a.373.373,0,0,1,.382.108,11.775,11.775,0,0,0,1.081,1.144.729.729,0,0,1,.2.4l.2,2.165a.525.525,0,0,0,.232.363l1.945,1.123a.145.145,0,0,0,.235-.12l.19-1.89a.2.2,0,0,1,.259-.183,3.863,3.863,0,0,0,.937.1.484.484,0,0,1,.377.187l1.438,2.163a.262.262,0,0,0,.345.081l1.252-.723a.262.262,0,0,0,.1-.339L33,73.682a.485.485,0,0,1,.026-.42,3.827,3.827,0,0,0,.386-.858.207.207,0,0,1,.289-.134l1.731.781a.145.145,0,0,0,.222-.143V70.661a.522.522,0,0,0-.2-.382l-1.777-1.251a.723.723,0,0,1-.249-.377,11.562,11.562,0,0,0-.45-1.508.372.372,0,0,1,.1-.385l1-.864a.3.3,0,0,0,.063-.368l-1.43-2.478a.305.305,0,0,0-.351-.13l-1.249.436a.373.373,0,0,1-.382-.108A11.775,11.775,0,0,0,29.645,62.1a.725.725,0,0,1-.2-.4l-.2-2.165a.525.525,0,0,0-.232-.363l-1.945-1.123a.145.145,0,0,0-.235.12l-.19,1.89a.2.2,0,0,1-.259.183,3.863,3.863,0,0,0-.937-.1.478.478,0,0,1-.376-.187l-1.439-2.163a.261.261,0,0,0-.344-.081l-1.253.723a.262.262,0,0,0-.1.339L23.09,61.1a.478.478,0,0,1-.026.42,3.827,3.827,0,0,0-.386.858.207.207,0,0,1-.289.134l-1.731-.781a.145.145,0,0,0-.222.143v2.247a.522.522,0,0,0,.2.382m4.122.989c0-2.1,1.471-2.945,3.287-1.9A7.263,7.263,0,0,1,31.33,69.29c0,2.1-1.471,2.945-3.286,1.9A7.26,7.26,0,0,1,24.757,65.5" fill="#27debf"/>
              <path id="Trazado_235986" data-name="Trazado 235986" d="M99.208,147.8V136.966a4.542,4.542,0,0,0-2.055-3.559L8.726,82.354c-1.135-.656-2.055-.125-2.055,1.186V94.377a4.54,4.54,0,0,0,2.055,3.559L97.153,148.99c1.135.655,2.055.124,2.055-1.187" fill="#e0e0e0"/>
            </g>
          </g>
        </g>
      </g>
    </g>
    <g id="Grupo_985577" data-name="Grupo 985577" transform="translate(-10289.334 -13192.838)">
      <g id="Grupo_981462" data-name="Grupo 981462" transform="translate(5.858 8.158)">
        <g id="Grupo_981461" data-name="Grupo 981461" clip-path="url(#clip-path-11)">
          <rect id="Rectángulo_342965" data-name="Rectángulo 342965" width="26.943" height="26.791" transform="matrix(0.712, -0.703, 0.703, 0.712, -5.227, 5.162)" fill="url(#linear-gradient)"/>
        </g>
      </g>
      <g id="Grupo_981464" data-name="Grupo 981464" transform="translate(26.229)">
        <g id="Grupo_981463" data-name="Grupo 981463" clip-path="url(#clip-path-12)">
          <rect id="Rectángulo_342966" data-name="Rectángulo 342966" width="59.807" height="58.254" transform="translate(-18.258 14.15) rotate(-37.776)" fill="url(#linear-gradient)"/>
        </g>
      </g>
      <g id="Grupo_981466" data-name="Grupo 981466" transform="translate(59.82 30.24)">
        <g id="Grupo_981465" data-name="Grupo 981465" clip-path="url(#clip-path-13)">
          <rect id="Rectángulo_342967" data-name="Rectángulo 342967" width="46.886" height="48.544" transform="matrix(0.854, -0.52, 0.52, 0.854, -16.515, 10.041)" fill="url(#linear-gradient)"/>
        </g>
      </g>
      <g id="Grupo_981468" data-name="Grupo 981468" transform="translate(79.221 59.976)">
        <g id="Grupo_981467" data-name="Grupo 981467" clip-path="url(#clip-path-14)">
          <rect id="Rectángulo_342968" data-name="Rectángulo 342968" width="48.15" height="49.994" transform="matrix(0.778, -0.628, 0.628, 0.778, -20.042, 16.163)" fill="url(#linear-gradient-9)"/>
        </g>
      </g>
      <g id="Grupo_981470" data-name="Grupo 981470" transform="translate(0 7.468)">
        <g id="Grupo_981469" data-name="Grupo 981469" transform="translate(0)" clip-path="url(#clip-path-15)">
          <rect id="Rectángulo_342969" data-name="Rectángulo 342969" width="95.211" height="96.911" transform="translate(-0.036 0)" fill="url(#linear-gradient-5)"/>
        </g>
      </g>
    </g>
  </g>
</svg>
