<svg xmlns="http://www.w3.org/2000/svg" xmlns:xlink="http://www.w3.org/1999/xlink" width="93" height="94" viewBox="0 0 93 94">
  <defs>
    <clipPath id="clip-path">
      <rect id="Rectángulo_58138" data-name="Rectángulo 58138" width="49.662" height="57.306" fill="#12263f"/>
    </clipPath>
  </defs>
  <g id="Grupo_981494" data-name="Grupo 981494" transform="translate(0.275 -0.334)">
    <ellipse id="Elipse_4870" data-name="Elipse 4870" cx="46.5" cy="47" rx="46.5" ry="47" transform="translate(-0.275 0.334)" fill="#f4a338"/>
    <g id="Grupo_980861" data-name="Grupo 980861" transform="translate(23.477 15.537)">
      <g id="Grupo_180308" data-name="Grupo 180308" clip-path="url(#clip-path)">
        <path id="Trazado_231740" data-name="Trazado 231740" d="M2.341,57.306A3,3,0,0,1,.052,54.9,4.539,4.539,0,0,1,0,54.123Q0,28.663,0,3.2A2.9,2.9,0,0,1,3.18,0H31.2a2.869,2.869,0,0,1,3.162,3.148q.007,3.861,0,7.722v.539H32.454v-.623q0-3.805,0-7.61c0-.968-.3-1.269-1.269-1.27-1.7,0-3.393.015-5.089-.011-.421-.007-.59.126-.663.532-.1.567-.26,1.125-.406,1.683A1.918,1.918,0,0,1,22.978,5.72q-5.789.008-11.577,0A1.884,1.884,0,0,1,9.377,4.162C9.179,3.426,9,2.685,8.8,1.913c-2.005,0-4-.014-5.99.01a.9.9,0,0,0-.887.853,3.974,3.974,0,0,0-.016.614q0,25.265,0,50.529c0,1.229.249,1.48,1.467,1.48H30.891c1.359,0,1.537-.176,1.564-1.538,0-.092.011-.183.019-.322h1.814a2.961,2.961,0,0,1-2.062,3.671.538.538,0,0,0-.128.1ZM10.8,1.932c.109.467.232.895.305,1.331.07.413.241.567.693.564,3.612-.022,7.225-.012,10.837-.013.163,0,.327-.016.5-.025l.451-1.856Z" transform="translate(0)" fill="#12263f"/>
        <path id="Trazado_231741" data-name="Trazado 231741" d="M140.427,141.426a1.406,1.406,0,0,1-1.152.758c-.977.137-1.952.3-2.919.49a.875.875,0,0,0-.534.429,21.153,21.153,0,0,0-.855,2.06.876.876,0,0,0,.067.682c.567.854,1.181,1.676,1.772,2.513a1.033,1.033,0,0,1-.116,1.581q-1.873,1.885-3.757,3.759a1.017,1.017,0,0,1-1.535.125c-.836-.593-1.678-1.178-2.5-1.794a.677.677,0,0,0-.805-.06c-.656.308-1.344.548-2,.858a.813.813,0,0,0-.413.486c-.188.95-.33,1.909-.482,2.866-.161,1.01-.418,1.238-1.427,1.239q-2.517,0-5.034,0c-.841,0-1.122-.247-1.266-1.084-.171-.991-.355-1.981-.5-2.976a.625.625,0,0,0-.478-.583c-.682-.243-1.336-.567-2.019-.808a.882.882,0,0,0-.686.055c-.869.577-1.7,1.206-2.557,1.805a1.015,1.015,0,0,1-1.536-.13q-1.884-1.874-3.757-3.759a1.014,1.014,0,0,1-.109-1.577c.581-.822,1.158-1.647,1.759-2.454a.654.654,0,0,0,.084-.794,18.707,18.707,0,0,1-.81-1.958.67.67,0,0,0-.622-.511c-1.032-.145-2.06-.328-3.085-.516-.686-.126-.92-.405-.924-1.11q-.015-2.714,0-5.428c0-.715.264-.988.987-1.112,1.009-.174,2.016-.363,3.03-.508a.665.665,0,0,0,.616-.512,21.088,21.088,0,0,1,.808-1.96.629.629,0,0,0-.053-.75c-.624-.837-1.225-1.691-1.825-2.545a.974.974,0,0,1,.113-1.488q1.91-1.927,3.837-3.838a.957.957,0,0,1,1.445-.116c.87.609,1.736,1.225,2.589,1.857a.593.593,0,0,0,.7.053c.674-.312,1.381-.554,2.054-.868a.8.8,0,0,0,.4-.489c.206-1.022.365-2.054.542-3.082.13-.757.4-1.02,1.144-1.024q2.685-.017,5.369,0c.736,0,1.016.237,1.147.956.188,1.026.361,2.055.513,3.087a.635.635,0,0,0,.48.586,20.6,20.6,0,0,1,2.009.833.624.624,0,0,0,.746-.077c.809-.6,1.633-1.177,2.453-1.76.678-.482,1.044-.461,1.62.112q1.864,1.854,3.718,3.719a1.036,1.036,0,0,1,.133,1.58c-.59.838-1.177,1.679-1.791,2.5a.637.637,0,0,0-.064.756c.307.657.586,1.328.834,2.009a.578.578,0,0,0,.541.445c.977.138,1.945.342,2.922.476a1.473,1.473,0,0,1,1.171.73Zm-8.468-16.69c-.864.617-1.749,1.235-2.616,1.877a1.262,1.262,0,0,1-1.45.089,23.126,23.126,0,0,0-2.927-1.222,1.389,1.389,0,0,1-1.1-1.289c-.114-.886-.306-1.762-.425-2.648-.045-.338-.179-.433-.5-.429-1.081.014-2.162.019-3.243,0-.367-.008-.48.146-.528.476-.136.921-.317,1.836-.445,2.758a1.246,1.246,0,0,1-.947,1.1,25.694,25.694,0,0,0-2.932,1.211,1.412,1.412,0,0,1-1.691-.135c-.82-.633-1.683-1.21-2.476-1.775l-2.918,2.927c.6.841,1.214,1.728,1.856,2.595a1.273,1.273,0,0,1,.106,1.45c-.472,1.008-.9,2.04-1.278,3.087a1.227,1.227,0,0,1-1.064.914c-.939.138-1.873.314-2.812.451-.318.046-.442.167-.437.5.018,1.1.013,2.2,0,3.3,0,.294.083.422.4.466.94.131,1.873.315,2.812.455a1.286,1.286,0,0,1,1.123.993,24.755,24.755,0,0,0,1.212,2.933,1.35,1.35,0,0,1-.106,1.594c-.639.841-1.231,1.718-1.823,2.552l2.926,2.909c.851-.6,1.754-1.223,2.634-1.874a1.227,1.227,0,0,1,1.4-.1c1.009.468,2.041.893,3.086,1.276a1.261,1.261,0,0,1,.939,1.106c.151,1.067.353,2.127.54,3.23,1.3,0,2.567.009,3.831-.015.109,0,.283-.208.309-.342.177-.933.342-1.869.473-2.81a1.342,1.342,0,0,1,1.056-1.2,19.916,19.916,0,0,0,2.828-1.169,1.4,1.4,0,0,1,1.69.108c.821.633,1.683,1.213,2.454,1.763l2.949-2.918c-.572-.8-1.143-1.654-1.769-2.464a1.393,1.393,0,0,1-.124-1.687,19.237,19.237,0,0,0,1.168-2.829,1.368,1.368,0,0,1,1.247-1.074c.922-.122,1.84-.283,2.753-.461.141-.027.35-.231.352-.357.026-1.247.016-2.5.016-3.8-1.069-.181-2.108-.385-3.156-.525a1.319,1.319,0,0,1-1.193-.987c-.366-1.031-.791-2.044-1.253-3.036a1.223,1.223,0,0,1,.081-1.4c.653-.882,1.275-1.788,1.887-2.65l-2.918-2.924" transform="translate(-90.766 -105.834)" fill="#12263f"/>
        <path id="Trazado_231742" data-name="Trazado 231742" d="M36.92,426.047a2.831,2.831,0,0,1,2.865,2.871,2.861,2.861,0,0,1-2.845,2.85,2.9,2.9,0,0,1-2.878-2.887,2.863,2.863,0,0,1,2.859-2.834m.947,2.834a.916.916,0,0,0-.97-.922.95.95,0,0,0-.919.932.978.978,0,0,0,.956.964.946.946,0,0,0,.933-.974" transform="translate(-30.242 -378.278)" fill="#12263f"/>
        <path id="Trazado_231743" data-name="Trazado 231743" d="M107.511,428.365l1.339,1.315c-.662.691-1.308,1.374-1.969,2.043a.63.63,0,0,1-.4.17c-1.3.013-2.59.008-3.919.008v-1.889c.929,0,1.852-.02,2.773.009a1.171,1.171,0,0,0,1.022-.421c.361-.423.759-.814,1.156-1.234" transform="translate(-91.061 -380.336)" fill="#12263f"/>
        <path id="Trazado_231744" data-name="Trazado 231744" d="M40.1,119.543c0,.545.017,1.062-.014,1.577a.419.419,0,0,1-.287.29c-1.781.018-3.563.013-5.387.013v-1.88Z" transform="translate(-30.554 -106.14)" fill="#12263f"/>
        <path id="Trazado_231745" data-name="Trazado 231745" d="M40.074,153.707c.168,1.878.168,1.878-1.6,1.878H34.422v-1.878Z" transform="translate(-30.563 -136.473)" fill="#12263f"/>
        <path id="Trazado_231746" data-name="Trazado 231746" d="M107.955,121.7l-1.451,1.385c-.36-.4-.757-.82-1.122-1.264a1.082,1.082,0,0,0-.979-.4c-.609.028-1.221.007-1.862.007V119.55c1.026,0,2.025-.012,3.024.011a.828.828,0,0,1,.483.249c.631.606,1.244,1.23,1.906,1.89" transform="translate(-91.044 -106.143)" fill="#12263f"/>
        <rect id="Rectángulo_58134" data-name="Rectángulo 58134" width="1.835" height="1.837" transform="translate(10.533 8.635)" fill="#12263f"/>
        <rect id="Rectángulo_58135" data-name="Rectángulo 58135" width="1.821" height="1.849" transform="translate(14.368 8.649)" fill="#12263f"/>
        <rect id="Rectángulo_58136" data-name="Rectángulo 58136" width="1.832" height="1.841" transform="translate(18.178 8.643)" fill="#12263f"/>
        <rect id="Rectángulo_58137" data-name="Rectángulo 58137" width="1.819" height="1.854" transform="translate(22.001 8.64)" fill="#12263f"/>
        <path id="Trazado_231747" data-name="Trazado 231747" d="M181.9,210.416a11.456,11.456,0,1,1,11.438-11.485A11.451,11.451,0,0,1,181.9,210.416m-9.461-10.463a9.5,9.5,0,0,0,10.332,8.514c4.365-.341,8.98-4.9,8.516-8.536l-.787-.052v-1.852l.94-.083-.8-2.92-.862.438-.928-1.615.815-.526-2.167-2.15-.528.8-1.6-.934.424-.874-2.921-.779-.064.924h-1.852l-.075-.925-2.936.792.442.866-1.611.935-.537-.812-2.144,2.17.808.51-.939,1.617-.865-.443-.786,2.938.921.081v1.846l-.8.066" transform="translate(-151.323 -166.48)" fill="#12263f"/>
        <path id="Trazado_231748" data-name="Trazado 231748" d="M253.9,241.539l1.373,1.365c-.824.822-1.63,1.643-2.457,2.443a.642.642,0,0,0-.2.768,2.806,2.806,0,0,1-1.27,3.278,2.861,2.861,0,0,1-3.919-3.916,2.808,2.808,0,0,1,3.334-1.252.561.561,0,0,0,.672-.175c.813-.846,1.644-1.674,2.472-2.512m-3.058,5.375a.945.945,0,0,0-.985-.92.912.912,0,0,0-.906.983.947.947,0,0,0,.942.907.979.979,0,0,0,.949-.971" transform="translate(-219.33 -214.457)" fill="#12263f"/>
        <path id="Trazado_231749" data-name="Trazado 231749" d="M230.032,334.492a1.943,1.943,0,0,1-.043-.278c0-.5,0-1,0-1.545H239.5v1.823Z" transform="translate(-204.201 -295.37)" fill="#12263f"/>
        <path id="Trazado_231750" data-name="Trazado 231750" d="M220.022,230.249v1.838a4.9,4.9,0,0,0-4.781,4.787h-1.782c-.324-2.64,2.219-6.63,6.563-6.626" transform="translate(-189.501 -204.433)" fill="#12263f"/>
      </g>
    </g>
  </g>
</svg>
