<svg xmlns="http://www.w3.org/2000/svg" xmlns:xlink="http://www.w3.org/1999/xlink" width="93" height="94" viewBox="0 0 93 94">
  <defs>
    <clipPath id="clip-path">
      <rect id="Rectángulo_343003" data-name="Rectángulo 343003" width="55.042" height="55.022" fill="#12263f"/>
    </clipPath>
  </defs>
  <g id="Grupo_981501" data-name="Grupo 981501" transform="translate(0.275 -0.334)">
    <ellipse id="Elipse_4870" data-name="Elipse 4870" cx="46.5" cy="47" rx="46.5" ry="47" transform="translate(-0.275 0.334)" fill="#4adbd1"/>
    <g id="Grupo_981518" data-name="Grupo 981518" transform="translate(18.704 17.823)">
      <g id="Grupo_981517" data-name="Grupo 981517" clip-path="url(#clip-path)">
        <path id="Trazado_655660" data-name="Trazado 655660" d="M79.532,33.016c.632.633,1.349,1.345,2.059,2.064a.974.974,0,0,1,0,1.623q-2.426,2.437-4.864,4.862a.972.972,0,0,1-1.622-.008c-.718-.71-1.431-1.425-2.06-2.052L67.532,41.79c0,.889,0,1.9,0,2.911,0,.823-.324,1.146-1.144,1.147q-3.439.006-6.879,0c-.823,0-1.142-.323-1.146-1.145,0-1.011,0-2.022,0-2.913l-5.506-2.283c-.627.625-1.34,1.34-2.058,2.049a.973.973,0,0,1-1.622.012q-2.437-2.426-4.864-4.863a.97.97,0,0,1-.011-1.62c.712-.718,1.43-1.429,2.065-2.063L44.076,27.51c-.856,0-1.847,0-2.839,0-.909,0-1.218-.3-1.219-1.187q0-3.41,0-6.82c0-.852.318-1.158,1.186-1.161.992,0,1.985,0,2.962,0,.362-1.013.683-2.007,1.075-2.972a14.313,14.313,0,0,1,1-1.992.538.538,0,0,0-.126-.813c-.641-.6-1.255-1.231-1.869-1.859a.928.928,0,0,1,0-1.494q2.484-2.5,4.986-4.984a.928.928,0,0,1,1.5.006c.655.641,1.287,1.307,1.956,1.934a.615.615,0,0,0,.554.114A20.43,20.43,0,0,1,58.36,4.217c0-1.015,0-2.025,0-3.034C58.364.317,58.672,0,59.529,0Q62.94,0,66.35,0c.864,0,1.177.312,1.18,1.168,0,.992,0,1.985,0,2.888l5.512,2.284c.6-.6,1.316-1.316,2.031-2.025.619-.614,1.053-.624,1.661-.019Q79.153,6.7,81.56,9.121c.626.628.615,1.059-.025,1.7-.7.7-1.4,1.4-2.007,2.008l2.294,5.508c.844,0,1.851,0,2.858,0,.892,0,1.194.307,1.195,1.212q0,3.381,0,6.762c0,.89-.31,1.191-1.214,1.194-.992,0-1.984,0-2.848,0l-2.281,5.506m-29.5-26.9L46.143,9.995c.65.655,1.324,1.327,1.99,2.005a.98.98,0,0,1,.176,1.472A17.635,17.635,0,0,0,45.921,19.2c-.174.783-.432.974-1.23.976-.93,0-1.86,0-2.8,0v5.5h2.722c.9,0,1.141.181,1.336,1.064a17.136,17.136,0,0,0,2.294,5.519c.481.758.444,1.051-.205,1.7s-1.3,1.278-1.9,1.868L50,39.706a.173.173,0,0,0,.077-.032c.651-.646,1.3-1.3,1.949-1.94a.974.974,0,0,1,1.47-.174,17.834,17.834,0,0,0,5.727,2.387c.784.174.971.43.974,1.231,0,.93,0,1.859,0,2.8h5.5c0-.933,0-1.828,0-2.723s.181-1.14,1.065-1.334a17.105,17.105,0,0,0,5.521-2.291c.759-.481,1.047-.445,1.7.205s1.282,1.292,1.882,1.9l3.9-3.9c-.662-.655-1.357-1.333-2.04-2.022a.942.942,0,0,1-.17-1.38A18.076,18.076,0,0,0,80,26.544c.151-.668.428-.863,1.138-.866.949,0,1.9,0,2.862,0v-5.5c-.951,0-1.865,0-2.779,0-.832,0-1.085-.19-1.265-1.006a17.325,17.325,0,0,0-2.338-5.624c-.447-.7-.406-1.008.193-1.6.659-.657,1.324-1.308,1.949-1.925L75.894,6.146a.133.133,0,0,0-.069.029c-.651.646-1.3,1.3-1.949,1.939a.984.984,0,0,1-1.472.179,17.569,17.569,0,0,0-5.726-2.388c-.786-.174-.977-.431-.979-1.227,0-.93,0-1.861,0-2.807h-5.5c0,.969,0,1.9,0,2.834,0,.762-.2,1.022-.951,1.19a17.912,17.912,0,0,0-5.73,2.382A.993.993,0,0,1,52,8.1c-.662-.659-1.316-1.325-1.966-1.981" transform="translate(-35.421 0)" fill="#12263f"/>
        <path id="Trazado_655661" data-name="Trazado 655661" d="M22.023,391.553c0,.559,0,1.035,0,1.511,0,.941-.3,1.239-1.226,1.239-4.586,0-9.171.013-13.757-.009a13.038,13.038,0,0,1-3.009-.232,5.471,5.471,0,0,1,1.293-10.745c5.216-.041,10.432-.017,15.648-.014.708,0,1.036.348,1.05,1.067.01.515.01,1.031.015,1.547a.91.91,0,0,0,.043.134h.576c7.528,0,15.056.02,22.584-.029a7.637,7.637,0,0,0,2.409-.634,2.681,2.681,0,0,1,1.934,0c1.506.545,3.036,1.024,4.554,1.535.752.253.9.464.9,1.249,0,.478-.006.955,0,1.433a.951.951,0,0,1-.689,1.005c-1.808.608-3.616,1.215-5.434,1.794a1.191,1.191,0,0,1-.772-.056,12.532,12.532,0,0,0-5.26-.812c-6.706.042-13.413.017-20.12.017Zm-1.859-6.411c-5.009,0-9.953-.013-14.9.011a3.245,3.245,0,0,0-2.459,1.185,3.485,3.485,0,0,0-.659,3.888,3.435,3.435,0,0,0,3.31,2.23c4.811.032,9.623.012,14.435.01a1.749,1.749,0,0,0,.27-.042Zm1.887,4.577h.7c6.936,0,13.872.023,20.808-.017a11.778,11.778,0,0,1,4.646.726,1.3,1.3,0,0,0,.817.007c1.257-.39,2.5-.809,3.746-1.244.172-.06.292-.269.435-.409-.138-.125-.257-.306-.419-.364-.933-.334-1.9-.592-2.812-.968a3.133,3.133,0,0,0-2.685,0,5.919,5.919,0,0,1-2.623.443q-10.977-.026-21.955-.01h-.66Z" transform="translate(-0.001 -339.286)" fill="#12263f"/>
        <path id="Trazado_655662" data-name="Trazado 655662" d="M126.636,64.813a1.783,1.783,0,0,0,.928-1.794,24.967,24.967,0,0,1-.017-2.69c.01-.936.7-1.4,1.491-.891a20.664,20.664,0,0,1,2.047,1.7,2.553,2.553,0,0,0,.615.463,14.457,14.457,0,0,1,9.441,11.652,14.665,14.665,0,1,1-19.671-11.629,2.905,2.905,0,0,0,.754-.548,20.378,20.378,0,0,1,1.965-1.627c.821-.521,1.512-.066,1.521.908.008.859.061,1.724-.015,2.576a1.788,1.788,0,0,0,.942,1.88m-5.5-1.023c-.219.1-.392.166-.554.254a12.819,12.819,0,1,0,12.989,22.077.9.9,0,0,0,.4-.483,6.48,6.48,0,0,0,.018-1.115c-1.126,0-2.172.021-3.217-.01a.691.691,0,0,0-.793.509,3.429,3.429,0,0,1-3.068,2.231,3.132,3.132,0,0,1-3.309-1.7c-.47-1.032-1.1-1.044-1.982-1.042a2.274,2.274,0,0,1-2.055-3.357.788.788,0,0,0,0-.6,2.389,2.389,0,0,1,0-2.15.788.788,0,0,0,0-.6,2.389,2.389,0,0,1-.007-2.15.79.79,0,0,0,.013-.6,2.289,2.289,0,0,1,2.1-3.377c.415-.005.83,0,1.3,0,0-.816-.03-1.577.01-2.333a1.864,1.864,0,0,0-.526-1.476,5.4,5.4,0,0,1-1.309-4.086m12.8,9.73h-11.89c-.134,0-.3-.049-.394.012a4.012,4.012,0,0,0-.521.473c.17.143.325.382.513.411a10.9,10.9,0,0,0,1.257.025.915.915,0,1,1-.006,1.826,10.714,10.714,0,0,0-1.257.025c-.186.029-.339.271-.507.416.173.159.327.416.524.456a6.4,6.4,0,0,0,1.141.024c.667.012,1.079.373,1.071.928s-.42.894-1.1.9a5.913,5.913,0,0,0-1.084.021c-.206.042-.371.279-.555.428.177.156.335.41.534.447a7.959,7.959,0,0,0,1.2.025.918.918,0,1,1,.011,1.828,11.742,11.742,0,0,0-1.314.03.6.6,0,0,0-.4.431c0,.151.234.329.4.442.093.062.26.017.394.017h11.978Zm1.882,10.773c.4-.474.729-.814,1.007-1.189a12.467,12.467,0,0,0,2.192-10.981c-.042-.163-.217-.411-.337-.416-.946-.034-1.894-.019-2.862-.019ZM123.876,61.984a3.593,3.593,0,0,0,.31,5.082,1.615,1.615,0,0,1,.617,1.385c-.032,1.061-.009,2.125-.009,3.2h3.669c0-.912.036-1.789-.01-2.661a2.5,2.5,0,0,1,.832-2.163,3.418,3.418,0,0,0,.095-4.777c0,.745.038,1.446-.017,2.14a1.672,1.672,0,0,1-.372.908c-.5.575-1.06,1.1-1.608,1.629a.944.944,0,0,1-1.538-.027,20.381,20.381,0,0,1-1.524-1.55,2.072,2.072,0,0,1-.425-1.057c-.067-.658-.019-1.327-.019-2.107m8.248,1.786a5.752,5.752,0,0,1-1.677,4.543c-.124.124-.131.363-.207.592a3.255,3.255,0,0,0,.533.027,1.382,1.382,0,0,1,1.486.816,18.321,18.321,0,0,0,1.077,1.616,2.894,2.894,0,0,0,.593.45c.019-.291.033-.422.035-.554.018-1.206.224-1.408,1.454-1.408h2.8a13.008,13.008,0,0,0-6.093-6.082m-4,20.783h-2.985a1.715,1.715,0,0,0,2.985,0m3.17-12.914c-.324-.335-.321-.923-.978-.856" transform="translate(-99.102 -52.429)" fill="#12263f"/>
        <path id="Trazado_655663" data-name="Trazado 655663" d="M39.376,425.117q-3.066,0-6.133,0c-.735,0-1.151-.323-1.169-.89-.018-.589.415-.942,1.172-.942q6.162,0,12.323,0c.736,0,1.152.322,1.17.889.018.586-.418.943-1.173.943q-3.1,0-6.19,0" transform="translate(-28.392 -374.684)" fill="#12263f"/>
      </g>
    </g>
  </g>
</svg>
