<svg xmlns="http://www.w3.org/2000/svg" xmlns:xlink="http://www.w3.org/1999/xlink" width="93" height="94" viewBox="0 0 93 94">
  <defs>
    <clipPath id="clip-path">
      <rect id="Rectángulo_58313" data-name="Rectángulo 58313" width="55.198" height="55.24" fill="#12263f"/>
    </clipPath>
  </defs>
  <g id="Grupo_982075" data-name="Grupo 982075" transform="translate(0.275 -0.334)">
    <ellipse id="Elipse_4870" data-name="Elipse 4870" cx="46.5" cy="47" rx="46.5" ry="47" transform="translate(-0.275 0.334)" fill="#4adbd1"/>
    <g id="Grupo_180438" data-name="Grupo 180438" transform="translate(21.696 16.725)">
      <g id="Grupo_180436" data-name="Grupo 180436" clip-path="url(#clip-path)">
        <path id="Trazado_231945" data-name="Trazado 231945" d="M55.2,38.551V55.239H33.1V53.383H0V.017C.145.01.257,0,.368,0Q16.275,0,32.182.011A1.081,1.081,0,0,1,32.87.3q4.573,4.539,9.109,9.116a1.247,1.247,0,0,1,.315.791c.025,2.205.014,4.411.014,6.617v.695c2.22-.159,4.326-.029,6.056,1.5a6.335,6.335,0,0,1,2.209,5.71,6.1,6.1,0,0,1-2.205,4.1,6.471,6.471,0,0,1-6.024,1.313V31.3c1.566,0,3.1,0,4.628,0a8.247,8.247,0,0,1,7.758,5.54c.192.557.314,1.138.468,1.708M1.855,1.858V51.515H33.1v-.658c0-3.759-.029-7.519.009-11.277a7.916,7.916,0,0,1,4.153-7.143,23.737,23.737,0,0,1,3.2-1.292,10.03,10.03,0,0,1,.009-1.162,1.278,1.278,0,0,0-.552-1.209,6.1,6.1,0,0,1-2.213-4.738c-.025-1.994-.006-3.989-.006-5.984v-.591h2.715V11.026H31.237V1.858Zm42.313,50.1C43.006,50.8,41.92,49.693,40.8,48.617a.985.985,0,0,1-.331-.959c.49-3.1.95-6.2,1.46-9.3.363-2.2.391-2.2-.628-4.233l-.129-.256c-.374-.746-.374-.746-1.21-.545a6.412,6.412,0,0,0-5.014,6.325c-.013,4.411,0,8.821,0,13.232,0,.164.022.328.033.481H53.354v-.651q0-6.357,0-12.714a10.9,10.9,0,0,0-.114-1.544,6.371,6.371,0,0,0-5.407-5.2.648.648,0,0,0-.514.262c-.4.737-.773,1.495-1.129,2.257a1.115,1.115,0,0,0-.086.6c.28,1.931.575,3.861.87,5.789.284,1.853.581,3.7.85,5.56a.917.917,0,0,1-.137.678c-1.139,1.189-2.31,2.348-3.516,3.563m-4.6-28.888c0,.348-.012.688,0,1.026a4.608,4.608,0,0,0,3.194,4.2,4.512,4.512,0,0,0,4.946-1.5c.929-1.243.82-1.042-.218-1.919-2.3-1.949-5.064-1.992-7.923-1.808m4.6,26.227c.506-.537.967-.972,1.357-1.464a1.179,1.179,0,0,0,.235-.8c-.177-1.381-.4-2.755-.616-4.131q-.473-3.069-.95-6.146c-.053.019-.082.023-.083.031q-.816,5.2-1.618,10.4a.709.709,0,0,0,.151.514c.458.513.948,1,1.525,1.591M38.84,9.179,33.164,3.493V9.179ZM43,33.218l1.15,2.3,1.13-2.3Z" transform="translate(0 0.001)" fill="#12263f"/>
        <rect id="Rectángulo_58305" data-name="Rectángulo 58305" width="20.189" height="1.778" transform="translate(14.714 18.438)" fill="#12263f"/>
        <rect id="Rectángulo_58306" data-name="Rectángulo 58306" width="20.189" height="1.778" transform="translate(14.714 22.121)" fill="#12263f"/>
        <rect id="Rectángulo_58307" data-name="Rectángulo 58307" width="16.507" height="1.789" transform="translate(14.719 29.481)" fill="#12263f"/>
        <rect id="Rectángulo_58308" data-name="Rectángulo 58308" width="16.507" height="1.778" transform="translate(14.734 33.18)" fill="#12263f"/>
        <rect id="Rectángulo_58309" data-name="Rectángulo 58309" width="15.586" height="1.778" transform="translate(14.714 40.535)" fill="#12263f"/>
        <rect id="Rectángulo_58310" data-name="Rectángulo 58310" width="15.606" height="1.771" transform="translate(14.71 44.221)" fill="#12263f"/>
        <path id="Trazado_231946" data-name="Trazado 231946" d="M46.946,256.137l-2.021-2.121-2.045,2.256-1.371-1.4,2.132-2.054-2.224-2.059L42.8,249.4l2.045,2.143,2.067-2.232,1.362,1.393-2.162,2.047,2.285,2.056-1.45,1.331" transform="translate(-36.641 -220.564)" fill="#12263f"/>
        <path id="Trazado_231947" data-name="Trazado 231947" d="M41.479,350.519l2.131-1.952-2.222-2.036,1.454-1.292,1.99,2.1,2.065-2.26,1.286,1.463-2.1,1.978,2.26,2.072-1.489,1.25L44.9,349.793l-2.056,2.243-1.361-1.518" transform="translate(-36.615 -305.292)" fill="#12263f"/>
        <rect id="Rectángulo_58311" data-name="Rectángulo 58311" width="13.745" height="1.782" transform="translate(14.733 7.398)" fill="#12263f"/>
        <rect id="Rectángulo_58312" data-name="Rectángulo 58312" width="13.745" height="1.778" transform="translate(14.714 11.073)" fill="#12263f"/>
        <path id="Trazado_231948" data-name="Trazado 231948" d="M44.21,67.7l1.077,1.289,2.99-3.156,1.336,1.294-4.233,4.232-2.394-2.4L44.21,67.7" transform="translate(-38.029 -58.246)" fill="#12263f"/>
        <path id="Trazado_231949" data-name="Trazado 231949" d="M44.981,167.39l-2.4-2.407,1.354-1.291,1.013,1.288,3.04-3.113,1.231,1.284-4.239,4.239" transform="translate(-37.672 -143.204)" fill="#12263f"/>
      </g>
    </g>
  </g>
</svg>
