<svg xmlns="http://www.w3.org/2000/svg" xmlns:xlink="http://www.w3.org/1999/xlink" width="93" height="94" viewBox="0 0 93 94">
  <defs>
    <clipPath id="clip-path">
      <rect id="Rectángulo_52815" data-name="Rectángulo 52815" width="45.954" height="55.148" fill="#12263f"/>
    </clipPath>
  </defs>
  <g id="Grupo_982076" data-name="Grupo 982076" transform="translate(0.275 -0.334)">
    <ellipse id="Elipse_4870" data-name="Elipse 4870" cx="46.5" cy="47" rx="46.5" ry="47" transform="translate(-0.275 0.334)" fill="#f4a338"/>
    <g id="Grupo_180439" data-name="Grupo 180439" transform="translate(23.248 19.76)">
      <g id="Grupo_173668" data-name="Grupo 173668" clip-path="url(#clip-path)">
        <path id="Trazado_214794" data-name="Trazado 214794" d="M0,64.234V39.187a3.075,3.075,0,0,1,3.388-2.2c3.061.07,6.124.02,9.186.02h.613a10.934,10.934,0,0,1,4.195-11.658c3.681-2.586,7.678-2.995,11.628-.83,4.9,2.683,6.6,7,5.591,12.465h2.566c-.7-2.308-.35-3.772,1.139-4.825a3.659,3.659,0,0,1,4.338.067,3.611,3.611,0,0,1,1.3,1.847,3.672,3.672,0,0,1-.313,2.871c1.875.626,2.332,1.765,2.323,3.444-.039,7.7-.017,15.394-.018,23.092A2.731,2.731,0,0,1,43,66.414q-5.11,0-10.22,0h-.726c.446.67.832,1.254,1.222,1.835.405.6.69,1.432,1.257,1.74s1.414.092,2.138.106h.057A2.725,2.725,0,0,1,39.5,72.9c0,.44,0,.881,0,1.321,0,1.159-.219,1.383-1.356,1.383H7.775c-.134,0-.268,0-.4,0a.884.884,0,0,1-.935-.936c-.015-.612-.008-1.225,0-1.838a2.631,2.631,0,0,1,2-2.614,5.51,5.51,0,0,1,1.875-.1,1.6,1.6,0,0,0,1.769-.961c.519-.922,1.161-1.775,1.806-2.741H13.15q-5.11,0-10.22,0a3.666,3.666,0,0,1-.85-.084A2.909,2.909,0,0,1,0,64.234m1.9-1.5C1.68,64,1.946,64.6,3.377,64.6q19.72-.04,39.44-.016c.968,0,1.285-.309,1.285-1.259q0-11.6,0-23.2c0-.965-.31-1.277-1.266-1.278-2.756,0-5.511.011-8.267-.012a.9.9,0,0,0-.961.564,11,11,0,0,1-19.527-.146c-.131-.246-.24-.419-.585-.418-3.521.017-7.042.007-10.563.013a.968.968,0,0,0-1.1,1.1c-.011,1,0,1.991,0,2.986,0,.469,0,.939,0,1.432,1.636,0,3.185,0,4.734,0A.919.919,0,0,1,7.62,45.367c.014.262,0,.525,0,.831.8,0,1.525,0,2.249,0a13.279,13.279,0,0,1,1.948.048c2.677.423,5.343.922,8.02,1.341A3.934,3.934,0,0,1,23.354,50.2a10.652,10.652,0,0,1,.25,1.043c.394.044.777.067,1.152.134a1.987,1.987,0,0,0,1.842-.649c1.588-1.523,3.232-2.987,4.857-4.472a3.587,3.587,0,0,1,3.35-.894,3.464,3.464,0,0,1,2.722,2.59,3.548,3.548,0,0,1-1.054,3.769q-4.041,3.748-8.117,7.459a6.525,6.525,0,0,1-4.6,1.731c-5.167-.019-10.334-.007-15.5-.007H7.578c0,.208,0,.322,0,.436-.01,1.2-.209,1.4-1.394,1.4H1.9M14.7,34.232a9.187,9.187,0,1,0,9.114-9.177A9.23,9.23,0,0,0,14.7,34.232M7.605,59.066h.606c5.13,0,10.259-.01,15.389.006a5.22,5.22,0,0,0,3.785-1.493c1.247-1.188,2.534-2.335,3.8-3.5,1.325-1.217,2.656-2.429,3.971-3.657a1.868,1.868,0,0,0,.518-2.147,1.66,1.66,0,0,0-1.539-1.1,1.919,1.919,0,0,0-1.5.6c-1.7,1.574-3.411,3.134-5.111,4.708a2.843,2.843,0,0,1-2.234.845c-.572-.045-1.146-.066-1.715-.133a.726.726,0,0,0-.749.366,3.443,3.443,0,0,1-3.443,1.5c-2.113-.322-4.218-.708-6.323-1.082a.954.954,0,0,1-.886-1.171.977.977,0,0,1,1.252-.691q3.016.543,6.033,1.08a1.831,1.831,0,0,0,2.176-1.468,1.787,1.787,0,0,0-1.5-2.087c-2.386-.435-4.787-.791-7.16-1.283a26.13,26.13,0,0,0-5.378-.3Zm6.092,11H32.24c-.8-1.2-1.552-2.346-2.327-3.474a.6.6,0,0,0-.439-.166q-6.51-.013-13.02,0a.55.55,0,0,0-.4.131c-.784,1.143-1.549,2.3-2.358,3.511M5.7,46.24H1.866V60.878H5.7ZM8.272,73.732H37.641c.114-1.548-.119-1.8-1.609-1.8H9.733a4.6,4.6,0,0,0-.574.009.924.924,0,0,0-.883.9c-.028.283,0,.571,0,.9m33.988-38.6A1.835,1.835,0,1,0,40.454,37a1.882,1.882,0,0,0,1.806-1.865" transform="translate(0 -20.46)" fill="#12263f"/>
        <path id="Trazado_214795" data-name="Trazado 214795" d="M344.355,0a1.332,1.332,0,0,1,.582,1.267c-.024,2.293-.014,4.586-.007,6.879,0,.445-.13.844-.566.949a1.29,1.29,0,0,1-.939-.154,1.093,1.093,0,0,1-.318-.8c-.024-2.369,0-4.739-.023-7.108A1.245,1.245,0,0,1,343.665,0Z" transform="translate(-303.584)" fill="#12263f"/>
        <path id="Trazado_214796" data-name="Trazado 214796" d="M296.458,0a1.318,1.318,0,0,1,.582,1.266c-.03,1.355-.008,2.711-.011,4.067,0,.715-.351,1.115-.945,1.1-.57-.016-.884-.4-.886-1.1,0-1.356.019-2.712-.011-4.067A1.313,1.313,0,0,1,295.769,0Z" transform="translate(-261.201)" fill="#12263f"/>
        <path id="Trazado_214797" data-name="Trazado 214797" d="M112.914,0a1.308,1.308,0,0,1,.582,1.265c-.033,1.068-.005,2.137-.012,3.206,0,.667-.366,1.056-.944,1.04-.55-.016-.882-.4-.885-1.04-.006-1.069.022-2.138-.012-3.206A1.3,1.3,0,0,1,112.225,0Z" transform="translate(-98.788)" fill="#12263f"/>
        <path id="Trazado_214798" data-name="Trazado 214798" d="M56.948,0a1.264,1.264,0,0,1,.58,1.264c-.036.493,0,.991-.012,1.486a.913.913,0,1,1-1.825,0A10.611,10.611,0,0,1,55.713.923c.049-.328.356-.617.546-.923Z" transform="translate(-49.254)" fill="#12263f"/>
        <path id="Trazado_214799" data-name="Trazado 214799" d="M39.286,51.618a3.673,3.673,0,1,1-3.648-3.7,3.649,3.649,0,0,1,3.648,3.7m-1.839-.028a1.835,1.835,0,1,0-1.832,1.837,1.878,1.878,0,0,0,1.832-1.837" transform="translate(-28.264 -42.402)" fill="#12263f"/>
        <path id="Trazado_231950" data-name="Trazado 231950" d="M45.234,69.263l1.976,2.366L52.7,65.837l2.451,2.376L47.379,75.98l-4.394-4.413,2.249-2.3" transform="translate(-25.227 -57.424)" fill="#12263f"/>
      </g>
    </g>
  </g>
</svg>
