<svg id="Grupo_982082" data-name="Grupo 982082" xmlns="http://www.w3.org/2000/svg" xmlns:xlink="http://www.w3.org/1999/xlink" width="493.688" height="365.537" viewBox="0 0 493.688 365.537">
  <defs>
    <clipPath id="clip-path">
      <rect id="Rectángulo_39415" data-name="Rectángulo 39415" width="493.688" height="365.537" fill="none"/>
    </clipPath>
    <clipPath id="clip-path-3">
      <rect id="Rectángulo_39381" data-name="Rectángulo 39381" width="452.697" height="335.235" fill="#f6f6f6"/>
    </clipPath>
    <clipPath id="clip-path-4">
      <rect id="Rectángulo_39389" data-name="Rectángulo 39389" width="18.593" height="18.593" fill="none"/>
    </clipPath>
    <clipPath id="clip-path-6">
      <rect id="Rectángulo_39391" data-name="Rectángulo 39391" width="15.477" height="10.345" fill="none"/>
    </clipPath>
    <clipPath id="clip-path-7">
      <rect id="Rectángulo_39392" data-name="Rectángulo 39392" width="15.478" height="10.191" fill="none"/>
    </clipPath>
    <clipPath id="clip-path-8">
      <rect id="Rectángulo_39393" data-name="Rectángulo 39393" width="16.702" height="19.78" fill="none"/>
    </clipPath>
    <clipPath id="clip-path-9">
      <rect id="Rectángulo_39394" data-name="Rectángulo 39394" width="4.175" height="31.327" fill="none"/>
    </clipPath>
    <clipPath id="clip-path-10">
      <rect id="Rectángulo_39395" data-name="Rectángulo 39395" width="30.059" height="39.785" fill="none"/>
    </clipPath>
    <clipPath id="clip-path-11">
      <rect id="Rectángulo_39396" data-name="Rectángulo 39396" width="123.265" height="69.597" fill="none"/>
    </clipPath>
    <clipPath id="clip-path-12">
      <rect id="Rectángulo_39397" data-name="Rectángulo 39397" width="39.768" height="21.462" fill="none"/>
    </clipPath>
    <clipPath id="clip-path-13">
      <rect id="Rectángulo_39398" data-name="Rectángulo 39398" width="21.344" height="3.974" fill="none"/>
    </clipPath>
    <clipPath id="clip-path-14">
      <rect id="Rectángulo_39399" data-name="Rectángulo 39399" width="32.498" height="15.723" fill="none"/>
    </clipPath>
    <clipPath id="clip-path-15">
      <rect id="Rectángulo_39400" data-name="Rectángulo 39400" width="32.534" height="9.395" fill="none"/>
    </clipPath>
    <clipPath id="clip-path-16">
      <rect id="Rectángulo_39401" data-name="Rectángulo 39401" width="3.771" height="3.771" fill="none"/>
    </clipPath>
    <clipPath id="clip-path-17">
      <rect id="Rectángulo_39402" data-name="Rectángulo 39402" width="3.771" height="3.772" fill="none"/>
    </clipPath>
    <clipPath id="clip-path-20">
      <rect id="Rectángulo_39405" data-name="Rectángulo 39405" width="3.772" height="3.772" fill="none"/>
    </clipPath>
  </defs>
  <g id="Grupo_146274" data-name="Grupo 146274" clip-path="url(#clip-path)">
    <g id="Grupo_146273" data-name="Grupo 146273">
      <g id="Grupo_146272" data-name="Grupo 146272" clip-path="url(#clip-path)">
        <g id="Grupo_146220" data-name="Grupo 146220" transform="translate(21.873)" opacity="0.5">
          <g id="Grupo_146219" data-name="Grupo 146219">
            <g id="Grupo_146218" data-name="Grupo 146218" clip-path="url(#clip-path-3)">
              <path id="Trazado_188565" data-name="Trazado 188565" d="M505.953,123.8V113.767a7.082,7.082,0,0,1,7.082-7.082h3.7V96.666l7.257,10.019h77.485a7.082,7.082,0,0,1,7.082,7.082V123.8a7.082,7.082,0,0,1-7.082,7.082H513.035a7.082,7.082,0,0,1-7.082-7.082" transform="translate(-155.862 -25.6)" fill="#f6f6f6"/>
              <path id="Trazado_188566" data-name="Trazado 188566" d="M170.706,96.641v14.221A10.036,10.036,0,0,1,160.67,120.9h-5.244v14.2l-10.284-14.2H106.115a10.036,10.036,0,0,1-10.036-10.036V96.641A10.036,10.036,0,0,1,106.115,86.6H160.67a10.036,10.036,0,0,1,10.036,10.036" transform="translate(-47.317 -22.935)" fill="#f6f6f6"/>
              <path id="Trazado_188567" data-name="Trazado 188567" d="M502.664,53.887,490.619,65.936l12.046,12.049v-7.09h21.578V60.977H502.664Z" transform="translate(-151.801 -14.271)" fill="#f6f6f6"/>
              <path id="Trazado_188568" data-name="Trazado 188568" d="M547.11,46.311,535.064,34.263v7.09H513.486V51.27h21.578v7.09Z" transform="translate(-157.857 -9.074)" fill="#f6f6f6"/>
              <path id="Trazado_188569" data-name="Trazado 188569" d="M40.983,186.919c.059.193.118.385.185.576.041.139.09.277.143.413a.406.406,0,0,0,.028.086c.036.1.073.193.11.287a.277.277,0,0,0,.027.07c.018.048.037.093.055.14.062.163.124.326.192.486.04.1.083.2.126.3.106.248.215.494.331.739.035.082.077.165.115.246l.01.016c.1.207.2.408.311.611q.34.637.718,1.253c.118.193.242.386.367.575.005,0,.009.007.01.015.052.077.1.152.155.227l.139.2c.06.089.121.173.182.258q.2.283.413.557c.158.21.32.418.487.621v0L39.228,204.65l11.988,6.98,5.623-9.657h0c.056.015.11.027.163.039l.368.084c.115.029.23.051.343.068.146.032.29.06.435.084.062.011.124.023.185.031a.076.076,0,0,0,.033.007c.173.033.345.058.518.083.038.008.08.014.122.02.133.018.271.033.406.054.1.014.2.025.3.033.013,0,.024,0,.032,0a1.584,1.584,0,0,0,.2.021c.145.015.288.026.437.04.029,0,.061,0,.093.007a.342.342,0,0,1,.054,0c.143.012.288.018.437.026.04,0,.083,0,.128.008.145.007.293.012.439.013.053,0,.1,0,.151,0,.17.006.34.006.509,0,.235,0,.476,0,.712-.015.176-.006.346-.014.523-.026a.386.386,0,0,1,.066,0,.762.762,0,0,0,.124-.007c.207-.011.409-.029.61-.051.244-.021.488-.049.728-.084.26-.029.519-.068.775-.112l5.781,10.1,12.039-6.892-5.554-9.7c.016-.018.036-.033.051-.051.185-.191.363-.387.536-.584.131-.151.262-.3.387-.457l.114-.142c.112-.137.224-.274.332-.412s.221-.288.329-.434c.033-.044.068-.087.1-.133l.029-.039h0c.076-.1.153-.209.225-.314.043-.06.084-.12.124-.18l.09-.131a.74.74,0,0,0,.049-.071c.042-.062.082-.128.124-.191.082-.125.163-.249.243-.376s.148-.243.221-.364c.055-.093.113-.182.168-.276s.123-.2.179-.307c.02-.033.04-.065.057-.1.051-.089.1-.182.147-.272.059-.106.115-.215.173-.324.029-.06.06-.12.091-.176.061-.124.121-.243.178-.366.045-.094.089-.187.13-.279a1.536,1.536,0,0,0,.082-.179.064.064,0,0,0,.013-.029c.043-.088.084-.18.124-.275.058-.123.109-.25.16-.377a.916.916,0,0,0,.045-.115c.064-.156.122-.309.181-.466.009,0,.011-.01.012-.024a.086.086,0,0,0,.016-.039.116.116,0,0,0,.015-.042h0l11.644.043.051-13.872-11.178-.041h0a1.672,1.672,0,0,0-.053-.182,22.005,22.005,0,0,0-1.309-3.345,22.733,22.733,0,0,0-1.414-2.47c-.092-.14-.193-.274-.289-.412-.073-.106-.146-.211-.221-.315h0c-.1-.135-.2-.268-.3-.4-.058-.077-.12-.154-.18-.232h0c-.054-.069-.106-.139-.162-.208l-.071-.088c-.054-.067-.1-.137-.159-.2L84.935,156.5l-11.988-6.98-5.626,9.66h0a.566.566,0,0,0-.094-.024c-.154-.039-.311-.074-.467-.107-.094-.024-.187-.043-.28-.057-.054-.012-.111-.022-.162-.031-.141-.03-.275-.056-.416-.078a.621.621,0,0,0-.1-.017c-.211-.041-.422-.074-.629-.1-.165-.024-.328-.043-.49-.062l-.029,0c-.068-.007-.133-.018-.2-.025s-.145-.015-.216-.021c-.146-.015-.293-.028-.44-.037-.037-.005-.074,0-.111-.009-.125-.01-.245-.018-.368-.024s-.248-.016-.367-.015a.214.214,0,0,0-.022,0c-.093-.007-.189-.011-.287-.01-.062,0-.121,0-.183-.007-.16,0-.318-.005-.479,0-.239,0-.474.007-.712.015-.2.006-.392.015-.588.03q-.352.022-.7.054a.394.394,0,0,1-.076.01l-.056.007q-.3.029-.588.068c-.04.006-.081.008-.118.017-.219.027-.434.061-.65.094a.249.249,0,0,0-.048.007h0l-5.781-10.1-12.039,6.892,5.554,9.7c-.06.06-.12.12-.176.186-.143.146-.279.3-.409.447s-.284.325-.421.488a.2.2,0,0,0-.032.04c-.121.146-.239.29-.354.441a.337.337,0,0,1-.032.04c-.113.137-.223.281-.324.424-.038.052-.076.1-.111.149-.054.069-.105.137-.152.21-.09.12-.171.239-.253.362a1.418,1.418,0,0,0-.106.159c-.085.121-.17.246-.248.372-.037.055-.074.11-.105.167a.065.065,0,0,0-.015.026c-.136.21-.265.424-.389.64-.082.132-.16.271-.234.411-.046.082-.091.168-.136.253a2.191,2.191,0,0,0-.132.246c-.074.14-.143.279-.212.42-.007,0-.008.009-.011.019-.082.162-.159.325-.232.487-.033.062-.062.13-.092.2s-.053.124-.081.187l-.011.027c-.066.15-.133.3-.2.454-.092.219-.182.441-.262.673L29.8,172.82l-.052,13.872,11.177.042.055.185M53.1,175.341a10.4,10.4,0,1,1,3.753,14.217A10.4,10.4,0,0,1,53.1,175.341" transform="translate(-29.751 -39.391)" fill="#f6f6f6"/>
              <path id="Trazado_188570" data-name="Trazado 188570" d="M67.906,262.7c.032.1.064.208.1.312.022.075.049.15.077.224a.252.252,0,0,0,.015.047c.019.054.04.1.06.156a.132.132,0,0,0,.015.037c.01.026.02.051.03.076.033.088.067.177.1.263.022.054.046.107.068.161q.086.2.179.4c.018.045.042.09.062.133l.005.009c.054.113.11.221.168.332q.184.346.39.68c.064.1.131.21.2.312,0,0,0,0,0,.009.029.041.054.082.085.123l.076.107c.032.049.065.094.1.14q.109.153.224.3c.085.114.173.226.264.337h0l-3.177,5.458,6.5,3.787,3.051-5.24h0l.089.021.2.046c.062.015.125.028.186.037.079.018.157.032.236.046.034.006.068.013.1.017a.035.035,0,0,0,.018,0c.093.018.187.032.28.046l.067.011c.072.009.146.018.22.029.055.007.11.014.163.018l.017,0a.946.946,0,0,0,.106.011l.237.021c.016,0,.034,0,.051,0a.13.13,0,0,1,.029,0c.078.006.157.01.237.014l.07,0c.079,0,.159.007.237.007.029,0,.054,0,.082,0,.092,0,.185,0,.276,0,.127,0,.258,0,.386-.008.1,0,.187-.007.284-.014l.036,0a.4.4,0,0,0,.067,0c.112-.007.222-.016.332-.028.132-.011.265-.026.395-.046s.282-.036.42-.06l3.137,5.48L91,272.783l-3.013-5.263c.008-.01.019-.018.028-.028.1-.1.2-.21.29-.316.071-.082.142-.165.21-.248l.062-.077c.061-.074.121-.148.18-.223s.12-.156.179-.235l.055-.072.015-.021c.041-.057.083-.113.122-.171.024-.032.046-.065.068-.1l.049-.071a.359.359,0,0,0,.026-.038l.067-.1c.044-.068.088-.135.132-.2s.08-.132.12-.2c.029-.05.061-.1.09-.15s.067-.11.1-.167c.011-.018.021-.035.031-.054.028-.048.055-.1.08-.148s.062-.117.093-.176c.016-.032.032-.065.05-.095.033-.068.065-.132.1-.2.024-.051.049-.1.071-.151a.74.74,0,0,0,.044-.1.034.034,0,0,0,.007-.015c.024-.049.046-.1.067-.149.032-.067.059-.136.087-.205a.444.444,0,0,0,.024-.063c.035-.085.066-.168.1-.253,0,0,.006-.006.006-.012a.056.056,0,0,0,.009-.021.064.064,0,0,0,.008-.023h0l6.317.023.028-7.526-6.064-.023h0a1.022,1.022,0,0,0-.029-.1A11.92,11.92,0,0,0,90.09,254a12.206,12.206,0,0,0-.768-1.34c-.049-.076-.1-.149-.156-.224-.04-.057-.079-.115-.121-.171h0c-.053-.073-.107-.146-.162-.217-.031-.042-.065-.084-.1-.126h0c-.029-.038-.057-.076-.087-.113l-.038-.048c-.029-.036-.057-.074-.087-.11l3.178-5.458-6.5-3.787L82.2,247.643h0a.365.365,0,0,0-.051-.012c-.084-.021-.168-.04-.254-.058-.051-.013-.1-.024-.151-.032l-.088-.016c-.076-.017-.149-.03-.226-.043a.32.32,0,0,0-.057-.009c-.114-.023-.229-.04-.341-.055-.089-.013-.177-.023-.266-.033l-.015,0-.11-.013-.118-.012c-.079-.008-.16-.015-.239-.021l-.06,0c-.068-.006-.133-.01-.2-.013s-.135-.009-.2-.009H79.81c-.051,0-.1-.006-.157-.006l-.1,0c-.087,0-.174,0-.26,0-.129,0-.257,0-.387.009-.107,0-.212.008-.319.016-.127.008-.254.018-.379.029-.015,0-.028,0-.041.005l-.031,0c-.107.011-.213.023-.319.037a.612.612,0,0,0-.064.01c-.119.015-.235.033-.352.051a.144.144,0,0,0-.026,0l-3.137-5.48-6.532,3.738,3.013,5.265c-.032.032-.065.065-.1.1-.077.079-.151.16-.222.243s-.154.176-.228.265a.154.154,0,0,0-.018.022c-.065.079-.129.157-.192.239a.144.144,0,0,1-.018.022c-.061.074-.121.152-.176.23-.021.028-.041.054-.06.081s-.057.074-.082.115c-.049.065-.093.129-.137.2a.762.762,0,0,0-.057.086c-.046.065-.092.134-.135.2-.02.029-.04.06-.057.09a.027.027,0,0,0-.008.014c-.074.113-.144.23-.211.347-.045.072-.087.147-.127.223-.025.045-.049.091-.074.137a1.373,1.373,0,0,0-.072.134c-.04.076-.078.151-.115.228,0,0,0,0-.006.01-.044.087-.086.176-.126.264-.018.034-.034.071-.049.107s-.029.068-.044.1l-.006.015c-.036.082-.073.162-.106.246-.05.118-.1.239-.143.365l-6.317-.023-.028,7.526,6.064.023c.01.033.02.067.03.1m6.572-6.282a5.642,5.642,0,1,1,2.036,7.713,5.643,5.643,0,0,1-2.036-7.713" transform="translate(-38.242 -64.083)" fill="#f6f6f6"/>
              <path id="Trazado_188571" data-name="Trazado 188571" d="M595.673,374.341c-.051.149-.1.3-.157.445-.035.107-.077.213-.121.318a.287.287,0,0,1-.024.067c-.03.076-.061.148-.092.221a.244.244,0,0,1-.023.054c-.015.037-.032.071-.046.108-.052.126-.1.251-.161.374-.034.076-.07.151-.1.228h0q-.131.286-.275.568c-.029.063-.064.126-.1.188l-.007.013c-.084.159-.168.313-.257.468q-.279.49-.588.96c-.1.147-.2.295-.3.439,0,0-.006.006-.007.012-.043.058-.082.115-.126.173l-.112.151c-.049.068-.1.133-.149.2-.109.144-.221.285-.335.424-.129.16-.259.318-.394.473h0l4.328,7.976-9.5,5.158-4.157-7.657h0c-.043.01-.085.018-.128.026l-.288.057c-.09.02-.181.035-.268.046-.115.021-.228.04-.342.054-.049.008-.1.015-.144.02a.05.05,0,0,1-.026,0c-.135.022-.271.037-.405.053-.03.005-.063.009-.1.012-.1.01-.212.02-.318.032-.08.009-.158.015-.234.018l-.025,0a1.116,1.116,0,0,1-.153.011c-.113.008-.225.014-.341.021-.023,0-.048,0-.073,0a.269.269,0,0,0-.041,0c-.112.006-.225.007-.342.01-.031,0-.065,0-.1,0-.113,0-.228,0-.342,0-.042,0-.078,0-.118,0-.132,0-.265,0-.4-.01-.184,0-.371-.014-.554-.029-.137-.01-.269-.02-.406-.033l-.052,0a.593.593,0,0,1-.1-.008c-.16-.014-.318-.032-.474-.054-.19-.022-.379-.05-.565-.083-.2-.029-.4-.065-.6-.105l-4.742,7.736-9.22-5.652,4.555-7.43c-.012-.013-.027-.026-.039-.04-.14-.153-.274-.309-.4-.468-.1-.121-.2-.242-.291-.365-.03-.038-.057-.076-.086-.113-.084-.11-.168-.218-.249-.329s-.165-.229-.246-.346c-.025-.035-.051-.07-.076-.106l-.021-.032c-.057-.083-.115-.166-.168-.251-.032-.047-.062-.095-.093-.143l-.067-.1a.536.536,0,0,1-.037-.056c-.031-.05-.061-.1-.091-.152h0c-.06-.1-.12-.2-.18-.3s-.11-.192-.163-.288h0c-.041-.073-.084-.144-.124-.219s-.091-.16-.132-.243c-.015-.026-.029-.051-.043-.08-.037-.071-.074-.143-.108-.215s-.085-.171-.127-.257c-.021-.047-.043-.095-.067-.14-.044-.1-.088-.193-.13-.29-.032-.074-.065-.148-.095-.221a1.134,1.134,0,0,1-.059-.141.046.046,0,0,1-.01-.023c-.031-.07-.061-.143-.09-.218-.042-.1-.079-.2-.115-.3a.688.688,0,0,1-.032-.09c-.046-.123-.087-.243-.13-.368-.007,0-.008-.009-.009-.019a.074.074,0,0,1-.012-.031.108.108,0,0,1-.01-.033h0l-9.075-.239.285-10.811,8.712.229h0a1.281,1.281,0,0,1,.046-.141,17.184,17.184,0,0,1,1.1-2.575,17.781,17.781,0,0,1,1.16-1.892c.075-.107.157-.209.234-.314.059-.081.118-.162.179-.241h0c.079-.1.159-.2.241-.3.047-.059.1-.118.146-.176h0c.043-.053.085-.106.13-.159l.058-.067c.043-.051.084-.1.129-.154l-4.329-7.977,9.505-5.158L575.8,352.1h0a.426.426,0,0,1,.074-.015c.122-.027.244-.051.367-.074.074-.015.146-.029.22-.038.042-.008.087-.014.127-.02.11-.02.215-.037.326-.051a.482.482,0,0,1,.081-.011c.166-.027.331-.048.493-.064.129-.015.257-.025.384-.036l.023,0,.158-.015.169-.011c.113-.008.229-.015.344-.019.029,0,.058,0,.087,0,.1,0,.191-.008.287-.01s.193-.007.287,0h.016c.074,0,.149,0,.224,0,.049,0,.095,0,.143,0,.124,0,.248,0,.373.009.186.006.37.016.555.029.153.01.305.021.458.037.182.018.363.037.543.059a.284.284,0,0,0,.059.009l.043.007q.23.03.456.067c.031.005.063.008.092.015.171.026.337.057.5.089a.194.194,0,0,1,.037.006h0l4.743-7.736,9.22,5.652-4.555,7.431c.045.048.09.1.132.149.107.117.21.237.308.359s.214.26.316.39a.138.138,0,0,1,.024.032c.091.116.179.232.265.351a.315.315,0,0,0,.024.032c.085.11.167.224.243.338.029.041.057.079.083.118.04.056.079.11.114.168.067.095.127.19.189.288a1.044,1.044,0,0,1,.078.126c.063.1.127.2.185.3.027.043.054.087.078.132a.05.05,0,0,1,.011.02c.1.167.2.337.287.508.061.105.119.215.173.326.035.065.068.132.1.2a1.868,1.868,0,0,1,.1.195c.054.111.105.221.155.332.005,0,.006.007.008.015.06.129.116.258.17.385.024.049.046.1.067.157s.038.1.058.147l.009.021c.048.118.1.237.141.359.067.172.132.347.188.531l9.075.239-.285,10.811-8.71-.229c-.015.048-.031.1-.047.143m-9.168-9.307a8.107,8.107,0,1,0-3.258,10.99,8.109,8.109,0,0,0,3.258-10.99" transform="translate(-168.598 -91.184)" fill="#f6f6f6"/>
              <path id="Trazado_188572" data-name="Trazado 188572" d="M581.366,432.847c-.028.081-.055.161-.086.241-.019.058-.041.116-.065.173a.126.126,0,0,1-.013.037c-.016.041-.032.08-.049.12a.11.11,0,0,1-.013.029c-.008.019-.017.038-.025.058-.029.068-.057.137-.087.2-.018.042-.037.083-.057.124h0q-.072.154-.149.308c-.016.035-.035.068-.052.1l0,.007c-.046.086-.092.17-.14.254q-.151.266-.319.521c-.053.08-.107.16-.162.238l0,.007c-.023.032-.044.063-.068.094l-.061.082c-.026.037-.054.072-.08.107-.06.078-.121.154-.182.23s-.14.172-.214.257h0l2.349,4.327-5.157,2.8-2.255-4.155h0l-.069.014-.157.031c-.049.01-.1.019-.145.025s-.124.021-.185.029l-.079.011a.033.033,0,0,1-.014,0c-.073.012-.146.02-.22.029l-.052.007c-.057.006-.115.01-.173.018s-.085.008-.127.01h-.013a.649.649,0,0,1-.083.006l-.185.012a.231.231,0,0,0-.039,0h-.023l-.185.006h-.054c-.061,0-.124,0-.185,0h-.064c-.072,0-.144,0-.215-.005-.1,0-.2-.007-.3-.015-.074-.005-.146-.01-.221-.018l-.028,0a.388.388,0,0,1-.052-.005c-.088-.007-.173-.018-.258-.029-.1-.012-.206-.027-.307-.045s-.218-.035-.326-.057l-2.573,4.2-5-3.067,2.471-4.031c-.007-.007-.015-.014-.021-.022-.076-.083-.148-.168-.219-.254-.053-.065-.107-.132-.157-.2l-.047-.062c-.046-.06-.091-.118-.135-.178s-.09-.125-.134-.187l-.041-.057-.012-.018c-.031-.045-.062-.09-.091-.135-.018-.026-.034-.052-.05-.078l-.037-.057a.283.283,0,0,1-.02-.03l-.05-.082c-.032-.054-.065-.107-.1-.162s-.06-.1-.088-.157-.046-.079-.068-.119-.049-.087-.071-.132a.424.424,0,0,1-.023-.043c-.021-.038-.04-.078-.059-.117s-.046-.092-.069-.139c-.012-.026-.024-.051-.036-.076l-.071-.157c-.017-.04-.035-.08-.051-.12a.608.608,0,0,1-.032-.076.02.02,0,0,1-.005-.013c-.018-.038-.034-.077-.049-.118s-.043-.107-.063-.162a.374.374,0,0,1-.018-.049c-.025-.067-.047-.132-.071-.2,0,0,0,0,0-.01a.044.044,0,0,1-.007-.017.056.056,0,0,1-.005-.018h0l-4.923-.129.154-5.866,4.726.125h0c.007-.026.016-.052.025-.076a9.336,9.336,0,0,1,.6-1.4,9.726,9.726,0,0,1,.629-1.026c.04-.058.085-.113.127-.171s.064-.087.1-.131.086-.111.131-.165c.025-.032.052-.064.079-.1h0l.071-.086.031-.036c.024-.028.046-.057.07-.084l-2.348-4.327,5.156-2.8,2.255,4.155h0a.215.215,0,0,1,.04-.009c.066-.015.132-.027.2-.04.04-.009.079-.015.119-.021l.069-.011c.06-.011.117-.02.176-.027a.366.366,0,0,1,.044-.007c.09-.015.179-.026.268-.035.07-.008.139-.013.208-.019h.012l.086-.008.092-.006.187-.011.047,0,.156-.005c.053,0,.105,0,.155,0h.01c.04,0,.08,0,.121,0h.077c.068,0,.135,0,.2,0,.1,0,.2.009.3.015.083.005.166.012.248.021.1.009.2.02.295.032a.254.254,0,0,0,.032.005l.024,0c.084.011.166.023.248.037a.352.352,0,0,1,.05.008c.093.015.183.032.273.048a.09.09,0,0,1,.021,0l2.573-4.2,5,3.067-2.472,4.031h0c.025.026.049.051.072.08.059.064.114.129.168.195s.115.14.171.212a.069.069,0,0,1,.013.017c.049.063.1.126.143.191l.013.018c.046.06.091.121.132.183l.045.065c.022.03.043.059.062.091.036.051.069.1.1.156a.644.644,0,0,1,.043.068c.034.052.068.107.1.161.015.024.029.047.042.071a.036.036,0,0,1,.007.011c.054.091.106.183.156.276.033.057.065.117.093.177.019.035.037.072.054.109a.845.845,0,0,1,.053.106c.029.06.057.119.085.18l0,.008c.033.069.063.14.093.209a.864.864,0,0,1,.036.085l.032.08,0,.012c.027.064.053.128.077.194.036.093.071.189.1.288l4.923.129-.154,5.866-4.726-.125c-.009.026-.018.052-.026.078m-4.974-5.049a4.4,4.4,0,1,0-1.767,5.963,4.4,4.4,0,0,0,1.767-5.963" transform="translate(-169.852 -110.315)" fill="#f6f6f6"/>
              <path id="Trazado_188573" data-name="Trazado 188573" d="M66.7,422.879c.045.133.09.267.142.4.032.1.068.192.108.287a.32.32,0,0,0,.021.06c.027.069.055.134.083.2a.175.175,0,0,0,.02.048c.013.033.029.065.042.1h0c.047.113.094.226.145.336.03.068.062.136.094.2h0c.079.171.161.341.247.51.026.057.058.113.086.169l.007.011c.075.143.151.282.231.421q.251.439.529.862c.087.132.178.265.269.395a.01.01,0,0,1,.007.011c.038.052.074.1.114.155s.067.09.1.135c.043.062.088.12.132.177q.148.194.3.382c.115.143.232.285.354.424h0l-3.889,7.166,8.541,4.636,3.735-6.881h0c.039.01.077.017.115.024l.26.051c.081.017.162.031.241.04.1.019.2.036.307.049.043.007.087.013.129.018a.041.041,0,0,0,.024,0c.122.02.243.034.364.048l.086.011c.094.01.19.018.285.029.072.007.142.013.211.016a.133.133,0,0,0,.023,0,.893.893,0,0,0,.137.01c.1.008.2.013.307.019.021,0,.043,0,.065,0a.334.334,0,0,1,.037,0c.1.006.2.007.307.01.028,0,.059,0,.09,0,.1,0,.2,0,.307,0,.037,0,.07,0,.106,0,.119,0,.239,0,.357-.009.165,0,.333-.013.5-.026.123-.008.242-.018.365-.029a.312.312,0,0,1,.046,0,.649.649,0,0,0,.087-.007c.144-.013.286-.029.426-.049.171-.02.34-.045.508-.074s.362-.058.54-.095l4.261,6.951L96.9,435,92.8,428.325c.011-.012.025-.024.035-.036q.187-.207.362-.421c.089-.109.177-.218.262-.328.026-.034.051-.068.077-.1.076-.1.151-.2.223-.3s.149-.207.222-.31c.022-.032.046-.063.068-.1l.019-.028h0c.051-.074.1-.149.151-.224.029-.043.055-.086.083-.129l.06-.093a.586.586,0,0,0,.033-.051c.028-.045.054-.091.082-.137.054-.089.109-.178.162-.268s.1-.173.147-.26c.037-.066.075-.13.112-.2s.082-.145.118-.219c.013-.023.026-.046.038-.072.034-.063.066-.129.1-.193s.076-.153.114-.231c.019-.043.039-.085.06-.125.04-.088.079-.174.117-.26.029-.067.058-.133.085-.2a1.106,1.106,0,0,0,.053-.126.049.049,0,0,0,.009-.021c.028-.063.055-.129.081-.2.037-.088.071-.177.1-.268a.591.591,0,0,0,.029-.082c.042-.111.079-.219.118-.33.005,0,.007-.008.007-.017a.069.069,0,0,0,.01-.028.081.081,0,0,0,.01-.03l8.154-.215-.256-9.714-7.828.206a1.171,1.171,0,0,0-.041-.127,15.435,15.435,0,0,0-.987-2.314,16.088,16.088,0,0,0-1.042-1.7c-.068-.1-.141-.187-.211-.282-.053-.072-.107-.145-.162-.216h0c-.071-.092-.143-.184-.217-.273-.042-.053-.087-.106-.131-.159s-.077-.095-.118-.143l-.051-.06c-.04-.046-.076-.093-.116-.138l3.89-7.167L88.3,396.015,84.561,402.9h0a.406.406,0,0,0-.066-.014c-.11-.024-.22-.045-.329-.066-.067-.014-.132-.026-.2-.034-.037-.007-.078-.013-.114-.018-.1-.018-.194-.033-.293-.046a.45.45,0,0,0-.074-.01c-.149-.025-.3-.043-.443-.057-.115-.014-.23-.023-.344-.033H82.68l-.142-.013c-.051,0-.1-.008-.152-.01-.1-.007-.207-.014-.309-.018-.026,0-.053,0-.079,0-.087,0-.172-.007-.258-.01s-.174-.006-.257,0h-.015c-.065,0-.133,0-.2,0-.043,0-.085,0-.128,0-.112,0-.223,0-.336.008-.167.005-.332.015-.5.026-.138.008-.274.019-.412.033q-.246.023-.488.053a.269.269,0,0,1-.053.008l-.039.005q-.207.028-.41.06c-.027,0-.057.007-.082.014-.153.024-.3.052-.453.08a.146.146,0,0,0-.033.005h0L74.072,395.9l-8.285,5.079,4.093,6.677c-.04.043-.081.086-.119.134-.1.105-.189.213-.277.322s-.191.233-.284.351a.136.136,0,0,0-.022.029c-.082.1-.161.208-.238.316-.008.011-.014.021-.021.029-.076.1-.151.2-.218.3l-.075.107c-.036.05-.071.1-.1.151-.06.086-.114.171-.169.259a1.009,1.009,0,0,0-.071.113c-.057.086-.114.176-.165.265-.025.04-.049.079-.071.119a.04.04,0,0,0-.01.018c-.091.15-.176.3-.259.457-.054.094-.107.193-.155.293-.031.059-.06.12-.09.18a1.558,1.558,0,0,0-.087.176c-.049.1-.095.2-.14.3,0,0-.005.007-.007.014-.054.115-.1.231-.152.346-.022.044-.041.093-.06.14s-.035.088-.053.133l-.007.019c-.043.106-.087.212-.127.321-.06.155-.118.312-.169.477l-8.154.215.256,9.714,7.827-.206c.014.043.029.085.043.129m8.238-8.363a7.285,7.285,0,1,1,2.927,9.876,7.287,7.287,0,0,1-2.927-9.876" transform="translate(-37.385 -104.845)" fill="#f6f6f6"/>
              <rect id="Rectángulo_39375" data-name="Rectángulo 39375" width="9.07" height="29.172" transform="translate(278.018 16.024)" fill="#f6f6f6"/>
              <path id="Trazado_188574" data-name="Trazado 188574" d="M388.868,54.553h9.637V34.263h-9.637Zm9.07-.568h-8.5V34.831h8.5Z" transform="translate(-124.855 -9.074)" fill="#f6f6f6"/>
              <rect id="Rectángulo_39376" data-name="Rectángulo 39376" width="9.07" height="14.586" transform="translate(291.739 30.61)" fill="#f6f6f6"/>
              <path id="Trazado_188575" data-name="Trazado 188575" d="M444.861,58.18H454.5V47.958h-9.637Zm9.07-.568h-8.5V48.525h8.5Z" transform="translate(-139.683 -12.701)" fill="#f6f6f6"/>
              <rect id="Rectángulo_39377" data-name="Rectángulo 39377" width="9.07" height="29.172" transform="translate(250.575 16.024)" fill="#f6f6f6"/>
              <rect id="Rectángulo_39378" data-name="Rectángulo 39378" width="9.07" height="45.196" transform="translate(236.853)" fill="#f6f6f6"/>
              <rect id="Rectángulo_39379" data-name="Rectángulo 39379" width="9.07" height="37.188" transform="translate(223.132 8.008)" fill="#f6f6f6"/>
              <path id="Trazado_188576" data-name="Trazado 188576" d="M295.547,51.149h9.637V21.41h-9.637Zm9.07-.568h-8.5v-28.6h8.5Z" transform="translate(-100.141 -5.67)" fill="#f6f6f6"/>
              <rect id="Rectángulo_39380" data-name="Rectángulo 39380" width="9.07" height="37.188" transform="translate(181.968 8.008)" fill="#f6f6f6"/>
              <path id="Trazado_188577" data-name="Trazado 188577" d="M314.211,52.721h9.637V27.346h-9.637Zm9.07-.568h-8.5V27.913h8.5Z" transform="translate(-105.084 -7.242)" fill="#f6f6f6"/>
            </g>
          </g>
        </g>
        <path id="Trazado_188578" data-name="Trazado 188578" d="M475.929,131.611V121.575a7.082,7.082,0,0,1,7.082-7.082h3.7V104.474l7.258,10.019h77.484a7.082,7.082,0,0,1,7.082,7.082v10.036a7.082,7.082,0,0,1-7.082,7.082H483.011a7.082,7.082,0,0,1-7.082-7.082" transform="translate(-126.038 -27.667)" fill="#fff"/>
        <path id="Trazado_188579" data-name="Trazado 188579" d="M571.417,138.682H482.975a7.189,7.189,0,0,1-7.181-7.181V121.465a7.189,7.189,0,0,1,7.181-7.181h3.6V104.059l7.407,10.225h77.434a7.189,7.189,0,0,1,7.181,7.181V131.5a7.189,7.189,0,0,1-7.181,7.181m-88.442-24.2a6.991,6.991,0,0,0-6.983,6.983V131.5a6.991,6.991,0,0,0,6.983,6.983h88.442A6.991,6.991,0,0,0,578.4,131.5V121.465a6.991,6.991,0,0,0-6.983-6.983H493.883l-.03-.041-7.078-9.771v9.812Z" transform="translate(-126.003 -27.558)" fill="#0f59a3"/>
        <path id="Trazado_188580" data-name="Trazado 188580" d="M214.839,72.39V86.611A10.036,10.036,0,0,1,204.8,96.647h-5.244v14.2l-10.284-14.2H150.248a10.036,10.036,0,0,1-10.036-10.036V72.39a10.036,10.036,0,0,1,10.036-10.036H204.8A10.036,10.036,0,0,1,214.839,72.39" transform="translate(-37.132 -16.513)" fill="#fff"/>
        <path id="Trazado_188581" data-name="Trazado 188581" d="M199.622,111.113l-10.433-14.4H150.212a10.146,10.146,0,0,1-10.134-10.135V72.354A10.146,10.146,0,0,1,150.212,62.22h54.555A10.145,10.145,0,0,1,214.9,72.354V86.576a10.146,10.146,0,0,1-10.134,10.135h-5.145Zm-49.41-48.695a9.948,9.948,0,0,0-9.937,9.937V86.576a9.948,9.948,0,0,0,9.937,9.937H189.29l.03.04,10.1,13.949V96.513h5.343a9.948,9.948,0,0,0,9.937-9.937V72.354a9.948,9.948,0,0,0-9.937-9.937Z" transform="translate(-37.096 -16.477)" fill="#0f59a3"/>
        <path id="Trazado_188582" data-name="Trazado 188582" d="M431.637,410.8H107.715a14.347,14.347,0,0,1-14.347-14.348V186.371a14.347,14.347,0,0,1,14.347-14.348H431.637a14.348,14.348,0,0,1,14.348,14.348V396.449A14.348,14.348,0,0,1,431.637,410.8" transform="translate(-24.726 -45.556)" fill="#12263f"/>
        <path id="Trazado_188583" data-name="Trazado 188583" d="M435.96,406.145H111.129a3.154,3.154,0,0,1-3.155-3.155V185.069a3.154,3.154,0,0,1,3.155-3.154H435.96a3.154,3.154,0,0,1,3.155,3.154V402.991a3.154,3.154,0,0,1-3.155,3.155" transform="translate(-28.594 -48.176)" fill="#fff"/>
        <path id="Trazado_188584" data-name="Trazado 188584" d="M102.092,333.614a2.226,2.226,0,1,1-2.226-2.226,2.226,2.226,0,0,1,2.226,2.226" transform="translate(-25.857 -87.76)" fill="#1565c0"/>
        <path id="Trazado_188585" data-name="Trazado 188585" d="M184.6,171.4H162.194a1.733,1.733,0,0,1,1.733-1.733h18.94A1.733,1.733,0,0,1,184.6,171.4" transform="translate(-42.953 -44.932)" fill="#1565c0"/>
        <path id="Trazado_188586" data-name="Trazado 188586" d="M251.447,171.4H213.135a1.733,1.733,0,0,1,1.733-1.733h34.846a1.733,1.733,0,0,1,1.733,1.733" transform="translate(-56.444 -44.932)" fill="#1565c0"/>
        <path id="Trazado_188587" data-name="Trazado 188587" d="M435.96,485.782l-41.223.144-41.223.083-82.447.069-82.446-.068-41.223-.083-20.612-.072-10.306-.037-5.153-.018a3.469,3.469,0,0,1-1.27-.195,3.167,3.167,0,0,1-2.083-2.978,3.155,3.155,0,0,0,2.092,2.953,3.446,3.446,0,0,0,1.262.183l5.153-.018,10.306-.037,20.612-.073,41.223-.082,82.446-.068,82.447.069,41.223.083Z" transform="translate(-28.594 -127.812)" fill="#1b1a2e"/>
        <path id="Trazado_188588" data-name="Trazado 188588" d="M557.263,186.2l.144,27.859.083,27.859.069,55.719-.068,55.719-.082,27.859-.073,13.93-.037,6.964-.009,1.742a4.433,4.433,0,0,1-.063.871,3.146,3.146,0,0,1-.287.825,3.01,3.01,0,0,1-.5.714,3.594,3.594,0,0,1-.315.3,3.538,3.538,0,0,1-.358.249,3.186,3.186,0,0,1-1.658.464,3.171,3.171,0,0,0,1.648-.479,3.488,3.488,0,0,0,.353-.251,3.567,3.567,0,0,0,.31-.3,3.005,3.005,0,0,0,.487-.712,3.114,3.114,0,0,0,.276-.817,4.443,4.443,0,0,0,.053-.862l-.009-1.742-.037-6.964-.072-13.93-.083-27.859-.068-55.719.069-55.719.083-27.859Z" transform="translate(-146.742 -49.312)" fill="#1b1a2e"/>
        <path id="Trazado_188589" data-name="Trazado 188589" d="M112.265,181.807l41.223-.144,41.223-.083,82.447-.069,82.446.068,41.223.083,20.612.072,10.306.037,5.153.018a3.471,3.471,0,0,1,1.27.195,3.167,3.167,0,0,1,2.083,2.978,3.155,3.155,0,0,0-2.092-2.953,3.444,3.444,0,0,0-1.262-.183l-5.153.018-10.306.037-20.612.073-41.223.082-82.446.068-82.447-.069-41.223-.083Z" transform="translate(-29.731 -48.069)" fill="#1b1a2e"/>
        <path id="Trazado_188590" data-name="Trazado 188590" d="M107.867,402.99l-.144-27.859-.083-27.859-.069-55.719.068-55.719.082-27.859.073-13.93.037-6.964.009-1.742a4.444,4.444,0,0,1,.063-.871,3.15,3.15,0,0,1,.287-.825,3.014,3.014,0,0,1,.5-.714,3.591,3.591,0,0,1,.315-.3,3.535,3.535,0,0,1,.358-.249,3.179,3.179,0,0,1,1.658-.464,3.171,3.171,0,0,0-1.648.479,3.492,3.492,0,0,0-.353.251,3.542,3.542,0,0,0-.31.3,3,3,0,0,0-.487.712,3.112,3.112,0,0,0-.276.817,4.437,4.437,0,0,0-.053.862l.009,1.742.037,6.964.072,13.93.083,27.859.068,55.719-.069,55.719-.083,27.859Z" transform="translate(-28.488 -48.176)" fill="#1565c0"/>
        <rect id="Rectángulo_39382" data-name="Rectángulo 39382" width="251.648" height="186.049" transform="translate(95.113 146.103)" fill="#f0f2f5"/>
        <rect id="Rectángulo_39383" data-name="Rectángulo 39383" width="42.181" height="42.181" transform="translate(352.605 146.102)" fill="#f0f2f5"/>
        <rect id="Rectángulo_39384" data-name="Rectángulo 39384" width="42.181" height="42.181" transform="translate(352.605 194.128)" fill="#f0f2f5"/>
        <rect id="Rectángulo_39385" data-name="Rectángulo 39385" width="42.181" height="42.181" transform="translate(352.605 242.049)" fill="#f0f2f5"/>
        <rect id="Rectángulo_39386" data-name="Rectángulo 39386" width="42.181" height="42.181" transform="translate(352.605 289.97)" fill="#f0f2f5"/>
        <path id="Trazado_188591" data-name="Trazado 188591" d="M417.682,465.029h-1.811a.353.353,0,0,0-.354.354v4.408a.353.353,0,0,0,.354.353h1.811a.353.353,0,0,0,.353-.353v-4.408a.353.353,0,0,0-.353-.354" transform="translate(-110.04 -123.152)" fill="#f0f2f5"/>
        <path id="Trazado_188592" data-name="Trazado 188592" d="M425.972,464.421a.65.65,0,0,0-.65-.65h-2.628l.147-.438a5.739,5.739,0,0,0,.3-1.817,1.259,1.259,0,0,0-.951-1.22.483.483,0,0,0-.6.468,2.646,2.646,0,0,1-.6,1.673l-1.092,1.335a.353.353,0,0,0-.353.354v4.408a.353.353,0,0,0,.353.353h3.012a.552.552,0,0,0,.21.042h1.063a.553.553,0,0,0,.553-.553v-.193a.553.553,0,0,0-.553-.554h.353a.6.6,0,0,0,.6-.6v-.095a.6.6,0,0,0-.383-.561h.155a.65.65,0,1,0,0-1.3h.414a.65.65,0,0,0,.65-.65" transform="translate(-111.106 -121.894)" fill="#f0f2f5"/>
        <path id="Trazado_188593" data-name="Trazado 188593" d="M445.533,470.2h1.811a.353.353,0,0,0,.354-.354v-4.408a.353.353,0,0,0-.354-.353h-1.811a.353.353,0,0,0-.353.353v4.408a.353.353,0,0,0,.353.354" transform="translate(-117.895 -123.167)" fill="#f0f2f5"/>
        <path id="Trazado_188594" data-name="Trazado 188594" d="M435.834,469.536a.65.65,0,0,0,.65.65h2.628l-.147.438a5.738,5.738,0,0,0-.3,1.817,1.258,1.258,0,0,0,.951,1.22.483.483,0,0,0,.6-.468,2.646,2.646,0,0,1,.6-1.673l1.092-1.335a.353.353,0,0,0,.353-.354v-4.408a.353.353,0,0,0-.353-.353H438.9a.553.553,0,0,0-.21-.042h-1.063a.553.553,0,0,0-.553.553v.193a.553.553,0,0,0,.553.554h-.353a.6.6,0,0,0-.6.6v.095a.6.6,0,0,0,.383.561H436.9a.65.65,0,1,0,0,1.3h-.414a.65.65,0,0,0-.65.65" transform="translate(-115.42 -123.152)" fill="#f0f2f5"/>
        <path id="Trazado_188595" data-name="Trazado 188595" d="M467.685,467.176,462.1,463.4v2.824a9.606,9.606,0,0,0-2.3.788,6.35,6.35,0,0,0-2.083,1.651,5.678,5.678,0,0,0-1.1,2.286,5.352,5.352,0,0,1,1.531-1.847,5.416,5.416,0,0,1,2.082-.939,8.018,8.018,0,0,1,1.869-.172v2.958Z" transform="translate(-120.924 -122.721)" fill="#f0f2f5"/>
        <path id="Trazado_188596" data-name="Trazado 188596" d="M141.9,466.28a6.263,6.263,0,1,1-6.264-6.264,6.232,6.232,0,0,1,6.264,6.264" transform="translate(-34.262 -121.824)" fill="#f0f2f5"/>
        <path id="Trazado_188597" data-name="Trazado 188597" d="M141.308,471.782a6.266,6.266,0,0,1-10.862-.157,6.427,6.427,0,0,1,10.862.157" transform="translate(-34.546 -124.127)" fill="#fff"/>
        <path id="Trazado_188598" data-name="Trazado 188598" d="M139.227,463.643a2.286,2.286,0,1,1-2.286-2.286,2.286,2.286,0,0,1,2.286,2.286" transform="translate(-35.66 -122.179)" fill="#fff"/>
        <rect id="Rectángulo_39387" data-name="Rectángulo 39387" width="34.115" height="2.286" transform="translate(112.861 341.159)" fill="#f0f2f5"/>
        <rect id="Rectángulo_39388" data-name="Rectángulo 39388" width="20.761" height="2.286" transform="translate(112.861 345.465)" fill="#f0f2f5"/>
        <path id="Trazado_188599" data-name="Trazado 188599" d="M367.531,308.415a91.487,91.487,0,0,1-3.822-18.361,1.808,1.808,0,0,0-2.683-1.393c-5.57-21.1-8.409-30.734-14.031-44.212-7.137-17.111-51.206-23.583-51.206-23.583s-4.455-6.644-9.876-1.053C280.209,225.7,259,235.1,242.8,224.48c-5.652-3.705-8.277,2.145-8.3,2.166-5.779,1.972-34.338-1.839-42.311,14.917-7.866,16.53-14.78,54.079-14.78,54.079a4.425,4.425,0,0,0-4.1,4.406,4.643,4.643,0,0,0,.032.53,47.274,47.274,0,0,1-.136,13.782A6.637,6.637,0,0,0,175,320.326c4.532,4.519,11.082,11.05,30.445,4.454.062,27.422-3.424,61.213-3.424,61.213H328.793a427.467,427.467,0,0,1-3.336-85.3l.723,2.033a1.3,1.3,0,0,0-.723,1.169,1.332,1.332,0,0,0,.1.5c2.116,5.174,2.289,9.4,2.963,13.546a2.472,2.472,0,0,0,2.149,2.053c22.678,2.778,32.026-5.636,36.075-8.9a2.465,2.465,0,0,0,.79-2.678" transform="translate(-45.838 -57.62)" fill="#f9a21b"/>
        <path id="Trazado_188600" data-name="Trazado 188600" d="M309.1,210.855V183H268.886v32.137a4.849,4.849,0,0,1-4.434,4.83l-.831.071v.67a25.381,25.381,0,0,0,17.594,24.154h0s8.281,3.844,10.139,12.652a22.006,22.006,0,0,1,8.5-13.9h0a25.733,25.733,0,0,0,14.516-23.178v-4.751a4.848,4.848,0,0,1-5.263-4.83" transform="translate(-69.814 -48.464)" fill="#ffc89f"/>
        <path id="Trazado_188601" data-name="Trazado 188601" d="M288.486,190.172h0A26.782,26.782,0,0,1,261.7,163.39V130.673a26.782,26.782,0,1,1,53.563,0V163.39a26.782,26.782,0,0,1-26.782,26.782" transform="translate(-69.306 -27.513)" fill="#ffc89f"/>
        <path id="Trazado_188602" data-name="Trazado 188602" d="M289.84,216.537a22.385,22.385,0,0,1-6.944-.527c-.572-.124-1.131-.3-1.7-.459s-1.106-.388-1.661-.581c-.28-.09-.541-.227-.81-.343l-.8-.362c-.532-.248-1.041-.542-1.563-.812-.511-.289-1-.621-1.5-.93-.488-.326-.956-.682-1.43-1.027-.461-.363-.9-.755-1.348-1.131-.435-.392-.845-.812-1.262-1.222a22.267,22.267,0,0,1-4.008-5.7,34.111,34.111,0,0,0,4.536,5.157c.434.369.854.753,1.287,1.119.451.347.888.709,1.347,1.042.471.318.92.663,1.4.969s.959.605,1.455.879.987.557,1.5.8,1.023.49,1.546.709,1.047.44,1.584.624l.809.269c.271.087.534.2.811.264a34.213,34.213,0,0,0,6.753,1.253" transform="translate(-70.66 -53.878)" fill="#ff9b6c"/>
        <path id="Trazado_188603" data-name="Trazado 188603" d="M327.188,201.2a15.278,15.278,0,0,1-1.548,3.345c-.162.262-.327.523-.5.78l-.537.755c-.186.247-.385.484-.576.726l-.6.7A19.068,19.068,0,0,1,320.679,210a15.259,15.259,0,0,1-3.186,1.853c.921-.816,1.829-1.608,2.7-2.431s1.709-1.677,2.514-2.557l.6-.665c.193-.226.382-.458.58-.682l.573-.69c.18-.239.37-.471.559-.7.738-.947,1.441-1.925,2.167-2.919" transform="translate(-84.08 -53.284)" fill="#ff9b6c"/>
        <path id="Trazado_188604" data-name="Trazado 188604" d="M258.637,176.586h1.393a4.982,4.982,0,0,0,4.982-4.982v-8.894a4.982,4.982,0,0,0-4.982-4.982h-1.393a4.982,4.982,0,0,0-4.982,4.982V171.6a4.982,4.982,0,0,0,4.982,4.982" transform="translate(-67.175 -41.77)" fill="#ffc89f"/>
        <path id="Trazado_188605" data-name="Trazado 188605" d="M332.143,176.586h1.393a4.982,4.982,0,0,0,4.982-4.982v-8.894a4.982,4.982,0,0,0-4.982-4.982h-1.393a4.982,4.982,0,0,0-4.982,4.982V171.6a4.982,4.982,0,0,0,4.982,4.982" transform="translate(-86.641 -41.77)" fill="#ffc89f"/>
        <path id="Trazado_188606" data-name="Trazado 188606" d="M258.984,164.906a1.985,1.985,0,0,0-1.12,1.037,4.592,4.592,0,0,0-.437,1.462,7.434,7.434,0,0,0,.216,3.036,3.945,3.945,0,0,0,.643,1.294,1.721,1.721,0,0,0,.447.422c.026.013.04.016.037.021s-.018.014-.013.018.074-.054.118-.144a3,3,0,0,0,.2-.7c.051-.257.079-.523.11-.792.06-.54.088-1.089.128-1.645a9.607,9.607,0,0,1,.323,1.643,7.271,7.271,0,0,1,.042.853,2.907,2.907,0,0,1-.134.911,1.048,1.048,0,0,1-.355.518.752.752,0,0,1-.4.142.92.92,0,0,1-.364-.057,2.22,2.22,0,0,1-.823-.606,4.176,4.176,0,0,1-.885-1.6,6.272,6.272,0,0,1-.044-3.481,4.224,4.224,0,0,1,.785-1.575,2.445,2.445,0,0,1,.684-.568,1.591,1.591,0,0,1,.836-.195" transform="translate(-67.916 -43.671)" fill="#ff9b6c"/>
        <path id="Trazado_188607" data-name="Trazado 188607" d="M260.8,166.92a5.033,5.033,0,0,1-.268-.981c-.056-.308-.092-.605-.132-.878a3.5,3.5,0,0,0-.151-.7.57.57,0,0,0-.18-.26,1.505,1.505,0,0,0-.432-.214.852.852,0,0,1,.528-.251.912.912,0,0,1,.645.212,1.67,1.67,0,0,1,.546,1.076,2.672,2.672,0,0,1-.068,1.054,2.288,2.288,0,0,1-.487.942" transform="translate(-68.758 -43.334)" fill="#ff9b6c"/>
        <path id="Trazado_188608" data-name="Trazado 188608" d="M336.406,164.906a1.591,1.591,0,0,1,.836.195,2.445,2.445,0,0,1,.684.568,4.224,4.224,0,0,1,.785,1.575,6.272,6.272,0,0,1-.044,3.481,4.176,4.176,0,0,1-.885,1.6,2.219,2.219,0,0,1-.823.606.921.921,0,0,1-.364.057.752.752,0,0,1-.4-.142,1.048,1.048,0,0,1-.355-.518,2.907,2.907,0,0,1-.134-.911,7.251,7.251,0,0,1,.042-.853,9.61,9.61,0,0,1,.323-1.643c.04.556.068,1.1.128,1.645.031.269.059.536.11.792a3.006,3.006,0,0,0,.2.7c.044.09.107.154.118.144s-.01-.014-.013-.018.012-.008.037-.021a1.722,1.722,0,0,0,.447-.422,3.945,3.945,0,0,0,.643-1.294,7.434,7.434,0,0,0,.216-3.036,4.594,4.594,0,0,0-.437-1.462,1.985,1.985,0,0,0-1.12-1.037" transform="translate(-88.904 -43.671)" fill="#ff9b6c"/>
        <path id="Trazado_188609" data-name="Trazado 188609" d="M335.126,166.92a2.289,2.289,0,0,1-.487-.942,2.672,2.672,0,0,1-.068-1.054,1.67,1.67,0,0,1,.546-1.076.912.912,0,0,1,.645-.212.852.852,0,0,1,.528.251,1.506,1.506,0,0,0-.432.214.57.57,0,0,0-.18.26,3.452,3.452,0,0,0-.15.7c-.04.273-.076.57-.132.878a5.027,5.027,0,0,1-.268.981" transform="translate(-88.596 -43.334)" fill="#ff9b6c"/>
        <path id="Trazado_188610" data-name="Trazado 188610" d="M319.19,159.347a2.411,2.411,0,1,1-2.411-2.411,2.411,2.411,0,0,1,2.411,2.411" transform="translate(-83.253 -41.561)" fill="#1b1b2f"/>
        <path id="Trazado_188611" data-name="Trazado 188611" d="M320.831,156.262a9.945,9.945,0,0,0-2.4-1.11,7.934,7.934,0,0,0-2.549-.365,4.586,4.586,0,0,0-.643.037l-.321.027c-.107.012-.211.044-.318.06l-.637.121c-.206.068-.415.129-.625.189l-.315.092-.3.126-.617.245c-.405.179-.794.4-1.216.578a12.986,12.986,0,0,1,1.064-.855l.592-.351.3-.171.319-.135c.213-.09.428-.178.646-.26.223-.064.45-.118.676-.177.113-.028.226-.06.342-.076l.349-.038a5.071,5.071,0,0,1,.7-.055,6.611,6.611,0,0,1,2.731.539,6.06,6.06,0,0,1,2.23,1.58" transform="translate(-82.33 -40.82)" fill="#1b1b2f"/>
        <path id="Trazado_188612" data-name="Trazado 188612" d="M284.776,159.347a2.411,2.411,0,1,1-2.411-2.411,2.411,2.411,0,0,1,2.411,2.411" transform="translate(-74.139 -41.561)" fill="#1b1b2f"/>
        <path id="Trazado_188613" data-name="Trazado 188613" d="M286.416,156.262a9.946,9.946,0,0,0-2.4-1.11,7.934,7.934,0,0,0-2.549-.365,4.586,4.586,0,0,0-.643.037l-.321.027c-.107.012-.211.044-.318.06l-.637.121c-.206.068-.415.129-.625.189l-.315.092-.3.126-.617.245c-.405.179-.794.4-1.216.578a12.965,12.965,0,0,1,1.064-.855l.591-.351.3-.171.319-.135c.213-.09.428-.178.645-.26.223-.064.45-.118.676-.177.113-.028.226-.06.342-.076l.348-.038a5.071,5.071,0,0,1,.7-.055,6.611,6.611,0,0,1,2.731.539,6.06,6.06,0,0,1,2.231,1.58" transform="translate(-73.216 -40.82)" fill="#1b1b2f"/>
        <path id="Trazado_188614" data-name="Trazado 188614" d="M303.724,167.712c.277,1.014.492,2.036.684,3.062s.355,2.056.506,3.088a6.746,6.746,0,0,1,.1,1.622,4.311,4.311,0,0,1-.452,1.594,2.761,2.761,0,0,1-1.14,1.208c-.473.229-.944.454-1.43.656.412-.326.844-.626,1.267-.928a2.621,2.621,0,0,0,.846-1.149,4.307,4.307,0,0,0,.3-1.424,6.638,6.638,0,0,0-.126-1.489c-.14-1.034-.271-2.068-.366-3.108s-.175-2.081-.188-3.132" transform="translate(-79.975 -44.415)" fill="#1b1b2f"/>
        <path id="Trazado_188615" data-name="Trazado 188615" d="M301.024,189.971a5.516,5.516,0,0,1-2.592,2.708,5.363,5.363,0,0,1-1.939.6,5.594,5.594,0,0,1-2.115-.149,5.961,5.961,0,0,1-3.3-2.305,6.177,6.177,0,0,1-.859-1.7,4.733,4.733,0,0,1-.226-1.884c.625.393,1.182.757,1.7,1.085.39.245.76.47,1.124.673a10.158,10.158,0,0,0,2.38,1.017,6.981,6.981,0,0,0,1.181.206c.206.029.418.023.641.046.218-.013.451.012.689-.01.238-.006.483-.022.737-.041h0c.763-.065,1.6-.177,2.573-.242" transform="translate(-76.792 -49.585)" fill="#e43f5a"/>
        <path id="Trazado_188616" data-name="Trazado 188616" d="M299.07,190.6a5.2,5.2,0,0,1-.563.4,4.248,4.248,0,0,1-3.208.415,4.415,4.415,0,0,1-2.569-1.874,4.849,4.849,0,0,1-.412-.828c.39.245.76.47,1.124.673a10.127,10.127,0,0,0,2.38,1.017,6.98,6.98,0,0,0,1.181.207c.206.029.419.022.641.045.219-.013.451.013.689-.01.238-.007.483-.023.737-.042" transform="translate(-77.413 -49.976)" fill="#fff"/>
        <path id="Trazado_188617" data-name="Trazado 188617" d="M320.831,146.659c-1.11-.065-1.952-.135-2.752-.16s-1.484-.054-2.182-.028a1.206,1.206,0,0,0-.263.006l-.263.012c-.089,0-.177,0-.267,0s-.179.018-.27.021c-.181.015-.367.015-.558.016-.188.023-.382.039-.584.045-.1.005-.2,0-.31,0s-.2.027-.311.032c-.212.019-.435.026-.668.031a10.214,10.214,0,0,1-1.522.023,4.313,4.313,0,0,1,.327-.743,4.4,4.4,0,0,1,.431-.667c.171-.194.35-.385.541-.565.093-.094.193-.178.293-.265s.213-.153.325-.223c.221-.144.451-.278.687-.405.244-.107.5-.2.755-.282.129-.042.257-.085.39-.115l.4-.068a4.681,4.681,0,0,1,.817-.074,5.468,5.468,0,0,1,3.1.876,2.881,2.881,0,0,1,.326.236c.105.082.21.162.309.252a5.5,5.5,0,0,1,.543.584,3.533,3.533,0,0,1,.7,1.459" transform="translate(-82.33 -37.936)" fill="#1b1b2f"/>
        <path id="Trazado_188618" data-name="Trazado 188618" d="M286.416,146.659c-1.11-.065-1.952-.135-2.752-.16s-1.484-.054-2.182-.028a1.206,1.206,0,0,0-.262.006l-.263.012c-.089,0-.177,0-.267,0s-.179.018-.27.021c-.181.015-.367.015-.558.016-.188.023-.382.039-.584.045-.1.005-.2,0-.31,0s-.2.027-.311.032c-.212.019-.435.026-.668.031a10.214,10.214,0,0,1-1.522.023,4.306,4.306,0,0,1,.327-.743,4.409,4.409,0,0,1,.431-.667c.171-.194.35-.385.541-.565.093-.094.193-.178.293-.265s.213-.153.325-.223c.221-.144.451-.278.687-.405.244-.107.5-.2.755-.282.129-.042.257-.085.39-.115l.4-.068a4.681,4.681,0,0,1,.817-.074,5.468,5.468,0,0,1,3.1.876,2.882,2.882,0,0,1,.326.236c.105.082.21.162.309.252a5.505,5.505,0,0,1,.543.584,3.533,3.533,0,0,1,.7,1.459" transform="translate(-73.216 -37.936)" fill="#1b1b2f"/>
        <path id="Trazado_188619" data-name="Trazado 188619" d="M261.647,126.342l1.073-.551-1.073,6.521-3.219,3.272s.537,12.731.357,12.731-4.471-12.18-4.471-22.157c0,0-3.208,2.9.965,7.556,0,0-5.819-.859-3.075-5.868a39.31,39.31,0,0,0,2.58-5.6l.077-.212-1.549,2.1s-1.126-2.1,1.267-5.711c0,0-5.281,3.976-5.351,9.614a10.265,10.265,0,0,1,4.436-11.131s-.734-3.9,3.293-9.919a10.935,10.935,0,0,0-3.886,5.078s-1.9-7.254,9.65-9.865c0,0,2.008-5.73,9.639-2.9,0,0-2.586-8.881,8.12-10.223,0,0-8.009,2.266-6.538,9.4,0,0,3.433-11.746,14.711-7.383,0,0,3.514-.671,5.312,3.356,0,0,6.048,3.1,9.726,0,0,0-1.389,3.86-5.557,1.93a9.048,9.048,0,0,0,5.557,1.342c3.105-.335,4.413,2.937,4.413,2.937s7.658-.738,7.413,8.418c0,0,10.384,5.958,7.33,14.173,0,0,.428-7.149-8.063-11.1,0,0,9.556,10.269,5.278,15.347,0,0,.869-3.225-2.54-6.588l-1.939,6.245s3.409,5.284,1.738,7.549c0,0-.668-5.284-2.006-7.137,0,0,.915,10.9-3.765,16.86l.226-8.445-2.943-4.568-.754-9.3s-6.566-4.184-6.339-4.184a18.489,18.489,0,0,0,1.886-.62s-3.018-5.965-11.621-3.022l.226-1.007-3.321,1.473.679-2.014L286.8,114.75l-2.792-.93.613,1.084-5.518-1.472.679.852s-10.263.465-16.9,7.438l1.736-.543Z" transform="translate(-65.921 -23.59)" fill="#1b1b2f"/>
        <path id="Trazado_188620" data-name="Trazado 188620" d="M280.459,98.534a9.116,9.116,0,0,0,.252,2.35c.068.387.2.761.3,1.138.123.373.255.742.385,1.11a20.719,20.719,0,0,0,2.225,4.127,34.366,34.366,0,0,0,2.922,3.7l1.64,1.717c.572.548,1.147,1.1,1.706,1.67-.649-.462-1.282-.948-1.918-1.435-.6-.522-1.2-1.056-1.789-1.6q-.419-.431-.831-.87c-.273-.294-.559-.578-.806-.9l-.756-.941c-.257-.31-.466-.657-.7-.984a17.112,17.112,0,0,1-2.164-4.318c-.109-.39-.228-.776-.319-1.17-.069-.4-.168-.791-.2-1.195a7.408,7.408,0,0,1,.059-2.4" transform="translate(-74.239 -26.094)" fill="#1f4068"/>
        <path id="Trazado_188621" data-name="Trazado 188621" d="M287.356,97.229a8.481,8.481,0,0,0-.462,2,12.2,12.2,0,0,0-.073,2.032,15.558,15.558,0,0,0,.756,3.978c.108.321.2.648.321.965l.392.942c.065.157.122.317.195.472l.228.458c.154.3.3.612.449.92l1.009,1.8c.37.58.742,1.16,1.095,1.762-.465-.514-.909-1.048-1.356-1.584-.4-.567-.809-1.135-1.184-1.725a17.781,17.781,0,0,1-1.761-3.814,13,13,0,0,1-.643-4.165,10.02,10.02,0,0,1,.264-2.095,6.547,6.547,0,0,1,.772-1.945" transform="translate(-75.824 -25.749)" fill="#1f4068"/>
        <path id="Trazado_188622" data-name="Trazado 188622" d="M303.427,114.6c.744-.9,1.433-1.832,2.076-2.787a25.992,25.992,0,0,0,1.723-2.974l.359-.776c.12-.26.2-.532.313-.8.051-.133.108-.265.156-.4l.124-.409.126-.409a3.134,3.134,0,0,0,.117-.411,15.871,15.871,0,0,0,.451-3.42,9.689,9.689,0,0,1,.041,3.524,13.257,13.257,0,0,1-1.107,3.375,16.967,16.967,0,0,1-1.9,2.988,14.521,14.521,0,0,1-2.481,2.492" transform="translate(-80.355 -27.071)" fill="#1f4068"/>
        <path id="Trazado_188623" data-name="Trazado 188623" d="M299.344,116.145a7.727,7.727,0,0,1-.5-1.773,11.114,11.114,0,0,1-.157-1.836,9.552,9.552,0,0,1,.172-1.839,6.557,6.557,0,0,1,.587-1.752c-.021.621-.071,1.213-.087,1.81s-.032,1.187-.028,1.782l.012,1.789c.01.6.018,1.2,0,1.819" transform="translate(-79.099 -28.851)" fill="#1f4068"/>
        <path id="Trazado_188624" data-name="Trazado 188624" d="M306.8,113.757a29.811,29.811,0,0,1,3.649-3.585,31.229,31.229,0,0,1,4.185-2.975,20.412,20.412,0,0,1,4.715-2.075,10.972,10.972,0,0,1,5.1-.34,13.648,13.648,0,0,0-4.951.82,20.51,20.51,0,0,0-2.319.964c-.756.362-1.5.753-2.22,1.187a45.357,45.357,0,0,0-4.2,2.812q-2.028,1.521-3.959,3.193" transform="translate(-81.249 -27.706)" fill="#1f4068"/>
        <path id="Trazado_188625" data-name="Trazado 188625" d="M318.756,113.2a11.26,11.26,0,0,1,4.37-1.113,18.006,18.006,0,0,1,8.852,1.686,14.119,14.119,0,0,1,3.732,2.537,21.619,21.619,0,0,0-3.934-2.077,23.325,23.325,0,0,0-8.631-1.646,15.361,15.361,0,0,0-4.389.613" transform="translate(-84.415 -29.672)" fill="#1f4068"/>
        <path id="Trazado_188626" data-name="Trazado 188626" d="M341.676,133.136c-.606-.809-1.248-1.57-1.918-2.3a27.149,27.149,0,0,0-2.114-2.082,26.069,26.069,0,0,0-2.314-1.855c-.8-.593-1.65-1.1-2.5-1.654a12.887,12.887,0,0,1,2.776,1.234,14.911,14.911,0,0,1,1.281.832c.21.145.4.314.6.471s.4.318.585.492a15.442,15.442,0,0,1,2.071,2.241,11.358,11.358,0,0,1,1.533,2.623" transform="translate(-88.141 -33.168)" fill="#1f4068"/>
        <path id="Trazado_188627" data-name="Trazado 188627" d="M262.839,107.916a8.035,8.035,0,0,1,2.408-1.07c.214-.054.429-.112.646-.157l.656-.114a11.815,11.815,0,0,1,1.33-.092,5.951,5.951,0,0,1,.668.021c.222.019.445.025.665.056a9.556,9.556,0,0,1,1.3.273,8.373,8.373,0,0,1,2.4,1.081,21.883,21.883,0,0,0-2.512-.591,13.725,13.725,0,0,0-2.524-.2,15.507,15.507,0,0,0-2.53.207,19.394,19.394,0,0,0-2.514.581" transform="translate(-69.607 -28.199)" fill="#1f4068"/>
        <path id="Trazado_188628" data-name="Trazado 188628" d="M283.95,120.3a41.415,41.415,0,0,0-3.91-1.6c-.664-.223-1.328-.438-2-.605a17.55,17.55,0,0,0-2.038-.412,12.148,12.148,0,0,0-2.057-.124,7.86,7.86,0,0,0-2.02.294,6.476,6.476,0,0,0-1.859.85,8,8,0,0,0-1.54,1.414,6.384,6.384,0,0,1,1.349-1.667,6.118,6.118,0,0,1,1.9-1.076,9.142,9.142,0,0,1,4.32-.329,17.029,17.029,0,0,1,4.133,1.188,19.092,19.092,0,0,1,3.731,2.067" transform="translate(-71.111 -30.966)" fill="#1f4068"/>
        <path id="Trazado_188629" data-name="Trazado 188629" d="M281.919,123.124c-1.142-.114-2.283-.187-3.427-.2s-2.283-.015-3.42.038-2.272.151-3.4.307a29.856,29.856,0,0,0-3.343.619,26.11,26.11,0,0,0-3.239,1,22.457,22.457,0,0,0-3.049,1.471,18.735,18.735,0,0,0-2.736,2,18.3,18.3,0,0,0-2.308,2.52,15.625,15.625,0,0,1,2.089-2.748,16.648,16.648,0,0,1,2.69-2.2,20.167,20.167,0,0,1,3.088-1.611,25.254,25.254,0,0,1,3.313-1.062,30.618,30.618,0,0,1,6.877-.8,32.118,32.118,0,0,1,6.861.668" transform="translate(-68.06 -32.43)" fill="#1f4068"/>
        <path id="Trazado_188630" data-name="Trazado 188630" d="M252.579,127.955a8.269,8.269,0,0,1,1.745-1.753,10.772,10.772,0,0,1,2.139-1.274c.377-.177.774-.309,1.165-.45a10.345,10.345,0,0,1,1.215-.292,8.34,8.34,0,0,1,2.473-.1c-.807.188-1.593.336-2.356.585a16.815,16.815,0,0,0-2.233.84,19.562,19.562,0,0,0-2.122,1.1c-.689.41-1.361.854-2.026,1.338" transform="translate(-66.89 -32.849)" fill="#1f4068"/>
        <path id="Trazado_188631" data-name="Trazado 188631" d="M327.216,132.618a16.356,16.356,0,0,1,2.292,1.074c.739.4,1.452.853,2.15,1.324s1.371.977,2.015,1.52a18,18,0,0,1,1.842,1.735c-.74-.417-1.44-.875-2.141-1.331s-1.389-.926-2.079-1.393-1.374-.944-2.053-1.432-1.359-.975-2.025-1.5" transform="translate(-86.655 -35.121)" fill="#1f4068"/>
        <path id="Trazado_188632" data-name="Trazado 188632" d="M255.168,139.5a3.976,3.976,0,0,1,.74-1.573,7.327,7.327,0,0,1,1.192-1.267,8.988,8.988,0,0,1,1.422-.983c.251-.14.512-.262.771-.385.269-.105.536-.212.815-.292-.21.205-.431.383-.651.562s-.435.359-.656.532c-.432.356-.867.7-1.285,1.057s-.836.716-1.23,1.1a11.585,11.585,0,0,0-1.12,1.247" transform="translate(-67.575 -35.751)" fill="#1f4068"/>
        <path id="Trazado_188633" data-name="Trazado 188633" d="M259.754,146.1a24.052,24.052,0,0,1,1.183-2.2c.421-.715.874-1.41,1.334-2.1s.945-1.363,1.451-2.021a23.97,23.97,0,0,1,1.6-1.916,24.551,24.551,0,0,1-1.185,2.2c-.422.715-.874,1.408-1.333,2.1s-.944,1.359-1.45,2.017a24.5,24.5,0,0,1-1.6,1.92" transform="translate(-68.79 -36.51)" fill="#1f4068"/>
        <g id="Grupo_146223" data-name="Grupo 146223" transform="translate(198.929 108.49)" opacity="0.25" style="mix-blend-mode: screen;isolation: isolate">
          <g id="Grupo_146222" data-name="Grupo 146222">
            <g id="Grupo_146221" data-name="Grupo 146221" clip-path="url(#clip-path-4)">
              <path id="Trazado_188634" data-name="Trazado 188634" d="M289.181,156.866a9.3,9.3,0,1,1-9.3-9.3,9.3,9.3,0,0,1,9.3,9.3" transform="translate(-270.588 -147.57)" fill="#fff"/>
            </g>
          </g>
        </g>
        <path id="Trazado_188635" data-name="Trazado 188635" d="M279.826,166.267a9.457,9.457,0,1,1,9.457-9.457,9.468,9.468,0,0,1-9.457,9.457m0-18.593a9.135,9.135,0,1,0,9.135,9.135,9.145,9.145,0,0,0-9.135-9.135" transform="translate(-71.601 -39.023)" fill="#1f4068"/>
        <g id="Grupo_146226" data-name="Grupo 146226" transform="translate(224.211 108.49)" opacity="0.25" style="mix-blend-mode: screen;isolation: isolate">
          <g id="Grupo_146225" data-name="Grupo 146225">
            <g id="Grupo_146224" data-name="Grupo 146224" clip-path="url(#clip-path-4)">
              <path id="Trazado_188636" data-name="Trazado 188636" d="M323.57,156.866a9.3,9.3,0,1,1-9.3-9.3,9.3,9.3,0,0,1,9.3,9.3" transform="translate(-304.977 -147.57)" fill="#fff"/>
            </g>
          </g>
        </g>
        <path id="Trazado_188637" data-name="Trazado 188637" d="M314.215,166.267a9.457,9.457,0,1,1,9.457-9.457,9.468,9.468,0,0,1-9.457,9.457m0-18.593a9.135,9.135,0,1,0,9.135,9.135,9.145,9.145,0,0,0-9.135-9.135" transform="translate(-80.708 -39.023)" fill="#1f4068"/>
        <path id="Trazado_188638" data-name="Trazado 188638" d="M330.209,159.868a.161.161,0,0,1-.063-.309l2.941-1.25a.161.161,0,0,1,.126.3l-2.94,1.249a.16.16,0,0,1-.063.013" transform="translate(-87.405 -41.921)" fill="#1f4068"/>
        <path id="Trazado_188639" data-name="Trazado 188639" d="M268.271,159.6a.167.167,0,0,1-.049-.007l-6.271-2.007a.161.161,0,1,1,.1-.307l6.272,2.006a.161.161,0,0,1-.049.315" transform="translate(-69.342 -41.648)" fill="#1f4068"/>
        <path id="Trazado_188640" data-name="Trazado 188640" d="M295.929,159.982l-.162-.278a7.207,7.207,0,0,1,6.853,0l-.165.276a6.864,6.864,0,0,0-6.525,0" transform="translate(-78.327 -42.057)" fill="#1f4068"/>
        <g id="Grupo_146229" data-name="Grupo 146229" transform="translate(221.589 199.534)" opacity="0.4" style="mix-blend-mode: multiply;isolation: isolate">
          <g id="Grupo_146228" data-name="Grupo 146228">
            <g id="Grupo_146227" data-name="Grupo 146227" clip-path="url(#clip-path-6)">
              <path id="Trazado_188641" data-name="Trazado 188641" d="M301.41,280.93s2.6-8.5,9.579-9.519c0,0,3.018,2.182,5.9,10.345,0,0-9.411-14.925-15.477-.826" transform="translate(-301.41 -271.411)" fill="#a65b3c"/>
            </g>
          </g>
        </g>
        <g id="Grupo_146232" data-name="Grupo 146232" transform="translate(206.111 199.688)" opacity="0.4" style="mix-blend-mode: multiply;isolation: isolate">
          <g id="Grupo_146231" data-name="Grupo 146231">
            <g id="Grupo_146230" data-name="Grupo 146230" clip-path="url(#clip-path-7)">
              <path id="Trazado_188642" data-name="Trazado 188642" d="M295.835,280.985s-3.686-9.674-9.832-9.358c0,0-3.03,1.715-5.645,10.184,0,0,3.95-15.37,15.477-.826" transform="translate(-280.357 -271.62)" fill="#a65b3c"/>
            </g>
          </g>
        </g>
        <g id="Grupo_146235" data-name="Grupo 146235" transform="translate(189.409 190.099)" opacity="0.4" style="mix-blend-mode: multiply;isolation: isolate">
          <g id="Grupo_146234" data-name="Grupo 146234">
            <g id="Grupo_146233" data-name="Grupo 146233" clip-path="url(#clip-path-8)">
              <path id="Trazado_188643" data-name="Trazado 188643" d="M274.341,278.357s-13.053-7.809-16.7-19.78a27.539,27.539,0,0,0,16.7,19.78" transform="translate(-257.639 -258.577)" fill="#a65b3c"/>
            </g>
          </g>
        </g>
        <g id="Grupo_146238" data-name="Grupo 146238" transform="translate(250.761 164.629)" opacity="0.4" style="mix-blend-mode: multiply;isolation: isolate">
          <g id="Grupo_146237" data-name="Grupo 146237">
            <g id="Grupo_146236" data-name="Grupo 146236" clip-path="url(#clip-path-9)">
              <path id="Trazado_188644" data-name="Trazado 188644" d="M341.262,223.932s7.925,16.7-.171,31.327c0,0,9.279-13.186.171-31.327" transform="translate(-341.091 -223.932)" fill="#a65b3c"/>
            </g>
          </g>
        </g>
        <g id="Grupo_146241" data-name="Grupo 146241" transform="translate(276.586 205.322)" opacity="0.4" style="mix-blend-mode: multiply;isolation: isolate">
          <g id="Grupo_146240" data-name="Grupo 146240">
            <g id="Grupo_146239" data-name="Grupo 146239" clip-path="url(#clip-path-10)">
              <path id="Trazado_188645" data-name="Trazado 188645" d="M376.219,279.284s1.464,16.22,6.7,23c5.973,7.727,23.355,4.543,23.355,4.543a48.961,48.961,0,0,0-26.3,12.243l-.723-2.033c-.8-13.423-3.033-37.753-3.033-37.753" transform="translate(-376.219 -279.284)" fill="#a65b3c"/>
            </g>
          </g>
        </g>
        <g id="Grupo_146244" data-name="Grupo 146244" transform="translate(157.96 245.94)" opacity="0.4" style="mix-blend-mode: multiply;isolation: isolate">
          <g id="Grupo_146243" data-name="Grupo 146243">
            <g id="Grupo_146242" data-name="Grupo 146242" clip-path="url(#clip-path-11)">
              <path id="Trazado_188646" data-name="Trazado 188646" d="M337.17,393.148l-19.084-10.262c12.215-19.449,17.421-48.353,17.421-48.353a77.072,77.072,0,0,1-7.245,19.523,18.864,18.864,0,0,1-17.683,10.054l-30.412-1.616-.118,5.282-22.1-21.3-29.277,14.758L215.17,391.6l-.309,4.577s11.892-7.769,23.375-27.856c0,0,12.785,11.783,24.764,16.377,9.579,3.674,19.753-2.983,23.829-6.561a192.909,192.909,0,0,0,16.944,11.159,6.659,6.659,0,0,1,2.38,9.069,32.94,32.94,0,0,1-4.04,5.768,106.032,106.032,0,0,0,9.152-10.672,111.928,111.928,0,0,0,26.863,9.826Z" transform="translate(-214.861 -334.533)" fill="#a65b3c"/>
            </g>
          </g>
        </g>
        <g id="Grupo_146247" data-name="Grupo 146247" transform="translate(172.69 306.955)" opacity="0.4" style="mix-blend-mode: multiply;isolation: isolate">
          <g id="Grupo_146246" data-name="Grupo 146246">
            <g id="Grupo_146245" data-name="Grupo 146245" clip-path="url(#clip-path-12)">
              <path id="Trazado_188647" data-name="Trazado 188647" d="M274.665,438.988s-25.175-5.281-39.768-21.462c0,0,2.994,6.919,39.768,21.462" transform="translate(-234.897 -417.526)" fill="#a65b3c"/>
            </g>
          </g>
        </g>
        <g id="Grupo_146250" data-name="Grupo 146250" transform="translate(139.811 236.596)" opacity="0.4" style="mix-blend-mode: multiply;isolation: isolate">
          <g id="Grupo_146249" data-name="Grupo 146249">
            <g id="Grupo_146248" data-name="Grupo 146248" clip-path="url(#clip-path-13)">
              <path id="Trazado_188648" data-name="Trazado 188648" d="M211.518,325.8s-11.665-3.571-21.344-2.491c0,0,19.34-4.639,21.344,2.491" transform="translate(-190.174 -321.823)" fill="#a65b3c"/>
            </g>
          </g>
        </g>
        <path id="Trazado_188649" data-name="Trazado 188649" d="M289.4,271.63a7.459,7.459,0,0,1,.819.178c.135.039.272.071.4.117l.4.14a8.972,8.972,0,0,1,1.509.759,10.492,10.492,0,0,1,1.356,1.015,13.612,13.612,0,0,1,1.189,1.2,15.544,15.544,0,0,1,1.893,2.786,14.988,14.988,0,0,1,1.26,3.1,25.112,25.112,0,0,0-1.528-2.952,19.776,19.776,0,0,0-1.924-2.681,13.354,13.354,0,0,0-2.416-2.22,10.547,10.547,0,0,0-2.961-1.451" transform="translate(-76.64 -71.935)" fill="#a65b3c"/>
        <path id="Trazado_188650" data-name="Trazado 188650" d="M280.357,281.569a27.169,27.169,0,0,1,1.1-3.513,24.935,24.935,0,0,1,1.562-3.345,11.664,11.664,0,0,1,2.263-2.94,4.423,4.423,0,0,1,1.614-.951,2.619,2.619,0,0,1,1.83.107,2.842,2.842,0,0,0-.9-.114,2.654,2.654,0,0,0-.869.19,4.523,4.523,0,0,0-1.468.993,10.012,10.012,0,0,0-1.159,1.378,17.357,17.357,0,0,0-.97,1.532,35.208,35.208,0,0,0-1.62,3.266c-.487,1.117-.952,2.247-1.381,3.4" transform="translate(-74.246 -71.69)" fill="#a65b3c"/>
        <path id="Trazado_188651" data-name="Trazado 188651" d="M255.987,230.839a29.2,29.2,0,0,0-.537,2.887c-.135.969-.237,1.942-.294,2.918a41.964,41.964,0,0,0,.032,5.856,34.4,34.4,0,0,0,.864,5.8l.386,1.418.465,1.393c.151.466.351.915.531,1.37.1.226.176.457.283.677l.311.665c.4.9.89,1.742,1.348,2.6l.759,1.253.19.313.2.3.412.606c.528.822,1.152,1.575,1.739,2.354.31.376.634.742.949,1.115l.475.557c.162.183.337.354.5.532a50.8,50.8,0,0,0,8.969,7.533l-.021.034a41.528,41.528,0,0,1-9.257-7.278c-.171-.178-.345-.353-.509-.537l-.479-.563c-.318-.378-.646-.748-.952-1.134-.584-.8-1.2-1.566-1.726-2.4l-.407-.617-.2-.31-.185-.321-.736-1.283c-.232-.435-.445-.88-.665-1.32s-.412-.895-.607-1.347a38.477,38.477,0,0,1-1.9-5.58,37.729,37.729,0,0,1-1.068-5.8,31.9,31.9,0,0,1-.01-5.907,27.476,27.476,0,0,1,1.1-5.793Z" transform="translate(-67.456 -61.129)" fill="#a65b3c"/>
        <path id="Trazado_188652" data-name="Trazado 188652" d="M310.239,271.63a10.547,10.547,0,0,0-2.961,1.451,13.355,13.355,0,0,0-2.416,2.22,19.779,19.779,0,0,0-1.924,2.681,25.126,25.126,0,0,0-1.528,2.952,14.988,14.988,0,0,1,1.26-3.1,15.54,15.54,0,0,1,1.893-2.786,13.612,13.612,0,0,1,1.19-1.2,10.529,10.529,0,0,1,1.356-1.015,9,9,0,0,1,1.509-.759l.4-.14c.132-.046.27-.078.4-.117a7.453,7.453,0,0,1,.819-.178" transform="translate(-79.821 -71.935)" fill="#a65b3c"/>
        <path id="Trazado_188653" data-name="Trazado 188653" d="M319.448,281.569c-.429-1.148-.894-2.278-1.381-3.4a35.2,35.2,0,0,0-1.62-3.266,17.378,17.378,0,0,0-.97-1.532A10.01,10.01,0,0,0,314.318,272,4.531,4.531,0,0,0,312.85,271a2.653,2.653,0,0,0-.869-.19,2.842,2.842,0,0,0-.9.114,2.619,2.619,0,0,1,1.83-.107,4.424,4.424,0,0,1,1.614.951,11.663,11.663,0,0,1,2.263,2.94,24.942,24.942,0,0,1,1.562,3.345,27.164,27.164,0,0,1,1.1,3.513" transform="translate(-82.383 -71.69)" fill="#a65b3c"/>
        <path id="Trazado_188654" data-name="Trazado 188654" d="M336.342,223.921a34.129,34.129,0,0,1,2.213,6.137c.273,1.055.509,2.12.7,3.193s.326,2.157.427,3.243.128,2.177.123,3.266c0,.545-.018,1.089-.044,1.633l-.041.815-.059.814a38.237,38.237,0,0,1-1.092,6.431,29.6,29.6,0,0,1-6.014,11.525l-.534.621c-.177.208-.368.4-.552.606-.365.407-.756.789-1.144,1.173-.192.193-.4.373-.6.56s-.4.376-.606.551c-.415.354-.821.719-1.251,1.054a40.276,40.276,0,0,1-5.406,3.654l-.021-.035a42.816,42.816,0,0,0,9.8-8.445c.687-.832,1.342-1.691,1.946-2.585a29.162,29.162,0,0,0,1.687-2.761,32.245,32.245,0,0,0,2.486-5.977,29.715,29.715,0,0,0,1.163-6.383c.034-.541.065-1.082.074-1.624s0-1.084-.014-1.625c-.032-1.082-.112-2.162-.229-3.238s-.268-2.147-.443-3.214-.4-2.127-.654-3.178-.536-2.1-.864-3.131-.676-2.061-1.091-3.063Z" transform="translate(-85.393 -59.3)" fill="#a65b3c"/>
        <path id="Trazado_188655" data-name="Trazado 188655" d="M301.007,286.809q.1,7.346.132,14.691l.021,7.346c.01,2.449-.007,4.9-.01,7.346l-.054,7.346-.029,3.672-.012,3.673-.025,14.692q-.036,14.693-.325,29.383-.137,7.344-.354,14.687t-.495,14.684h-.04q.208-14.691.482-29.378l.515-29.376c.029-2.448.08-4.9.087-7.345l.024-3.672-.007-3.673-.012-3.673-.029-3.673-.054-7.345c0-2.449-.02-4.9-.01-7.346l.022-7.346q.033-7.345.132-14.691Z" transform="translate(-79.399 -75.955)" fill="#a65b3c"/>
        <path id="Trazado_188656" data-name="Trazado 188656" d="M190.174,323.3a43.419,43.419,0,0,1,5.41-.048c1.8.086,3.6.247,5.393.494.448.055.893.13,1.339.2s.893.131,1.336.221c.887.171,1.775.331,2.653.544.44.1.883.189,1.317.311l1.309.348c.436.114.866.253,1.3.385s.861.268,1.29.407c-1.756-.409-3.508-.818-5.276-1.15-1.763-.348-3.538-.631-5.318-.876l-1.336-.177-1.339-.151q-1.34-.144-2.684-.251c-1.792-.137-3.588-.246-5.391-.26" transform="translate(-50.363 -85.588)" fill="#a65b3c"/>
        <path id="Trazado_188657" data-name="Trazado 188657" d="M217.1,341.811l.405-7.488.4-7.488c.251-4.993.5-9.985.691-14.98.222-4.993.368-9.989.467-14.985l.054-3.748-.01-3.747c.01-.626-.02-1.249-.03-1.874l-.043-1.873c0-.626-.06-1.248-.092-1.872l-.106-1.872.165,1.868c.048.623.12,1.245.138,1.87l.087,1.874c.025.625.069,1.249.075,1.875l.065,3.751v3.752c.007,1.251-.026,2.5-.046,3.75l-.035,1.875-.051,1.875-.109,3.749-.136,3.748c-.224,5-.468,9.99-.783,14.981q-.245,3.743-.507,7.483c-.193,2.492-.374,4.986-.6,7.476" transform="translate(-57.494 -74.65)" fill="#a65b3c"/>
        <path id="Trazado_188658" data-name="Trazado 188658" d="M376.373,268.129a34.761,34.761,0,0,1,.1-7.236l.118-.9c.037-.3.1-.6.155-.9s.1-.6.173-.892l.207-.886a25.1,25.1,0,0,1,1.137-3.457,22.569,22.569,0,0,1,1.659-3.243,20.2,20.2,0,0,1,2.2-2.9c.2-.228.422-.437.631-.657s.44-.418.662-.624c.459-.4.923-.788,1.419-1.138a15.943,15.943,0,0,1,1.53-.977,10.491,10.491,0,0,1,1.641-.765,14.518,14.518,0,0,0-3.055,1.9,18.905,18.905,0,0,0-2.6,2.47,21.746,21.746,0,0,0-3.729,6.085,28.724,28.724,0,0,0-1.851,6.921,43.137,43.137,0,0,0-.4,7.2" transform="translate(-99.636 -64.501)" fill="#a65b3c"/>
        <path id="Trazado_188659" data-name="Trazado 188659" d="M333.523,404.115l1.665-1.792c.275-.3.561-.59.828-.9l.8-.923.8-.922c.265-.309.541-.609.79-.931l1.536-1.9.386-.473.368-.487.737-.973c.489-.651.992-1.292,1.451-1.964s.941-1.329,1.415-1.991.907-1.352,1.362-2.027c1.8-2.711,3.543-5.473,5.093-8.342l.591-1.07c.2-.357.379-.722.565-1.084.368-.727.745-1.45,1.106-2.181.711-1.467,1.407-2.941,2.06-4.435,1.312-2.983,2.553-6,3.692-9.051s2.2-6.134,3.194-9.236,1.9-6.234,2.73-9.385c.211-.787.406-1.578.611-2.367s.392-1.581.574-2.376c.368-1.587.734-3.177,1.033-4.779l.039.006c-.5,3.225-1.181,6.422-1.958,9.593s-1.653,6.319-2.64,9.432-2.061,6.2-3.235,9.245-2.46,6.051-3.843,9.007l-.52,1.109c-.171.37-.347.738-.531,1.1q-.547,1.1-1.081,2.2c-.368.729-.749,1.45-1.123,2.175-.191.36-.369.727-.562,1.087l-.582,1.076c-.764,1.442-1.578,2.857-2.381,4.278-.4.709-.839,1.4-1.258,2.1l-.634,1.048q-.327.517-.665,1.029a89.791,89.791,0,0,1-5.756,7.926l-1.573,1.879c-.257.317-.54.612-.813.916l-.824.906-.826.905c-.277.3-.574.58-.86.871l-1.734,1.727Z" transform="translate(-88.326 -88.592)" fill="#a65b3c"/>
        <path id="Trazado_188660" data-name="Trazado 188660" d="M234.9,417.527a59.31,59.31,0,0,0,8.64,7.472l.581.416.592.4c.4.265.784.542,1.184.8l1.2.773c.4.261.812.5,1.217.747s.814.495,1.23.727l1.242.707c.837.454,1.673.911,2.525,1.338a97.726,97.726,0,0,0,10.452,4.623q2.673,1.018,5.4,1.882,2.723.882,5.5,1.579a82.073,82.073,0,0,1-11.011-3.175,91.544,91.544,0,0,1-10.526-4.557c-.854-.434-1.69-.9-2.528-1.36l-1.243-.718c-.416-.236-.824-.487-1.231-.738-1.636-.993-3.232-2.055-4.767-3.2-1.548-1.126-3.019-2.354-4.447-3.626l-1.048-.979c-.348-.327-.677-.676-1.016-1.012-.687-.665-1.3-1.4-1.95-2.1" transform="translate(-62.207 -110.572)" fill="#a65b3c"/>
        <path id="Trazado_188661" data-name="Trazado 188661" d="M217.617,273.98c-.065-.646-.088-1.291-.154-1.933l-.106-.962-.05-.48c-.02-.16-.047-.318-.071-.478l-.14-.954c-.046-.318-.117-.632-.175-.948-.1-.634-.266-1.256-.408-1.882a31.492,31.492,0,0,0-1.172-3.666c-.118-.3-.237-.6-.37-.89l-.194-.441-.21-.434a15.3,15.3,0,0,0-.935-1.692,14.651,14.651,0,0,1,1.993,3.338,23.456,23.456,0,0,1,1.27,3.689c.137.636.3,1.267.393,1.911.049.322.112.641.15.964l.1.97c.015.162.035.323.048.484l.024.487.042.973c.01.324-.009.649-.011.973s-.015.648-.028.971" transform="translate(-56.576 -68.648)" fill="#a65b3c"/>
        <path id="Trazado_188662" data-name="Trazado 188662" d="M379.252,317.037l-.682-9.446c-.231-3.148-.447-6.3-.7-9.442-.229-3.148-.5-6.292-.762-9.437-.14-1.572-.271-3.144-.43-4.715-.132-1.573-.31-3.141-.455-4.713q.351,2.342.648,4.693c.2,1.567.362,3.137.54,4.706.328,3.141.594,6.289.854,9.436.223,3.149.445,6.3.611,9.453l.227,4.731c.057,1.578.122,3.155.153,4.735" transform="translate(-99.633 -73.962)" fill="#a65b3c"/>
        <path id="Trazado_188663" data-name="Trazado 188663" d="M381.327,328.991a33.567,33.567,0,0,1,5.676-4.7c.513-.34,1.02-.693,1.555-1l.792-.477.4-.238c.133-.076.27-.148.4-.222l1.63-.875,1.668-.8a45.7,45.7,0,0,1,6.943-2.524c1.178-.365,2.391-.587,3.593-.851l.451-.093c.151-.032.3-.047.457-.071l.913-.134q.912-.136,1.824-.257-.9.186-1.807.361l-.9.176c-.15.032-.3.054-.45.093l-.445.115c-1.188.308-2.386.569-3.548.958l-.878.27c-.291.095-.59.165-.874.279l-1.725.628c-.58.195-1.138.445-1.7.679l-.846.354c-.14.06-.283.115-.422.179l-.415.2-1.659.783-1.622.857c-.136.072-.272.14-.407.215l-.4.231-.793.461c-.534.3-1.045.637-1.563.962a41,41,0,0,0-5.846,4.445" transform="translate(-100.985 -83.883)" fill="#a65b3c"/>
        <g id="Grupo_146253" data-name="Grupo 146253" transform="translate(173.928 242.158)" opacity="0.4" style="mix-blend-mode: multiply;isolation: isolate">
          <g id="Grupo_146252" data-name="Grupo 146252">
            <g id="Grupo_146251" data-name="Grupo 146251" clip-path="url(#clip-path-14)">
              <path id="Trazado_188664" data-name="Trazado 188664" d="M265.826,335.871l-8.16,6.09a8.092,8.092,0,0,1-9.676,0l-8.16-6.09a8.09,8.09,0,0,1-3.249-6.482c0,2.553.235,5.6,3.249,8.027l8.16,6.09a8.092,8.092,0,0,0,9.676,0l8.16-6.09c3.252-2.08,3.252-5.475,3.252-8.027a8.084,8.084,0,0,1-3.252,6.482" transform="translate(-236.581 -329.389)" fill="#a65b3c"/>
            </g>
          </g>
        </g>
        <g id="Grupo_146256" data-name="Grupo 146256" transform="translate(173.928 220.456)" opacity="0.4" style="mix-blend-mode: multiply;isolation: isolate">
          <g id="Grupo_146255" data-name="Grupo 146255">
            <g id="Grupo_146254" data-name="Grupo 146254" clip-path="url(#clip-path-15)">
              <path id="Trazado_188665" data-name="Trazado 188665" d="M236.581,300.149a4.906,4.906,0,0,0,3.25,4.753l8.16,3.452a13.312,13.312,0,0,0,9.676,0l8.159-3.452a4.86,4.86,0,0,0,3.252-5.033v.28c0,1.447-1.2,2.809-3.252,3.674l-8.159,3.452a13.319,13.319,0,0,1-9.676,0l-8.16-3.452c-2.045-.865-3.25-2.227-3.25-3.674" transform="translate(-236.581 -299.869)" fill="#a65b3c"/>
            </g>
          </g>
        </g>
        <path id="Trazado_188666" data-name="Trazado 188666" d="M247.918,333.153c-2.539-1.8-5.056-3.639-7.566-5.481-.313-.235-.627-.454-.939-.706-.16-.118-.3-.259-.451-.388s-.285-.276-.421-.421a8.368,8.368,0,0,1-1.35-1.955,8,8,0,0,1-.727-2.264c-.027-.2-.062-.393-.074-.592l-.025-.3-.008-.3c-.009-.4,0-.781,0-1.172l.054-4.671.029-2.336.013-2.336c.021-3.114-.008-6.228-.04-9.343l-.026-2.336c0-.2-.011-.38,0-.593a1.933,1.933,0,0,1,.134-.613,1.976,1.976,0,0,1,.8-.95,1.915,1.915,0,0,1,.586-.239,2.73,2.73,0,0,1,.616-.053l1.167-.009,2.336-.012c3.114-.015,6.228-.03,9.343-.018s6.228.024,9.343.049l4.671.055,1.167.017.584.01a2.045,2.045,0,0,1,.594.088,1.867,1.867,0,0,1,1.309,1.8H269a1.787,1.787,0,0,0-.378-1.063,1.76,1.76,0,0,0-.926-.62,1.9,1.9,0,0,0-.559-.061l-.584.011-1.167.017-4.671.054c-3.114.026-6.228.052-9.343.05s-6.228,0-9.343-.018l-2.336-.011-1.167-.009a2.329,2.329,0,0,0-.546.036,1.59,1.59,0,0,0-.493.193,1.665,1.665,0,0,0-.816,1.311c-.014.176-.008.384-.012.574l-.027,2.336c-.032,3.114-.06,6.228-.04,9.343l.013,2.336.029,2.336.054,4.671c0,.387,0,.782.01,1.164l.01.286.026.284c.012.19.049.378.075.566a8.42,8.42,0,0,0,.7,2.167,8.01,8.01,0,0,0,1.278,1.886,11.265,11.265,0,0,0,1.753,1.492c2.48,1.884,4.955,3.774,7.407,5.7Z" transform="translate(-62.592 -78.407)" fill="#a65b3c"/>
        <path id="Trazado_188667" data-name="Trazado 188667" d="M273.2,298.825c.073,2.106.108,4.212.133,6.317l.022,3.159c.01,1.053-.007,2.106-.009,3.159l-.054,3.158-.029,1.58-.012,1.579c-.013,1.053-.006,2.105,0,3.159a8.82,8.82,0,0,1-.448,3.14,8.115,8.115,0,0,1-1.606,2.758,8.663,8.663,0,0,1-1.179,1.095l-1.259.954c-1.678,1.272-3.357,2.544-5.052,3.793l-1.268.942c-.213.156-.418.315-.638.468a7.263,7.263,0,0,1-.682.434,8.065,8.065,0,0,1-9.038-.638l.024-.032a8.41,8.41,0,0,0,2.847,1.269,8.127,8.127,0,0,0,3.086.115,7.8,7.8,0,0,0,2.887-1.045,14.935,14.935,0,0,0,1.273-.895l1.264-.948c1.68-1.27,3.377-2.516,5.073-3.765l1.273-.935a8.359,8.359,0,0,0,1.155-1.026,7.959,7.959,0,0,0,2.148-5.685c.007-1.054.014-2.106,0-3.159L273.1,316.2l-.029-1.58-.054-3.158c0-1.053-.02-2.106-.01-3.159l.022-3.159c.025-2.106.06-4.212.133-6.317Z" transform="translate(-66.758 -79.137)" fill="#a65b3c"/>
        <path id="Trazado_188668" data-name="Trazado 188668" d="M269.091,299.869a4.583,4.583,0,0,1,.005.6,2.82,2.82,0,0,1-.121.6,3.369,3.369,0,0,1-.577,1.074,5.94,5.94,0,0,1-1.889,1.525c-.358.2-.733.35-1.1.51l-1.1.473q-1.1.473-2.208.922c-1.481.6-2.972,1.165-4.448,1.771a13.609,13.609,0,0,1-4.7.946,12.5,12.5,0,0,1-4.759-.729c-1.492-.6-2.955-1.212-4.426-1.835s-2.923-1.261-4.388-1.928a6.456,6.456,0,0,1-1.952-1.442,3.192,3.192,0,0,1-.884-2.208h.04a2.82,2.82,0,0,0,.3,1.13,3.847,3.847,0,0,0,.688.94,6.468,6.468,0,0,0,1.939,1.3l4.419,1.817,4.4,1.877a13.344,13.344,0,0,0,4.621.861,11.572,11.572,0,0,0,4.648-.847c1.464-.634,2.91-1.31,4.368-1.957q1.095-.483,2.2-.943l1.1-.459c.371-.154.739-.293,1.086-.472a5.921,5.921,0,0,0,1.87-1.383,3.58,3.58,0,0,0,.612-.987,2.7,2.7,0,0,0,.156-.563,5.214,5.214,0,0,0,.048-.592Z" transform="translate(-62.645 -79.413)" fill="#a65b3c"/>
        <g id="Grupo_146259" data-name="Grupo 146259" transform="translate(187.715 222.09)" opacity="0.8" style="mix-blend-mode: screen;isolation: isolate">
          <g id="Grupo_146258" data-name="Grupo 146258">
            <g id="Grupo_146257" data-name="Grupo 146257" clip-path="url(#clip-path-16)">
              <path id="Trazado_188669" data-name="Trazado 188669" d="M259.07,303.609a1.887,1.887,0,1,1-1.481-1.481,1.889,1.889,0,0,1,1.481,1.481" transform="translate(-255.334 -302.092)" fill="#fff"/>
            </g>
          </g>
        </g>
        <g id="Grupo_146262" data-name="Grupo 146262" transform="translate(223.76 208.969)" opacity="0.8" style="mix-blend-mode: screen;isolation: isolate">
          <g id="Grupo_146261" data-name="Grupo 146261">
            <g id="Grupo_146260" data-name="Grupo 146260" clip-path="url(#clip-path-17)">
              <path id="Trazado_188670" data-name="Trazado 188670" d="M308.1,285.761a1.887,1.887,0,1,1-1.481-1.481,1.889,1.889,0,0,1,1.481,1.481" transform="translate(-304.363 -284.244)" fill="#fff"/>
            </g>
          </g>
        </g>
        <g id="Grupo_146265" data-name="Grupo 146265" transform="translate(223.76 239.058)" opacity="0.8" style="mix-blend-mode: screen;isolation: isolate">
          <g id="Grupo_146264" data-name="Grupo 146264">
            <g id="Grupo_146263" data-name="Grupo 146263" clip-path="url(#clip-path-17)">
              <path id="Trazado_188671" data-name="Trazado 188671" d="M308.1,326.689a1.887,1.887,0,1,1-1.481-1.481,1.889,1.889,0,0,1,1.481,1.481" transform="translate(-304.363 -325.172)" fill="#fff"/>
            </g>
          </g>
        </g>
        <g id="Grupo_146268" data-name="Grupo 146268" transform="translate(224.118 271.519)" opacity="0.8" style="mix-blend-mode: screen;isolation: isolate">
          <g id="Grupo_146267" data-name="Grupo 146267">
            <g id="Grupo_146266" data-name="Grupo 146266" clip-path="url(#clip-path-16)">
              <path id="Trazado_188672" data-name="Trazado 188672" d="M308.586,370.843a1.887,1.887,0,1,1-1.481-1.481,1.889,1.889,0,0,1,1.481,1.481" transform="translate(-304.85 -369.326)" fill="#fff"/>
            </g>
          </g>
        </g>
        <g id="Grupo_146271" data-name="Grupo 146271" transform="translate(225.645 310.92)" opacity="0.8" style="mix-blend-mode: screen;isolation: isolate">
          <g id="Grupo_146270" data-name="Grupo 146270">
            <g id="Grupo_146269" data-name="Grupo 146269" clip-path="url(#clip-path-20)">
              <path id="Trazado_188673" data-name="Trazado 188673" d="M310.665,424.438a1.887,1.887,0,1,1-1.481-1.481,1.889,1.889,0,0,1,1.481,1.481" transform="translate(-306.928 -422.921)" fill="#fff"/>
            </g>
          </g>
        </g>
        <rect id="Rectángulo_39406" data-name="Rectángulo 39406" width="2.462" height="5.944" transform="matrix(0.208, -0.978, 0.978, 0.208, 179.547, 181.585)" fill="#1f4168"/>
        <rect id="Rectángulo_39407" data-name="Rectángulo 39407" width="1.231" height="5.945" transform="matrix(0.208, -0.978, 0.978, 0.208, 185.044, 177.672)" fill="#1f4168"/>
        <rect id="Rectángulo_39408" data-name="Rectángulo 39408" width="5.945" height="1.231" transform="matrix(0.208, -0.978, 0.978, 0.208, 184.807, 182.471)" fill="#1f4168"/>
        <path id="Trazado_188674" data-name="Trazado 188674" d="M248.3,247.959l44.42,9.446,6.125-1.258-5.083-3.641-44.42-9.446Z" transform="translate(-65.756 -64.369)" fill="#f0f2f5"/>
        <rect id="Rectángulo_39409" data-name="Rectángulo 39409" width="5.009" height="1.261" transform="translate(187.465 184.637) rotate(-77.996)" fill="#1f4168"/>
        <rect id="Rectángulo_39410" data-name="Rectángulo 39410" width="5.009" height="1.261" transform="translate(189.959 185.167) rotate(-77.996)" fill="#1f4168"/>
        <path id="Trazado_188675" data-name="Trazado 188675" d="M315.549,259.841l1.048.751-1.262.259Z" transform="translate(-83.509 -68.813)" fill="#1f4168"/>
        <path id="Trazado_188676" data-name="Trazado 188676" d="M270.206,257.967c-4.448-.918-5.263-1.517-5.263-1.517s6.912.2,8.066-3a1.456,1.456,0,0,0-1.192-1.928c-1.866-.24-5.326-.716-7.437-1.192a5,5,0,0,0-1.593-.1,50.2,50.2,0,0,1-9.473.135,5,5,0,0,0-2.667.394c-2.858,1.283-9.576,4.24-14.1,5.761a4.37,4.37,0,0,0-2.99,4.122,24.888,24.888,0,0,0,.129,2.533,5.3,5.3,0,0,0-.941,4.323,18.741,18.741,0,0,1,.276,3.416c-.062,3.022-.282,8.178-.282,8.178a138.6,138.6,0,0,1-5.782,15.306s-10.081,21.138-23.82,33.367c0,0-9.335-6.062-26.266-2.971,0,0-3.187,13.866-.31,35.631,0,0-.987,25.006,25.007,10.529,0,0,34.369-14.459,40.872-75.634l1.063-3.177.145-.1a13.417,13.417,0,0,0,5.081-6.832c.268-.809.6-1.686,1-2.576a13.077,13.077,0,0,1,4.744-5.537l2.558-1.692,7.652-2.551s4.648-.035,4.473-3.564a4,4,0,0,0,2.131-1.217,2.053,2.053,0,0,0-.443-3.087,13.144,13.144,0,0,0-5.148-1.531l-8.316-1.048,7.3.175s5.305,1.7,8.721-.363c2.761-1.67.543-3.477-3.2-4.249" transform="translate(-46.441 -66.261)" fill="#ffc89f"/>
        <path id="Trazado_188677" data-name="Trazado 188677" d="M269.769,280.645c.932-.531,1.871-1.043,2.813-1.547s1.881-1.01,2.829-1.5c.476-.24.952-.482,1.423-.734.237-.124.468-.257.7-.385s.457-.274.684-.415a5.431,5.431,0,0,1,1.478-.673,5.689,5.689,0,0,1,.8-.16c.274-.034.546-.033.81-.045,2.136-.1,4.276-.154,6.393-.314.265-.018.528-.04.79-.067a3.989,3.989,0,0,1,.848-.01,4.893,4.893,0,0,1,.821.156l.775.189q1.554.371,3.14.619l0,.05a21.121,21.121,0,0,1-3.211-.286q-.4-.065-.8-.14a4.316,4.316,0,0,0-.759-.108,4.169,4.169,0,0,0-.753.035c-.27.035-.539.064-.808.09-1.075.091-2.149.11-3.221.119s-2.144-.015-3.215-.061c-.27-.007-.534-.027-.793-.013a3.925,3.925,0,0,0-.777.11,4.3,4.3,0,0,0-1.432.643c-.884.609-1.776,1.209-2.7,1.76s-1.886,1.025-2.855,1.482-1.956.879-2.965,1.248Z" transform="translate(-71.442 -72.769)" fill="#ff9b6c"/>
        <path id="Trazado_188678" data-name="Trazado 188678" d="M266.019,271.043c.813-.277,1.628-.544,2.434-.834s1.617-.569,2.421-.862c1.607-.588,3.206-1.2,4.778-1.864q.592-.244,1.176-.506a8.918,8.918,0,0,1,1.225-.482,6.019,6.019,0,0,1,2.64-.159c1.693.335,3.363.656,5.071.872a35.736,35.736,0,0,1-5.125-.489,5.885,5.885,0,0,0-2.45.225,9.372,9.372,0,0,0-1.162.475c-.391.179-.785.354-1.182.521q-2.383,1-4.846,1.772c-1.638.523-3.3.972-4.979,1.331" transform="translate(-70.449 -70.512)" fill="#ff9b6c"/>
        <path id="Trazado_188679" data-name="Trazado 188679" d="M264.053,261.926c.964-.446,1.936-.865,2.915-1.267s1.958-.8,2.951-1.164,2-.691,2.983-1.086q.736-.3,1.454-.634c.484-.214.934-.486,1.447-.682a5.055,5.055,0,0,1,1.6-.338,5.438,5.438,0,0,1,.825.028c.279.032.533.087.794.129,1.04.178,2.083.334,3.126.493,2.084.322,4.17.613,6.284.753v.049a29.568,29.568,0,0,1-6.361-.279c-1.053-.146-2.1-.345-3.136-.558a7.275,7.275,0,0,0-1.525-.222,5.277,5.277,0,0,0-1.518.2,6.946,6.946,0,0,0-.732.272c-.246.1-.49.2-.734.307-.489.2-.975.415-1.46.628-.968.429-1.921.9-2.893,1.322s-1.967.787-2.966,1.139-2.01.676-3.035.954Z" transform="translate(-69.928 -67.994)" fill="#ff9b6c"/>
        <path id="Trazado_188680" data-name="Trazado 188680" d="M265.6,307.433a4.26,4.26,0,0,1-1.411.65,5.64,5.64,0,0,1-1.553.207,5.554,5.554,0,0,1-1.552-.217,4.887,4.887,0,0,1-1.414-.64c.512.09,1,.205,1.492.262a10.8,10.8,0,0,0,1.474.1,12.322,12.322,0,0,0,2.963-.362" transform="translate(-68.769 -81.416)" fill="#ff9b6c"/>
        <path id="Trazado_188681" data-name="Trazado 188681" d="M258.495,278.843a1.486,1.486,0,0,1,.075-1.068,2.069,2.069,0,0,1,.7-.854,2.844,2.844,0,0,1,.984-.447c.174-.034.35-.062.524-.078a4.217,4.217,0,0,1,.528.017,4.8,4.8,0,0,1-.471.219c-.154.07-.3.146-.453.207a5.88,5.88,0,0,0-.82.482,2.85,2.85,0,0,0-.656.639,2.669,2.669,0,0,0-.412.882" transform="translate(-68.438 -73.197)" fill="#ff9b6c"/>
        <path id="Trazado_188682" data-name="Trazado 188682" d="M256.113,267.019c-.219.154-.409.312-.6.463s-.372.3-.55.46-.351.318-.523.488-.34.351-.548.532a2.1,2.1,0,0,1,.744-1.392,2.431,2.431,0,0,1,.683-.425,1.545,1.545,0,0,1,.795-.126" transform="translate(-67.237 -70.71)" fill="#ff9b6c"/>
        <path id="Trazado_188683" data-name="Trazado 188683" d="M256.113,354.817,219,325.292l-.662-68.542h1.212l46.159,34.733-.212,1.38s6.739,3.236,12.788,2.175v-.9l46.217-29.5,1.592,1.008-17.91,65.2L271.133,357.31l-.1.837c-9.734,3.019-15-2.544-15-2.544Z" transform="translate(-57.822 -67.994)" fill="#1f4168"/>
        <path id="Trazado_188684" data-name="Trazado 188684" d="M301.585,298.562q5.753-3.816,11.589-7.5c1.947-1.225,3.907-2.43,5.849-3.665s3.876-2.48,5.8-3.735c3.859-2.507,7.72-5.011,11.6-7.477,1.938-1.24,3.888-2.461,5.838-3.683s3.9-2.447,5.858-3.651l.013.02c-1.918,1.273-3.848,2.525-5.778,3.777s-3.857,2.509-5.8,3.745c-3.872,2.486-7.769,4.934-11.667,7.379-1.95,1.222-3.9,2.445-5.831,3.694s-3.855,2.511-5.787,3.762q-5.8,3.737-11.683,7.355Z" transform="translate(-79.868 -71.198)" fill="#1b1a2e"/>
        <path id="Trazado_188685" data-name="Trazado 188685" d="M280.822,304.92c-.054.56-.121,1.118-.193,1.676l-.043-.082c.606.255,1.215.51,1.837.731s1.237.459,1.859.683a21.766,21.766,0,0,0,3.836.979,33.2,33.2,0,0,0,3.93.416,24.628,24.628,0,0,0,3.941-.169l-.049.057.046-1.088h.024l.046,1.088,0,.049-.05.007a16.842,16.842,0,0,1-1.976.264c-.332.017-.664.063-1,.052l-1-.012c-.333,0-.664-.041-1-.067l-.5-.043c-.165-.017-.329-.044-.494-.066-.329-.047-.659-.089-.985-.147l-.976-.2c-1.293-.3-2.572-.634-3.852-.987a21.711,21.711,0,0,1-3.719-1.412l-.053-.026.01-.055c.1-.554.2-1.106.321-1.656Z" transform="translate(-74.275 -80.75)" fill="#1b1a2e"/>
        <path id="Trazado_188686" data-name="Trazado 188686" d="M218.355,257.814q5.824,4.231,11.555,8.585c1.908,1.455,3.8,2.928,5.717,4.374s3.837,2.881,5.765,4.308c3.856,2.856,7.711,5.714,11.537,8.609,1.919,1.44,3.824,2.9,5.729,4.357s3.813,2.912,5.706,4.387l-.015.019c-1.941-1.41-3.868-2.839-5.8-4.268s-3.857-2.853-5.773-4.3q-5.762-4.313-11.468-8.7c-1.906-1.459-3.812-2.914-5.737-4.347s-3.86-2.851-5.786-4.282q-5.767-4.305-11.45-8.724Z" transform="translate(-57.822 -68.276)" fill="#1b1a2e"/>
        <path id="Trazado_188687" data-name="Trazado 188687" d="M289.8,297.641s13.192-21.063,42.917-29.654l8,1.352L297.21,297.112v.9a17.7,17.7,0,0,1-7.408-.373" transform="translate(-76.747 -70.97)" fill="#f0f2f5"/>
        <path id="Trazado_188688" data-name="Trazado 188688" d="M272.621,294.731A95.683,95.683,0,0,0,232.315,257l-7.39,2.548,42.6,32.03-.285,1.35a25,25,0,0,0,5.379,1.8" transform="translate(-59.566 -68.06)" fill="#f0f2f5"/>
        <path id="Trazado_188689" data-name="Trazado 188689" d="M298.571,310.76q-.932,7.623-2.017,15.225c-.365,2.533-.754,5.064-1.109,7.6s-.684,5.074-1.028,7.61c-.665,5.076-1.333,10.152-2.046,15.221-.348,2.536-.718,5.069-1.088,7.6s-.734,5.067-1.126,7.6l-.023,0c.31-2.541.644-5.079.978-7.617s.662-5.076,1.015-7.612c.69-5.073,1.423-10.139,2.161-15.206.357-2.534.738-5.066,1.076-7.6s.659-5.077.995-7.615q1.024-7.61,2.189-15.2Z" transform="translate(-76.835 -82.297)" fill="#1b1a2e"/>
        <path id="Trazado_188690" data-name="Trazado 188690" d="M277.714,307.186q-.879,7.639-1.91,15.258c-.348,2.539-.72,5.076-1.056,7.616s-.648,5.084-.975,7.627c-.629,5.087-1.262,10.174-1.939,15.255-.329,2.542-.682,5.08-1.034,7.619s-.7,5.078-1.072,7.614l-.024,0c.293-2.547.609-5.09.925-7.633s.626-5.088.962-7.629c.654-5.084,1.352-10.162,2.054-15.239.339-2.541.7-5.078,1.022-7.621s.623-5.088.941-7.631q.973-7.627,2.084-15.236Z" transform="translate(-71.425 -81.35)" fill="#1b1a2e"/>
        <path id="Trazado_188691" data-name="Trazado 188691" d="M379.666,331.519s6.641,24.673,7.339,40.967c0,0,8.317,30.232-23.858,22.21,0,0-39.028-8.695-68.856-27.6a11.5,11.5,0,0,0-7.339-1.739c-2.911.3-7.207.819-12.375,1.671a11.44,11.44,0,0,1-9.865-3.109,62.266,62.266,0,0,0-5.687-5.063,13.135,13.135,0,0,1-2.839-2.9l-5.065-7.052-1.6-1.054A19.392,19.392,0,0,1,244.6,343.2c-2.384-3.212-6.44-8.449-9.328-10.992a1.822,1.822,0,0,1,.467-2.914,4.843,4.843,0,0,1,2.75-.221s-5.094-3.279-2.555-5.713c2.364-2.264,6.783.426,6.783.426s-3.877-3.841-1.884-4.979c2.211-1.263,6.851,1.836,15.275,7.965a36.909,36.909,0,0,0,25.477,6.756s-.2-1.855-4.985-5.19a8.575,8.575,0,0,1-3.158-9.669,2.25,2.25,0,0,1,3.6-.8c2.689,2.457,8.69,7.681,13.354,9.855a5.3,5.3,0,0,1,2.246,1.95c2.029,3.194,7.244,11.026,11.348,13.895,0,0,13.181,10.1,29.63,11.668,15.218,1.453,19.241,1.689,19.241,1.689l-4.41-13.745s11.678-10.964,31.22-11.658" transform="translate(-62.163 -84.022)" fill="#ffc89f"/>
        <path id="Trazado_188692" data-name="Trazado 188692" d="M257.027,360.29c1.095.509,2.164,1.073,3.211,1.674s2.078,1.23,3.091,1.886c.506.329,1,.671,1.5,1.009s.99.691,1.47,1.059c.974.713,1.909,1.48,2.819,2.272l-3-2.02c-1-.67-2-1.337-3.011-1.989s-2.019-1.307-3.033-1.955Z" transform="translate(-68.068 -95.414)" fill="#ff9b6c"/>
        <path id="Trazado_188693" data-name="Trazado 188693" d="M245.588,326.127c1.345,1.219,2.68,2.444,4.029,3.652s2.719,2.391,4.113,3.544,2.8,2.289,4.232,3.4l4.31,3.316q-2.293-1.468-4.5-3.069c-1.47-1.066-2.9-2.187-4.3-3.345s-2.757-2.366-4.068-3.622-2.584-2.551-3.821-3.879" transform="translate(-65.038 -86.367)" fill="#ff9b6c"/>
        <path id="Trazado_188694" data-name="Trazado 188694" d="M239.844,333.3c1.162.78,2.278,1.622,3.379,2.485s2.17,1.765,3.2,2.716,2,1.957,2.964,2.97a15.909,15.909,0,0,0,3.173,2.692,83.19,83.19,0,0,1,7.011,4.6q1.685,1.254,3.268,2.639a27.673,27.673,0,0,1,2.95,2.987l-.029.027a55.242,55.242,0,0,0-6.439-5.313c-1.124-.821-2.257-1.632-3.408-2.419l-1.732-1.172-.87-.579c-.289-.193-.584-.383-.871-.588a19.011,19.011,0,0,1-1.644-1.314c-.526-.462-1.011-.973-1.5-1.468-.982-.99-2.036-1.9-3.092-2.814-2.1-1.832-4.232-3.627-6.38-5.415Z" transform="translate(-63.511 -88.266)" fill="#ff9b6c"/>
        <path id="Trazado_188695" data-name="Trazado 188695" d="M269.328,345.624a16.491,16.491,0,0,1,2.15,1.193,18.915,18.915,0,0,1,1.982,1.463,13.4,13.4,0,0,1,1.746,1.75,7.01,7.01,0,0,1,1.244,2.126,10.808,10.808,0,0,0-1.476-1.923l-.421-.434-.44-.417c-.144-.141-.3-.271-.449-.406s-.3-.268-.46-.4c-.612-.529-1.256-1.022-1.9-1.513s-1.307-.967-1.973-1.445" transform="translate(-71.325 -91.53)" fill="#ff9b6c"/>
        <path id="Trazado_188696" data-name="Trazado 188696" d="M301.809,337.933a5.088,5.088,0,0,1-1.193.67,7.73,7.73,0,0,1-2.668.585,6.018,6.018,0,0,1-1.364-.09c.451-.084.894-.138,1.333-.218s.874-.157,1.306-.252.862-.2,1.293-.315.858-.242,1.293-.379" transform="translate(-78.543 -89.494)" fill="#ff9b6c"/>
        <path id="Trazado_188697" data-name="Trazado 188697" d="M417.194,375.3a8.2,8.2,0,0,0-2.178-1.807,12.35,12.35,0,0,0-2.6-1.113,20.34,20.34,0,0,0-2.764-.626q-1.4-.225-2.824-.321c-1.893-.141-3.8-.157-5.7-.163s-3.819.025-5.723-.139c.954,0,1.906-.021,2.859-.065s1.906-.079,2.86-.1a57.239,57.239,0,0,1,5.736.077,23.035,23.035,0,0,1,5.653,1.049,11.515,11.515,0,0,1,2.6,1.242,7.734,7.734,0,0,1,2.077,1.971" transform="translate(-104.714 -98.23)" fill="#ff9b6c"/>
        <path id="Trazado_188698" data-name="Trazado 188698" d="M205.692,355.7a28.636,28.636,0,0,1-5.251,3.264c-1.842.934-3.726,1.77-5.577,2.661a44.659,44.659,0,0,0-5.392,2.951,16.734,16.734,0,0,0-4.482,4.158,12.818,12.818,0,0,1,1.919-2.428,18.256,18.256,0,0,1,2.389-1.986,37.631,37.631,0,0,1,5.4-3.052c1.864-.889,3.752-1.708,5.613-2.581.929-.439,1.852-.89,2.754-1.381a26.311,26.311,0,0,0,2.632-1.606" transform="translate(-48.99 -94.199)" fill="#ff9b6c"/>
        <path id="Trazado_188699" data-name="Trazado 188699" d="M301.952,253.859a1.847,1.847,0,0,0,.227-1.082,1.392,1.392,0,0,0-.526-.892,1.28,1.28,0,0,0-.464-.226,4.387,4.387,0,0,0-.551-.082q-.58-.068-1.156-.165c-.768-.135-1.529-.3-2.3-.437s-1.538-.236-2.311-.344c-.386-.057-.773-.107-1.158-.183a5.607,5.607,0,0,0-1.124-.124,4.939,4.939,0,0,0-.561.029l-.58.063c-.388.042-.777.071-1.166.1a31.53,31.53,0,0,1-4.677-.021v-.04c1.556-.115,3.1-.232,4.647-.36l1.16-.088.581-.043a5.34,5.34,0,0,1,.6-.011,5.063,5.063,0,0,1,1.184.19l1.13.277c.757.175,1.52.326,2.29.43s1.548.159,2.322.237c.387.041.772.088,1.156.144l.289.041a2.06,2.06,0,0,1,.31.065,1.563,1.563,0,0,1,1.1,1.423,1.375,1.375,0,0,1-.109.605,2.262,2.262,0,0,1-.294.516Z" transform="translate(-75.637 -66.193)" fill="#ff9b6c"/>
        <path id="Trazado_188700" data-name="Trazado 188700" d="M286.927,265.6q.915-.055,1.828-.066t1.827,0c.609,0,1.217.025,1.825.068s1.215.088,1.824.121h.012l.008,0a12,12,0,0,0,3.18.544c.269.006.537.022.805.017h.4c.133,0,.267-.015.4-.021s.267-.01.4-.021l.4-.046a7.617,7.617,0,0,0,.785-.128l.195-.038c.065-.015.127-.035.191-.053l.382-.1a2.657,2.657,0,0,0,.374-.126l.369-.137c.242-.1.47-.232.706-.346.112-.067.224-.135.332-.206a3.582,3.582,0,0,0,.305-.234,1.241,1.241,0,0,0,.54-1.263,1.738,1.738,0,0,0-.387-.654,4.338,4.338,0,0,0-.6-.531l.021-.034a3.714,3.714,0,0,1,.685.458,1.771,1.771,0,0,1,.5.687,1.2,1.2,0,0,1-.012.888,2.022,2.022,0,0,1-.509.712,3.865,3.865,0,0,1-.326.277c-.114.082-.23.161-.348.24-.248.129-.489.274-.744.388a7.126,7.126,0,0,1-1.6.474,10.917,10.917,0,0,1-3.288.05c-.271-.035-.541-.08-.81-.123s-.536-.1-.8-.158c-.534-.111-1.062-.233-1.59-.376l.02,0c-.609,0-1.218.023-1.828.033s-1.218.006-1.826-.018-1.217-.049-1.825-.087-1.216-.087-1.823-.154Z" transform="translate(-75.986 -69.476)" fill="#ff9b6c"/>
        <path id="Trazado_188701" data-name="Trazado 188701" d="M298.7,273.657a4.283,4.283,0,0,0,2.008-1.287,1.986,1.986,0,0,0,.3-.486,1.76,1.76,0,0,0,.146-.545,2.035,2.035,0,0,0-.186-1.1,2.1,2.1,0,0,0-.314-.478,2.348,2.348,0,0,0-.453-.373,6.162,6.162,0,0,0-1.085-.566,10.937,10.937,0,0,0-2.383-.618c-.813-.128-1.628-.2-2.452-.293s-1.643-.177-2.462-.285c-1.636-.223-3.269-.479-4.893-.809l.005-.04c1.655.083,3.3.24,4.942.43.82.1,1.638.218,2.456.335a22.152,22.152,0,0,1,2.446.45,23.217,23.217,0,0,1,2.386.712,9.477,9.477,0,0,1,1.151.5,2.6,2.6,0,0,1,.537.367,2.243,2.243,0,0,1,.41.522,2.1,2.1,0,0,1,.241,1.3,2.143,2.143,0,0,1-.562,1.191,3.727,3.727,0,0,1-2.23,1.123Z" transform="translate(-75.985 -70.649)" fill="#ff9b6c"/>
        <path id="Trazado_188702" data-name="Trazado 188702" d="M300.287,279.177c.259-.207.507-.4.732-.61a4,4,0,0,0,.589-.683,3.457,3.457,0,0,0,.4-.8,8.04,8.04,0,0,0,.235-.919,2.327,2.327,0,0,1-.3,1.942,2.582,2.582,0,0,1-1.65,1.073" transform="translate(-79.524 -73.135)" fill="#ff9b6c"/>
        <rect id="Rectángulo_39411" data-name="Rectángulo 39411" width="251.648" height="11.313" transform="translate(95.113 320.839)" fill="#5573c6"/>
        <path id="Trazado_188703" data-name="Trazado 188703" d="M250.155,444.3h-105.7a.3.3,0,1,1,0-.593h105.7a.3.3,0,1,1,0,.593" transform="translate(-38.178 -117.504)" fill="#fff"/>
        <path id="Trazado_188704" data-name="Trazado 188704" d="M411.846,444.3H288.23a.3.3,0,0,1,0-.593H411.846a.3.3,0,1,1,0,.593" transform="translate(-76.253 -117.504)" fill="#0f59a3"/>
        <path id="Trazado_188705" data-name="Trazado 188705" d="M289.744,443.314a2.2,2.2,0,1,1-2.2-2.2,2.2,2.2,0,0,1,2.2,2.2" transform="translate(-75.568 -116.819)" fill="#fff"/>
        <path id="Trazado_188706" data-name="Trazado 188706" d="M466.267,445.226h-1.4v.368h1.773v-1.772h-.369Zm-1.4-4.282v.369h1.4v1.4h.369v-1.772Zm-2.508,2.877h-.368v1.772h1.772v-.368h-1.4Zm-.368-1.106h.368v-1.4h1.4v-.369h-1.772Z" transform="translate(-122.346 -116.774)" fill="#fff"/>
        <path id="Trazado_188707" data-name="Trazado 188707" d="M134.284,440.433l4,2.7-4,2.7Z" transform="translate(-35.562 -116.638)" fill="#fff"/>
        <rect id="Rectángulo_39412" data-name="Rectángulo 39412" width="400.958" height="0.593" transform="translate(44.471 364.944)" fill="#1b1a2e"/>
        <path id="Trazado_188708" data-name="Trazado 188708" d="M147.7,214.883a2.173,2.173,0,1,1-2.173-2.173,2.173,2.173,0,0,1,2.173,2.173" transform="translate(-37.964 -56.331)" fill="#1f4168"/>
        <path id="Trazado_188709" data-name="Trazado 188709" d="M163.012,214.883a2.173,2.173,0,1,1-2.173-2.173,2.173,2.173,0,0,1,2.173,2.173" transform="translate(-42.019 -56.331)" fill="#1f4168"/>
        <path id="Trazado_188710" data-name="Trazado 188710" d="M178.324,214.883a2.173,2.173,0,1,1-2.173-2.173,2.173,2.173,0,0,1,2.173,2.173" transform="translate(-46.074 -56.331)" fill="#1f4168"/>
        <path id="Trazado_188711" data-name="Trazado 188711" d="M461.216,295.583H605.6a8.008,8.008,0,0,0,8.008-8.008V199.761a8.008,8.008,0,0,0-8.008-8.008H461.216a8.008,8.008,0,0,0-8.008,8.008v87.814a8.008,8.008,0,0,0,8.008,8.008" transform="translate(-120.021 -50.781)" fill="#fff"/>
        <path id="Trazado_188712" data-name="Trazado 188712" d="M605.566,295.646H461.181a8.116,8.116,0,0,1-8.107-8.107V199.725a8.116,8.116,0,0,1,8.107-8.107H605.566a8.116,8.116,0,0,1,8.107,8.107v87.814a8.116,8.116,0,0,1-8.107,8.107M461.181,191.816a7.918,7.918,0,0,0-7.909,7.909v87.814a7.918,7.918,0,0,0,7.909,7.909H605.566a7.918,7.918,0,0,0,7.909-7.909V199.725a7.918,7.918,0,0,0-7.909-7.909Z" transform="translate(-119.986 -50.745)" fill="#1b1a2e"/>
        <path id="Trazado_188713" data-name="Trazado 188713" d="M642.835,213.151l-1.936,1.936a15.84,15.84,0,1,1-.88-1.044l1.925-1.925a18.5,18.5,0,1,0,.89,1.033" transform="translate(-161.525 -54.609)" fill="#f0f2f5"/>
        <path id="Trazado_188714" data-name="Trazado 188714" d="M630.053,240.242A13.909,13.909,0,1,1,640.365,217l-.3.273a13.5,13.5,0,1,0,3.493,9.054,13.374,13.374,0,0,0-2.642-8.011l.329-.243a13.9,13.9,0,0,1-11.189,22.163m0-2.719a11.191,11.191,0,1,1,8.387-18.591l-.306.271a10.734,10.734,0,1,0,.828,1.061l.337-.23a11.186,11.186,0,0,1-9.246,17.49" transform="translate(-163.171 -56.255)" fill="#1f4168"/>
        <path id="Trazado_188715" data-name="Trazado 188715" d="M639.44,223.427l-2,2a6.233,6.233,0,1,1-.745-1.178l1.929-1.929a8.893,8.893,0,1,0,.814,1.109" transform="translate(-164.964 -58.049)" fill="#f0f2f5"/>
        <path id="Trazado_188716" data-name="Trazado 188716" d="M637.572,228.733a4.158,4.158,0,1,0,.151,1.114,4.136,4.136,0,0,0-.151-1.114m-4.006,2.552A1.438,1.438,0,1,1,635,229.846a1.439,1.439,0,0,1-1.438,1.438" transform="translate(-166.684 -59.768)" fill="#1f4168"/>
        <rect id="Rectángulo_39413" data-name="Rectángulo 39413" width="17.311" height="1.36" transform="translate(467.968 168.1) rotate(-45.001)" fill="#1f4168"/>
        <path id="Trazado_188717" data-name="Trazado 188717" d="M652.07,209.993l1.461-5.909,4.483-4.483v4.959h4.959l-4.483,4.482-5.909,1.462Z" transform="translate(-172.685 -52.86)" fill="#1f4168"/>
        <path id="Trazado_188718" data-name="Trazado 188718" d="M97.848,372.022H9.118a8.983,8.983,0,0,1-8.983-8.983v-88.73a8.983,8.983,0,0,1,8.983-8.983h88.73a8.983,8.983,0,0,1,8.983,8.983v88.73a8.983,8.983,0,0,1-8.983,8.983" transform="translate(-0.036 -70.265)" fill="#fff"/>
        <path id="Trazado_188719" data-name="Trazado 188719" d="M97.812,372.084H9.082A9.092,9.092,0,0,1,0,363v-88.73a9.093,9.093,0,0,1,9.082-9.082h88.73a9.093,9.093,0,0,1,9.082,9.082V363a9.092,9.092,0,0,1-9.082,9.082m-88.73-106.7A8.894,8.894,0,0,0,.2,274.273V363a8.894,8.894,0,0,0,8.885,8.884h88.73A8.9,8.9,0,0,0,106.7,363v-88.73a8.9,8.9,0,0,0-8.885-8.885Z" transform="translate(0 -70.23)" fill="#0f59a3"/>
        <path id="Trazado_188720" data-name="Trazado 188720" d="M66.8,357.341a30.418,30.418,0,1,1,30.4-30.4H95.024A28.223,28.223,0,1,0,66.8,355.162Z" transform="translate(-9.64 -78.531)" fill="#ffecb1"/>
        <path id="Trazado_188721" data-name="Trazado 188721" d="M78.225,303.941v1.37q-.362-.012-.726-.012t-.726.012v-1.37Z" transform="translate(-20.331 -80.492)" fill="#fff"/>
        <path id="Trazado_188722" data-name="Trazado 188722" d="M68.571,360.954A35.943,35.943,0,0,1,43.08,350.4l1.541-1.541a33.87,33.87,0,1,0,0-47.9l-1.541-1.541a36.058,36.058,0,1,1,25.491,61.539" transform="translate(-11.409 -76.497)" fill="#ffecb1"/>
        <path id="Trazado_188723" data-name="Trazado 188723" d="M33.282,356.74a41.633,41.633,0,0,1,0-58.926l1.541,1.541a39.533,39.533,0,0,0,0,55.844Z" transform="translate(-5.582 -78.869)" fill="#ffecb1"/>
        <path id="Trazado_188724" data-name="Trazado 188724" d="M415.179,120.2a28.516,28.516,0,0,0-49.132,26.7l-9.74,8.479,15.095,1.36a28.511,28.511,0,0,0,43.777-36.54" transform="translate(-94.359 -29.121)" fill="#fff"/>
        <path id="Trazado_188725" data-name="Trazado 188725" d="M394.207,147.882a1.992,1.992,0,1,1-1.992-1.992,1.992,1.992,0,0,1,1.992,1.992" transform="translate(-103.342 -38.635)" fill="#0f59a3"/>
        <path id="Trazado_188726" data-name="Trazado 188726" d="M406.133,147.882a1.992,1.992,0,1,1-1.992-1.992,1.992,1.992,0,0,1,1.992,1.992" transform="translate(-106.5 -38.635)" fill="#0f59a3"/>
        <path id="Trazado_188727" data-name="Trazado 188727" d="M418.059,147.882a1.992,1.992,0,1,1-1.992-1.992,1.992,1.992,0,0,1,1.992,1.992" transform="translate(-109.658 -38.635)" fill="#0f59a3"/>
        <path id="Trazado_188728" data-name="Trazado 188728" d="M356.307,171.746c1.262.065,2.522.156,3.782.251s2.517.21,3.777.313c1.256.122,2.515.235,3.771.367l1.884.2c.627.076,1.255.144,1.882.227-.632-.03-1.262-.076-1.892-.112l-1.89-.137c-1.259-.095-2.517-.21-3.776-.314-1.257-.123-2.515-.235-3.771-.367s-2.512-.268-3.766-.429" transform="translate(-94.359 -45.483)" fill="#0f59a3"/>
        <path id="Trazado_188729" data-name="Trazado 188729" d="M366.046,160.213c-.781.743-1.578,1.467-2.377,2.187s-1.612,1.426-2.417,2.14-1.628,1.407-2.453,2.1l-1.239,1.035c-.418.339-.832.683-1.255,1.017.389-.373.787-.735,1.18-1.1l1.2-1.084c.8-.72,1.612-1.426,2.417-2.14s1.629-1.406,2.453-2.1,1.651-1.381,2.494-2.052" transform="translate(-94.359 -42.429)" fill="#0f59a3"/>
        <path id="Trazado_188730" data-name="Trazado 188730" d="M374.448,156.715a28.48,28.48,0,0,0,45.248-2.076,28.156,28.156,0,0,0,4.252-9.489,28.455,28.455,0,0,0-9.205-28.334,28,28,0,0,0-9.007-5.186,28.446,28.446,0,0,0-35.188,14.8c-.049.1-.1.194-.145.293l-.125.3-.249.605-.249.605a6.535,6.535,0,0,0-.233.612l-.409,1.243c-.064.209-.146.412-.2.625l-.159.635c-.105.423-.215.846-.315,1.271l-.226,1.289-.113.645c-.029.216-.046.434-.07.651l-.133,1.3a29.484,29.484,0,0,0,1.168,10.364,29.508,29.508,0,0,1-1.226-10.367l.126-1.306c.023-.218.039-.437.067-.654l.11-.647.22-1.295c.1-.426.207-.851.31-1.276l.156-.638c.048-.214.129-.418.193-.628l.4-1.25a6.28,6.28,0,0,1,.23-.615l.247-.609.247-.609.123-.3c.045-.1.1-.2.143-.3a28.652,28.652,0,0,1,14.79-14.287,28.735,28.735,0,0,1,20.567-.65,28.231,28.231,0,0,1,9.082,5.206,28.946,28.946,0,0,1,6.611,8.124,28.619,28.619,0,0,1-1.654,29.962,28.924,28.924,0,0,1-7.44,7.357,28.511,28.511,0,0,1-37.951-5.38" transform="translate(-97.406 -29.092)" fill="#0f59a3"/>
        <path id="Trazado_188731" data-name="Trazado 188731" d="M41.561,360.489h0a7.1,7.1,0,0,1,0-10.043h0l16.583-16.583a4.008,4.008,0,0,1,5.666,0l4.376,4.376a4.008,4.008,0,0,1,0,5.666L51.6,360.487a7.1,7.1,0,0,1-10.043,0h0" transform="translate(-10.455 -88.105)" fill="#12263f"/>
        <path id="Trazado_188732" data-name="Trazado 188732" d="M82.682,325.177l-3.258-3.258,18.73-18.729,4.074-.817-.815,4.074Z" transform="translate(-21.033 -80.076)" fill="#12263f"/>
        <path id="Trazado_188733" data-name="Trazado 188733" d="M79.144,336.41l-5.768-5.768a1.322,1.322,0,1,1,1.871-1.87l5.768,5.768a1.32,1.32,0,1,1-1.867,1.867" transform="translate(-19.329 -86.965)" fill="#0f59a3"/>
        <path id="Trazado_188734" data-name="Trazado 188734" d="M62.467,317.782l-7.9-7.923c1.478-3.954-1.5-8.822-4.74-10.107l-.065,6.1a2.608,2.608,0,0,1-2.593,2.584,2.559,2.559,0,0,1-2.584-2.534l.009-6.042a8.421,8.421,0,0,0-5.251,7.366,7.831,7.831,0,0,0,6.835,7.636,6.779,6.779,0,0,0,3.814-.533l7.947,7.983Z" transform="translate(-10.419 -79.382)" fill="#12263f"/>
        <path id="Trazado_188735" data-name="Trazado 188735" d="M100.128,359.007l-.011,6.046a8.418,8.418,0,0,0,5.251-7.364,7.853,7.853,0,0,0-6.665-7.8,6.126,6.126,0,0,0-3.644.365l-8.274-8.291-4.527,4.527,8.214,8.236c-2.385,4.86,1.331,8.992,4.571,10.278l-.019-6.014a2.55,2.55,0,0,1,5.1.028" transform="translate(-21.784 -90.559)" fill="#12263f"/>
        <path id="Trazado_188736" data-name="Trazado 188736" d="M568.515,231.135a3.716,3.716,0,0,0-3.716-3.716H509.4a3.715,3.715,0,0,0-3.716,3.716v12.2a3.716,3.716,0,0,0,3.713,3.718h55.4a3.718,3.718,0,0,0,3.718-3.718Zm-18.291,6.608h-3.179v-3.179h3.179Zm8.493,1.592a3.179,3.179,0,1,1,3.179-3.179,3.179,3.179,0,0,1-3.179,3.179" transform="translate(-133.919 -60.227)" fill="#4adbd1"/>
        <path id="Trazado_188737" data-name="Trazado 188737" d="M568.515,260.508a3.718,3.718,0,0,0-3.718-3.717H509.4a3.715,3.715,0,0,0-3.716,3.715v12.2a3.715,3.715,0,0,0,3.716,3.716h55.4a3.716,3.716,0,0,0,3.718-3.713v0Zm-18.291,7.842h-3.179v-3.179h3.179Zm8.493,1.592a3.179,3.179,0,1,1,3.179-3.179,3.179,3.179,0,0,1-3.179,3.179" transform="translate(-133.919 -68.005)" fill="#4adbd1"/>
        <path id="Trazado_188738" data-name="Trazado 188738" d="M568.515,289.886a3.716,3.716,0,0,0-3.716-3.716H509.4a3.715,3.715,0,0,0-3.716,3.716v12.2A3.715,3.715,0,0,0,509.4,305.8h55.4a3.718,3.718,0,0,0,3.718-3.717Zm-18.291,9.065h-3.179v-3.179h3.179Zm8.493,1.592a3.179,3.179,0,1,1,3.179-3.179,3.179,3.179,0,0,1-3.179,3.179" transform="translate(-133.919 -75.785)" fill="#4adbd1"/>
      </g>
    </g>
  </g>
</svg>
