<svg id="Grupo_982092" data-name="Grupo 982092" xmlns="http://www.w3.org/2000/svg" xmlns:xlink="http://www.w3.org/1999/xlink" width="396.804" height="255.392" viewBox="0 0 396.804 255.392">
  <defs>
    <clipPath id="clip-path">
      <rect id="Rectángulo_58880" data-name="Rectángulo 58880" width="396.804" height="255.392" fill="none"/>
    </clipPath>
    <clipPath id="clip-path-4">
      <rect id="Rectángulo_58851" data-name="Rectángulo 58851" width="68.273" height="32.083" fill="none"/>
    </clipPath>
    <clipPath id="clip-path-5">
      <rect id="Rectángulo_58852" data-name="Rectángulo 58852" width="10.751" height="10.751" fill="none"/>
    </clipPath>
    <clipPath id="clip-path-11">
      <rect id="Rectángulo_58876" data-name="Rectángulo 58876" width="33.926" height="32.635" fill="none"/>
    </clipPath>
    <clipPath id="clip-path-12">
      <rect id="Rectángulo_58877" data-name="Rectángulo 58877" width="30.346" height="20.017" fill="none"/>
    </clipPath>
    <clipPath id="clip-path-13">
      <rect id="Rectángulo_58878" data-name="Rectángulo 58878" width="12.42" height="36.861" fill="none"/>
    </clipPath>
  </defs>
  <g id="Grupo_181221" data-name="Grupo 181221" clip-path="url(#clip-path)">
    <g id="Grupo_181187" data-name="Grupo 181187">
      <g id="Grupo_181186" data-name="Grupo 181186" clip-path="url(#clip-path)">
        <path id="Trazado_234423" data-name="Trazado 234423" d="M191.172,30.526a32.731,32.731,0,0,1,7.983-3.47l1.644-7.9,13.351-.234,1.922,7.839a32.7,32.7,0,0,1,8.1,3.187l6.747-4.423,9.606,9.276-4.182,6.9a32.69,32.69,0,0,1,3.469,7.985l7.9,1.644.234,13.351L240.111,66.6a32.727,32.727,0,0,1-3.187,8.1l4.422,6.748-9.274,9.607-6.9-4.183a32.713,32.713,0,0,1-7.984,3.469l-1.645,7.9-13.351.234-1.922-7.839a32.72,32.72,0,0,1-8.1-3.187l-6.748,4.423L175.818,82.6,180,75.7a32.715,32.715,0,0,1-3.47-7.984l-7.9-1.644L168.4,52.72l7.839-1.922a32.743,32.743,0,0,1,3.187-8.1L175,35.95l9.275-9.606Zm7.117,17.786a14.324,14.324,0,1,0,20.254-.356,14.324,14.324,0,0,0-20.254.356" transform="translate(-65.57 -7.367)" fill="#e0e0e0"/>
        <path id="Trazado_234424" data-name="Trazado 234424" d="M97.323,7.365a20.759,20.759,0,0,1,5.066-2.2L103.432.148,111.9,0l1.219,4.975A20.738,20.738,0,0,1,118.265,7l4.282-2.807,6.1,5.886-2.654,4.377a20.778,20.778,0,0,1,2.2,5.068l5.014,1.044.149,8.472-4.975,1.22a20.781,20.781,0,0,1-2.022,5.14l2.806,4.282-5.886,6.1L118.9,43.121a20.764,20.764,0,0,1-5.067,2.2l-1.044,5.015-8.472.148-1.22-4.975a20.782,20.782,0,0,1-5.14-2.022L93.675,46.3l-6.1-5.886,2.654-4.377a20.771,20.771,0,0,1-2.2-5.068l-5.014-1.044-.148-8.472,4.975-1.22a20.758,20.758,0,0,1,2.022-5.14l-2.807-4.282,5.886-6.1Zm4.516,11.287a9.09,9.09,0,1,0,12.854-.226,9.09,9.09,0,0,0-12.854.226" transform="translate(-32.267)" fill="#f5f5f5"/>
        <path id="Trazado_234425" data-name="Trazado 234425" d="M578.1,184.281a21.835,21.835,0,0,1,5.327-2.315l1.1-5.273,8.908-.156,1.282,5.231a21.818,21.818,0,0,1,5.405,2.126l4.5-2.951,6.41,6.189-2.791,4.6a21.814,21.814,0,0,1,2.315,5.328l5.272,1.1.157,8.908-5.231,1.283a21.854,21.854,0,0,1-2.127,5.4l2.951,4.5-6.189,6.41-4.6-2.791a21.822,21.822,0,0,1-5.328,2.315l-1.1,5.273-8.908.156-1.282-5.231a21.833,21.833,0,0,1-5.405-2.127l-4.5,2.952-6.41-6.189,2.791-4.6a21.809,21.809,0,0,1-2.315-5.328l-5.272-1.1-.156-8.908,5.23-1.283a21.823,21.823,0,0,1,2.127-5.4l-2.951-4.5,6.188-6.41Zm4.749,11.867a9.558,9.558,0,1,0,13.515-.238,9.558,9.558,0,0,0-13.515.238" transform="translate(-219.183 -68.74)" fill="#f5f5f5"/>
        <path id="Trazado_234426" data-name="Trazado 234426" d="M28.793,114.142a23.728,23.728,0,0,1,5.792-2.517l1.193-5.733,9.686-.17,1.394,5.687a23.706,23.706,0,0,1,5.877,2.312l4.9-3.209,6.969,6.73-3.034,5a23.724,23.724,0,0,1,2.517,5.793l5.732,1.193.17,9.686L64.3,140.311a23.743,23.743,0,0,1-2.312,5.877l3.208,4.9-6.728,6.97-5-3.035a23.71,23.71,0,0,1-5.792,2.517l-1.193,5.733-9.686.17L35.4,157.751a23.725,23.725,0,0,1-5.877-2.312l-4.9,3.209-6.97-6.728,3.034-5a23.733,23.733,0,0,1-2.517-5.792l-5.733-1.193-.17-9.686,5.687-1.395a23.755,23.755,0,0,1,2.312-5.876l-3.209-4.9,6.728-6.97Zm5.163,12.9a10.392,10.392,0,1,0,14.694-.258,10.392,10.392,0,0,0-14.694.258" transform="translate(-4.777 -41.166)" fill="#e0e0e0"/>
      </g>
    </g>
    <g id="Grupo_181195" data-name="Grupo 181195">
      <g id="Grupo_181194" data-name="Grupo 181194" clip-path="url(#clip-path)">
        <path id="Trazado_234427" data-name="Trazado 234427" d="M364.732,274.449H104.781a8.894,8.894,0,0,1-8.895-8.894V99.678a8.9,8.9,0,0,1,8.895-8.9H364.732a8.9,8.9,0,0,1,8.895,8.9V265.555a8.894,8.894,0,0,1-8.895,8.894" transform="translate(-37.336 -35.349)" fill="#455a64"/>
        <path id="Trazado_234428" data-name="Trazado 234428" d="M368.153,388.215H88.976a10.867,10.867,0,0,1-10.867-10.868v-5.2H379.021v5.2a10.868,10.868,0,0,1-10.868,10.868" transform="translate(-30.414 -144.905)" fill="#455a64"/>
        <path id="Trazado_234429" data-name="Trazado 234429" d="M278.472,369.324l3.734,5.939h52.543l3.467-5.939Z" transform="translate(-108.431 -143.807)" fill="#263238"/>
        <path id="Trazado_234430" data-name="Trazado 234430" d="M366.734,260.689h-247.8a2,2,0,0,1-2-2V113.33a2,2,0,0,1,2-2h247.8a2,2,0,0,1,2,2V258.691a2,2,0,0,1-2,2" transform="translate(-45.532 -43.35)" fill="#ebebeb"/>
        <path id="Trazado_234431" data-name="Trazado 234431" d="M368.291,268.025h-251.8l.269-138.414H368.291Z" transform="translate(-45.36 -50.468)" fill="#fff"/>
        <path id="Trazado_234432" data-name="Trazado 234432" d="M148.191,119.5a2.011,2.011,0,1,1-2.011-2.011,2.011,2.011,0,0,1,2.011,2.011" transform="translate(-56.137 -45.746)" fill="#263238"/>
        <path id="Trazado_234433" data-name="Trazado 234433" d="M128.23,119.5a2.011,2.011,0,1,1-2.011-2.011,2.011,2.011,0,0,1,2.011,2.011" transform="translate(-48.364 -45.746)" fill="#263238"/>
        <path id="Trazado_234434" data-name="Trazado 234434" d="M137.811,119.5a2.011,2.011,0,1,1-2.011-2.011,2.011,2.011,0,0,1,2.011,2.011" transform="translate(-52.095 -45.746)" fill="#263238"/>
        <path id="Trazado_234435" data-name="Trazado 234435" d="M371.24,369.21c0,.1-61.645.18-137.67.18-76.052,0-137.684-.081-137.684-.18s61.632-.18,137.684-.18c76.025,0,137.67.081,137.67.18" transform="translate(-37.336 -143.693)" fill="#263238"/>
        <path id="Trazado_234436" data-name="Trazado 234436" d="M467.036,328.535h-3.664a.305.305,0,1,1,0-.611h3.358v-3.358a.305.305,0,0,1,.611,0v3.664a.305.305,0,0,1-.305.305" transform="translate(-180.309 -126.261)" fill="#e0e0e0"/>
        <path id="Trazado_234437" data-name="Trazado 234437" d="M419.912,330.872h-7.123a.305.305,0,0,1,0-.611h7.123a.305.305,0,0,1,0,.611m-14.246,0h-7.123a.305.305,0,0,1,0-.611h7.123a.305.305,0,0,1,0,.611m-14.246,0H384.3a.305.305,0,0,1,0-.611h7.123a.305.305,0,1,1,0,.611m-14.246,0h-7.123a.305.305,0,1,1,0-.611h7.123a.305.305,0,1,1,0,.611" transform="translate(-143.972 -128.597)" fill="#e0e0e0"/>
        <path id="Trazado_234438" data-name="Trazado 234438" d="M356.051,328.535h-3.664a.305.305,0,0,1-.305-.305v-3.664a.305.305,0,0,1,.611,0v3.358h3.358a.305.305,0,0,1,0,.611" transform="translate(-137.094 -126.261)" fill="#e0e0e0"/>
        <path id="Trazado_234439" data-name="Trazado 234439" d="M352.387,288.02a.305.305,0,0,1-.305-.305V280.08a.305.305,0,0,1,.611,0v7.635a.305.305,0,0,1-.305.305m0-15.272a.305.305,0,0,1-.305-.305v-7.636a.305.305,0,0,1,.611,0v7.636a.305.305,0,0,1-.305.305m0-15.272a.305.305,0,0,1-.305-.305v-7.636a.305.305,0,1,1,.611,0v7.636a.305.305,0,0,1-.305.305" transform="translate(-137.094 -97.045)" fill="#e0e0e0"/>
        <path id="Trazado_234440" data-name="Trazado 234440" d="M352.387,235a.305.305,0,0,1-.305-.305v-3.664a.305.305,0,0,1,.305-.305h3.664a.305.305,0,0,1,0,.611h-3.358v3.358a.305.305,0,0,1-.305.305" transform="translate(-137.094 -89.839)" fill="#e0e0e0"/>
        <path id="Trazado_234441" data-name="Trazado 234441" d="M419.913,231.335H412.79a.305.305,0,1,1,0-.611h7.123a.305.305,0,0,1,0,.611m-14.246,0h-7.122a.305.305,0,1,1,0-.611h7.122a.305.305,0,0,1,0,.611m-14.246,0H384.3a.305.305,0,0,1,0-.611h7.123a.305.305,0,0,1,0,.611m-14.245,0h-7.124a.305.305,0,0,1,0-.611h7.124a.305.305,0,0,1,0,.611" transform="translate(-143.972 -89.839)" fill="#e0e0e0"/>
        <path id="Trazado_234442" data-name="Trazado 234442" d="M467.036,235a.305.305,0,0,1-.305-.305v-3.358h-3.358a.305.305,0,1,1,0-.611h3.664a.305.305,0,0,1,.305.305v3.664a.305.305,0,0,1-.305.305" transform="translate(-180.309 -89.839)" fill="#e0e0e0"/>
        <path id="Trazado_234443" data-name="Trazado 234443" d="M469.372,288.02a.305.305,0,0,1-.305-.305v-7.636a.305.305,0,0,1,.611,0v7.636a.3.3,0,0,1-.305.305m0-15.272a.305.305,0,0,1-.305-.305v-7.636a.305.305,0,0,1,.611,0v7.636a.305.305,0,0,1-.305.305m0-15.272a.305.305,0,0,1-.305-.305v-7.636a.305.305,0,1,1,.611,0v7.636a.305.305,0,0,1-.305.305" transform="translate(-182.645 -97.045)" fill="#e0e0e0"/>
        <path id="Trazado_234444" data-name="Trazado 234444" d="M352.29,27.3a10.641,10.641,0,0,0,.234,9.883c.824,1.445,2.046,2.96,1.6,4.57-.441,1.594-2.369,2.467-2.753,4.075-.453,1.893,1.429,3.5,1.841,5.4a3.88,3.88,0,0,1-2.508,4.34,15.139,15.139,0,0,0,8.143-.289l.759-3.309a2.732,2.732,0,0,0,1.605,2.974,6.326,6.326,0,0,0,3.615.328,19.335,19.335,0,0,0,14.036-9.636" transform="translate(-136.557 -10.631)" fill="#263238"/>
        <path id="Trazado_234445" data-name="Trazado 234445" d="M386.779,18.461a37.889,37.889,0,0,1-2.869-2.8c-1.745-2.284-1.843-5.737-4.164-7.439-1.652-1.21-3.914-1.116-5.954-.816s-4.172.743-6.112.073c-1.423-.49-2.6-1.539-4.017-2.035a9.135,9.135,0,0,0-6.291.6,13.035,13.035,0,0,0-5.42,3.719,7.057,7.057,0,0,0-1.5,6.188A20.5,20.5,0,0,1,351.461,19a21.949,21.949,0,0,1-.338,3.517,5.59,5.59,0,0,0,4.158,5.5l22,11.09c3.392-.284,9.763-4.9,11-8.062s.826-10.126-1.5-12.579" transform="translate(-136.374 -1.99)" fill="#263238"/>
        <path id="Trazado_234446" data-name="Trazado 234446" d="M357.011,30.131c-1.313-4.26-.472-10.426,3.868-11.588l14.276-1.724a2.605,2.605,0,0,1,3.136,1.631l10.847,30.512a.563.563,0,0,0,.863-.089.183.183,0,0,1,.316.154c-.478,2.835.082,9.449-8.468,10.012-1.911.125-5.664.277-6.73-1.5l-2.028-4.865c-.985-2.507-1.376-3.54-1.369-3.517,0,0-5.687,1.169-9.424-5.339-1.859-3.236-3.828-8.955-5.287-13.688" transform="translate(-138.792 -6.514)" fill="#ae7461"/>
        <path id="Trazado_234447" data-name="Trazado 234447" d="M364.662,46.966a.95.95,0,0,0,1.2.566.919.919,0,0,0,.62-1.155.951.951,0,0,0-1.2-.567.919.919,0,0,0-.62,1.156" transform="translate(-141.974 -17.818)" fill="#263238"/>
        <path id="Trazado_234448" data-name="Trazado 234448" d="M378.83,41.629a.95.95,0,0,0,1.2.566.918.918,0,0,0,.619-1.155.951.951,0,0,0-1.2-.567.919.919,0,0,0-.62,1.156" transform="translate(-147.491 -15.74)" fill="#263238"/>
        <path id="Trazado_234449" data-name="Trazado 234449" d="M360.672,41.9c.168.113.735-.772,1.81-1.1,1.069-.349,2.044.048,2.116-.141.038-.085-.168-.319-.6-.5a2.556,2.556,0,0,0-3.134.993c-.245.4-.277.705-.2.754" transform="translate(-140.423 -15.561)" fill="#263238"/>
        <path id="Trazado_234450" data-name="Trazado 234450" d="M376.177,36.46c.187.089.71-.856,1.814-1.323,1.1-.483,2.159-.223,2.219-.418.032-.089-.2-.292-.671-.415a2.915,2.915,0,0,0-1.849.158,2.853,2.853,0,0,0-1.37,1.231c-.224.422-.232.729-.143.766" transform="translate(-146.455 -13.325)" fill="#263238"/>
        <path id="Trazado_234451" data-name="Trazado 234451" d="M373.729,45.689a6.878,6.878,0,0,0-1.672.319c-.256.069-.507.11-.611-.041a1.32,1.32,0,0,1-.111-.787q.011-1.019.022-2.139a34.067,34.067,0,0,0-.21-5.492,34.264,34.264,0,0,0-.234,5.5c0,.746.008,1.458.013,2.138a1.5,1.5,0,0,0,.236,1.008.657.657,0,0,0,.54.2,1.794,1.794,0,0,0,.44-.1,6.77,6.77,0,0,0,1.588-.606" transform="translate(-144.426 -14.621)" fill="#263238"/>
        <path id="Trazado_234452" data-name="Trazado 234452" d="M381.465,65.972a19.2,19.2,0,0,0,8.414-6.06s-.506,5.766-7.741,7.8Z" transform="translate(-148.535 -23.329)" fill="#6f4439"/>
        <path id="Trazado_234453" data-name="Trazado 234453" d="M377.793,53.855a1.875,1.875,0,0,1,1.554-.918,1.686,1.686,0,0,1,1.244.449,1.062,1.062,0,0,1,.248,1.2,1.257,1.257,0,0,1-1.291.531,3.871,3.871,0,0,1-1.411-.584,1.127,1.127,0,0,1-.333-.258.34.34,0,0,1-.051-.378" transform="translate(-147.075 -20.612)" fill="#6f4439"/>
        <path id="Trazado_234454" data-name="Trazado 234454" d="M379.588,51.109c-.16.051.232,1.09-.384,2.171s-1.773,1.392-1.726,1.541c.01.071.325.107.8-.061a2.813,2.813,0,0,0,1.463-1.227A2.412,2.412,0,0,0,380,51.738c-.125-.449-.339-.663-.408-.629" transform="translate(-146.982 -19.899)" fill="#263238"/>
        <path id="Trazado_234455" data-name="Trazado 234455" d="M373.264,31.487c.231.184,1.041-.469,2.146-.981,1.1-.534,2.112-.746,2.118-1.043,0-.139-.283-.274-.76-.3a3.932,3.932,0,0,0-1.8.4,3.974,3.974,0,0,0-1.45,1.144c-.286.385-.362.689-.256.779" transform="translate(-145.324 -11.356)" fill="#263238"/>
        <path id="Trazado_234456" data-name="Trazado 234456" d="M358.753,37.223c.28.165,1.083-.3,2.118-.593,1.028-.32,1.959-.367,2.1-.656.059-.138-.14-.325-.581-.434a3.667,3.667,0,0,0-1.825.1,3.61,3.61,0,0,0-1.574.909c-.306.33-.365.594-.238.677" transform="translate(-139.667 -13.81)" fill="#263238"/>
        <path id="Trazado_234457" data-name="Trazado 234457" d="M379.749,15.971a6.1,6.1,0,0,0-3.677-.519,69.115,69.115,0,0,0-15.99,3.152,2.747,2.747,0,0,0,2.319,2.66,12.478,12.478,0,0,0,3.864-.095,4.819,4.819,0,0,1,3.67.842c1.019.914,1.249,2.458,2.22,3.423,1.67,1.659,4.793.971,6.453,2.64,1.256,1.262,1.13,3.3,1.659,5a6.448,6.448,0,0,0,4.1,4.145,6.578,6.578,0,0,0,4.681-.289l-7.111-17.719a6.291,6.291,0,0,0-2.186-3.236" transform="translate(-140.204 -5.996)" fill="#263238"/>
        <path id="Trazado_234458" data-name="Trazado 234458" d="M410.458,23.721c-1.3-.38-2.777-.542-3.689-1.533-1.329-1.444-.894-4.086-2.5-5.212-1.469-1.027-3.811.169-5.238-.916-1.114-.846-.91-2.159-1.6-3.04a2.994,2.994,0,0,0-3.463-.482l-2.56,15.121c1.061,4.164,1.278,6.546,3.154,8.387a19.867,19.867,0,0,1,2.968,3.133,4.082,4.082,0,0,1,.437,4.1c4.905-1.871,8.184-6.426,11.164-10.74l3.154-4.566a3.511,3.511,0,0,0,.728-1.549c.144-1.345-1.255-2.324-2.553-2.7" transform="translate(-152.406 -4.749)" fill="#263238"/>
        <path id="Trazado_234459" data-name="Trazado 234459" d="M396.04,30.166a2.486,2.486,0,0,1-.46.335,4.8,4.8,0,0,1-1.522.594,5.055,5.055,0,0,1-2.573-.125,4.892,4.892,0,0,1-2.645-2.1,5.028,5.028,0,0,1-.692-1.873,8.117,8.117,0,0,1,.057-2.16,7.636,7.636,0,0,0,.055-2.239,2.554,2.554,0,0,0-1.19-1.87,4.727,4.727,0,0,0-2.446-.076,2.391,2.391,0,0,1-1.358-.264,2.3,2.3,0,0,1-.9-1.077,14.627,14.627,0,0,1-.612-2.7,2.919,2.919,0,0,0-.557-1.2,1.84,1.84,0,0,0-1.131-.629,5.265,5.265,0,0,0-2.692.5,5.7,5.7,0,0,1-2.773.442,5.037,5.037,0,0,1-2.514-1.005,8.218,8.218,0,0,1-1.674-1.958,11.5,11.5,0,0,0-1.457-1.89,5.167,5.167,0,0,0-1.9-1.138,5.916,5.916,0,0,0-6.611,2.071,7.189,7.189,0,0,0-1.175,2.239,9.459,9.459,0,0,0-.373,2.135.531.531,0,0,1-.012-.143c0-.095-.012-.237,0-.422a6.824,6.824,0,0,1,.27-1.6,7.141,7.141,0,0,1,1.153-2.308,6.192,6.192,0,0,1,2.7-2.09,6.255,6.255,0,0,1,4.123-.117,5.415,5.415,0,0,1,2,1.183,11.683,11.683,0,0,1,1.5,1.925,7.98,7.98,0,0,0,1.621,1.887,4.755,4.755,0,0,0,2.369.939,5.407,5.407,0,0,0,2.637-.43,5.524,5.524,0,0,1,2.849-.514,2.146,2.146,0,0,1,1.309.732,3.2,3.2,0,0,1,.617,1.323,14.84,14.84,0,0,0,.591,2.652,2.016,2.016,0,0,0,.783.946,2.1,2.1,0,0,0,1.2.228c.423-.019.851-.1,1.29-.117a2.481,2.481,0,0,1,1.3.234,2.813,2.813,0,0,1,1.323,2.069,7.827,7.827,0,0,1-.068,2.317,7.936,7.936,0,0,0-.076,2.1,4.834,4.834,0,0,0,.644,1.8,4.734,4.734,0,0,0,2.515,2.055,4.993,4.993,0,0,0,2.5.17,5.7,5.7,0,0,0,2-.813" transform="translate(-139.74 -3.581)" fill="#455a64"/>
        <path id="Trazado_234460" data-name="Trazado 234460" d="M404.35,17.843a1.086,1.086,0,0,1,.336.31,1.847,1.847,0,0,1,.344,1.26,1.977,1.977,0,0,1-.308.918,2.1,2.1,0,0,1-.885.746,2.61,2.61,0,0,1-2.687-.325,3.443,3.443,0,0,1-1.011-1.271,4.824,4.824,0,0,1-.4-1.709c-.1-1.193.114-2.505-.43-3.7A2.379,2.379,0,0,0,398,12.718a2.655,2.655,0,0,0-1.971.281,6.463,6.463,0,0,1-2.148.758,1.96,1.96,0,0,1-1.174-.305,2.753,2.753,0,0,1-.833-.871,9.093,9.093,0,0,1-.811-2.168,5.018,5.018,0,0,0-1.019-1.882A5.388,5.388,0,0,0,386.5,6.707a7.748,7.748,0,0,0-3.631.81,10.811,10.811,0,0,1-3.216.949,6.9,6.9,0,0,1-2.743-.32,6.754,6.754,0,0,1-1.858-.93,4.888,4.888,0,0,1-1.265-1.223,9.474,9.474,0,0,0,1.332,1.126,6.884,6.884,0,0,0,1.842.865,6.8,6.8,0,0,0,2.671.268,10.722,10.722,0,0,0,3.14-.968,7.952,7.952,0,0,1,3.751-.855,5.652,5.652,0,0,1,3.752,1.908,5.3,5.3,0,0,1,1.082,1.985,8.958,8.958,0,0,0,.781,2.1,1.929,1.929,0,0,0,1.735,1.038,6.313,6.313,0,0,0,2.041-.728,2.934,2.934,0,0,1,2.19-.284,2.65,2.65,0,0,1,1.467,1.513,5.063,5.063,0,0,1,.39,1.954c.021.64,0,1.255.036,1.841a4.586,4.586,0,0,0,.358,1.629,3.24,3.24,0,0,0,.93,1.2,2.427,2.427,0,0,0,2.485.341,1.964,1.964,0,0,0,.834-.671,1.878,1.878,0,0,0,.311-.848,1.841,1.841,0,0,0-.277-1.215c-.164-.242-.3-.333-.286-.346" transform="translate(-145.544 -2.333)" fill="#263238"/>
        <path id="Trazado_234461" data-name="Trazado 234461" d="M344.323,52.406a2.038,2.038,0,0,0,.593,1.22,1.79,1.79,0,0,0,1.45.524,1.906,1.906,0,0,0,1.515-1.293,1.719,1.719,0,0,0-.056-1.175,3.552,3.552,0,0,0-.74-1.1,7.572,7.572,0,0,1-1.954-2.371,4.183,4.183,0,0,1,.163-3.394,4.991,4.991,0,0,1,1.112-1.468,7.354,7.354,0,0,1,1.572-1.038,9.9,9.9,0,0,0,1.556-.943,2.416,2.416,0,0,0,.9-1.388,2.918,2.918,0,0,0-.193-1.607,5.8,5.8,0,0,0-.8-1.39,12,12,0,0,1-1.717-2.545,4.588,4.588,0,0,1-.228-2.681,6,6,0,0,1,.934-2.022,11.318,11.318,0,0,0,.835-1.428,3.483,3.483,0,0,0,.31-1.355c.005,0,.012.031.018.092a1.447,1.447,0,0,1,.014.275,2.787,2.787,0,0,1-.234,1.034,10.387,10.387,0,0,1-.8,1.472,5.943,5.943,0,0,0-.868,1.975,4.4,4.4,0,0,0,.25,2.541,12.078,12.078,0,0,0,1.708,2.475,6.012,6.012,0,0,1,.85,1.451,3.193,3.193,0,0,1,.214,1.768,2.717,2.717,0,0,1-1.006,1.565,10.034,10.034,0,0,1-1.6.978,7.1,7.1,0,0,0-1.511.993,4.692,4.692,0,0,0-1.048,1.376,3.914,3.914,0,0,0-.17,3.16,7.48,7.48,0,0,0,1.879,2.3,3.742,3.742,0,0,1,.774,1.189,1.94,1.94,0,0,1,.04,1.325,2.088,2.088,0,0,1-1.7,1.4,1.969,1.969,0,0,1-2.047-1.543,1.091,1.091,0,0,1-.013-.369" transform="translate(-134.069 -10.494)" fill="#263238"/>
        <path id="Trazado_234462" data-name="Trazado 234462" d="M417.633,225.231H348.326a2.8,2.8,0,0,1-2.805-2.8V167.885a2.8,2.8,0,0,1,2.805-2.805h69.307a2.8,2.8,0,0,1,2.8,2.805v54.541a2.8,2.8,0,0,1-2.8,2.8" transform="translate(-134.539 -64.279)" fill="#f5f5f5"/>
        <path id="Trazado_234463" data-name="Trazado 234463" d="M417.531,225.13a4.449,4.449,0,0,0,.674-.1,2.8,2.8,0,0,0,1.6-1.117,2.77,2.77,0,0,0,.482-1.362c.02-.538,0-1.139,0-1.784,0-1.293-.009-2.784-.015-4.461-.012-6.719-.029-16.431-.051-28.43-.006-6-.012-12.576-.02-19.633a3.759,3.759,0,0,0-.13-1.274,2.674,2.674,0,0,0-1.753-1.734,4.2,4.2,0,0,0-1.31-.118l-5.555,0-11.6.007-51.631.013a2.653,2.653,0,0,0-2.488,1.735,4.355,4.355,0,0,0-.164,1.629v1.7q0,3.392,0,6.738,0,6.69,0,13.173c0,8.637-.006,16.968-.01,24.9q0,2.976,0,5.877v1.444a2.663,2.663,0,0,0,2.552,2.647l10.932.013,19.633.02,28.429.051,7.729.03,2.01.015c.452.005.684.017.684.017s-.232.011-.684.016l-2.01.016-7.729.029-28.429.051-19.633.02-10.944,0a2.942,2.942,0,0,1-2.439-1.484,2.981,2.981,0,0,1-.387-1.44q0-.72,0-1.445,0-2.9,0-5.877c0-7.936-.006-16.268-.009-24.9q0-6.477,0-13.173,0-3.346,0-6.738v-1.7a4.617,4.617,0,0,1,.185-1.738,2.969,2.969,0,0,1,2.785-1.944l51.631.012,11.6.007,5.555,0a4.417,4.417,0,0,1,1.39.132,2.943,2.943,0,0,1,1.927,1.911,4.045,4.045,0,0,1,.14,1.356c-.007,7.057-.013,13.63-.02,19.633-.021,12-.039,21.711-.05,28.43-.005,1.677-.01,3.168-.015,4.461-.008.647.006,1.24-.02,1.791a2.816,2.816,0,0,1-2.151,2.5,2.253,2.253,0,0,1-.681.07" transform="translate(-134.437 -64.177)" fill="#263238"/>
        <rect id="Rectángulo_58850" data-name="Rectángulo 58850" width="51.316" height="68.273" transform="matrix(0.004, -1, 1, 0.004, 214.387, 156.825)" fill="#455a64"/>
        <g id="Grupo_181190" data-name="Grupo 181190" transform="translate(214.387 125.028)" opacity="0.2">
          <g id="Grupo_181189" data-name="Grupo 181189">
            <g id="Grupo_181188" data-name="Grupo 181188" clip-path="url(#clip-path-4)">
              <path id="Trazado_234464" data-name="Trazado 234464" d="M351.1,236.553l23.979-31.8,14.688,20.018,10.064-10.627,19.542,22.691Z" transform="translate(-351.097 -204.755)"/>
            </g>
          </g>
        </g>
        <g id="Grupo_181193" data-name="Grupo 181193" transform="translate(248.673 115.81)" opacity="0.2">
          <g id="Grupo_181192" data-name="Grupo 181192">
            <g id="Grupo_181191" data-name="Grupo 181191" clip-path="url(#clip-path-5)">
              <path id="Trazado_234465" data-name="Trazado 234465" d="M418,195.058a5.376,5.376,0,1,1-5.353-5.4,5.376,5.376,0,0,1,5.353,5.4" transform="translate(-407.247 -189.66)"/>
            </g>
          </g>
        </g>
        <path id="Trazado_234466" data-name="Trazado 234466" d="M352.481,81.057s-.374-.752,1.758-3.144S371.1,70.072,371.1,70.072s5.727,6.925,11.049,2.17a14,14,0,0,0,4.482-7.656s13-.729,13.275.123l3.48,16.343-6.107.035Z" transform="translate(-137.239 -25.035)" fill="#f4a338"/>
        <path id="Trazado_234467" data-name="Trazado 234467" d="M403.239,128.4l22.632-22.6-2.885-12.363,12.174-3.581s3.606,17.264,3.123,20.3c-.933,5.883-28.705,22.695-28.705,22.695Z" transform="translate(-157.013 -34.987)" fill="#ae7461"/>
        <path id="Trazado_234468" data-name="Trazado 234468" d="M429.133,64.57a16.45,16.45,0,0,1,9.891,4.888c4.69,4.829,10.3,17.494,10.3,17.494l-15.9,3.874Z" transform="translate(-167.096 -25.142)" fill="#f4a338"/>
        <path id="Trazado_234469" data-name="Trazado 234469" d="M391.55,155.452l-6.353,3.965s-3.2,5.33-3.658,6.666a37.143,37.143,0,0,0-.9,4.682s1.384,1.263,1.948-.686l.65-1.494-.548,3.47s1.4,1.087,2.09-.76a22.4,22.4,0,0,0,.987-3.6l2.171-2.983-2.19,7.134s-.416,1.436.863,1.31c.506-.05,1.637-2.562,1.637-2.562s.927,1.205,1.7.12c.785-1.1,3.783-5.342,3.783-5.342s4.053-5.01,4.067-5.143c0-.026,2.98-2.8,2.98-2.8l-6.339-4.45-2.744,2.331a.491.491,0,0,1-.145.139" transform="translate(-148.213 -59.568)" fill="#ae7461"/>
        <path id="Trazado_234470" data-name="Trazado 234470" d="M384.027,177.941a2.359,2.359,0,0,0,.093-.4l.206-1.1.289-1.637.166-.968a5.213,5.213,0,0,1,.314-.99,17.777,17.777,0,0,1,1.845-3.182c.272-.387.5-.692.661-.9a2.545,2.545,0,0,0,.239-.335,2.368,2.368,0,0,0-.28.3c-.171.2-.414.5-.7.881a16.018,16.018,0,0,0-1.892,3.186,5.2,5.2,0,0,0-.319,1.017c-.055.335-.107.659-.158.97-.1.612-.186,1.168-.261,1.643-.067.451-.122.824-.164,1.109a2.4,2.4,0,0,0-.042.41" transform="translate(-149.532 -65.58)" fill="#6f4439"/>
        <path id="Trazado_234471" data-name="Trazado 234471" d="M396.05,171.773a.949.949,0,0,0-.147.209c-.088.139-.211.341-.361.594-.3.506-.709,1.211-1.156,2l0,0,0,0-.057.14c-.356.873-.67,1.665-.893,2.242-.11.288-.2.523-.256.686a1.052,1.052,0,0,0-.077.258,1.035,1.035,0,0,0,.125-.238c.073-.157.173-.386.3-.669.245-.567.573-1.354.929-2.227l.057-.14,0,.008c.446-.791.841-1.5,1.12-2.022.14-.259.25-.469.324-.615a.968.968,0,0,0,.1-.234" transform="translate(-153.064 -66.885)" fill="#6f4439"/>
        <path id="Trazado_234472" data-name="Trazado 234472" d="M339.374,87.616c.029.065.056.131.081.2a3.5,3.5,0,0,1,.192.948,3.07,3.07,0,0,0,.021.457,1.716,1.716,0,0,0,.126.269,4.582,4.582,0,0,1,.167,1.887,3.611,3.611,0,0,0,.349,2.021,1.332,1.332,0,0,0,1.776.548.909.909,0,0,0,.679.992,1.314,1.314,0,0,0,1.21-.376,2.443,2.443,0,0,0,.606-1.159,1,1,0,0,0,1,.97,1.546,1.546,0,0,0,1.268-.778,3.555,3.555,0,0,0,.437-1.48,17.555,17.555,0,0,1,.313-1.981s.652.1.948.132c.4.038.087.009.087.009a4.217,4.217,0,0,0,.623-1.082c.415-.854.732-1.4,1.049-2.171.238-.581.392-1.161.032-1.539-.865-.91-2.555.941-2.555.941-.239-.644-2.2-.749-2.585.109-.156-.473-.1-.746-.479-1.064a1.585,1.585,0,0,0-1.392-.35,1.134,1.134,0,0,0-.845,1.091,1.866,1.866,0,0,0-3.382.557.761.761,0,0,0-.046.257.319.319,0,0,0,.041.113c.087.164.2.31.28.482" transform="translate(-132.02 -33.125)" fill="#ae7461"/>
        <path id="Trazado_234473" data-name="Trazado 234473" d="M335.189,87.354a1.49,1.49,0,0,0-1.179.392,2.438,2.438,0,0,0-.368,1.635c.593.112.9.134,1.493.246.125.023.229-.008.333.065.274.194.229.849.34,1.166a1.141,1.141,0,0,0,1.44.615,1.531,1.531,0,0,0,.924-1.364,2.364,2.364,0,0,0-.6-1.594,3.3,3.3,0,0,0-2.38-1.161" transform="translate(-129.91 -34.013)" fill="#ae7461"/>
        <path id="Trazado_234474" data-name="Trazado 234474" d="M344.18,86.7a19.621,19.621,0,0,1,0,3.963,19.655,19.655,0,0,1-.4,3.943,19.616,19.616,0,0,1,0-3.964,19.645,19.645,0,0,1,.4-3.943" transform="translate(-133.827 -33.76)" fill="#6f4439"/>
        <path id="Trazado_234475" data-name="Trazado 234475" d="M348.734,87.337a11.165,11.165,0,0,1,.077,3.6,11.176,11.176,0,0,1-.691,3.531,29.26,29.26,0,0,1,.289-3.565,29.281,29.281,0,0,1,.324-3.562" transform="translate(-135.539 -34.007)" fill="#6f4439"/>
        <path id="Trazado_234476" data-name="Trazado 234476" d="M353.081,87.337a8.353,8.353,0,0,1-.048,2.971,11.69,11.69,0,0,1-.563,2.913,10.514,10.514,0,0,1,.164-2.961,16.446,16.446,0,0,1,.448-2.923" transform="translate(-137.223 -34.007)" fill="#6f4439"/>
        <path id="Trazado_234477" data-name="Trazado 234477" d="M337.582,87.869c0-.048.285-.112.695.076a2.228,2.228,0,0,1,1.09,1.276,4.469,4.469,0,0,1,.271,1.632c-.049.492-.405.634-.414.57-.031-.045.162-.214.129-.579a8,8,0,0,0-.363-1.481,2.418,2.418,0,0,0-.854-1.171c-.309-.217-.559-.262-.554-.323" transform="translate(-131.448 -34.195)" fill="#6f4439"/>
      </g>
    </g>
    <g id="Grupo_181197" data-name="Grupo 181197">
      <g id="Grupo_181196" data-name="Grupo 181196" clip-path="url(#clip-path)">
        <path id="Trazado_234478" data-name="Trazado 234478" d="M263.715,298.392H177.544a5.282,5.282,0,0,1-5.282-5.282V249.895a5.282,5.282,0,0,1,5.282-5.282h86.171A5.282,5.282,0,0,1,269,249.895V293.11a5.282,5.282,0,0,1-5.282,5.282" transform="translate(-67.075 -95.247)" fill="#fff"/>
        <path id="Trazado_234479" data-name="Trazado 234479" d="M263.613,298.29c0-.015.257,0,.748-.076a5.173,5.173,0,0,0,2.046-.767,5.234,5.234,0,0,0,2.159-2.755,6.136,6.136,0,0,0,.275-2.248q0-1.228-.007-2.614c-.012-7.393-.029-18.08-.051-31.284q0-2.477-.005-5.069,0-1.3,0-2.621a8.273,8.273,0,0,0-.241-2.615,5.192,5.192,0,0,0-3.791-3.474,5.958,5.958,0,0,0-1.374-.127h-1.425l-2.887,0-24.794.015-56.814.012a5.173,5.173,0,0,0-3.352,1.249,5.064,5.064,0,0,0-1.715,3.112,13.31,13.31,0,0,0-.063,1.837q0,.93,0,1.857v3.694q0,7.361,0,14.5t0,13.991q0,3.429,0,6.783c.008.554-.018,1.127.017,1.662a5.021,5.021,0,0,0,.354,1.569,5.137,5.137,0,0,0,2.015,2.421,5.232,5.232,0,0,0,3.018.8h3.212l6.294,0,12.036.008,21.6.02,31.282.051,8.505.03,2.212.015c.5.006.754.017.754.017s-.255.011-.754.016l-2.212.015-8.505.03-31.282.051-21.6.02-12.036.008-6.294,0h-3.212a5.522,5.522,0,0,1-3.175-.846,5.431,5.431,0,0,1-2.132-2.559,5.3,5.3,0,0,1-.376-1.659c-.037-.575-.01-1.118-.019-1.682q0-3.354,0-6.783,0-6.857,0-13.991t0-14.5q0-1.841,0-3.694v-1.857a13.532,13.532,0,0,1,.066-1.884,5.382,5.382,0,0,1,1.821-3.306,5.488,5.488,0,0,1,3.56-1.326l56.814.012,24.794.015,2.887,0h1.425a6.263,6.263,0,0,1,1.429.135,5.443,5.443,0,0,1,3.97,3.65,8.492,8.492,0,0,1,.247,2.689q0,1.324,0,2.621,0,2.592-.005,5.069c-.021,13.2-.038,23.891-.051,31.284q0,1.385-.007,2.614a6.222,6.222,0,0,1-.295,2.279,5.29,5.29,0,0,1-2.214,2.778,5.117,5.117,0,0,1-2.075.745,3.854,3.854,0,0,1-.563.042c-.126,0-.19,0-.19,0" transform="translate(-66.973 -95.146)" fill="#263238"/>
        <rect id="Rectángulo_58854" data-name="Rectángulo 58854" width="14.369" height="2.71" transform="translate(115.507 158.452)" fill="#4adbd1"/>
        <rect id="Rectángulo_58855" data-name="Rectángulo 58855" width="14.369" height="2.711" transform="translate(115.507 191.663)" fill="#4adbd1"/>
        <rect id="Rectángulo_58856" data-name="Rectángulo 58856" width="24.739" height="2.711" transform="translate(115.507 165.171)" fill="#e0e0e0"/>
        <rect id="Rectángulo_58857" data-name="Rectángulo 58857" width="10.934" height="2.711" transform="translate(144.627 165.171)" fill="#4adbd1"/>
        <rect id="Rectángulo_58858" data-name="Rectángulo 58858" width="7.189" height="2.711" transform="translate(180.953 165.171)" fill="#263238"/>
        <rect id="Rectángulo_58859" data-name="Rectángulo 58859" width="19.039" height="2.711" transform="translate(159.405 165.171)" fill="#455a64"/>
        <rect id="Rectángulo_58860" data-name="Rectángulo 58860" width="24.739" height="2.71" transform="translate(163.403 171.58)" fill="#e0e0e0"/>
        <rect id="Rectángulo_58861" data-name="Rectángulo 58861" width="10.934" height="2.71" transform="translate(148.086 171.58)" fill="#455a64"/>
        <rect id="Rectángulo_58862" data-name="Rectángulo 58862" width="7.189" height="2.71" transform="translate(115.507 171.58)" fill="#263238"/>
        <rect id="Rectángulo_58863" data-name="Rectángulo 58863" width="19.039" height="2.71" transform="translate(125.205 171.58)" fill="#4adbd1"/>
        <rect id="Rectángulo_58864" data-name="Rectángulo 58864" width="24.739" height="2.711" transform="translate(115.507 178.161)" fill="#e0e0e0"/>
        <rect id="Rectángulo_58865" data-name="Rectángulo 58865" width="10.934" height="2.711" transform="translate(144.627 178.161)" fill="#263238"/>
        <rect id="Rectángulo_58866" data-name="Rectángulo 58866" width="7.189" height="2.71" transform="translate(180.953 178.162)" fill="#263238"/>
        <rect id="Rectángulo_58867" data-name="Rectángulo 58867" width="7.189" height="2.71" transform="translate(139.008 184.868)" fill="#4adbd1"/>
        <rect id="Rectángulo_58868" data-name="Rectángulo 58868" width="19.039" height="2.711" transform="translate(159.405 178.161)" fill="#455a64"/>
        <rect id="Rectángulo_58869" data-name="Rectángulo 58869" width="19.039" height="2.71" transform="translate(114.987 184.868)" fill="#455a64"/>
      </g>
    </g>
    <g id="Grupo_181199" data-name="Grupo 181199">
      <g id="Grupo_181198" data-name="Grupo 181198" clip-path="url(#clip-path)">
        <path id="Trazado_234480" data-name="Trazado 234480" d="M448.93,314.233H418.812a4.947,4.947,0,0,1-4.947-4.947V280.324a4.947,4.947,0,0,1,4.947-4.947H448.93a4.947,4.947,0,0,1,4.947,4.947v28.962a4.947,4.947,0,0,1-4.947,4.947" transform="translate(-161.151 -107.226)" fill="#fafafa"/>
        <path id="Trazado_234481" data-name="Trazado 234481" d="M448.831,314.131a6.675,6.675,0,0,0,1.483-.261A5.083,5.083,0,0,0,451.9,313a4.875,4.875,0,0,0,1.784-3.409c.037-.512.008-1.07.014-1.641q-.006-1.725-.013-3.738c-.007-2.684-.015-5.737-.023-9.112s-.013-7.074-.02-11.043q0-1.488,0-3.027a9.875,9.875,0,0,0-.062-1.527,4.523,4.523,0,0,0-.464-1.45,4.783,4.783,0,0,0-2.192-2.148,4.63,4.63,0,0,0-1.521-.446c-.526-.054-1.088-.031-1.644-.035l-29.041.012a4.785,4.785,0,0,0-4.785,4.651q0,3.761-.01,7.4c0,4.858-.006,9.544-.009,14.008q0,3.348-.007,6.523c.007.524-.019,1.064.018,1.563a5.056,5.056,0,0,0,.351,1.459,4.843,4.843,0,0,0,4.585,2.96l2.819,0,5.3.01,15.99.051,4.348.03,1.13.015c.255.005.385.016.385.016s-.131.011-.385.016l-1.13.015-4.348.03-15.99.051-5.3.01-2.819,0a5.107,5.107,0,0,1-4.836-3.111,5.328,5.328,0,0,1-.375-1.542c-.041-.541-.014-1.052-.023-1.585q0-3.172-.007-6.523c0-4.464-.006-9.15-.009-14.008q0-3.645,0-7.414a5.1,5.1,0,0,1,5.1-4.96l29.041.013c.558.006,1.108-.018,1.679.041a4.906,4.906,0,0,1,1.612.476,5.06,5.06,0,0,1,2.316,2.279,6.014,6.014,0,0,1,.549,3.1q0,1.538,0,3.027c-.007,3.969-.014,7.666-.02,11.043s-.016,6.428-.024,9.112q-.006,2.01-.013,3.738c-.011.576.015,1.119-.028,1.653a5.133,5.133,0,0,1-.354,1.466,4.889,4.889,0,0,1-4.255,3.063c-.256.007-.386,0-.386,0" transform="translate(-161.051 -107.125)" fill="#263238"/>
        <path id="Trazado_234482" data-name="Trazado 234482" d="M428.335,290.371h21.816l.036,7.307h-1.044q-.513-3.921-2.937-5.306a9.044,9.044,0,0,0-4.07-.833v19.089a3.689,3.689,0,0,0,.7,2.656,4.49,4.49,0,0,0,2.911.655v.92H432.829v-.92a4.259,4.259,0,0,0,2.823-.664,3.69,3.69,0,0,0,.7-2.647V291.539a9.276,9.276,0,0,0-4.07.833q-2.6,1.42-2.937,5.306H428.3Z" transform="translate(-166.771 -113.065)" fill="#263238"/>
      </g>
    </g>
    <g id="Grupo_181201" data-name="Grupo 181201">
      <g id="Grupo_181200" data-name="Grupo 181200" clip-path="url(#clip-path)">
        <path id="Trazado_234483" data-name="Trazado 234483" d="M490.505,176.639V249.7a3.928,3.928,0,0,0,3.928,3.928h47.1a3.928,3.928,0,0,0,3.928-3.928V176.639a3.928,3.928,0,0,0-3.928-3.928h-47.1a3.928,3.928,0,0,0-3.928,3.928" transform="translate(-190.993 -67.25)" fill="#fff"/>
        <path id="Trazado_234484" data-name="Trazado 234484" d="M490.414,176.557s0-.058,0-.173a2.942,2.942,0,0,1,.046-.51,3.9,3.9,0,0,1,.816-1.823,3.948,3.948,0,0,1,2.852-1.458c1.3-.026,2.781-.016,4.458-.025l28.4-.051,9.41-.01,5.005,0a4.073,4.073,0,0,1,3.966,3.015,4.644,4.644,0,0,1,.141,1.349q0,.667,0,1.338,0,1.345,0,2.711,0,2.731,0,5.548,0,5.632.006,11.582c0,15.852.009,33.278.013,51.57a4.118,4.118,0,0,1-1.451,3.128,4.024,4.024,0,0,1-1.555.817,6.062,6.062,0,0,1-1.726.149h-6.73l-13.158,0-24.875-.009h-1.482a4.5,4.5,0,0,1-1.5-.21,4.055,4.055,0,0,1-2.743-3.3,12.012,12.012,0,0,1-.043-1.451q0-1.429,0-2.837,0-5.633.008-10.925c.007-7.049.013-13.616.02-19.611.021-11.985.038-21.684.051-28.4.013-3.347.023-5.949.03-7.72.007-.877.012-1.548.015-2.008s.016-.684.016-.684.011.231.017.684.009,1.13.015,2.008c.007,1.771.017,4.373.03,7.72.012,6.711.029,16.41.051,28.4.006,6,.012,12.562.02,19.611q0,5.287.008,10.925,0,1.408,0,2.837a11.821,11.821,0,0,0,.042,1.411,3.766,3.766,0,0,0,2.552,3.061,4.184,4.184,0,0,0,1.4.194h1.482l24.875-.009,13.158,0h6.73a5.779,5.779,0,0,0,1.642-.138,3.7,3.7,0,0,0,1.434-.754,3.8,3.8,0,0,0,1.339-2.885c0-18.292.009-35.718.013-51.57q0-5.944.007-11.582,0-2.816,0-5.548,0-1.367,0-2.711,0-.671,0-1.338a4.368,4.368,0,0,0-.13-1.281,3.812,3.812,0,0,0-3.711-2.827l-5.005,0-9.41-.01-28.4-.051c-1.675,0-3.168-.02-4.453,0a3.885,3.885,0,0,0-2.807,1.4,3.936,3.936,0,0,0-.834,1.788c-.084.443-.06.679-.079.678" transform="translate(-190.902 -67.168)" fill="#263238"/>
        <path id="Trazado_234485" data-name="Trazado 234485" d="M514.619,249.294h-.173a1.5,1.5,0,0,1-1.5-1.5V197.207a1.5,1.5,0,0,1,1.5-1.5h.173a1.5,1.5,0,0,1,1.5,1.5V247.8a1.5,1.5,0,0,1-1.5,1.5" transform="translate(-199.732 -76.206)" fill="#e0e0e0"/>
        <path id="Trazado_234486" data-name="Trazado 234486" d="M514.5,249.174a1.626,1.626,0,0,0,1-.433c.654-.5.39-1.694.429-3.072-.014-2.827-.034-6.883-.058-11.887-.012-5.025-.024-11-.039-17.63,0-3.318-.007-6.8-.011-10.41q0-2.707,0-5.507,0-1.4,0-2.816a2.527,2.527,0,0,0-.043-.66,1.275,1.275,0,0,0-.292-.546,1.367,1.367,0,0,0-1.151-.44,1.323,1.323,0,0,0-1.075.556,1.294,1.294,0,0,0-.228.575c-.026.194-.01.455-.015.685q0,1.418,0,2.817,0,2.8,0,5.508c0,3.611-.007,7.094-.011,10.413-.015,6.632-.028,12.606-.039,17.63-.024,5-.044,9.06-.058,11.886q-.008,1.048-.015,1.864a1.458,1.458,0,0,0,.574,1.142,1.483,1.483,0,0,0,.757.3c.186.018.285.016.285.024a1.481,1.481,0,0,1-.288.013,1.463,1.463,0,0,1-.8-.278,1.535,1.535,0,0,1-.639-1.2c-.005-.543-.012-1.167-.018-1.866-.014-2.826-.034-6.882-.058-11.886-.011-5.024-.024-11-.039-17.63,0-3.319-.007-6.8-.011-10.413q0-2.708,0-5.508,0-1.4,0-2.817a6.915,6.915,0,0,1,.018-.735,1.65,1.65,0,0,1,.292-.736,1.687,1.687,0,0,1,1.373-.71,1.738,1.738,0,0,1,1.423.562,1.643,1.643,0,0,1,.373.7,2.884,2.884,0,0,1,.055.752q0,1.418,0,2.816,0,2.8,0,5.507c0,3.61-.007,7.092-.01,10.41-.015,6.631-.028,12.605-.039,17.63-.025,5-.045,9.06-.058,11.887q-.01,1.049-.017,1.865a1.57,1.57,0,0,1-.5,1.26,1.341,1.341,0,0,1-1.048.379" transform="translate(-199.614 -76.086)" fill="#263238"/>
        <path id="Trazado_234487" data-name="Trazado 234487" d="M534.584,249.294h-.173a1.5,1.5,0,0,1-1.5-1.5V197.207a1.5,1.5,0,0,1,1.5-1.5h.173a1.5,1.5,0,0,1,1.5,1.5V247.8a1.5,1.5,0,0,1-1.5,1.5" transform="translate(-207.506 -76.206)" fill="#e0e0e0"/>
        <path id="Trazado_234488" data-name="Trazado 234488" d="M534.467,249.174a1.626,1.626,0,0,0,1-.433c.654-.5.39-1.694.429-3.072-.014-2.827-.034-6.883-.058-11.887-.012-5.025-.025-11-.039-17.63,0-3.318-.007-6.8-.011-10.41q0-2.707,0-5.507,0-1.4,0-2.816a2.513,2.513,0,0,0-.043-.66,1.273,1.273,0,0,0-.292-.546,1.367,1.367,0,0,0-1.15-.44,1.322,1.322,0,0,0-1.075.556,1.294,1.294,0,0,0-.228.575c-.025.194-.01.455-.015.685q0,1.418,0,2.817,0,2.8,0,5.508c0,3.611-.007,7.094-.011,10.413-.015,6.632-.028,12.606-.039,17.63-.024,5-.044,9.06-.058,11.886q-.008,1.048-.015,1.864a1.46,1.46,0,0,0,.574,1.142,1.484,1.484,0,0,0,.757.3c.186.018.285.016.285.024a1.483,1.483,0,0,1-.288.013,1.463,1.463,0,0,1-.8-.278,1.535,1.535,0,0,1-.639-1.2c-.005-.543-.012-1.167-.018-1.866-.014-2.826-.034-6.882-.058-11.886-.011-5.024-.024-11-.039-17.63,0-3.319-.007-6.8-.011-10.413q0-2.708,0-5.508,0-1.4,0-2.817a6.866,6.866,0,0,1,.018-.735,1.65,1.65,0,0,1,.292-.736,1.687,1.687,0,0,1,1.373-.71,1.738,1.738,0,0,1,1.423.562,1.651,1.651,0,0,1,.374.7,2.869,2.869,0,0,1,.054.752q0,1.418,0,2.816,0,2.8,0,5.507c0,3.61-.007,7.092-.01,10.41-.015,6.631-.028,12.605-.039,17.63-.024,5-.045,9.06-.058,11.887q-.01,1.049-.017,1.865a1.568,1.568,0,0,1-.5,1.26,1.34,1.34,0,0,1-1.048.379" transform="translate(-207.388 -76.086)" fill="#263238"/>
        <path id="Trazado_234489" data-name="Trazado 234489" d="M554.549,249.294h-.173a1.5,1.5,0,0,1-1.5-1.5V197.207a1.5,1.5,0,0,1,1.5-1.5h.173a1.5,1.5,0,0,1,1.5,1.5V247.8a1.5,1.5,0,0,1-1.5,1.5" transform="translate(-215.28 -76.206)" fill="#e0e0e0"/>
        <path id="Trazado_234490" data-name="Trazado 234490" d="M554.431,249.174a1.626,1.626,0,0,0,1-.433c.654-.5.39-1.694.429-3.072-.014-2.827-.034-6.883-.058-11.887-.012-5.025-.024-11-.039-17.63,0-3.318-.007-6.8-.011-10.41q0-2.707,0-5.507,0-1.4,0-2.816a2.541,2.541,0,0,0-.044-.66,1.272,1.272,0,0,0-.292-.546,1.367,1.367,0,0,0-1.15-.44,1.322,1.322,0,0,0-1.075.556,1.293,1.293,0,0,0-.228.575c-.026.194-.01.455-.015.685q0,1.418,0,2.817,0,2.8,0,5.508c0,3.611-.007,7.094-.011,10.413-.015,6.632-.028,12.606-.039,17.63-.024,5-.044,9.06-.058,11.886q-.008,1.048-.015,1.864a1.46,1.46,0,0,0,.574,1.142,1.483,1.483,0,0,0,.757.3c.186.018.285.016.285.024a1.483,1.483,0,0,1-.288.013,1.46,1.46,0,0,1-.8-.278,1.533,1.533,0,0,1-.639-1.2c-.005-.543-.012-1.167-.018-1.866-.013-2.826-.034-6.882-.058-11.886-.011-5.024-.025-11-.039-17.63,0-3.319-.007-6.8-.011-10.413q0-2.708,0-5.508,0-1.4,0-2.817a6.913,6.913,0,0,1,.018-.735,1.653,1.653,0,0,1,.292-.736,1.687,1.687,0,0,1,1.373-.71,1.74,1.74,0,0,1,1.423.562,1.657,1.657,0,0,1,.373.7,2.887,2.887,0,0,1,.054.752q0,1.418,0,2.816,0,2.8,0,5.507c0,3.61-.007,7.092-.01,10.41-.015,6.631-.028,12.605-.039,17.63-.024,5-.045,9.06-.058,11.887q-.009,1.049-.017,1.865a1.568,1.568,0,0,1-.5,1.26,1.341,1.341,0,0,1-1.048.379" transform="translate(-215.162 -76.086)" fill="#263238"/>
        <path id="Trazado_234491" data-name="Trazado 234491" d="M512.875,232.908h-.581a3.081,3.081,0,0,1,0-6.163h.581a3.081,3.081,0,1,1,0,6.163" transform="translate(-198.277 -88.29)" fill="#12263f"/>
        <path id="Trazado_234492" data-name="Trazado 234492" d="M534.144,251.935h-.581a3.081,3.081,0,1,1,0-6.163h.581a3.081,3.081,0,0,1,0,6.163" transform="translate(-206.559 -95.699)" fill="#12263f"/>
        <path id="Trazado_234493" data-name="Trazado 234493" d="M553.385,216.075H552.8a3.082,3.082,0,0,1-3.082-3.081h0a3.082,3.082,0,0,1,3.082-3.081h.581a3.081,3.081,0,0,1,0,6.163" transform="translate(-214.051 -81.736)" fill="#12263f"/>
      </g>
    </g>
    <g id="Grupo_181209" data-name="Grupo 181209">
      <g id="Grupo_181208" data-name="Grupo 181208" clip-path="url(#clip-path)">
        <path id="Trazado_234494" data-name="Trazado 234494" d="M548.741,110.25H483.448a5.087,5.087,0,0,1-5.088-5.088V39.87a5.088,5.088,0,0,1,5.088-5.088h65.293a5.088,5.088,0,0,1,5.088,5.088v65.293a5.087,5.087,0,0,1-5.088,5.088" transform="translate(-186.264 -13.543)" fill="#fff"/>
        <path id="Trazado_234495" data-name="Trazado 234495" d="M548.638,110.149c0-.016.258,0,.751-.078a5.053,5.053,0,0,0,4.1-3.641,7.739,7.739,0,0,0,.186-2.273q0-1.234-.007-2.624c-.012-7.423-.029-18.153-.051-31.411-.006-6.631-.013-13.894-.02-21.69q0-2.924,0-5.946c-.008-1,.015-2.032-.018-3.037a4.938,4.938,0,0,0-3.56-4.429,11.979,11.979,0,0,0-3.123-.2l-6.492,0-57.044.013a4.939,4.939,0,0,0-4.913,4.49c-.045,2.469-.013,4.972-.023,7.43q0,7.392,0,14.555c0,9.542-.006,18.747-.009,27.515q0,6.576-.007,12.813,0,1.558,0,3.093a5.112,5.112,0,0,0,.693,2.847,4.682,4.682,0,0,0,.92,1.132,4.61,4.61,0,0,0,1.2.811,5.679,5.679,0,0,0,2.814.493l21.692.02,31.408.051,8.54.03,2.221.015c.5.006.756.016.756.016s-.256.011-.756.016l-2.221.015-8.54.03-31.408.051-21.692.02a5.952,5.952,0,0,1-2.93-.515,4.862,4.862,0,0,1-1.265-.853,4.972,4.972,0,0,1-.972-1.193,5.4,5.4,0,0,1-.735-2.985q0-1.535,0-3.093,0-6.23-.007-12.813c0-8.768-.006-17.972-.009-27.515q0-7.157,0-14.555c.01-2.47-.024-4.933.023-7.458a5.257,5.257,0,0,1,5.23-4.78l57.044.012,6.492,0h1.6a5.543,5.543,0,0,1,1.606.209,5.219,5.219,0,0,1,3.757,4.683c.033,1.04.008,2.043.015,3.054q0,3.022,0,5.946c-.007,7.8-.014,15.06-.02,21.69-.021,13.258-.038,23.988-.051,31.411q0,1.39-.007,2.624a7.805,7.805,0,0,1-.2,2.3,5.147,5.147,0,0,1-2.11,2.871,5.053,5.053,0,0,1-2.073.776,3.782,3.782,0,0,1-.565.045c-.126,0-.191,0-.191,0" transform="translate(-186.161 -13.442)" fill="#263238"/>
        <path id="Trazado_234502" data-name="Trazado 234502" d="M508.376,116.068a6.745,6.745,0,1,1-6.744-6.744,6.744,6.744,0,0,1,6.744,6.744" transform="translate(-192.699 -42.569)" fill="#ff725e"/>
        <path id="Trazado_234503" data-name="Trazado 234503" d="M542.6,116.068a6.745,6.745,0,1,1-6.744-6.744,6.744,6.744,0,0,1,6.744,6.744" transform="translate(-206.025 -42.569)" fill="#5573c6"/>
        <path id="Trazado_234577" data-name="Trazado 234577" d="M558.013,123.774a14.451,14.451,0,1,1-14.45-14.45,14.45,14.45,0,0,1,14.45,14.45" transform="translate(-213.645 -79.544)" fill="#373f51"/>
        <path id="Trazado_234504" data-name="Trazado 234504" d="M576.825,116.068a6.745,6.745,0,1,1-6.745-6.744,6.745,6.745,0,0,1,6.745,6.744" transform="translate(-219.352 -42.569)" fill="#f4a338"/>
        <g id="Grupo_181204" data-name="Grupo 181204" transform="translate(302.188 66.755)" opacity="0">
          <g id="Grupo_181203" data-name="Grupo 181203" transform="translate(0 0)">
            <g id="Grupo_181223" data-name="Grupo 181223">
              <path id="Trazado_234505" data-name="Trazado 234505" d="M508.376,116.068a6.745,6.745,0,1,1-6.744-6.744,6.744,6.744,0,0,1,6.744,6.744" transform="translate(-494.887 -109.324)" fill="#4adbd1"/>
            </g>
          </g>
        </g>
        <path id="Trazado_234507" data-name="Trazado 234507" d="M508.27,115.981A14.51,14.51,0,0,0,508,114.35a6.722,6.722,0,0,0-2.461-3.636,6.6,6.6,0,0,0-6.254-.923,6.61,6.61,0,0,0-3.054,2.3,6.558,6.558,0,0,0,0,7.779,6.6,6.6,0,0,0,3.055,2.3,6.6,6.6,0,0,0,6.255-.923A6.723,6.723,0,0,0,508,117.612a14.484,14.484,0,0,0,.274-1.631,5.224,5.224,0,0,1-.148,1.663,6.805,6.805,0,0,1-5.327,5.1,6.888,6.888,0,0,1-3.62-.282,6.9,6.9,0,0,1-3.214-2.4,6.859,6.859,0,0,1,0-8.167,6.892,6.892,0,0,1,3.213-2.4,6.888,6.888,0,0,1,3.62-.282,6.8,6.8,0,0,1,5.327,5.1,5.224,5.224,0,0,1,.148,1.663" transform="translate(-192.593 -42.481)" fill="#263238"/>
        <path id="Trazado_234508" data-name="Trazado 234508" d="M542.494,115.981a14.51,14.51,0,0,0-.274-1.631,6.722,6.722,0,0,0-2.461-3.636,6.606,6.606,0,0,0-6.254-.923,6.61,6.61,0,0,0-3.054,2.3,6.558,6.558,0,0,0,0,7.779,6.6,6.6,0,0,0,3.055,2.3,6.6,6.6,0,0,0,6.255-.923,6.722,6.722,0,0,0,2.461-3.636,14.484,14.484,0,0,0,.274-1.631,5.226,5.226,0,0,1-.148,1.663,6.8,6.8,0,0,1-5.326,5.1,6.888,6.888,0,0,1-3.62-.282,6.9,6.9,0,0,1-3.214-2.4,6.859,6.859,0,0,1,0-8.167,6.891,6.891,0,0,1,3.213-2.4,6.887,6.887,0,0,1,3.62-.282,6.8,6.8,0,0,1,5.326,5.1,5.226,5.226,0,0,1,.148,1.663" transform="translate(-205.919 -42.481)" fill="#263238"/>
        <path id="Trazado_234578" data-name="Trazado 234578" d="M558.1,123.843a31.116,31.116,0,0,0-.588-3.495,14.4,14.4,0,0,0-5.274-7.791,14.153,14.153,0,0,0-13.4-1.977,14.162,14.162,0,0,0-6.544,4.928,14.051,14.051,0,0,0,0,16.667,14.146,14.146,0,0,0,6.545,4.93,14.151,14.151,0,0,0,13.4-1.978,14.4,14.4,0,0,0,5.272-7.79,31.063,31.063,0,0,0,.588-3.494,11.2,11.2,0,0,1-.317,3.563,14.58,14.58,0,0,1-11.412,10.924,14.758,14.758,0,0,1-7.757-.6,14.774,14.774,0,0,1-6.886-5.134,14.7,14.7,0,0,1,0-17.5,14.765,14.765,0,0,1,6.885-5.132,14.756,14.756,0,0,1,7.757-.6,14.58,14.58,0,0,1,11.412,10.924,11.2,11.2,0,0,1,.317,3.563" transform="translate(-213.729 -79.614)" fill="#263238"/>
        <path id="Trazado_234509" data-name="Trazado 234509" d="M576.7,115.981a14.492,14.492,0,0,0-.274-1.631,6.722,6.722,0,0,0-2.461-3.636,6.606,6.606,0,0,0-6.254-.923,6.609,6.609,0,0,0-3.054,2.3,6.558,6.558,0,0,0,0,7.779,6.6,6.6,0,0,0,3.055,2.3,6.6,6.6,0,0,0,6.255-.923,6.719,6.719,0,0,0,2.461-3.636,14.466,14.466,0,0,0,.274-1.631,5.223,5.223,0,0,1-.148,1.663,6.714,6.714,0,0,1-2.444,3.792,6.784,6.784,0,0,1-2.882,1.307,6.889,6.889,0,0,1-3.62-.282,6.9,6.9,0,0,1-3.214-2.4,6.859,6.859,0,0,1,0-8.167,6.892,6.892,0,0,1,3.213-2.4,6.887,6.887,0,0,1,3.62-.282,6.779,6.779,0,0,1,2.882,1.307,6.712,6.712,0,0,1,2.444,3.792,5.223,5.223,0,0,1,.148,1.663" transform="translate(-219.238 -42.481)" fill="#263238"/>
      </g>
    </g>
    <g id="Grupo_181220" data-name="Grupo 181220">
      <g id="Grupo_181219" data-name="Grupo 181219" clip-path="url(#clip-path)">
        <path id="Trazado_234510" data-name="Trazado 234510" d="M84.716,148.509a2.991,2.991,0,0,0,2.4,1.545,7.334,7.334,0,0,0,1.058-.241c.329.228.176,1.391-.079,1.7a6.28,6.28,0,0,1-.779.712c1.107.686,2.17.448,3.418.076a6,6,0,0,1-3.854,4.583,2.107,2.107,0,0,1-1.926-.082,2.424,2.424,0,0,1-.753-1.552,26.282,26.282,0,0,1-.46-6.459Z" transform="translate(-32.591 -57.826)" fill="#263238"/>
        <path id="Trazado_234511" data-name="Trazado 234511" d="M42.449,155.376l-1.707,27.67c-.289,4.705.245,11.677,7.705,11.8,6.481-.385,8.491-6.4,8.758-10.794.126-2.083.236-3.82.263-4.033,0,0,7.084-.228,8.024-7.169.453-3.354.825-10.338,1.088-16.661A13.046,13.046,0,0,0,55.13,142.7l-.67-.082c-7.284-.465-11.747,5.461-12.01,12.755" transform="translate(-15.842 -55.524)" fill="#ffc09d"/>
        <path id="Trazado_234512" data-name="Trazado 234512" d="M62.62,201.445a16.915,16.915,0,0,1-8.722-3.786s1.585,5.348,8.6,5.573Z" transform="translate(-20.987 -76.964)" fill="#ff9b6c"/>
        <path id="Trazado_234513" data-name="Trazado 234513" d="M60.286,167c-.145.134-.918-.553-2.085-.642-1.164-.106-2.066.441-2.182.285-.057-.07.1-.321.494-.569a2.922,2.922,0,0,1,1.76-.407,2.822,2.822,0,0,1,1.646.692c.337.31.438.582.367.641" transform="translate(-21.809 -64.504)" fill="#263238"/>
        <path id="Trazado_234514" data-name="Trazado 234514" d="M61.892,172.846a.946.946,0,0,1-1.022.837.905.905,0,0,1-.864-.965.947.947,0,0,1,1.021-.837.9.9,0,0,1,.865.966" transform="translate(-23.364 -66.926)" fill="#263238"/>
        <path id="Trazado_234515" data-name="Trazado 234515" d="M67.149,175.684a7.134,7.134,0,0,1,1.773-.1c.276.005.541-.017.61-.2a1.4,1.4,0,0,0-.083-.83q-.264-1.038-.552-2.176a35.935,35.935,0,0,1-1.145-5.655,35.98,35.98,0,0,1,1.6,5.549q.27,1.144.517,2.184a1.6,1.6,0,0,1,.01,1.088.689.689,0,0,1-.5.344,1.9,1.9,0,0,1-.471.008,7.021,7.021,0,0,1-1.759-.214" transform="translate(-26.146 -64.919)" fill="#263238"/>
        <path id="Trazado_234516" data-name="Trazado 234516" d="M61.012,161.085c-.15.24-1.047-.092-2.163-.2-1.114-.133-2.065,0-2.157-.267-.039-.126.169-.337.58-.509a3.669,3.669,0,0,1,3.291.357c.361.256.516.506.449.62" transform="translate(-22.073 -62.251)" fill="#263238"/>
        <path id="Trazado_234517" data-name="Trazado 234517" d="M78.2,164.007c-.133.205-1.033-.075-2.135-.162-1.1-.109-2.025.008-2.132-.219-.046-.108.145-.288.539-.437A3.877,3.877,0,0,1,76.116,163a3.994,3.994,0,0,1,1.6.48c.37.217.537.429.478.528" transform="translate(-28.785 -63.462)" fill="#263238"/>
        <path id="Trazado_234518" data-name="Trazado 234518" d="M39.908,171.076c-.112-.066-4.6-2-5.034,2.772s4.447,4.219,4.468,4.083.566-6.855.566-6.855" transform="translate(-13.569 -66.441)" fill="#ffc09d"/>
        <path id="Trazado_234519" data-name="Trazado 234519" d="M38.826,176.95c-.02-.017-.089.051-.234.1a.838.838,0,0,1-.623-.043,2.066,2.066,0,0,1-.785-1.931,2.76,2.76,0,0,1,.34-1.169.964.964,0,0,1,.683-.581.425.425,0,0,1,.47.272c.052.139.013.232.037.242s.11-.071.089-.271a.53.53,0,0,0-.161-.316.626.626,0,0,0-.449-.163,1.173,1.173,0,0,0-.935.661,2.837,2.837,0,0,0-.409,1.3,2.166,2.166,0,0,0,1.026,2.17.893.893,0,0,0,.771-.057c.159-.1.194-.209.178-.219" transform="translate(-14.347 -67.398)" fill="#ff9b6c"/>
        <path id="Trazado_234520" data-name="Trazado 234520" d="M33.106,149.176c1.08-1.637,1.411-3.637,2.047-5.492s1.781-3.752,3.658-4.318l.041.02a5.038,5.038,0,0,1,5.035.723,6.547,6.547,0,0,1,5.19-4.845,16.206,16.206,0,0,1,8.607,1.1c1.762.812,3.428,2.38,5.433,4.663a23.458,23.458,0,0,1,2.293,3.076l1.788,6.615-1.975,3.326c-.119.227-.242.454-.389.677v-.016l-1.764,6.942c-.007-1.967.253-8.612.247-10.58a10.959,10.959,0,0,1-7.622-3.986c-1.013-1.24-1.782-2.769-3.181-3.549-1.8-1.006-4.039-.449-6.021.132l.086-.07a8.765,8.765,0,0,0-2.8,1.816,27.234,27.234,0,0,1-1.745,11.456c-.21.548-.765,1.669-1.322,1.854-1.094.362-1.329-.745-1.947-1.358a2.847,2.847,0,0,0-1.929-.576,42.944,42.944,0,0,1-1.067-5.025,4.367,4.367,0,0,1-2.014.035q.345-.724.69-1.448a2.28,2.28,0,0,1-.877.347.779.779,0,0,1-.8-.4c-.164-.376.1-.786.33-1.128" transform="translate(-12.743 -52.594)" fill="#263238"/>
        <path id="Trazado_234521" data-name="Trazado 234521" d="M47.652,144.81a5.945,5.945,0,0,0-.731.605,5.01,5.01,0,0,0-1.184,2.262,8.78,8.78,0,0,0-.266,1.763c-.034.642-.016,1.332,0,2.059a18.233,18.233,0,0,1-.06,2.289,8.007,8.007,0,0,1-.216,1.2,2.522,2.522,0,0,1-.55,1.146,1.055,1.055,0,0,1-1,.282,1.568,1.568,0,0,1-.861-.543,3.614,3.614,0,0,1-.584-1.806l.145.024a5.855,5.855,0,0,1-.92,1.419,2.078,2.078,0,0,1-1.393.672,1.339,1.339,0,0,1-.713-.161,1.161,1.161,0,0,1-.465-.505,1.194,1.194,0,0,1-.117-.625.861.861,0,0,1,.25-.531l.071.07a4.5,4.5,0,0,1-1.553,1.05,4.012,4.012,0,0,1-.473.158.778.778,0,0,1-.169.033.852.852,0,0,1,.161-.059c.106-.037.263-.092.46-.18a4.636,4.636,0,0,0,1.5-1.069l.071.07a.9.9,0,0,0-.1,1.034,1.05,1.05,0,0,0,.421.448,1.217,1.217,0,0,0,.646.138,1.95,1.95,0,0,0,1.294-.64,5.787,5.787,0,0,0,.887-1.389l.111-.219.034.244a3.5,3.5,0,0,0,.556,1.726,1.411,1.411,0,0,0,.771.486.888.888,0,0,0,.85-.239,2.383,2.383,0,0,0,.508-1.072,8,8,0,0,0,.214-1.174,18.627,18.627,0,0,0,.069-2.27c-.009-.727-.023-1.42.018-2.069a8.772,8.772,0,0,1,.289-1.785,4.938,4.938,0,0,1,1.25-2.276,2.83,2.83,0,0,1,.776-.561" transform="translate(-14.353 -56.386)" fill="#455a64"/>
        <path id="Trazado_234522" data-name="Trazado 234522" d="M75.94,150.281s-.018.018-.058.045l-.181.118a2.325,2.325,0,0,1-.3.175,3.642,3.642,0,0,1-.435.2,6.191,6.191,0,0,1-3.011.39,7.913,7.913,0,0,1-4.131-1.761,13.682,13.682,0,0,1-3.41-4.345c-.466-.869-.837-1.755-1.253-2.577a9.224,9.224,0,0,0-1.453-2.2,4.759,4.759,0,0,0-1.949-1.318,3.4,3.4,0,0,0-1.053-.174,3.731,3.731,0,0,0-.979.139,4.037,4.037,0,0,0-2.333,1.785,4.813,4.813,0,0,0-.412,1.028.223.223,0,0,1,.009-.073c.012-.057.026-.126.043-.212a3.531,3.531,0,0,1,.3-.774,3.976,3.976,0,0,1,.833-1.02,4.09,4.09,0,0,1,1.524-.845,3.859,3.859,0,0,1,1.011-.154,3.533,3.533,0,0,1,1.1.172,4.892,4.892,0,0,1,2.016,1.344,9.327,9.327,0,0,1,1.486,2.23c.421.828.793,1.712,1.254,2.573a13.7,13.7,0,0,0,3.36,4.3,7.856,7.856,0,0,0,4.05,1.763,6.29,6.29,0,0,0,2.974-.334,9.874,9.874,0,0,0,1-.482" transform="translate(-21.407 -54.012)" fill="#455a64"/>
        <path id="Trazado_234523" data-name="Trazado 234523" d="M77.684,168.581c-.145.134-.918-.553-2.085-.642-1.164-.106-2.066.441-2.182.285-.057-.07.1-.321.493-.569a2.929,2.929,0,0,1,1.76-.407,2.825,2.825,0,0,1,1.646.692c.337.31.438.581.367.641" transform="translate(-28.583 -65.119)" fill="#263238"/>
        <path id="Trazado_234524" data-name="Trazado 234524" d="M77.425,174.368a.946.946,0,0,1-1.022.836.9.9,0,0,1-.864-.965.946.946,0,0,1,1.021-.837.9.9,0,0,1,.865.966" transform="translate(-29.412 -67.519)" fill="#263238"/>
        <path id="Trazado_234525" data-name="Trazado 234525" d="M65.035,185.862c0,.04-.274.122-.731.063a2.8,2.8,0,0,1-2.384-2.38c-.059-.457.021-.735.061-.73s.061.275.174.683a3.046,3.046,0,0,0,2.2,2.192c.408.112.681.12.683.173" transform="translate(-24.102 -71.184)" fill="#263238"/>
        <path id="Trazado_234526" data-name="Trazado 234526" d="M106.114,212.7,87.749,228.94,70.02,214.633l-1.34,18.794,11,8.8c4.55,1.773,9.5,2.651,13.115-.634l20.346-20.62Z" transform="translate(-26.743 -82.819)" fill="#5573c6"/>
        <path id="Trazado_234527" data-name="Trazado 234527" d="M7.4,216.063a14.442,14.442,0,0,1,6.75-10.791c.924-.543,8.556-3.874,8.556-3.874l2.27-3.251,13.93,8.883,1.757,1.6,1.432-3.443,1.7,2.578-.717-.117.2,1.315.865,5.71.613,16.359c-.008-.174.26,5.748.093,8.48-.63,10.311-2.387,36.589-3.009,38.44a3.367,3.367,0,0,1-2.944,2.361L2.478,270.066c-2.057-.175-3.93-5.766-.857-7.564Z" transform="translate(0 -77.154)" fill="#5573c6"/>
        <g id="Grupo_181212" data-name="Grupo 181212" transform="translate(10.316 143.881)" opacity="0.3">
          <g id="Grupo_181211" data-name="Grupo 181211">
            <g id="Grupo_181210" data-name="Grupo 181210" clip-path="url(#clip-path-11)">
              <path id="Trazado_234528" data-name="Trazado 234528" d="M16.894,235.631s15.167,28.28,20.359,31.065S50.82,267.71,50.82,267.71v-2.293Z" transform="translate(-16.894 -235.631)"/>
            </g>
          </g>
        </g>
        <path id="Trazado_234529" data-name="Trazado 234529" d="M26.144,215.255c2.1.948,21.563,26.522,21.563,26.522l27.548-.228,1.792,12.89s-28.881,4.178-35.615,2.707S15,227.048,13.793,225.111c-1.912-3.073-.282-7.936,2.674-10.518" transform="translate(-5.05 -83.558)" fill="#5573c6"/>
        <path id="Trazado_234530" data-name="Trazado 234530" d="M16.426,214.593s-.1.107-.3.3a9.677,9.677,0,0,0-.832.927,10.828,10.828,0,0,0-2.071,4.267,7.382,7.382,0,0,0-.044,3.407,11,11,0,0,0,1.985,3.555c1.69,2.434,3.65,5.181,5.87,8.176s4.7,6.245,7.475,9.637c1.39,1.694,2.855,3.424,4.426,5.149a49.93,49.93,0,0,0,5.135,5.017,10.269,10.269,0,0,0,3.131,1.895l.217.07.232.032.465.065c.311.037.619.1.936.118l1.914.085c2.574.029,5.206-.126,7.88-.3,5.348-.4,10.873-1,16.518-1.7q3.856-.483,7.614-1.012l-.134.178c-.612-4.414-1.21-8.721-1.788-12.89l.153.133-27.547.2H47.6l-.039-.051c-6.3-8.268-11.562-15.011-15.306-19.64-1.873-2.314-3.368-4.1-4.427-5.274-.528-.59-.948-1.025-1.248-1.3a4.729,4.729,0,0,0-.479-.385,1.976,1.976,0,0,1,.5.356,16.913,16.913,0,0,1,1.279,1.277c1.079,1.161,2.593,2.932,4.484,5.233,3.78,4.6,9.076,11.323,15.4,19.577l-.1-.051,27.547-.253h.136l.018.134c.581,4.168,1.182,8.475,1.8,12.888l.022.156-.156.023q-3.758.534-7.62,1.013c-5.65.705-11.179,1.3-16.536,1.7-2.681.175-5.317.329-7.908.3l-1.934-.089c-.321-.019-.639-.082-.958-.122l-.477-.067-.238-.034-.234-.075a10.5,10.5,0,0,1-3.235-1.955,50.153,50.153,0,0,1-5.157-5.057c-1.572-1.734-3.035-3.47-4.423-5.171-2.773-3.4-5.24-6.666-7.452-9.67S16.7,229.6,15.02,227.155c-.418-.613-.821-1.2-1.2-1.782a5.528,5.528,0,0,1-.789-1.839,7.49,7.49,0,0,1,.071-3.47,10.7,10.7,0,0,1,2.141-4.279,8.685,8.685,0,0,1,.859-.91c.209-.19.321-.281.321-.281" transform="translate(-5.008 -83.558)" fill="#263238"/>
        <path id="Trazado_234531" data-name="Trazado 234531" d="M37.191,203.471c.136.313,12.863,8.866,12.863,8.866l3.069-2.946,1.636,1.313" transform="translate(-14.481 -79.228)" fill="#274cb2"/>
        <path id="Trazado_234532" data-name="Trazado 234532" d="M54.757,210.7a2.313,2.313,0,0,1-.46-.306l-1.233-.935.123-.005-3.034,2.983-.083.081-.1-.066-3.851-2.581c-2.513-1.7-4.774-3.264-6.392-4.422a15.868,15.868,0,0,1-2.539-1.982l9.109,6.141,3.834,2.606-.18.015,3.1-2.909.061-.058.062.053,1.179,1a2.312,2.312,0,0,1,.4.383" transform="translate(-14.48 -79.228)" fill="#263238"/>
        <path id="Trazado_234533" data-name="Trazado 234533" d="M71.364,219.143a5.518,5.518,0,0,1,.156.949c.08.613.181,1.5.294,2.6.226,2.2.488,5.242.679,8.609s.266,6.424.274,8.634c0,1.106,0,2-.022,2.618a5.547,5.547,0,0,1-.058.96,5.523,5.523,0,0,1-.066-.959c-.02-.674-.047-1.553-.079-2.614-.065-2.207-.177-5.256-.366-8.62s-.417-6.405-.586-8.608c-.078-1.058-.143-1.936-.193-2.609a5.552,5.552,0,0,1-.032-.961" transform="translate(-27.784 -85.33)" fill="#263238"/>
        <path id="Trazado_234534" data-name="Trazado 234534" d="M6.5,300.7a126.552,126.552,0,0,0,25.318-4.472" transform="translate(-2.532 -115.344)" fill="#274cb2"/>
        <path id="Trazado_234535" data-name="Trazado 234535" d="M31.82,296.222a6.117,6.117,0,0,1-.959.33c-.623.195-1.53.453-2.657.753-2.254.6-5.395,1.334-8.9,1.955s-6.71,1.005-9.033,1.213c-1.161.105-2.1.173-2.755.2a6.182,6.182,0,0,1-1.014.018,6.147,6.147,0,0,1,1-.142l2.741-.3c2.313-.264,5.5-.686,9-1.3s6.637-1.315,8.9-1.859l2.679-.654a6.132,6.132,0,0,1,.992-.211" transform="translate(-2.532 -115.341)" fill="#263238"/>
        <path id="Trazado_234536" data-name="Trazado 234536" d="M44.447,375.617l-17.389-5.947s-11.886,15.678-15.206,14.891L22.173,350.43l27.475,8.155Z" transform="translate(-4.615 -136.45)" fill="#455a64"/>
        <path id="Trazado_234537" data-name="Trazado 234537" d="M42.654,364.464a1.456,1.456,0,0,0-1.3-1.445,1.4,1.4,0,0,0-1.444,1.275,1.536,1.536,0,0,0,1.384,1.523c.715-.032,1.495-.791,1.354-1.493" transform="translate(-15.54 -141.351)" fill="#e0e0e0"/>
        <path id="Trazado_234538" data-name="Trazado 234538" d="M21.462,350.035l2.663.787L13.992,383.583s-1.122,1.319-2.14.824Z" transform="translate(-4.615 -136.297)" fill="#e0e0e0"/>
        <path id="Trazado_234539" data-name="Trazado 234539" d="M36.105,380.583c-.165-.056.012-.912-.277-1.894-.263-.99-.856-1.631-.744-1.764.079-.144,1,.406,1.327,1.6s-.165,2.14-.307,2.057" transform="translate(-13.656 -146.758)" fill="#263238"/>
        <path id="Trazado_234540" data-name="Trazado 234540" d="M31.325,386.157c-.173-.01-.238-.818-.772-1.6-.51-.8-1.23-1.168-1.172-1.332.021-.165,1.032.015,1.677,1s.427,1.977.267,1.933" transform="translate(-11.439 -149.2)" fill="#263238"/>
        <path id="Trazado_234541" data-name="Trazado 234541" d="M24.543,389.214c.01-.162.913-.142,1.7.562s.911,1.593.75,1.622c-.165.052-.5-.6-1.154-1.17s-1.326-.843-1.293-1.014" transform="translate(-9.556 -151.519)" fill="#263238"/>
        <path id="Trazado_234542" data-name="Trazado 234542" d="M43.486,382.131c-.131-.115.33-.811.551-1.772.241-.957.146-1.785.315-1.829.15-.06.55.843.274,1.971s-1.034,1.752-1.141,1.63" transform="translate(-16.924 -147.391)" fill="#263238"/>
        <path id="Trazado_234543" data-name="Trazado 234543" d="M51.623,314.346c.669-.185,30.118,31.406,30.787,36.626s-.4,9.772-3.882,12.717S35.426,357,35.426,357l3.748-16.6-14.323-4.819,12.8-23.425Z" transform="translate(-9.676 -121.546)" fill="#263238"/>
        <g id="Grupo_181215" data-name="Grupo 181215" transform="translate(19.51 198.265)" opacity="0.3">
          <g id="Grupo_181214" data-name="Grupo 181214">
            <g id="Grupo_181213" data-name="Grupo 181213" clip-path="url(#clip-path-12)">
              <path id="Trazado_234544" data-name="Trazado 234544" d="M61.354,326.23l.943,1.014s-16.88,17.707-22.059,17.465L31.951,341.9l28.04-17.207Z" transform="translate(-31.951 -324.694)"/>
            </g>
          </g>
        </g>
        <path id="Trazado_234545" data-name="Trazado 234545" d="M48.147,359.114c-.025.085,6.123,1.967,13.73,4.2s13.8,3.979,13.823,3.895-6.122-1.967-13.732-4.2-13.8-3.979-13.821-3.894" transform="translate(-18.747 -139.831)" fill="#455a64"/>
        <path id="Trazado_234546" data-name="Trazado 234546" d="M87.7,365.7,82.52,382.128s14.961,10.782,14.3,13.912l-32.219-8.9,7.02-25.931Z" transform="translate(-25.154 -140.648)" fill="#455a64"/>
        <path id="Trazado_234547" data-name="Trazado 234547" d="M77.417,388.667a1.364,1.364,0,0,0-1.324,1.25,1.312,1.312,0,0,0,1.227,1.324,1.44,1.44,0,0,0,1.4-1.331,1.361,1.361,0,0,0-1.429-1.235" transform="translate(-29.628 -151.334)" fill="#e0e0e0"/>
        <path id="Trazado_234548" data-name="Trazado 234548" d="M64.257,403.175l.677-2.513,30.93,8.754s1.262,1.02.821,1.986Z" transform="translate(-25.02 -156.01)" fill="#e0e0e0"/>
        <path id="Trazado_234549" data-name="Trazado 234549" d="M92.69,395.2c-.048.156-.855.01-1.768.3-.922.268-1.509.839-1.636.737-.137-.071.358-.946,1.47-1.28s2.008.106,1.934.241" transform="translate(-34.757 -153.739)" fill="#263238"/>
        <path id="Trazado_234550" data-name="Trazado 234550" d="M98.02,399.157c-.006.162-.761.242-1.48.76-.733.5-1.067,1.179-1.221,1.129-.155-.016-.009-.968.9-1.594s1.843-.445,1.8-.294" transform="translate(-37.095 -155.366)" fill="#263238"/>
        <path id="Trazado_234551" data-name="Trazado 234551" d="M101.038,405.215c-.152-.006-.154-.852.488-1.6s1.472-.89,1.5-.741c.053.154-.552.485-1.07,1.108s-.76,1.262-.921,1.235" transform="translate(-39.309 -156.849)" fill="#263238"/>
        <path id="Trazado_234552" data-name="Trazado 234552" d="M93.961,388.384c-.106.125-.768-.291-1.673-.476-.9-.2-1.677-.1-1.721-.254-.06-.139.777-.534,1.841-.3s1.665.93,1.553,1.032" transform="translate(-35.264 -150.799)" fill="#263238"/>
        <g id="Grupo_181218" data-name="Grupo 181218" transform="translate(40.395 202.269)" opacity="0.3">
          <g id="Grupo_181217" data-name="Grupo 181217">
            <g id="Grupo_181216" data-name="Grupo 181216" clip-path="url(#clip-path-13)">
              <path id="Trazado_234553" data-name="Trazado 234553" d="M66.155,367.737l2.192-8.611-1.632-.76,9.959-27.115,1.9,1.654-7.828,24.839-2.8,10.368Z" transform="translate(-66.155 -331.252)"/>
            </g>
          </g>
        </g>
        <path id="Trazado_234554" data-name="Trazado 234554" d="M3.448,302.165s58.878-20.51,59.949-20.911a11.8,11.8,0,0,1,1.476-.372,13.977,13.977,0,0,1,11.207,2.4,10.282,10.282,0,0,1,4.183,10.285c-1.607,11.244-15.976,49.626-15.976,49.626l-19.882-5.977c-.114-.034-.225-.362-.163-.261.163.261,10.088-31.713,9.838-31.338-.267.4-20.065,16.374-28.294,19.315a18.244,18.244,0,0,1-20.84-6.222c-1.928-2.7-3.561-10.29-1.5-16.547" transform="translate(-0.97 -109.253)" fill="#263238"/>
        <path id="Trazado_234555" data-name="Trazado 234555" d="M3.419,302.074s-.07.206-.2.624a16.922,16.922,0,0,0-.459,1.883,23.667,23.667,0,0,0-.106,7.425,20.048,20.048,0,0,0,1.394,5.2,8.828,8.828,0,0,0,.723,1.338c.3.423.626.835.967,1.251a17.221,17.221,0,0,0,2.422,2.3,18.381,18.381,0,0,0,6.582,3.3,18.5,18.5,0,0,0,8.248.31l1.077-.232c.359-.086.71-.212,1.069-.316a18.74,18.74,0,0,0,2.117-.809c.7-.312,1.373-.683,2.072-1.027l2.054-1.163c2.732-1.624,5.477-3.468,8.278-5.436s5.645-4.081,8.54-6.307q2.173-1.667,4.367-3.439l1.093-.9c.093-.079.179-.145.277-.236l.143-.135.071-.068c-.11-.026.3.009-.238-.066-.012-.109,0-.022-.01-.032-.053.217-.123.451-.187.677l-.825,2.751c-2.256,7.375-4.665,15.118-7.231,23.136q-.49,1.5-.984,3.013c-.169.5-.336,1.011-.522,1.5-.014.046-.069.153-.049.129.517.217.165-.315-.069.14a.44.44,0,0,0,.024.079.928.928,0,0,0,.053.111.407.407,0,0,0,.236.213l.192.058.769.231,6.206,1.867,12.7,3.819.152.046.054-.148,2.069-5.623c3.175-8.745,6.192-17.313,8.888-25.664,1.341-4.177,2.631-8.29,3.7-12.378.283-1.017.5-2.048.75-3.063s.4-2.05.582-3.071a10.475,10.475,0,0,0-4.685-10.593,13.713,13.713,0,0,0-5.4-2.2,14.587,14.587,0,0,0-5.661.117l-1.36.346-1.3.453-2.561.9-18.832,6.594-27.243,9.563-7.392,2.61-1.916.685c-.43.156-.644.241-.644.241s.231-.07.669-.217l1.939-.66,7.431-2.56,27.275-9.455,18.819-6.54,2.558-.89L63.4,281.3l1.323-.332a14.3,14.3,0,0,1,5.546-.106,13.4,13.4,0,0,1,5.274,2.16,10.164,10.164,0,0,1,4.545,10.3c-.18,1.009-.342,2.031-.58,3.043s-.466,2.036-.75,3.051c-1.07,4.075-2.361,8.186-3.7,12.358-2.7,8.342-5.717,16.908-8.891,25.65l-2.068,5.62.206-.1-12.7-3.816L45.4,337.262l-.769-.231-.192-.057c-.02-.016-.063.136-.013.021.029-.035.005-.012.007-.026a.324.324,0,0,1-.037-.054.513.513,0,0,1-.033-.07c-.04,0,.071-.04-.086,0,.012-.024-.518.162.064.129a.973.973,0,0,0,.115-.234c.192-.508.357-1.011.527-1.516l.983-3.018c2.562-8.022,4.964-15.766,7.212-23.147L54,306.3c.065-.232.132-.452.191-.7,0-.039.015.018,0-.12-.524-.068-.183-.018-.3-.02l-.059.053-.117.106c-.075.071-.176.15-.263.225l-1.087.9q-2.186,1.771-4.356,3.44-4.331,3.343-8.52,6.314c-2.792,1.971-5.53,3.818-8.249,5.442L29.208,323.1c-.693.343-1.366.714-2.055,1.024a18.484,18.484,0,0,1-2.089.8c-.354.1-.7.23-1.055.316l-1.063.231A18.286,18.286,0,0,1,14.8,325.2a18.222,18.222,0,0,1-6.523-3.242,17.1,17.1,0,0,1-2.406-2.268c-.338-.409-.666-.818-.961-1.231a8.672,8.672,0,0,1-.714-1.31,20.033,20.033,0,0,1-1.411-5.158,24.049,24.049,0,0,1,.045-7.4c.159-.833.3-1.466.424-1.878s.169-.64.169-.64" transform="translate(-0.941 -109.162)" fill="#455a64"/>
        <path id="Trazado_234556" data-name="Trazado 234556" d="M96.059,307.166a8.136,8.136,0,0,0-1.639.916,24.991,24.991,0,0,0-3.554,2.816,22.059,22.059,0,0,0-2.954,3.443,13.259,13.259,0,0,0-.726,1.168,1.565,1.565,0,0,0-.212.46c.045.027.427-.578,1.122-1.495a28.25,28.25,0,0,1,2.991-3.343,33.473,33.473,0,0,1,3.461-2.861,16.352,16.352,0,0,0,1.511-1.1" transform="translate(-33.865 -119.604)" fill="#455a64"/>
        <path id="Trazado_234557" data-name="Trazado 234557" d="M89.162,303.54a6.9,6.9,0,0,0-.7,1.5,27.082,27.082,0,0,0-1.732,7.791,6.9,6.9,0,0,0,0,1.658,11.041,11.041,0,0,0,.229-1.636c.123-1.009.33-2.4.666-3.912s.738-2.858,1.055-3.825a10.976,10.976,0,0,0,.486-1.579" transform="translate(-33.755 -118.192)" fill="#455a64"/>
        <path id="Trazado_234558" data-name="Trazado 234558" d="M128.08,243.628l7.534-15.224a3.049,3.049,0,0,1,2.734-1.69h18.93a.922.922,0,0,1,.82,1.357l-12.814,23.722a2.066,2.066,0,0,1-1.819,1.08H123.832Z" transform="translate(-48.218 -88.278)" fill="#455a64"/>
        <path id="Trazado_234559" data-name="Trazado 234559" d="M161.949,228.855a1.563,1.563,0,0,1-.379.031l-1.084.018H156.5l-13.142-.112a3.783,3.783,0,0,0-1.748.419,3.255,3.255,0,0,0-1.161,1.275c-.55,1.04-1.013,2.125-1.492,3.115l-2.511,5.309-1.721,3.566-.484.962a1.546,1.546,0,0,1-.19.325,1.462,1.462,0,0,1,.126-.355l.424-.99,1.618-3.613,2.442-5.34c.476-1,.916-2.059,1.486-3.148a3.59,3.59,0,0,1,1.287-1.408,4.107,4.107,0,0,1,1.91-.469c5.156.034,9.791.145,13.161.215l3.986.111,1.083.048a1.552,1.552,0,0,1,.377.041" transform="translate(-52.195 -88.95)" fill="#263238"/>
        <path id="Trazado_234560" data-name="Trazado 234560" d="M159.844,234.538a.616.616,0,0,1,.284.942.9.9,0,0,1-1,.377.7.7,0,0,1-.522-.5.864.864,0,0,1,.578-.866,1.372,1.372,0,0,1,.662.046" transform="translate(-61.755 -91.298)" fill="#fff"/>
        <path id="Trazado_234561" data-name="Trazado 234561" d="M111.84,256.438l1.305-1.332s1.917-2.765,2.7-3.629a59.033,59.033,0,0,1,5.489-3.888s2.268-3.047,2.616-3.047,1.451.195,1.154,1.612a21.592,21.592,0,0,1-1.243,4.087l10.049.218a2.138,2.138,0,0,1,1.637.777c.263.332.372.7-.1.931a48.951,48.951,0,0,1-5.315,1.555l1.907-.487s.409,1.808-.8,2.667a6.518,6.518,0,0,0-1.284,1.017,5.628,5.628,0,0,1-.582,2.4c-.523.691-6.184,3.579-6.184,3.579a23.711,23.711,0,0,1-5.447.974,9.411,9.411,0,0,0-3.918,1c-.206.056-1.99-8.436-1.99-8.436" transform="translate(-43.548 -95.22)" fill="#ffc09d"/>
        <path id="Trazado_234562" data-name="Trazado 234562" d="M129.5,253.87a20.833,20.833,0,0,1-2.823.314,11.114,11.114,0,0,1-2.845.139,12.168,12.168,0,0,1,2.81-.49,8.107,8.107,0,0,1,2.858.037" transform="translate(-48.217 -98.804)" fill="#ff9b6c"/>
        <path id="Trazado_234563" data-name="Trazado 234563" d="M130.915,260.359a14.859,14.859,0,0,1,4.105-.865c1.149-.145,2.189-.247,2.94-.33a5.488,5.488,0,0,1,1.226-.092,3.553,3.553,0,0,1-1.188.339c-.747.147-1.787.289-2.933.433-2.3.261-4.126.6-4.15.515" transform="translate(-50.975 -100.87)" fill="#ff9b6c"/>
        <path id="Trazado_234564" data-name="Trazado 234564" d="M130.915,265.825c0-.1,1.465-.148,3.233-.454s3.167-.738,3.2-.64a12.137,12.137,0,0,1-6.435,1.094" transform="translate(-50.976 -103.076)" fill="#ff9b6c"/>
        <path id="Trazado_234565" data-name="Trazado 234565" d="M131.667,271.362c-.1.016-.243-.376-.326-.875s-.071-.916.025-.932.243.376.326.874.071.917-.025.932" transform="translate(-51.12 -104.959)" fill="#ff9b6c"/>
        <path id="Trazado_234566" data-name="Trazado 234566" d="M130.011,264.479c-.1-.008-.153-.332-.326-.674s-.388-.587-.332-.671.438.077.652.517.1.844.006.827" transform="translate(-50.364 -102.451)" fill="#ff9b6c"/>
        <path id="Trazado_234567" data-name="Trazado 234567" d="M128.237,257.56c-.1.01-.2-.2-.324-.435s-.225-.445-.156-.517.323.059.474.36.1.585.006.592" transform="translate(-49.738 -99.91)" fill="#ff9b6c"/>
        <path id="Trazado_234568" data-name="Trazado 234568" d="M133.111,203.659a9.734,9.734,0,0,1,1.706-4.677c3.884-4.775,2.591-9.033,2.591-9.033,1.345-1.486,3.579.29,4.017,3.692a61.114,61.114,0,0,1-.371,15.311c-.1.385-4.119,2.091-4.119,2.091l-5.368-6.272Z" transform="translate(-51.23 -73.757)" fill="#ffc09d"/>
        <path id="Trazado_234569" data-name="Trazado 234569" d="M239.405,191.917H148.876a5.282,5.282,0,0,1-5.282-5.282V147.877a5.282,5.282,0,0,1,5.282-5.282h90.529a5.282,5.282,0,0,1,5.282,5.282v38.759a5.282,5.282,0,0,1-5.282,5.282" transform="translate(-55.913 -55.524)" fill="#fff"/>
        <path id="Trazado_234570" data-name="Trazado 234570" d="M239.3,191.816c0-.015.257,0,.748-.076a5.161,5.161,0,0,0,2.044-.766,5.231,5.231,0,0,0,2.159-2.751,6.137,6.137,0,0,0,.277-2.246q0-1.228-.007-2.612c-.012-7.388-.029-18.068-.051-31.263q0-1.237,0-2.5,0-.634,0-1.274a8.4,8.4,0,0,0-.057-1.269,5.157,5.157,0,0,0-2.968-3.969,5.621,5.621,0,0,0-2.608-.467l-2.782,0-5.719,0-24.778.015-56.776.012a5.173,5.173,0,0,0-3.35,1.247,5.066,5.066,0,0,0-1.716,3.109,13.09,13.09,0,0,0-.064,1.835v5.547q0,7.358,0,14.486t0,13.982q0,1.713,0,3.408a5.286,5.286,0,0,0,.861,3.112,5.16,5.16,0,0,0,2.5,1.969,8.654,8.654,0,0,0,3.2.321l46.37.034,31.261.051,8.5.029,2.21.016c.5.006.753.016.753.016s-.255.011-.753.016l-2.21.016-8.5.029-31.261.051-46.37.034c-.548,0-1.087.011-1.647-.01a5.138,5.138,0,0,1-1.658-.326,5.457,5.457,0,0,1-2.649-2.08,5.586,5.586,0,0,1-.914-3.278q0-1.694,0-3.408,0-6.852,0-13.982t0-14.486q0-1.839,0-3.692v-1.856a13.326,13.326,0,0,1,.067-1.882,5.383,5.383,0,0,1,1.822-3.3,5.487,5.487,0,0,1,3.558-1.324l56.776.012,24.778.015,5.719,0,2.782,0a5.865,5.865,0,0,1,2.71.494,5.4,5.4,0,0,1,3.1,4.159,8.769,8.769,0,0,1,.057,1.3q0,.64,0,1.274,0,1.267,0,2.5c-.021,13.2-.038,23.875-.051,31.263q0,1.384-.007,2.612a6.219,6.219,0,0,1-.3,2.276,5.29,5.29,0,0,1-2.215,2.776,5.108,5.108,0,0,1-2.074.744,3.833,3.833,0,0,1-.562.042c-.126,0-.19,0-.19,0" transform="translate(-55.811 -55.422)" fill="#263238"/>
        <path id="Trazado_234571" data-name="Trazado 234571" d="M183.774,176.128v6.506l15.326,6.573.129-6.228-8.563-3.821,8.563-3.655v-6.034Z" transform="translate(-71.558 -65.988)" fill="#ebebeb"/>
        <path id="Trazado_234572" data-name="Trazado 234572" d="M259.03,183.4V176.9l-15.46-6.573-.131,6.228,8.638,3.821-8.638,3.655v6.034Z" transform="translate(-94.79 -66.321)" fill="#ebebeb"/>
        <path id="Trazado_234573" data-name="Trazado 234573" d="M222.251,160.673c0,.162-9,30.533-8.748,30.48s6.7,0,6.7,0l8.878-30.475Z" transform="translate(-83.132 -62.563)" fill="#ebebeb"/>
        <path id="Trazado_234574" data-name="Trazado 234574" d="M158.094,152.033a2.134,2.134,0,1,1-2.13-2,2.068,2.068,0,0,1,2.13,2" transform="translate(-59.9 -58.42)" fill="#e0e0e0"/>
        <path id="Trazado_234575" data-name="Trazado 234575" d="M167.676,152.033a2.134,2.134,0,1,1-2.13-2,2.068,2.068,0,0,1,2.13,2" transform="translate(-63.631 -58.42)" fill="#e0e0e0"/>
        <path id="Trazado_234576" data-name="Trazado 234576" d="M177.258,152.033a2.134,2.134,0,1,1-2.13-2,2.068,2.068,0,0,1,2.13,2" transform="translate(-67.362 -58.42)" fill="#e0e0e0"/>
      </g>
    </g>
  </g>
</svg>
