<svg xmlns="http://www.w3.org/2000/svg" xmlns:xlink="http://www.w3.org/1999/xlink" width="331.967" height="261.668" viewBox="0 0 331.967 261.668">
  <defs>
    <linearGradient id="linear-gradient" x1="0.5" x2="0.5" y2="1" gradientUnits="objectBoundingBox">
      <stop offset="0" stop-color="#fff"/>
      <stop offset="1" stop-color="#f1f1f1"/>
    </linearGradient>
    <linearGradient id="linear-gradient-2" x1="0.5" x2="0.5" y2="1" gradientUnits="objectBoundingBox">
      <stop offset="0" stop-color="#f5f5f5"/>
      <stop offset="0.25" stop-color="#f5f5f5"/>
      <stop offset="1" stop-color="#a7b3cf"/>
    </linearGradient>
  </defs>
  <g id="Grupo_985384" data-name="Grupo 985384" transform="translate(2807.029 4733.546)">
    <g id="Grupo_985382" data-name="Grupo 985382" transform="translate(-2772.615 -4732.839)">
      <g id="Grupo_142568" data-name="Grupo 142568" transform="translate(0 0)">
        <g id="Grupo_54244" data-name="Grupo 54244" transform="translate(0 143.36)">
          <rect id="Rectángulo_29332" data-name="Rectángulo 29332" width="57.304" height="8.697" fill="none" stroke="#00223d" stroke-miterlimit="10" stroke-width="1"/>
          <rect id="Rectángulo_29333" data-name="Rectángulo 29333" width="57.304" height="8.697" transform="translate(0 12.901)" fill="none" stroke="#00223d" stroke-miterlimit="10" stroke-width="1"/>
          <rect id="Rectángulo_29334" data-name="Rectángulo 29334" width="57.304" height="8.697" transform="translate(0 25.802)" fill="none" stroke="#00223d" stroke-miterlimit="10" stroke-width="1"/>
          <rect id="Rectángulo_29335" data-name="Rectángulo 29335" width="57.304" height="8.697" transform="translate(0 38.703)" fill="none" stroke="#00223d" stroke-miterlimit="10" stroke-width="1"/>
        </g>
        <ellipse id="Elipse_4063" data-name="Elipse 4063" cx="29.597" cy="29.597" rx="29.597" ry="29.597" transform="translate(14.81 107.983) rotate(-80.44)" fill="none" stroke="#00223d" stroke-miterlimit="10" stroke-width="1"/>
        <circle id="Elipse_4064" data-name="Elipse 4064" cx="29.597" cy="29.597" r="29.597" transform="translate(120.721 41.856) rotate(-45)" fill="none" stroke="#00223d" stroke-miterlimit="10" stroke-width="1"/>
        <g id="Grupo_54253" data-name="Grupo 54253" transform="translate(65.215 76.755)">
          <g id="Grupo_54252" data-name="Grupo 54252" transform="translate(31.145 134.268)">
            <rect id="Rectángulo_29337" data-name="Rectángulo 29337" width="45.278" height="39.15" transform="translate(47.248)" fill="#fff"/>
            <path id="Trazado_116090" data-name="Trazado 116090" d="M360.839,384.35l-45.279-16.611v-6.865h45.279Z" transform="translate(-268.312 -360.875)" fill="#d9d9d9"/>
            <rect id="Rectángulo_29338" data-name="Rectángulo 29338" width="139.775" height="2.376" transform="translate(0 36.773)" fill="#fff"/>
          </g>
          <rect id="Rectángulo_29339" data-name="Rectángulo 29339" width="202.065" height="135.442" transform="translate(0 0)" fill="#afafaf"/>
          <rect id="Rectángulo_29340" data-name="Rectángulo 29340" width="40.093" height="6.07" transform="translate(26.544 129.372)" fill="#d9d9d9"/>
          <rect id="Rectángulo_29341" data-name="Rectángulo 29341" width="193.357" height="125.153" transform="translate(4.354 4.219)" fill="#091c38"/>
        </g>
        <g id="Grupo_54255" data-name="Grupo 54255" transform="translate(78.911 43.034)">
          <path id="Trazado_116091" data-name="Trazado 116091" d="M302.243,206.006H218.577V109.051H283.3l18.938,19.088Z" transform="translate(-218.577 -109.051)" fill="#dbdada"/>
          <line id="Línea_1587" data-name="Línea 1587" x2="62.289" transform="translate(5.786 7.211)" fill="none" stroke="#fff" stroke-miterlimit="10" stroke-width="0.742"/>
          <path id="Trazado_116092" data-name="Trazado 116092" d="M315.608,109.051l18.938,19.088H315.608Z" transform="translate(-250.88 -109.051)" fill="#00223d"/>
          <g id="Grupo_54254" data-name="Grupo 54254" transform="translate(10.205 22.79)">
            <path id="Trazado_116093" data-name="Trazado 116093" d="M294.361,185.885H236.645a2.77,2.77,0,0,1-2.77-2.77h0a2.769,2.769,0,0,1,2.77-2.769h57.716a2.769,2.769,0,0,1,2.77,2.769h0A2.77,2.77,0,0,1,294.361,185.885Z" transform="translate(-233.875 -155.576)" fill="none" stroke="#fff" stroke-miterlimit="10" stroke-width="0.742"/>
            <path id="Trazado_116094" data-name="Trazado 116094" d="M294.361,160.446H236.645c-1.53,0-2.77-3.857-2.77-8.615h0c0-4.758,1.24-8.615,2.77-8.615h57.716c1.53,0,2.77,3.858,2.77,8.615h0C297.131,156.589,295.891,160.446,294.361,160.446Z" transform="translate(-233.875 -143.215)" fill="#fff"/>
            <path id="Trazado_116095" data-name="Trazado 116095" d="M294.361,202.275H236.645a2.77,2.77,0,0,1-2.77-2.77h0a2.77,2.77,0,0,1,2.77-2.77h57.716a2.77,2.77,0,0,1,2.77,2.77h0A2.77,2.77,0,0,1,294.361,202.275Z" transform="translate(-233.875 -161.033)" fill="none" stroke="#fff" stroke-miterlimit="10" stroke-width="0.742"/>
            <path id="Trazado_116096" data-name="Trazado 116096" d="M294.361,218.666H236.645a2.77,2.77,0,0,1-2.77-2.77h0a2.77,2.77,0,0,1,2.77-2.77h57.716a2.77,2.77,0,0,1,2.77,2.77h0A2.77,2.77,0,0,1,294.361,218.666Z" transform="translate(-233.875 -166.49)" fill="none" stroke="#fff" stroke-miterlimit="10" stroke-width="0.742"/>
            <path id="Trazado_116097" data-name="Trazado 116097" d="M294.361,235.056H236.645a2.77,2.77,0,0,1-2.77-2.77h0a2.77,2.77,0,0,1,2.77-2.77h57.716a2.77,2.77,0,0,1,2.77,2.77h0A2.77,2.77,0,0,1,294.361,235.056Z" transform="translate(-233.875 -171.946)" fill="none" stroke="#fff" stroke-miterlimit="10" stroke-width="0.742"/>
          </g>
          <ellipse id="Elipse_4065" data-name="Elipse 4065" cx="1.251" cy="1.251" rx="1.251" ry="1.251" transform="translate(8.35 2.271)" fill="none" stroke="#fff" stroke-miterlimit="10" stroke-width="0.742"/>
          <ellipse id="Elipse_4066" data-name="Elipse 4066" cx="1.251" cy="1.251" rx="1.251" ry="1.251" transform="translate(15.355 2.271)" fill="none" stroke="#fff" stroke-miterlimit="10" stroke-width="0.742"/>
          <ellipse id="Elipse_4067" data-name="Elipse 4067" cx="1.251" cy="1.251" rx="1.251" ry="1.251" transform="translate(22.359 2.271)" fill="none" stroke="#fff" stroke-miterlimit="10" stroke-width="0.742"/>
        </g>
        <path id="Trazado_116098" data-name="Trazado 116098" d="M476.015,172.546a30.009,30.009,0,0,0,0-9.632h-8.532a21.547,21.547,0,0,0-2.792-6.726l6.034-6.034a30.21,30.21,0,0,0-6.811-6.811l-6.034,6.033a21.561,21.561,0,0,0-6.726-2.792v-8.532a30.019,30.019,0,0,0-9.633,0v8.532a21.54,21.54,0,0,0-6.725,2.792l-6.034-6.033a30.23,30.23,0,0,0-6.812,6.811l6.034,6.034a21.543,21.543,0,0,0-2.792,6.726h-8.532a30.013,30.013,0,0,0,0,9.632h8.532a21.543,21.543,0,0,0,2.792,6.726l-6.034,6.034a30.247,30.247,0,0,0,6.812,6.812l6.034-6.034a21.546,21.546,0,0,0,6.725,2.792v8.532a30.019,30.019,0,0,0,9.633,0v-8.532a21.544,21.544,0,0,0,6.726-2.792l6.034,6.034a30.227,30.227,0,0,0,6.811-6.812l-6.034-6.034a21.548,21.548,0,0,0,2.792-6.726Zm-29.677,7.821a12.637,12.637,0,1,1,12.637-12.637A12.637,12.637,0,0,1,446.338,180.367Z" transform="translate(-205.481 -86.954)" fill="#1565c0"/>
        <path id="Trazado_116099" data-name="Trazado 116099" d="M394.935,177.946a14.108,14.108,0,0,0,0-4.528h-4.01a10.13,10.13,0,0,0-1.313-3.161l2.836-2.836a14.206,14.206,0,0,0-3.2-3.2l-2.836,2.836a10.112,10.112,0,0,0-3.161-1.312v-4.01a14.108,14.108,0,0,0-4.527,0v4.01a10.12,10.12,0,0,0-3.161,1.312l-2.836-2.836a14.2,14.2,0,0,0-3.2,3.2l2.836,2.836a10.129,10.129,0,0,0-1.312,3.161h-4.01a14.108,14.108,0,0,0,0,4.528h4.01a10.128,10.128,0,0,0,1.312,3.161l-2.836,2.836a14.2,14.2,0,0,0,3.2,3.2l2.836-2.836a10.12,10.12,0,0,0,3.161,1.312v4.011a14.111,14.111,0,0,0,4.527,0v-4.011a10.112,10.112,0,0,0,3.161-1.312l2.836,2.836a14.207,14.207,0,0,0,3.2-3.2l-2.836-2.836a10.13,10.13,0,0,0,1.313-3.161Zm-13.948,3.676a5.939,5.939,0,1,1,5.939-5.939A5.939,5.939,0,0,1,380.987,181.622Z" transform="translate(-189.03 -83.495)" fill="#8ec8c8"/>
        <g id="Grupo_54256" data-name="Grupo 54256" transform="translate(149.947 28.412)">
          <path id="Trazado_116100" data-name="Trazado 116100" d="M466.808,113.808l-.985.5a3.553,3.553,0,0,1-1.622.392H423.849v3.922H464.2a3.561,3.561,0,0,1,1.622.391l.985.5a1.541,1.541,0,0,0,1.118.112l7.357-2.07v-1.8l-7.357-2.07A1.537,1.537,0,0,0,466.808,113.808Z" transform="translate(-377.92 -110.22)" fill="#00223d"/>
          <path id="Trazado_116101" data-name="Trazado 116101" d="M441.233,115.236H423.849v3.922h7.142a17.522,17.522,0,0,0,6.938-1.432l3.507-1.512A.509.509,0,0,0,441.233,115.236Z" transform="translate(-377.92 -110.752)" fill="#091c38"/>
          <path id="Trazado_116102" data-name="Trazado 116102" d="M402.5,109.988l-44.8-1.472a2.606,2.606,0,0,0-2.692,2.6V118.8a2.606,2.606,0,0,0,2.692,2.6l44.8-1.472,1.593.874a1.779,1.779,0,0,0,2.634-1.56v-8.571a1.779,1.779,0,0,0-2.634-1.56Z" transform="translate(-354.999 -108.514)" fill="#69746b"/>
          <path id="Trazado_116103" data-name="Trazado 116103" d="M401.077,119.143h-39.8a1.933,1.933,0,0,1-1.933-1.933h0a1.933,1.933,0,0,1,1.933-1.933h39.8a1.933,1.933,0,0,1,1.933,1.933h0A1.933,1.933,0,0,1,401.077,119.143Z" transform="translate(-356.444 -110.766)" fill="none" stroke="#fff" stroke-miterlimit="10" stroke-width="0.845"/>
        </g>
        <g id="Grupo_54257" data-name="Grupo 54257" transform="translate(78.911 188.782)">
          <rect id="Rectángulo_29342" data-name="Rectángulo 29342" width="83.667" height="17.345" fill="#1e61bf"/>
          <line id="Línea_1588" data-name="Línea 1588" x2="78.049" transform="translate(2.809 5.16)" fill="none" stroke="#091c38" stroke-miterlimit="10" stroke-width="0.742"/>
          <path id="Trazado_116104" data-name="Trazado 116104" d="M237.716,330.962a.885.885,0,1,1-.885-.885A.884.884,0,0,1,237.716,330.962Z" transform="translate(-224.359 -328.381)" fill="none" stroke="#091c38" stroke-miterlimit="10" stroke-width="0.742"/>
          <path id="Trazado_116105" data-name="Trazado 116105" d="M245.882,330.962a.885.885,0,1,1-.885-.885A.885.885,0,0,1,245.882,330.962Z" transform="translate(-227.078 -328.381)" fill="none" stroke="#091c38" stroke-miterlimit="10" stroke-width="0.742"/>
          <ellipse id="Elipse_4068" data-name="Elipse 4068" cx="0.885" cy="0.885" rx="0.885" ry="0.885" transform="translate(6.14 1.695)" fill="none" stroke="#091c38" stroke-miterlimit="10" stroke-width="0.742"/>
        </g>
        <g id="Grupo_54258" data-name="Grupo 54258" transform="translate(169.917 192.585)">
          <rect id="Rectángulo_29343" data-name="Rectángulo 29343" width="83.667" height="13.542" fill="#8ec8c8"/>
          <line id="Línea_1589" data-name="Línea 1589" x2="78.049" transform="translate(2.809 5.16)" fill="none" stroke="#fff" stroke-miterlimit="10" stroke-width="0.742"/>
          <path id="Trazado_116106" data-name="Trazado 116106" d="M365.973,336.662a.885.885,0,1,1-.885-.885A.885.885,0,0,1,365.973,336.662Z" transform="translate(-358.063 -334.082)" fill="none" stroke="#fff" stroke-miterlimit="10" stroke-width="0.742"/>
          <path id="Trazado_116107" data-name="Trazado 116107" d="M374.139,336.662a.885.885,0,1,1-.885-.885A.885.885,0,0,1,374.139,336.662Z" transform="translate(-360.782 -334.082)" fill="none" stroke="#fff" stroke-miterlimit="10" stroke-width="0.742"/>
          <path id="Trazado_116108" data-name="Trazado 116108" d="M382.3,336.662a.885.885,0,1,1-.885-.885A.885.885,0,0,1,382.3,336.662Z" transform="translate(-363.5 -334.082)" fill="none" stroke="#fff" stroke-miterlimit="10" stroke-width="0.742"/>
        </g>
        <g id="Grupo_54260" data-name="Grupo 54260" transform="translate(169.917 94.365)">
          <rect id="Rectángulo_29344" data-name="Rectángulo 29344" width="83.667" height="41.804" transform="translate(0 0)" fill="#fff"/>
          <line id="Línea_1590" data-name="Línea 1590" x2="78.049" transform="translate(2.809 5.16)" fill="none" stroke="#abc7ff" stroke-miterlimit="10" stroke-width="0.742"/>
          <ellipse id="Elipse_4069" data-name="Elipse 4069" cx="0.885" cy="0.885" rx="0.885" ry="0.885" transform="translate(6.14 1.695)" fill="none" stroke="#abc7ff" stroke-miterlimit="10" stroke-width="0.742"/>
          <ellipse id="Elipse_4070" data-name="Elipse 4070" cx="0.885" cy="0.885" rx="0.885" ry="0.885" transform="translate(11.587 1.695)" fill="none" stroke="#abc7ff" stroke-miterlimit="10" stroke-width="0.742"/>
          <path id="Trazado_116109" data-name="Trazado 116109" d="M382.3,189.426a.885.885,0,1,1-.885-.885A.885.885,0,0,1,382.3,189.426Z" transform="translate(-363.5 -186.846)" fill="none" stroke="#abc7ff" stroke-miterlimit="10" stroke-width="0.742"/>
          <g id="Grupo_54259" data-name="Grupo 54259" transform="translate(22.091 3.631)">
            <circle id="Elipse_4071" data-name="Elipse 4071" cx="13.96" cy="13.96" r="13.96" transform="translate(0 19.743) rotate(-45)" fill="#00223d"/>
            <path id="Trazado_116110" data-name="Trazado 116110" d="M410.736,222.942V213.4a.97.97,0,0,1,1.44-.849l8.629,4.77a.97.97,0,0,1,0,1.7l-8.629,4.77A.97.97,0,0,1,410.736,222.942Z" transform="translate(-395.645 -198.43)" fill="#fff"/>
          </g>
        </g>
        <g id="Grupo_54261" data-name="Grupo 54261" transform="translate(169.917 139.989)">
          <rect id="Rectángulo_29345" data-name="Rectángulo 29345" width="83.667" height="49.313" fill="#ffa726"/>
          <line id="Línea_1591" data-name="Línea 1591" x2="78.049" transform="translate(2.809 5.161)" fill="none" stroke="#fff" stroke-miterlimit="10" stroke-width="0.742"/>
          <path id="Trazado_116111" data-name="Trazado 116111" d="M365.973,257.818a.885.885,0,1,1-.885-.885A.885.885,0,0,1,365.973,257.818Z" transform="translate(-358.063 -255.238)" fill="none" stroke="#fff" stroke-miterlimit="10" stroke-width="0.742"/>
          <path id="Trazado_116112" data-name="Trazado 116112" d="M374.139,257.818a.885.885,0,1,1-.885-.885A.885.885,0,0,1,374.139,257.818Z" transform="translate(-360.782 -255.238)" fill="none" stroke="#fff" stroke-miterlimit="10" stroke-width="0.742"/>
          <path id="Trazado_116113" data-name="Trazado 116113" d="M382.3,257.818a.885.885,0,1,1-.885-.885A.885.885,0,0,1,382.3,257.818Z" transform="translate(-363.5 -255.238)" fill="none" stroke="#fff" stroke-miterlimit="10" stroke-width="0.742"/>
          <path id="Trazado_116114" data-name="Trazado 116114" d="M435.2,272.778H361.273a2.062,2.062,0,0,1-2.063-2.063h0a2.063,2.063,0,0,1,2.063-2.063H435.2a2.063,2.063,0,0,1,2.063,2.063h0A2.062,2.062,0,0,1,435.2,272.778Z" transform="translate(-356.401 -259.139)" fill="none" stroke="#fff" stroke-miterlimit="10" stroke-width="0.742"/>
          <path id="Trazado_116115" data-name="Trazado 116115" d="M435.2,285.489H361.273a2.063,2.063,0,0,1-2.063-2.063h0a2.063,2.063,0,0,1,2.063-2.063H435.2a2.063,2.063,0,0,1,2.063,2.063h0A2.063,2.063,0,0,1,435.2,285.489Z" transform="translate(-356.401 -263.37)" fill="none" stroke="#fff" stroke-miterlimit="10" stroke-width="0.742"/>
          <path id="Trazado_116116" data-name="Trazado 116116" d="M389.542,310.926H361.273a2.063,2.063,0,0,1-2.063-2.063h0a2.063,2.063,0,0,1,2.063-2.063h28.269a2.064,2.064,0,0,1,2.063,2.063h0A2.064,2.064,0,0,1,389.542,310.926Z" transform="translate(-356.401 -271.838)" fill="url(#linear-gradient)"/>
        </g>
        <g id="Grupo_54262" data-name="Grupo 54262" transform="translate(219.183 170.981)">
          <path id="Trazado_116117" data-name="Trazado 116117" d="M447.077,304.215l-18.226-.006,7.6,16.567,3.267-5.091,14.734,9.457,4.095-6.38-14.734-9.457Z" transform="translate(-428.851 -301.968)" fill="#0e2d59"/>
          <path id="Trazado_116118" data-name="Trazado 116118" d="M447.077,300.856l-18.226-.006,7.6,16.567,3.267-5.091,14.734,9.457,4.095-6.38-14.734-9.457Z" transform="translate(-428.851 -300.85)" fill="#fff"/>
        </g>
        <g id="Grupo_54272" data-name="Grupo 54272" transform="translate(78.911 144.476)">
          <rect id="Rectángulo_29347" data-name="Rectángulo 29347" width="83.667" height="39.819" fill="#fff"/>
          <line id="Línea_1603" data-name="Línea 1603" x2="78.049" transform="translate(2.809 5.16)" fill="none" stroke="#00223d" stroke-miterlimit="10" stroke-width="0.742"/>
          <ellipse id="Elipse_4076" data-name="Elipse 4076" cx="0.885" cy="0.885" rx="0.885" ry="0.885" transform="translate(6.14 1.695)" fill="none" stroke="#00223d" stroke-miterlimit="10" stroke-width="0.742"/>
          <path id="Trazado_116140" data-name="Trazado 116140" d="M237.716,264.544a.885.885,0,1,1-.885-.885A.885.885,0,0,1,237.716,264.544Z" transform="translate(-224.359 -261.964)" fill="none" stroke="#00223d" stroke-miterlimit="10" stroke-width="0.742"/>
          <path id="Trazado_116141" data-name="Trazado 116141" d="M245.882,264.544a.885.885,0,1,1-.885-.885A.885.885,0,0,1,245.882,264.544Z" transform="translate(-227.078 -261.964)" fill="none" stroke="#00223d" stroke-miterlimit="10" stroke-width="0.742"/>
          <g id="Grupo_54270" data-name="Grupo 54270" transform="translate(43.34 11.153)">
            <rect id="Rectángulo_29348" data-name="Rectángulo 29348" width="33.896" height="22.514" transform="translate(0)" fill="#d5f2e8"/>
            <path id="Trazado_116142" data-name="Trazado 116142" d="M283.545,277.837l12.973,13.092a5.6,5.6,0,0,0,7.951,0l12.973-13.092Z" transform="translate(-283.545 -277.837)" fill="#8ec8c8"/>
          </g>
          <g id="Grupo_54271" data-name="Grupo 54271" transform="translate(3.564 13.858)">
            <path id="Trazado_116143" data-name="Trazado 116143" d="M244.433,284.731H225.34a1.42,1.42,0,0,1-1.42-1.42h0a1.42,1.42,0,0,1,1.42-1.42h19.093a1.42,1.42,0,0,1,1.42,1.42h0A1.42,1.42,0,0,1,244.433,284.731Z" transform="translate(-223.92 -281.891)" fill="none" stroke="#00223d" stroke-miterlimit="10" stroke-width="0.742"/>
            <path id="Trazado_116144" data-name="Trazado 116144" d="M255.146,295.423H225.34A1.421,1.421,0,0,1,223.92,294h0a1.42,1.42,0,0,1,1.42-1.42h29.805a1.42,1.42,0,0,1,1.42,1.42h0A1.421,1.421,0,0,1,255.146,295.423Z" transform="translate(-223.92 -285.451)" fill="none" stroke="#00223d" stroke-miterlimit="10" stroke-width="0.742"/>
            <path id="Trazado_116145" data-name="Trazado 116145" d="M255.146,306.114H225.34a1.421,1.421,0,0,1-1.42-1.42h0a1.42,1.42,0,0,1,1.42-1.42h29.805a1.42,1.42,0,0,1,1.42,1.42h0A1.42,1.42,0,0,1,255.146,306.114Z" transform="translate(-223.92 -289.01)" fill="none" stroke="#00223d" stroke-miterlimit="10" stroke-width="0.742"/>
          </g>
        </g>
        <g id="Grupo_54274" data-name="Grupo 54274" transform="translate(156.053 137.951)">
          <ellipse id="Elipse_4077" data-name="Elipse 4077" cx="6.525" cy="6.525" rx="6.525" ry="6.525" fill="#1565c0"/>
          <g id="Grupo_54273" data-name="Grupo 54273" transform="translate(2.855 4.03)">
            <path id="Trazado_116146" data-name="Trazado 116146" d="M340.613,257.5v4.905h-1.135v-3.994H338.5V257.5Z" transform="translate(-338.496 -257.42)" fill="#fff"/>
            <path id="Trazado_116147" data-name="Trazado 116147" d="M347.536,261.443v.925h-3.707v-.736l1.892-1.786c.435-.414.512-.666.512-.9,0-.385-.267-.609-.785-.609a1.2,1.2,0,0,0-1.017.49l-.827-.533a2.279,2.279,0,0,1,1.948-.911c1.093,0,1.822.56,1.822,1.45a1.958,1.958,0,0,1-.82,1.549l-1.129,1.065Z" transform="translate(-340.197 -257.378)" fill="#fff"/>
          </g>
        </g>
        <g id="Grupo_54275" data-name="Grupo 54275" transform="translate(183.274 203.028)">
          <rect id="Rectángulo_29349" data-name="Rectángulo 29349" width="57.755" height="39.088" fill="#525d54"/>
          <path id="Trazado_116148" data-name="Trazado 116148" d="M419.881,359.961h26.47V348.891H415.8Z" transform="translate(-388.596 -348.891)" fill="#69746b"/>
          <ellipse id="Elipse_4078" data-name="Elipse 4078" cx="6.533" cy="6.533" rx="6.533" ry="6.533" transform="translate(21.847 17.949)" fill="none" stroke="#fff" stroke-miterlimit="10" stroke-width="0.755"/>
          <path id="Trazado_116149" data-name="Trazado 116149" d="M419.825,382.337h-3.512v-3.512h-2v3.512H410.8v2h3.512v3.512h2v-3.512h3.512Z" transform="translate(-386.933 -358.857)" fill="#fff"/>
        </g>
      </g>
    </g>
    <g id="Grupo_985383" data-name="Grupo 985383" transform="translate(-2807.028 -4689.708)">
      <g id="freepik--Character--inject-81" transform="translate(0 46.265)">
        <path id="Trazado_143908" data-name="Trazado 143908" d="M13691.576,5016.8s11.467,16.117,13.615,16.816c7.356,2.444,15.491-14.484,15.491-14.484l-4.374.962-8.027,5.064-8.762-11.981-7.943,4.571" transform="translate(-13623.733 -4975.597)" fill="#a57e6d"/>
        <path id="Trazado_143909" data-name="Trazado 143909" d="M13724.975,5044.911a1.862,1.862,0,0,1-.105-.784,5.371,5.371,0,0,1,1.3-3.523,1.984,1.984,0,0,1,.592-.523,7.082,7.082,0,0,0-1.783,4.831Z" transform="translate(-13642.118 -4990.453)" fill="#755246"/>
        <path id="Trazado_143910" data-name="Trazado 143910" d="M13728.694,5257.659l1.64,7.705,5.395.484,2.273-2.557-2.08-9.2Z" transform="translate(-13644.232 -5108.648)" fill="#a57e6d"/>
        <path id="Trazado_143911" data-name="Trazado 143911" d="M13655.295,5258.994c-.077.25,0,9.85,0,9.85l3.026,1.792,3.953-2.374.837-9.282Z" transform="translate(-13603.678 -5111.348)" fill="#a57e6d"/>
        <path id="Trazado_143912" data-name="Trazado 143912" d="M13639.943,5072.483a81.63,81.63,0,0,0-5.548,13.346c-1.666,6-3.256,9.434-1.541,14.824s4,25.819,5.132,31.21c.926,4.441,2.981,21.831,4.476,27.342h8.405l.854-61.74s14.942,34.671,16.656,38.835,6.738,21.938,6.738,21.938l8.7-1.343s-5.27-30.745-6.863-38.1-6.125-27.311-7.96-33.579-1.648-10.58-4.254-13.619Z" transform="translate(-13590.895 -5007.863)" fill="#12263f"/>
        <path id="Trazado_143913" data-name="Trazado 143913" d="M13677.842,5076.068a.363.363,0,0,1,.165-.116.852.852,0,0,1,.562,0,.834.834,0,0,1,.55.631.9.9,0,0,1-1.425.9.828.828,0,0,1-.325-.77.814.814,0,0,1,.24-.5c.094-.094.166-.112.175-.1a1.2,1.2,0,0,0-.25.614.665.665,0,0,0,.286.586.684.684,0,0,0,1.083-.676.661.661,0,0,0-.4-.515A1.131,1.131,0,0,0,13677.842,5076.068Z" transform="translate(-13615.883 -5010.238)" fill="#5e6178"/>
        <path id="Trazado_143914" data-name="Trazado 143914" d="M13677.779,5091.079a.977.977,0,0,1-.2.059c-.139.031-.34.067-.6.1a8.259,8.259,0,0,1-2.238-.036,6.086,6.086,0,0,1-.74-.152.94.94,0,0,1-.37-.219.755.755,0,0,1-.2-.407c-.072-.577-.068-1.151-.1-1.791-.053-1.245-.106-2.609-.169-4.029-.113-2.871-.2-5.466-.256-7.347,0-.9-.04-1.666-.054-2.239v-.6a.634.634,0,0,1,0-.21.772.772,0,0,1,.032.21c0,.166.031.363.049.6.031.56.072,1.313.126,2.239.093,1.881.21,4.477.322,7.343.054,1.433.107,2.8.151,4.029.032.614.022,1.231.076,1.75a.6.6,0,0,0,.448.493,5.791,5.791,0,0,0,.707.161,9.209,9.209,0,0,0,2.2.107A6.086,6.086,0,0,1,13677.779,5091.079Z" transform="translate(-13613.383 -5009.298)" fill="#5e6178"/>
        <path id="Trazado_143915" data-name="Trazado 143915" d="M13701.224,5083.549a1.351,1.351,0,0,1-.345.255,4.477,4.477,0,0,1-1.082.448,4.728,4.728,0,0,1-5.818-3.3,3.807,3.807,0,0,1-.088-.375,4.542,4.542,0,0,1-.075-1.173,1.361,1.361,0,0,1,.075-.447,8.236,8.236,0,0,0,.162,1.562,4.708,4.708,0,0,0,5.619,3.576l.1-.025A8.263,8.263,0,0,0,13701.224,5083.549Z" transform="translate(-13624.967 -5011.927)" fill="#5e6178"/>
        <path id="Trazado_143916" data-name="Trazado 143916" d="M13685.93,5077.257a15.458,15.458,0,0,1-.119-3.757A14.981,14.981,0,0,1,13685.93,5077.257Z" transform="translate(-13620.516 -5008.911)" fill="#5e6178"/>
        <path id="Trazado_143917" data-name="Trazado 143917" d="M13689.357,5076.723a10.681,10.681,0,0,1,0-1.854,9.6,9.6,0,0,1,.107-1.849,5.94,5.94,0,0,1,.125,1.858A5.858,5.858,0,0,1,13689.357,5076.723Z" transform="translate(-13622.486 -5008.646)" fill="#5e6178"/>
        <path id="Trazado_143918" data-name="Trazado 143918" d="M13679.555,5079.107a1.171,1.171,0,0,1-.226.063l-.648.134c-.562.117-1.388.255-2.409.4a66.2,66.2,0,0,1-16.081.328c-1.026-.108-1.854-.215-2.423-.305l-.652-.107a.82.82,0,0,1-.229-.054.806.806,0,0,1,.232,0l.663.063c.567.063,1.4.143,2.426.228a79.373,79.373,0,0,0,8.029.26,78.458,78.458,0,0,0,8.014-.586c1.019-.125,1.849-.237,2.417-.326l.657-.091A1.341,1.341,0,0,1,13679.555,5079.107Z" transform="translate(-13604.575 -5012.006)" fill="#5e6178"/>
        <path id="Trazado_143919" data-name="Trazado 143919" d="M13649.859,5081.81a3.159,3.159,0,0,1-.645,1.012,6.229,6.229,0,0,1-5.2,2.238,3.194,3.194,0,0,1-1.18-.236c0-.04.447.063,1.187.072a6.687,6.687,0,0,0,5.068-2.189C13649.59,5082.186,13649.823,5081.81,13649.859,5081.81Z" transform="translate(-13596.813 -5013.5)" fill="#5e6178"/>
        <path id="Trazado_143920" data-name="Trazado 143920" d="M13682.963,5093.583c-.066,0-.144-2.189-.17-4.884s0-4.889.062-4.889.14,2.185.171,4.884S13683.025,5093.583,13682.963,5093.583Z" transform="translate(-13618.877 -5014.604)" fill="#5e6178"/>
        <path id="Trazado_143921" data-name="Trazado 143921" d="M13675.93,5121.724a17.772,17.772,0,0,1-.062-2.875,18.2,18.2,0,0,1,.17-2.87,35.405,35.405,0,0,1-.108,5.744Z" transform="translate(-13615.041 -5032.372)" fill="#5e6178"/>
        <path id="Trazado_143922" data-name="Trazado 143922" d="M13695.211,5116.049a9.516,9.516,0,0,1-1.4.255c-.868.139-2.069.332-3.386.574s-2.506.5-3.365.685a10.185,10.185,0,0,1-1.4.265,7.3,7.3,0,0,1,1.343-.448c.854-.229,2.041-.506,3.362-.752s2.53-.412,3.407-.506A7.544,7.544,0,0,1,13695.211,5116.049Z" transform="translate(-13620.465 -5032.406)" fill="#5e6178"/>
        <path id="Trazado_143923" data-name="Trazado 143923" d="M13696.121,5120.509a14.231,14.231,0,0,1-1.639.054c-1.012,0-2.409.048-3.949.129s-2.933.188-3.944.274a13.741,13.741,0,0,1-1.635.111,1.356,1.356,0,0,1,.448-.1c.278-.053.685-.112,1.187-.175,1.007-.129,2.4-.268,3.947-.349s2.951-.081,3.965-.053c.51,0,.9.031,1.2.049A1.532,1.532,0,0,1,13696.121,5120.509Z" transform="translate(-13620.076 -5034.804)" fill="#5e6178"/>
        <path id="Trazado_143924" data-name="Trazado 143924" d="M13658.731,5114.771a9.035,9.035,0,0,1-1.156-.448,27.675,27.675,0,0,0-2.807-.989,27.134,27.134,0,0,0-2.9-.663,8.614,8.614,0,0,1-1.219-.228,4.916,4.916,0,0,1,1.241.062,18.9,18.9,0,0,1,5.748,1.666A5.07,5.07,0,0,1,13658.731,5114.771Z" transform="translate(-13601.134 -5030.411)" fill="#5e6178"/>
        <path id="Trazado_143925" data-name="Trazado 143925" d="M13739.818,5272.73v.6s10.328,3.81,10.494,5.744l-20.277.479.117-6.755A11.691,11.691,0,0,0,13739.818,5272.73Z" transform="translate(-13644.974 -5118.942)" fill="#43a99b"/>
        <g id="Grupo_90184" data-name="Grupo 90184" transform="translate(86.713 155.943)" opacity="0.6">
          <path id="Trazado_143926" data-name="Trazado 143926" d="M13734.294,5277.565a.828.828,0,0,0-.552.958.8.8,0,0,0,.945.555.868.868,0,0,0,.577-1.016.833.833,0,0,0-1.047-.47" transform="translate(-13733.725 -5277.544)" fill="#ffbf9d"/>
        </g>
        <g id="Grupo_90185" data-name="Grupo 90185" transform="translate(85.079 158.986)" opacity="0.6">
          <path id="Trazado_143927" data-name="Trazado 143927" d="M13730.076,5285.966l.026-1.625,19.422.134s.9.372.829,1.012Z" transform="translate(-13730.076 -5284.341)" fill="#ffbf9d"/>
        </g>
        <path id="Trazado_143928" data-name="Trazado 143928" d="M13749.837,5274.1c0,.1-.491.152-.971.483s-.729.752-.823.716.045-.613.63-1S13749.86,5274,13749.837,5274.1Z" transform="translate(-13654.904 -5119.649)" fill="#344154"/>
        <path id="Trazado_143929" data-name="Trazado 143929" d="M13755.26,5276c.027.094-.4.273-.725.7s-.416.873-.515.873-.175-.56.243-1.083S13755.257,5275.89,13755.26,5276Z" transform="translate(-13658.179 -5120.723)" fill="#344154"/>
        <path id="Trazado_143930" data-name="Trazado 143930" d="M13759.558,5279.541c-.09.022-.238-.47,0-1.017s.7-.774.743-.694-.236.38-.447.833S13759.655,5279.527,13759.558,5279.541Z" transform="translate(-13661.208 -5121.75)" fill="#344154"/>
        <path id="Trazado_143931" data-name="Trazado 143931" d="M13657.007,5277.87s-5.374,3.819-7.994.511l-.679,1.607-3.063,11.421a1.533,1.533,0,0,0,.865,1.831,1.481,1.481,0,0,0,1.566-.3c2.212-2.1,10.325-9.9,10.243-10.955l-.03-2.8a1.424,1.424,0,0,0-.9-1.312Z" transform="translate(-13598.127 -5121.78)" fill="#43a99b"/>
        <g id="Grupo_90186" data-name="Grupo 90186" transform="translate(48.272 159.228)" opacity="0.6">
          <path id="Trazado_143932" data-name="Trazado 143932" d="M13647.866,5297.188l11.55-12.308v.613a1.662,1.662,0,0,1-.546,1.344c-.935,1.263-3.52,4.078-9.655,9.966a1.462,1.462,0,0,1-1.345.376Z" transform="translate(-13647.866 -5284.88)" fill="#ffbf9d"/>
        </g>
        <g id="Grupo_90187" data-name="Grupo 90187" transform="translate(57.762 157.274)" opacity="0.6">
          <path id="Trazado_143933" data-name="Trazado 143933" d="M13669.432,5280.648a.892.892,0,0,0-.252,1.168.87.87,0,0,0,1.16.26.94.94,0,0,0,.254-1.241.9.9,0,0,0-1.23-.134" transform="translate(-13669.061 -5280.517)" fill="#ffbf9d"/>
        </g>
        <path id="Trazado_143934" data-name="Trazado 143934" d="M13651.69,5296.247a4.488,4.488,0,0,0-1.266-1.132,5.168,5.168,0,0,0-1.662-.322c-.018-.09.171-.148.511-.2a2.333,2.333,0,0,1,1.294.237,2.229,2.229,0,0,1,.968.895C13651.705,5296.028,13651.728,5296.234,13651.69,5296.247Z" transform="translate(-13600.089 -5131.011)" fill="#344154"/>
        <path id="Trazado_143935" data-name="Trazado 143935" d="M13649.676,5301.33c-.071.063-.532-.407-1.28-.626s-1.389-.1-1.409-.188a1.612,1.612,0,0,1,1.5-.116C13649.336,5300.658,13649.747,5301.29,13649.676,5301.33Z" transform="translate(-13599.107 -5134.164)" fill="#344154"/>
        <path id="Trazado_143936" data-name="Trazado 143936" d="M13654.607,5290.688a14.282,14.282,0,0,0-1.907-1.1,17.563,17.563,0,0,0-2.145-.506,3.164,3.164,0,0,1,2.262.21A3.265,3.265,0,0,1,13654.607,5290.688Z" transform="translate(-13601.079 -5127.91)" fill="#344154"/>
        <path id="Trazado_143937" data-name="Trazado 143937" d="M13655.523,5284.229c-.035.089-.837-.247-1.877-.291s-1.86.206-1.893.116a3.59,3.59,0,0,1,3.77.175Z" transform="translate(-13601.74 -5124.947)" fill="#344154"/>
        <path id="Trazado_143938" data-name="Trazado 143938" d="M13652.274,5281.012a1.278,1.278,0,0,1,.079-.542,3.841,3.841,0,0,1,.694-1.343,1.656,1.656,0,0,1,.855-.658.586.586,0,0,1,.635.255.961.961,0,0,1,.109.68,2.1,2.1,0,0,1-2.162,1.567,2.426,2.426,0,0,1-2.11-1.688.814.814,0,0,1,.09-.694.582.582,0,0,1,.658-.192,2.061,2.061,0,0,1,.841.663,4.18,4.18,0,0,1,.767,1.285,1.274,1.274,0,0,1,.125.533,6.784,6.784,0,0,0-1.057-1.67,1.925,1.925,0,0,0-.752-.561.318.318,0,0,0-.357.1.572.572,0,0,0-.032.448,2.165,2.165,0,0,0,1.845,1.442,1.791,1.791,0,0,0,1.854-1.3.711.711,0,0,0-.049-.479.319.319,0,0,0-.35-.144,1.5,1.5,0,0,0-.738.542A5.692,5.692,0,0,0,13652.274,5281.012Z" transform="translate(-13600.956 -5122.053)" fill="#344154"/>
        <path id="Trazado_143939" data-name="Trazado 143939" d="M13680.02,4982.568c-.842-.671-1.826-1.141-2.687-1.768a6.392,6.392,0,0,1-1.885-3.34l-6.908.6a27.164,27.164,0,0,0-.9,8.376,5.3,5.3,0,0,0,1.04,3.372,5.916,5.916,0,0,0,3.582,1.45l6.3,1.008a3.842,3.842,0,0,0,2.238-.1,2.957,2.957,0,0,0,1.343-1.679A7.129,7.129,0,0,0,13680.02,4982.568Z" transform="translate(-13610.498 -4955.87)" fill="#344154"/>
        <path id="Trazado_143940" data-name="Trazado 143940" d="M13638.108,4962.119a23.051,23.051,0,0,1,.216-6.174,70.278,70.278,0,0,0,0-9.116,53.3,53.3,0,0,1,.165-9.08c.4-2.942,1.343-5.745,2.942-7.324a3.524,3.524,0,0,1,5.494.268l-.629,7.754a225.232,225.232,0,0,1,.341,33.073,17.46,17.46,0,0,1-6.384.063,1.341,1.341,0,0,1-1.163-.864,4.817,4.817,0,0,1,.235-2.359,7.263,7.263,0,0,0-.336-3.2A29.151,29.151,0,0,1,13638.108,4962.119Z" transform="translate(-13594.122 -4929.237)" fill="#344154"/>
        <path id="Trazado_143941" data-name="Trazado 143941" d="M13650.613,4932.152a5.393,5.393,0,0,1,2.239-1.343,1.821,1.821,0,0,1,1.047-.067.789.789,0,0,1,.587.788l-2.068,2.928a1.425,1.425,0,0,1-1.571.072,1.463,1.463,0,0,1-.858-.918A1.69,1.69,0,0,1,13650.613,4932.152Z" transform="translate(-13600.761 -4930.042)" fill="#5e6178"/>
        <path id="Trazado_143942" data-name="Trazado 143942" d="M13677.155,4996.9" transform="translate(-13615.769 -4966.606)" fill="#ffbe9d"/>
        <path id="Trazado_143943" data-name="Trazado 143943" d="M13666.039,4943.582a8.212,8.212,0,0,0-8.307-7.522,7.974,7.974,0,0,0-7.873,8.074c0,.106.008.213.012.32l1.529,17.908a1.546,1.546,0,0,0,.414.927,7.312,7.312,0,0,0,5.047,2.274,7.653,7.653,0,0,0,4.535-1.652,1.518,1.518,0,0,0,.576-1.41l-.559-4.616h0a10.625,10.625,0,0,0,1.186-.224c1.01-.412,3.469-1.182,3.582-5.238A81.92,81.92,0,0,0,13666.039,4943.582Z" transform="translate(-13600.692 -4933.005)" fill="#a57e6d"/>
        <path id="Trazado_143944" data-name="Trazado 143944" d="M13673.825,4960.616a4.783,4.783,0,0,1,1.133-.291c.18-.032.349-.081.372-.2a.932.932,0,0,0-.165-.52c-.2-.416-.418-.855-.646-1.312a23.489,23.489,0,0,1-1.482-3.443,24.085,24.085,0,0,1,1.765,3.317c.214.448.42.9.622,1.344a1.029,1.029,0,0,1,.146.689.444.444,0,0,1-.277.282,1.285,1.285,0,0,1-.3.067A4.806,4.806,0,0,1,13673.825,4960.616Z" transform="translate(-13613.491 -4943.382)" fill="#344154"/>
        <path id="Trazado_143945" data-name="Trazado 143945" d="M13681.382,4957.854a.646.646,0,0,1-.583.7.632.632,0,0,1-.724-.522v-.006a.651.651,0,0,1,.58-.7.636.636,0,0,1,.727.531Z" transform="translate(-13617.382 -4944.744)" fill="#344154"/>
        <path id="Trazado_143946" data-name="Trazado 143946" d="M13680.394,4954.863c-.062.112-.631-.255-1.343-.147s-1.146.609-1.24.515,0-.238.2-.448a1.554,1.554,0,0,1,.969-.542,1.574,1.574,0,0,1,1.088.247C13680.322,4954.635,13680.425,4954.81,13680.394,4954.863Z" transform="translate(-13616.112 -4943.038)" fill="#344154"/>
        <path id="Trazado_143947" data-name="Trazado 143947" d="M13666.54,4959.244a.645.645,0,0,1-.582.7.631.631,0,0,1-.725-.522v-.01a.643.643,0,0,1,.582-.7.635.635,0,0,1,.726.531Z" transform="translate(-13609.183 -4945.512)" fill="#344154"/>
        <path id="Trazado_143948" data-name="Trazado 143948" d="M13664.871,4956.153c-.086.106-.642-.336-1.406-.323s-1.316.448-1.4.345.04-.237.278-.448a1.777,1.777,0,0,1,2.242-.019C13664.825,4955.92,13664.91,4956.108,13664.871,4956.153Z" transform="translate(-13607.42 -4943.642)" fill="#344154"/>
        <path id="Trazado_143949" data-name="Trazado 143949" d="M13667.822,4983.2a11.546,11.546,0,0,1-6.357-1.308s1.42,3.448,6.516,2.589Z" transform="translate(-13607.104 -4958.316)" fill="#755246"/>
        <path id="Trazado_143950" data-name="Trazado 143950" d="M13671.873,4971.024a1.309,1.309,0,0,0-1.18-.38,1.18,1.18,0,0,0-.771.488.73.73,0,0,0,0,.833.9.9,0,0,0,.949.162,2.673,2.673,0,0,0,.859-.6.8.8,0,0,0,.189-.22.233.233,0,0,0,0-.26" transform="translate(-13611.703 -4952.093)" fill="#755246"/>
        <path id="Trazado_143951" data-name="Trazado 143951" d="M13665.267,4950.853c-.056.193-.767.17-1.586.345s-1.468.448-1.593.3c-.059-.076.039-.264.29-.448a2.728,2.728,0,0,1,1.156-.524,2.825,2.825,0,0,1,1.271.027C13665.117,4950.62,13665.288,4950.758,13665.267,4950.853Z" transform="translate(-13607.439 -4940.961)" fill="#344154"/>
        <path id="Trazado_143952" data-name="Trazado 143952" d="M13679.676,4951.449c-.139.166-.725.027-1.429.049s-1.279.166-1.427,0c-.063-.08.022-.241.272-.4a2.526,2.526,0,0,1,2.293-.022C13679.651,4951.207,13679.74,4951.368,13679.676,4951.449Z" transform="translate(-13615.572 -4941.15)" fill="#344154"/>
        <path id="Trazado_143953" data-name="Trazado 143953" d="M13655.575,4932.922a2.412,2.412,0,0,0-1.961-.761,9.193,9.193,0,0,0-7.738,5.233,10.4,10.4,0,0,0,.812,9.478l1.194.036c2.41-.5,5.507-7.862,8.369-12.089C13656.608,4934.283,13655.973,4933.414,13655.575,4932.922Z" transform="translate(-13598.057 -4930.848)" fill="#344154"/>
        <path id="Trazado_143954" data-name="Trazado 143954" d="M13674.462,4934.092c-1.518-1.293-3.895-2.789-6.442-1.366-.286.815.658,1.679,1.41,2.154,1.1.7,2.038,1.137,2.768,1.647,1.478,1.026,3.38,2.8,3.832,5.011.03.139.064,4.5.2,4.454s.543-5.373.583-6.622A5.878,5.878,0,0,0,13674.462,4934.092Z" transform="translate(-13610.694 -4930.845)" fill="#344154"/>
        <path id="Trazado_143955" data-name="Trazado 143955" d="M13649.055,4961.575c-.081-.026-3.136-.747-2.862,2.3a2.3,2.3,0,0,0,3.265,2.073C13649.453,4965.86,13649.055,4961.575,13649.055,4961.575Z" transform="translate(-13598.657 -4947.045)" fill="#a57e6d"/>
        <path id="Trazado_143956" data-name="Trazado 143956" d="M13649.4,4966.136a1.069,1.069,0,0,1-.134.09.514.514,0,0,1-.4.04,1.316,1.316,0,0,1-.708-1.124,1.738,1.738,0,0,1,.086-.774.615.615,0,0,1,.367-.448.269.269,0,0,1,.322.121c.049.081.035.144.053.148s.059-.058.021-.179a.329.329,0,0,0-.134-.184.388.388,0,0,0-.3-.049.751.751,0,0,0-.516.519,1.777,1.777,0,0,0-.111.865,1.376,1.376,0,0,0,.895,1.249.561.561,0,0,0,.479-.121C13649.4,4966.208,13649.415,4966.141,13649.4,4966.136Z" transform="translate(-13599.634 -4948.307)" fill="#755246"/>
        <path id="Trazado_143957" data-name="Trazado 143957" d="M13676.524,4937.67a3.348,3.348,0,0,1-.869.229,12.659,12.659,0,0,1-4.32,0,3.073,3.073,0,0,1-.869-.219,6.01,6.01,0,0,1,.9.09,19.416,19.416,0,0,0,2.139.116,18.561,18.561,0,0,0,2.141-.143A5.136,5.136,0,0,1,13676.524,4937.67Z" transform="translate(-13612.075 -4933.895)" fill="#5e6178"/>
        <path id="Trazado_143958" data-name="Trazado 143958" d="M13681.418,4941.738a1.677,1.677,0,0,1-.639.242,5.1,5.1,0,0,1-3.246-.291,1.737,1.737,0,0,1-.586-.35,6.981,6.981,0,0,0,4.471.4Z" transform="translate(-13615.654 -4935.921)" fill="#5e6178"/>
        <path id="Trazado_143959" data-name="Trazado 143959" d="M13646.285,4940.259c0-.041.668,0,1.723-.17a13.041,13.041,0,0,0,1.822-.421,17.169,17.169,0,0,0,2.127-.851,18.816,18.816,0,0,0,1.988-1.142,17.408,17.408,0,0,0,1.5-1.132c.809-.69,1.252-1.191,1.275-1.164a2.406,2.406,0,0,1-.293.363,4.974,4.974,0,0,1-.371.4c-.152.153-.322.327-.529.5a14.248,14.248,0,0,1-1.482,1.173,16.955,16.955,0,0,1-2,1.168,15.774,15.774,0,0,1-2.162.846,12.025,12.025,0,0,1-1.854.389,6.439,6.439,0,0,1-.725.063,3.84,3.84,0,0,1-.551,0A2.07,2.07,0,0,1,13646.285,4940.259Z" transform="translate(-13598.721 -4932.628)" fill="#5e6178"/>
        <path id="Trazado_143960" data-name="Trazado 143960" d="M13657.758,4937.81a2.381,2.381,0,0,1-.191.448,4.448,4.448,0,0,1-.259.515c-.113.193-.225.426-.385.658a12.655,12.655,0,0,1-1.183,1.594,13.462,13.462,0,0,1-1.765,1.67,13.235,13.235,0,0,1-2.06,1.3,12.328,12.328,0,0,1-1.845.735c-.264.089-.519.139-.734.2s-.406.084-.562.111a2.972,2.972,0,0,1-.489.058c0-.039.685-.143,1.746-.5a13.574,13.574,0,0,0,1.792-.762,13.047,13.047,0,0,0,3.769-2.928,13.725,13.725,0,0,0,1.2-1.549C13657.432,4938.423,13657.723,4937.81,13657.758,4937.81Z" transform="translate(-13599.825 -4933.971)" fill="#5e6178"/>
        <path id="Trazado_143961" data-name="Trazado 143961" d="M13664.136,4932.094a1.172,1.172,0,0,1,.614-.036,2.659,2.659,0,0,1,1.342.627,2.232,2.232,0,0,1,.3.318,1.83,1.83,0,0,1,.2.349,4.381,4.381,0,0,1,.251.618.908.908,0,0,1,.032.614c-.032,0-.023-.233-.157-.569a6.4,6.4,0,0,0-.283-.582,1.709,1.709,0,0,0-.187-.318,2.409,2.409,0,0,0-.273-.287,2.88,2.88,0,0,0-1.244-.635C13664.369,4932.113,13664.14,4932.126,13664.136,4932.094Z" transform="translate(-13608.579 -4930.781)" fill="#5e6178"/>
        <path id="Trazado_143962" data-name="Trazado 143962" d="M13645.91,4946.284a.513.513,0,0,0-.046-.157c-.03-.1-.084-.247-.142-.448a13.9,13.9,0,0,1-.448-1.634,11.709,11.709,0,0,1-.229-2.49,9.856,9.856,0,0,1,.51-3,7.779,7.779,0,0,1,.672-1.428,8.367,8.367,0,0,1,.9-1.177,10.079,10.079,0,0,1,1.894-1.625,14.4,14.4,0,0,1,1.454-.86l.412-.21a.633.633,0,0,0,.141-.081l-.149.054c-.1.044-.245.1-.426.188a12.105,12.105,0,0,0-1.485.824,10,10,0,0,0-1.939,1.621,8.393,8.393,0,0,0-.9,1.2,7.537,7.537,0,0,0-.688,1.455,9.7,9.7,0,0,0-.506,3.049,11.337,11.337,0,0,0,.259,2.508,11.51,11.51,0,0,0,.476,1.634c.066.192.134.331.169.447A.991.991,0,0,0,13645.91,4946.284Z" transform="translate(-13597.975 -4931.409)" fill="#5e6178"/>
        <path id="Trazado_143963" data-name="Trazado 143963" d="M13671.746,4971.64c0-.094-.694-.192-1.5-.551s-1.37-.9-1.416-.81a2.733,2.733,0,0,0,1.344,1.1A2.3,2.3,0,0,0,13671.746,4971.64Z" transform="translate(-13611.175 -4951.899)" fill="#344154"/>
        <path id="Trazado_143964" data-name="Trazado 143964" d="M13661.368,4990.649l-4.38-.52-10.354,1.339-5.289,2.945,9.188,3.873,6.685-1.369Z" transform="translate(-13595.991 -4962.867)" fill="#a57e6d"/>
        <path id="Trazado_143965" data-name="Trazado 143965" d="M13638.329,4992.607l-7.335,2.991,1.645,14.081s2.726-.977,4.189,6.137a65.825,65.825,0,0,1,1.487,11.668l26.675-.95s-.972-17.053-1.46-20.855l-1.79-14.519-6.881-1.151S13648.227,5001.211,13638.329,4992.607Z" transform="translate(-13590.274 -4962.801)" fill="#43a99b"/>
        <path id="Trazado_143966" data-name="Trazado 143966" d="M13697.063,4992.577s3.249-.233,5.82,4.262c1.952,3.421,2.641,4.742,2.641,4.742l-7.556,4.415-3.022-8.251Z" transform="translate(-13625.596 -4964.217)" fill="#43a99b"/>
        <path id="Trazado_143967" data-name="Trazado 143967" d="M13621.465,5002.38a16.451,16.451,0,0,0-4.477,3.8,48.781,48.781,0,0,0-3.412,6.08l8.955,4.979,1.343-2.557Z" transform="translate(-13580.656 -4969.632)" fill="#43a99b"/>
        <path id="Trazado_143968" data-name="Trazado 143968" d="M13635.242,5015.8c-.041,0,.193-.613.4-1.62a11.884,11.884,0,0,0,.238-1.791,13.719,13.719,0,0,0-.055-2.2,14.245,14.245,0,0,0-.448-2.157,11.905,11.905,0,0,0-.631-1.688c-.447-.932-.787-1.465-.751-1.486a1.679,1.679,0,0,1,.277.354,8.2,8.2,0,0,1,.622,1.062,11.1,11.1,0,0,1,.689,1.7,12.684,12.684,0,0,1,.448,2.2,12.254,12.254,0,0,1,.04,2.239,10.672,10.672,0,0,1-.291,1.79,8.216,8.216,0,0,1-.367,1.174A1.48,1.48,0,0,1,13635.242,5015.8Z" transform="translate(-13591.931 -4970.997)" fill="#344154"/>
        <path id="Trazado_143969" data-name="Trazado 143969" d="M13697.672,5000.713a30.325,30.325,0,0,0-1.019-2.986q-.7-1.421-1.528-2.767a3.113,3.113,0,0,1,.618.708,10.957,10.957,0,0,1,1.822,4.114A2.8,2.8,0,0,1,13697.672,5000.713Z" transform="translate(-13625.693 -4965.534)" fill="#344154"/>
        <path id="Trazado_143970" data-name="Trazado 143970" d="M13665.2,4990.06a.93.93,0,0,1-.072.229c-.062.144-.134.363-.269.628a10.706,10.706,0,0,1-1.344,2.121,11.8,11.8,0,0,1-2.744,2.512,11.6,11.6,0,0,1-12.231.292,10.8,10.8,0,0,1-2.011-1.5c-.22-.2-.367-.376-.475-.487s-.157-.18-.147-.184.242.219.686.6a11.86,11.86,0,0,0,2.027,1.423,12.021,12.021,0,0,0,3.43,1.281,11.244,11.244,0,0,0,8.6-1.607,12.07,12.07,0,0,0,2.735-2.437,11.861,11.861,0,0,0,1.38-2.059C13665.042,4990.355,13665.2,4990.056,13665.2,4990.06Z" transform="translate(-13598.508 -4962.828)" fill="#344154"/>
        <path id="Trazado_143971" data-name="Trazado 143971" d="M13650.416,4996.391a70.873,70.873,0,0,1-2.973-14.681c-.3-3.514-1.218-6.348-1.344-9.81l-2,3.542a96.44,96.44,0,0,0-2.189,13.529c-.131,1.428-.18,3.022.751,4.115.747.895,2.037,1.3,2.449,2.376.447,1.164-.205,2.884.9,3.465a1.456,1.456,0,0,0,1.669-.417,4.277,4.277,0,0,0,.806-1.643c.1.9,1.152,1.845,1.832,1.24C13650.742,4997.7,13650.6,4996.973,13650.416,4996.391Z" transform="translate(-13596.265 -4952.799)" fill="#344154"/>
        <path id="Trazado_143972" data-name="Trazado 143972" d="M13540.592,5035.46h0a7.241,7.241,0,0,0,9.451,3.941c.2-.083.4-.174.589-.274l99.773-52.034,12.741-18.464-21.906,3.345-97.48,54.416A7.238,7.238,0,0,0,13540.592,5035.46Z" transform="translate(-13540.048 -4950.993)" fill="#f6f6f6"/>
        <path id="Trazado_143973" data-name="Trazado 143973" d="M13543.76,5097.64a7.239,7.239,0,0,0-3.168,9.071h0a7.241,7.241,0,0,0,9.451,3.94c.2-.082.4-.174.589-.273Z" transform="translate(-13540.048 -5022.243)" fill="#344154"/>
        <g id="Grupo_90188" data-name="Grupo 90188" transform="translate(3.711 20.981)" opacity="0.4">
          <path id="Trazado_143974" data-name="Trazado 143974" d="M13645.813,4976.1l-97.479,54.416,1.173,2.176,97.863-53.686Z" transform="translate(-13548.334 -4976.1)" fill="#344154"/>
        </g>
        <g id="Grupo_90189" data-name="Grupo 90189" transform="translate(9.455 33.159)" opacity="0.4">
          <path id="Trazado_143975" data-name="Trazado 143975" d="M13660.354,5003.3l-99.188,52.884,1.129,2.091,99.773-52.034Z" transform="translate(-13561.165 -5003.3)" fill="#344154"/>
        </g>
        <g id="Grupo_90190" data-name="Grupo 90190" transform="translate(6.54 26.838)" opacity="0.4">
          <path id="Trazado_143976" data-name="Trazado 143976" d="M13652.818,4989.18l-98.164,53.8,1.563,2.9,98.271-53.7Z" transform="translate(-13554.654 -4989.18)" fill="#344154"/>
        </g>
        <g id="Grupo_90191" data-name="Grupo 90191" transform="translate(101.188 18.935)" opacity="0.4">
          <path id="Trazado_143977" data-name="Trazado 143977" d="M13775.225,4988.695l-9.167-15.12,13.409-2.046,4.124,5.042Z" transform="translate(-13766.058 -4971.529)" fill="#ffbf9d"/>
        </g>
        <path id="Trazado_143978" data-name="Trazado 143978" d="M13747.166,5014.849l1.791-1.89s-.211-4.3.523-5.373l.381-.635s-.381-2.092.743-2.575c.317-.792.73-1.115,1.289-.671,0,0-.313-1.576,1.155-1.791s1.889,6.456,1.889,6.456.736,2.991-.944,2.991a3.783,3.783,0,0,1-2,1.155s-.312,1.791-1.79,1.679Z" transform="translate(-13654.436 -4969.372)" fill="#a57e6d"/>
        <path id="Trazado_143979" data-name="Trazado 143979" d="M13751.541,5023.88a.552.552,0,0,1,.164.215,1.172,1.172,0,0,1,.084.738,1.637,1.637,0,0,1-.549.954,3.319,3.319,0,0,1-1.174.64,8.255,8.255,0,0,1-2.336.448,2.84,2.84,0,0,1-.986-.053,14.83,14.83,0,0,0,3.246-.631,3.337,3.337,0,0,0,1.105-.582,1.541,1.541,0,0,0,.533-.829A1.5,1.5,0,0,0,13751.541,5023.88Z" transform="translate(-13654.201 -4981.506)" fill="#755246"/>
        <path id="Trazado_143980" data-name="Trazado 143980" d="M13758.945,5011.41c-.073,0-.077-1.343-.395-2.946s-.82-2.847-.753-2.874a2.745,2.745,0,0,1,.39.789,12.056,12.056,0,0,1,.592,2.042,12.886,12.886,0,0,1,.228,2.113A2.732,2.732,0,0,1,13758.945,5011.41Z" transform="translate(-13660.304 -4971.405)" fill="#755246"/>
        <path id="Trazado_143981" data-name="Trazado 143981" d="M13756.038,5013.161c-.068,0-.192-1.3-.529-2.879s-.742-2.83-.681-2.852a10.072,10.072,0,0,1,.9,2.8A10.268,10.268,0,0,1,13756.038,5013.161Z" transform="translate(-13658.663 -4972.421)" fill="#755246"/>
        <path id="Trazado_143982" data-name="Trazado 143982" d="M13762.236,5020.118c.053-.036.273.376.131.9s-.539.77-.566.712a7.512,7.512,0,0,0,.342-.771C13762.254,5020.516,13762.174,5020.14,13762.236,5020.118Z" transform="translate(-13662.516 -4979.427)" fill="#755246"/>
        <path id="Trazado_143983" data-name="Trazado 143983" d="M13753.348,5016.773a8.818,8.818,0,0,1-.14-1.635,9.369,9.369,0,0,1-.066-1.638,4.343,4.343,0,0,1,.3,1.625A4.5,4.5,0,0,1,13753.348,5016.773Z" transform="translate(-13657.729 -4975.774)" fill="#755246"/>
        <path id="Trazado_143984" data-name="Trazado 143984" d="M13604.578,5024.45s-5.922,12.487-6.817,14.35-2.343,5.305,0,7.234,18.656,2.051,18.656,2.051l.811-6.577-10.745-2.6,6.313-9.479Z" transform="translate(-13571.22 -4981.822)" fill="#a57e6d"/>
        <path id="Trazado_143985" data-name="Trazado 143985" d="M13642.5,5057.021a5.384,5.384,0,0,1,1.416-1.862c1.025-.9,3.281-1.585,3.582-2.439s1.145-.188.943.873a10.8,10.8,0,0,1-1.521,2.458,4.324,4.324,0,0,0,2.73-.22c1.092-.626,4.926-1.759,5.318-1.222s-.541.8-.967,1.048c-.326.184-2.865,1.442-2.865,1.442a45.839,45.839,0,0,1,5.686.072c.637.241,0,.868-.336.9a8.3,8.3,0,0,0-1.678,1.343,2.288,2.288,0,0,1-1.531.617h-1.174l3.582.376s.613.564-.24.859c-.385.13-11.2,1.688-12.037,1.737-1.449.085-3.742.448-3.742.448l.582-6.715Z" transform="translate(-13595.063 -4997.219)" fill="#a57e6d"/>
        <path id="Trazado_143986" data-name="Trazado 143986" d="M13671.32,5065.19a7.689,7.689,0,0,1-2.417.72,7.858,7.858,0,0,1-2.508.148c0-.067,1.115-.135,2.467-.376S13671.3,5065.127,13671.32,5065.19Z" transform="translate(-13609.828 -5004.316)" fill="#755246"/>
      </g>
      <g id="freepik--speech-bubble--inject-81" transform="translate(304.471 0)">
        <path id="Trazado_143987" data-name="Trazado 143987" d="M13703.067,4931.542l2.811-4.96a13.295,13.295,0,1,1,3.183,3.542h0Z" transform="translate(-13703.067 -4906.301)" fill="url(#linear-gradient-2)"/>
        <path id="Trazado_143988" data-name="Trazado 143988" d="M13703.067,4931.534l6.012-1.343h.081l-.049-.067h0l-.078.072a13.29,13.29,0,0,0,6.376,2.687,12.1,12.1,0,0,0,2.1.107c.364,0,.73-.027,1.105-.058l1.119-.17a13.323,13.323,0,0,0,10.584-15.59c-.053-.267-.11-.533-.179-.8a13.055,13.055,0,0,0-2.852-5.472,13.359,13.359,0,0,0-5.122-3.658,13.594,13.594,0,0,0-5.962-.917,13.078,13.078,0,0,0-5.473,1.621,13.5,13.5,0,0,0-6.309,7.768,14.366,14.366,0,0,0-.577,4.325,13.224,13.224,0,0,0,1.993,6.59v-.054l-2.768,4.987,2.856-4.925v-.053a13.21,13.21,0,0,1-1.929-6.542,14.268,14.268,0,0,1,.591-4.271,13.333,13.333,0,0,1,6.23-7.687,12.954,12.954,0,0,1,5.374-1.581,13.353,13.353,0,0,1,5.869.9,13.141,13.141,0,0,1,5.04,3.582,12.849,12.849,0,0,1,2.808,5.372,13.427,13.427,0,0,1,.162,5.821,13.265,13.265,0,0,1-10.392,10.347l-1.105.17c-.368.031-.735.04-1.093.063a11.286,11.286,0,0,1-2.078-.1,13.209,13.209,0,0,1-6.33-2.624l-.331-.255.256.327h0l.029-.084Z" transform="translate(-13703.067 -4906.294)" fill="#344154"/>
        <path id="Trazado_143989" data-name="Trazado 143989" d="M13719.745,4931.109l1.858-1.858,3.582,3.183,7.032-6.765,1.726,1.854-9.022,8.493Z" transform="translate(-13712.277 -4916.995)" fill="#12263f"/>
      </g>
    </g>
  </g>
</svg>
