<svg xmlns="http://www.w3.org/2000/svg" xmlns:xlink="http://www.w3.org/1999/xlink" width="342.115" height="233.57" viewBox="0 0 342.115 233.57">
  <defs>
    <linearGradient id="linear-gradient" x1="0.5" x2="0.5" y2="1" gradientUnits="objectBoundingBox">
      <stop offset="0" stop-color="#fff"/>
      <stop offset="1" stop-color="#f1f7fa"/>
    </linearGradient>
    <linearGradient id="linear-gradient-2" x1="0.5" x2="0.5" y2="1" gradientUnits="objectBoundingBox">
      <stop offset="0" stop-color="#fff"/>
      <stop offset="1" stop-color="#d3d3d3"/>
    </linearGradient>
  </defs>
  <g id="Grupo_985381" data-name="Grupo 985381" transform="translate(-343.613 -798.768)">
    <g id="Grupo_46739" data-name="Grupo 46739" transform="translate(343.613 802.096)">
      <g id="Grupo_46726" data-name="Grupo 46726" transform="translate(43.906 69.972)">
        <path id="Trazado_97178" data-name="Trazado 97178" d="M727.388,1473.615h35.438a7.943,7.943,0,0,1,7.943,7.943v16.52a7.943,7.943,0,0,1-7.943,7.942h-.263l2.844,9.529a.452.452,0,0,1-.707.488l-13.13-10.017H727.388a7.943,7.943,0,0,1-7.943-7.942v-16.52A7.943,7.943,0,0,1,727.388,1473.615Z" transform="translate(-719.445 -1473.615)" fill="#f1f1f1"/>
        <path id="Trazado_97179" data-name="Trazado 97179" d="M793.6,1521.7H759.58a3.931,3.931,0,0,1-3.931-3.932h0a3.931,3.931,0,0,1,3.931-3.931H793.6a3.931,3.931,0,0,1,3.931,3.931h0A3.931,3.931,0,0,1,793.6,1521.7Z" transform="translate(-750.24 -1507.826)" fill="#00223d" opacity="0.25"/>
        <path id="Trazado_97180" data-name="Trazado 97180" d="M793.6,1602.057H759.58a3.931,3.931,0,0,1-3.931-3.931h0a3.931,3.931,0,0,1,3.931-3.932H793.6a3.931,3.931,0,0,1,3.931,3.932h0A3.931,3.931,0,0,1,793.6,1602.057Z" transform="translate(-750.24 -1576.178)" fill="#00223d" opacity="0.25"/>
      </g>
      <g id="Grupo_46727" data-name="Grupo 46727" transform="translate(221.414 25.379)">
        <path id="Trazado_97181" data-name="Trazado 97181" d="M1954.826,1175.156h-38.647a8.662,8.662,0,0,0-8.662,8.662v18.016a8.662,8.662,0,0,0,8.662,8.662h.286l-3.1,10.391a.493.493,0,0,0,.771.533l14.32-10.924h26.372a8.662,8.662,0,0,0,8.662-8.662v-18.016A8.662,8.662,0,0,0,1954.826,1175.156Z" transform="translate(-1907.517 -1175.156)" fill="#f1f1f1"/>
        <rect id="Rectángulo_28254" data-name="Rectángulo 28254" width="45.902" height="7.863" rx="3.931" transform="translate(4.576 7.364)" fill="#00223d" opacity="0.25"/>
        <path id="Rectángulo_28255" data-name="Rectángulo 28255" d="M3.931,0H22.153a3.931,3.931,0,0,1,3.931,3.931v0a3.931,3.931,0,0,1-3.931,3.931H3.932A3.932,3.932,0,0,1,0,3.931v0A3.931,3.931,0,0,1,3.931,0Z" transform="translate(5.836 19.252)" fill="#00223d" opacity="0.25"/>
      </g>
      <g id="Grupo_46728" data-name="Grupo 46728" transform="translate(9.644 157.206)">
        <path id="Trazado_97182" data-name="Trazado 97182" d="M491.3,2059.141a8.5,8.5,0,0,1,5.274-1.66c4.427,0,6.771,2.409,6.771,5.8,0,1.953-.944,3.938-2.865,5.925-2.442,2.571-4.2,3.841-5.307,3.841a1.834,1.834,0,0,1-1.856-1.855c0-.911.846-1.823,2.311-3.157a1.391,1.391,0,0,1,.26-.228c1.66-1.53,2.181-2.376,2.181-3.418a1.933,1.933,0,0,0-2.148-2.018,7,7,0,0,0-2.083.39,6.714,6.714,0,0,1-1.758.391,2.031,2.031,0,0,1-1.953-2.084A2.462,2.462,0,0,1,491.3,2059.141Zm4.46,21.715a3.234,3.234,0,0,1-3.321-3.321,3.184,3.184,0,0,1,3.321-3.06,3.12,3.12,0,0,1,3.06,3.06A3.161,3.161,0,0,1,495.759,2080.855Z" transform="translate(-490.127 -2057.481)" fill="#26aab7"/>
      </g>
      <g id="Grupo_46729" data-name="Grupo 46729" transform="translate(276.006 84.723)">
        <path id="Trazado_97183" data-name="Trazado 97183" d="M2273.671,1573.439a5.588,5.588,0,0,1,3.468-1.091c2.911,0,4.454,1.584,4.454,3.811a5.7,5.7,0,0,1-1.885,3.9c-1.605,1.691-2.762,2.526-3.49,2.526a1.207,1.207,0,0,1-1.221-1.22c0-.6.557-1.2,1.52-2.077a.994.994,0,0,1,.171-.15c1.092-1.006,1.435-1.563,1.435-2.247a1.272,1.272,0,0,0-1.413-1.328,4.593,4.593,0,0,0-1.37.257,4.394,4.394,0,0,1-1.156.257,1.335,1.335,0,0,1-1.284-1.37A1.62,1.62,0,0,1,2273.671,1573.439Zm2.933,14.281a2.127,2.127,0,0,1-2.183-2.184,2.093,2.093,0,0,1,2.183-2.012,2.051,2.051,0,0,1,2.012,2.012A2.079,2.079,0,0,1,2276.6,1587.72Z" transform="translate(-2272.9 -1572.348)" fill="#3c4973"/>
      </g>
      <g id="Grupo_46735" data-name="Grupo 46735" transform="translate(298.865 127.346)">
        <g id="Grupo_46730" data-name="Grupo 46730">
          <path id="Trazado_97184" data-name="Trazado 97184" d="M2467.849,1895.214H2427.2a1.3,1.3,0,0,1-1.3-1.3v-34.989a1.3,1.3,0,1,1,2.6,0v33.688h39.346a1.3,1.3,0,1,1,0,2.6Z" transform="translate(-2425.901 -1857.623)" fill="#3c4973"/>
        </g>
        <g id="Grupo_46734" data-name="Grupo 46734" transform="translate(3.077 5.612)">
          <g id="Grupo_46731" data-name="Grupo 46731" transform="translate(0 3.409)">
            <path id="Trazado_97185" data-name="Trazado 97185" d="M2447.8,1938.021a1.3,1.3,0,0,1-.935-2.205l13.137-13.59a1.3,1.3,0,0,1,1.643-.187l6.212,4.029,6.551-7.611a1.3,1.3,0,1,1,1.972,1.7l-7.292,8.473a1.3,1.3,0,0,1-1.7.242l-6.266-4.065-12.392,12.82A1.3,1.3,0,0,1,2447.8,1938.021Z" transform="translate(-2446.495 -1918.005)" fill="#f5ca56"/>
          </g>
          <g id="Grupo_46733" data-name="Grupo 46733" transform="translate(24.067)">
            <g id="Grupo_46732" data-name="Grupo 46732">
              <path id="Trazado_97186" data-name="Trazado 97186" d="M2613.422,1904.628l-1.854-3.756-3.99-1.273,8.882-4.412Z" transform="translate(-2607.578 -1895.188)" fill="#f5ca56"/>
            </g>
          </g>
        </g>
      </g>
      <g id="Grupo_46736" data-name="Grupo 46736" transform="translate(59.861 22.307)">
        <path id="Trazado_97187" data-name="Trazado 97187" d="M834.106,1170.341a7.874,7.874,0,1,1,7.874-7.874A7.882,7.882,0,0,1,834.106,1170.341Zm0-13.579a5.705,5.705,0,1,0,5.705,5.706A5.712,5.712,0,0,0,834.106,1156.761Z" transform="translate(-826.232 -1154.593)" fill="#00223d"/>
      </g>
      <g id="Grupo_46737" data-name="Grupo 46737" transform="translate(302.185 89.189)">
        <path id="Trazado_97188" data-name="Trazado 97188" d="M2453.889,1613.774a5.767,5.767,0,1,1,5.768-5.767A5.773,5.773,0,0,1,2453.889,1613.774Zm0-9.946a4.179,4.179,0,1,0,4.179,4.179A4.183,4.183,0,0,0,2453.889,1603.828Z" transform="translate(-2448.122 -1602.24)" fill="#ebf3fa" opacity="0.25"/>
      </g>
      <g id="Grupo_46738" data-name="Grupo 46738" transform="translate(0 121.983)">
        <path id="Trazado_97189" data-name="Trazado 97189" d="M430.759,1832.087a5.178,5.178,0,1,1,5.178-5.179A5.185,5.185,0,0,1,430.759,1832.087Zm0-8.931a3.752,3.752,0,1,0,3.752,3.752A3.756,3.756,0,0,0,430.759,1823.156Z" transform="translate(-425.581 -1821.73)" fill="#7d6eb2"/>
      </g>
      <path id="Trazado_97190" data-name="Trazado 97190" d="M2286.107,1090.234a2.818,2.818,0,1,1-2.817-2.817A2.817,2.817,0,0,1,2286.107,1090.234Z" transform="translate(-2003.335 -1075.147)" fill="#fff"/>
      <circle id="Elipse_3864" data-name="Elipse 3864" cx="5.54" cy="5.54" r="5.54" transform="translate(22.455 67.249) rotate(-45)" fill="#ebf3fa" opacity="0.25"/>
      <path id="Trazado_97191" data-name="Trazado 97191" d="M2383.443,1009.457a4.165,4.165,0,1,1-4.165-4.165A4.165,4.165,0,0,1,2383.443,1009.457Z" transform="translate(-2083.837 -1005.292)" fill="#ebf3fa" opacity="0.25"/>
      <path id="Trazado_97192" data-name="Trazado 97192" d="M2526.788,1682.223a3.555,3.555,0,1,1-3.555-3.555A3.555,3.555,0,0,1,2526.788,1682.223Z" transform="translate(-2206.801 -1578.06)" fill="#ebf3fa" opacity="0.25"/>
      <path id="Trazado_97193" data-name="Trazado 97193" d="M2310.853,1152.066a4.432,4.432,0,1,1-4.432-4.432A4.431,4.431,0,0,1,2310.853,1152.066Z" transform="translate(-2021.637 -1126.367)" fill="#fff"/>
      <circle id="Elipse_3865" data-name="Elipse 3865" cx="4.495" cy="4.495" r="4.495" transform="translate(75.018 15.217) rotate(-22.5)" fill="#00223d"/>
    </g>
    <path id="Trazado_97194" data-name="Trazado 97194" d="M896.155,2528.416H630.066a1.572,1.572,0,0,1-1.572-1.573h0a1.572,1.572,0,0,1,1.572-1.571H896.155a1.572,1.572,0,0,1,1.572,1.571h0A1.572,1.572,0,0,1,896.155,2528.416Z" transform="translate(-254.565 -1496.078)" fill="url(#linear-gradient)"/>
    <g id="Grupo_46788" data-name="Grupo 46788" transform="translate(359.732 864.702)">
      <g id="Grupo_46746" data-name="Grupo 46746" transform="translate(88.623 7.554)">
        <path id="v-2" d="M1200.594,1625.025h0l4.084.015.925,9.647-4.768,2.517-5.084-2.489.822-9.675Z" transform="translate(-1185.427 -1602.592)" fill="#e49963"/>
        <g id="Grupo_46745" data-name="Grupo 46745">
          <path id="Trazado_97195" data-name="Trazado 97195" d="M1146.8,1508.288c2.514,6.282,8.551,9.773,13.484,7.8s6.9-8.667,4.381-14.948-8.551-9.774-13.484-7.8S1144.286,1502.007,1146.8,1508.288Z" transform="translate(-1142.855 -1490.112)" fill="#e49963"/>
          <path id="Trazado_97196" data-name="Trazado 97196" d="M1257.308,1554.211a.924.924,0,1,0,.231-1.286A.924.924,0,0,0,1257.308,1554.211Z" transform="translate(-1237.643 -1541.123)"/>
          <path id="Trazado_97197" data-name="Trazado 97197" d="M1210.9,1572.437a1,1,0,1,0,.25-1.393A1,1,0,0,0,1210.9,1572.437Z" transform="translate(-1198.159 -1556.524)"/>
          <path id="Trazado_97198" data-name="Trazado 97198" d="M1248.857,1572.347c1.249.985,2.812,2.174,2.812,2.174a2.425,2.425,0,0,1-1.744,2.159c.637-.578,1.2-1.346.533-2.234S1248.857,1572.347,1248.857,1572.347Z" transform="translate(-1230.595 -1557.784)" fill="#d68d5d"/>
          <g id="Grupo_46740" data-name="Grupo 46740" transform="translate(10.461 12.779)">
            <path id="Trazado_97199" data-name="Trazado 97199" d="M1197.106,1562.942a.461.461,0,0,1-.449-.568,2.459,2.459,0,0,1,2.244-1.964.461.461,0,1,1,0,.922c-1.041.005-1.349,1.243-1.352,1.256A.461.461,0,0,1,1197.106,1562.942Z" transform="translate(-1196.645 -1560.41)" fill="#201d40"/>
          </g>
          <g id="Grupo_46741" data-name="Grupo 46741" transform="translate(18.314 9.682)">
            <path id="Trazado_97200" data-name="Trazado 97200" d="M1249.587,1541.134a.39.39,0,0,1-.194-.053.385.385,0,0,1-.137-.526,1.9,1.9,0,0,1,1.184-.846,1.971,1.971,0,0,1,1.6.508.384.384,0,1,1-.48.6,1.249,1.249,0,0,0-.982-.352,1.111,1.111,0,0,0-.661.479A.384.384,0,0,1,1249.587,1541.134Z" transform="translate(-1249.203 -1539.683)" fill="#201d40"/>
          </g>
          <path id="Trazado_97201" data-name="Trazado 97201" d="M1127.141,1488.364c-2.126-6.053,3.053-9.533,3.053-9.533s-1.39-.124-1.556-2.075a5.134,5.134,0,0,0,3.23-.07c6.9-2.5,11.657-2.466,11.657.488,0,1.051,4.559.331,4.177,7.4.027-.5-1.6-3.407-3.142-3.7s-.15,1.768-3.367,2.209c-3.246.446-5.633-.342-7.616,1.488-1.551,1.6-1.936,9.722-1.7,10.21C1131.338,1493.666,1128.076,1491.024,1127.141,1488.364Z" transform="translate(-1126.629 -1474.88)" fill="#3c4973"/>
          <path id="Trazado_97202" data-name="Trazado 97202" d="M1179.249,1572.347s.293,3.686-.238,4.826c-.554-1.478-1.741.088-2.856.236-2.7.356-7.557-.542-8.039,3.5-3.293,1.042-6.379-6.008-6.379-6.008-.189,7.876,5.575,12.35,13.869,11.039C1181.071,1585.077,1181.577,1577.468,1179.249,1572.347Z" transform="translate(-1156.487 -1557.784)" fill="#3c4973"/>
          <g id="Grupo_46742" data-name="Grupo 46742" transform="translate(15.254 19.933)">
            <path id="Trazado_97203" data-name="Trazado 97203" d="M1230.551,1610.473a7.009,7.009,0,0,1-1.664-.652.308.308,0,0,1,.29-.542,4.452,4.452,0,0,0,3.4.577,3.209,3.209,0,0,0,1.77-1.4.307.307,0,0,1,.544.286,3.782,3.782,0,0,1-2.124,1.7A4.156,4.156,0,0,1,1230.551,1610.473Z" transform="translate(-1228.725 -1608.291)" fill="#d68d5d"/>
          </g>
          <g id="Grupo_46744" data-name="Grupo 46744" transform="translate(1.252 16.731)">
            <path id="Trazado_97204" data-name="Trazado 97204" d="M1138.928,1587.3a2.405,2.405,0,1,1-3.666.645A2.659,2.659,0,0,1,1138.928,1587.3Z" transform="translate(-1135.008 -1586.858)" fill="#e49963"/>
            <g id="Grupo_46743" data-name="Grupo 46743" transform="translate(1.547 1.284)">
              <path id="Trazado_97205" data-name="Trazado 97205" d="M1147.523,1598.007a.355.355,0,0,0,.106-.12,1.572,1.572,0,0,0-.167-1.924,1.675,1.675,0,0,0-1.909-.35.348.348,0,1,0,.314.62.993.993,0,0,1,1.1.215.891.891,0,0,1,.053,1.109.348.348,0,0,0,.506.45Z" transform="translate(-1145.361 -1595.453)" fill="#d68d5d"/>
            </g>
          </g>
        </g>
      </g>
      <path id="Trazado_97206" data-name="Trazado 97206" d="M1235.982,2472.35a3.773,3.773,0,0,1,2.727-2.624c3.611,4.982,12.48,1.925,12.186,8.665-13.487-.087-19.092,0-19.092,0a49.418,49.418,0,0,1,.6-6.66l.7.129Z" transform="translate(-1127.467 -2313.533)"/>
      <path id="Trazado_97207" data-name="Trazado 97207" d="M1100.928,2473.224a3.771,3.771,0,0,1,2.727-2.623c3.611,4.983,12.48,1.925,12.186,8.664-13.486-.086-19.091,0-19.091,0a49.471,49.471,0,0,1,.595-6.659l.7.128Z" transform="translate(-1012.592 -2314.277)"/>
      <path id="Trazado_97208" data-name="Trazado 97208" d="M1220.751,1960.59s2.19,31.935,1.3,39.035-4.04,16.2-3.683,39.687c-4.4,1.1-10.766,0-10.766,0s-.944-26.555,3.7-38.416c-1.89-11.52-7.954-37.908-7.954-37.908Z" transform="translate(-1103.266 -1880.466)" fill="#213755"/>
      <path id="Trazado_97209" data-name="Trazado 97209" d="M1118.283,1966.432s-4.422,35.853-6.585,42.654-6.385,12.55-10.3,35.685c-4.518.226-8.725,0-8.725,0s.61-29.345,7.647-36.02c.238-11.683-1.138-42.089-1.138-42.089Z" transform="translate(-1009.12 -1885.435)" fill="#344966"/>
      <g id="v" transform="translate(87.768 38.527)">
        <path id="h-5" d="M1121.918,1683.962s7.679-2.689,10.24-1.456c7.957,3.831,9.782,0,9.782,0,2.543.219,10.218,1.456,10.218,1.456,0,8.572.572,17.172.416,23.659-.11,5.649.967,21.021.967,21.021a77.586,77.586,0,0,1-16.476,2.277,75.36,75.36,0,0,1-16.161-2.187s.427-15.569.783-21.356C1121.573,1700.889,1121.918,1692.51,1121.918,1683.962Z" transform="translate(-1120.905 -1682.183)" fill="#26aab7"/>
      </g>
      <g id="c" transform="translate(116.839 40.306)">
        <path id="c-2" data-name="c" d="M1331.314,1706.829c-3.17-7.562-12.575-12.372-13.65-12.739l-2.182,9.709a56.816,56.816,0,0,1,7.8,5.563c-.556,2.7-.463,5.354-2.028,8.774,0,0,1.359-1.876,3.036-.766,1.63,1.079,4.628-1.123,4.628-1.123A8.031,8.031,0,0,0,1331.314,1706.829Z" transform="translate(-1315.482 -1694.09)" fill="#0a94a2"/>
      </g>
      <g id="c-3" data-name="c" transform="translate(77.52 40.306)">
        <g id="c-4" data-name="c" transform="translate(31.394 2.93)">
          <g id="c-5" data-name="c">
            <path id="c-6" data-name="c" d="M1289.049,1742.619a.834.834,0,0,0,.165.033h.181a.858.858,0,0,0,.729-.6l8.45-27.243a.823.823,0,0,0,.034-.165.9.9,0,0,0,0-.107c0-.022,0-.043,0-.065s-.008-.037-.01-.056a.859.859,0,0,0-.749-.715.918.918,0,0,0-.183,0h-21.272l-8.524,28.95h21.194Z" transform="translate(-1267.059 -1713.698)" fill="#8ec8c8"/>
            <path id="c-7" data-name="c" d="M1271.97,1713.736a.859.859,0,0,0-1.075.565l-8.4,27.176-.019.063a.859.859,0,0,0,.561,1.071h0a.858.858,0,0,0,1.074-.565l8.419-27.238A.859.859,0,0,0,1271.97,1713.736Z" transform="translate(-1262.441 -1713.698)" fill="#00223d"/>
          </g>
        </g>
        <path id="c-8" data-name="c" d="M1431.361,1797.406a.878.878,0,0,1,.254-.111c-.009-.013-.019-.026-.028-.039a1.551,1.551,0,0,1,.079-2.132.921.921,0,0,1,.305-.128,1.283,1.283,0,0,1,.394-1.426.965.965,0,0,1,.549-.153,1.281,1.281,0,0,1,.42-1.494,1.5,1.5,0,0,1,1.636,2.467,1.072,1.072,0,0,1-.475.171,1.46,1.46,0,0,1-.213,1.9.916.916,0,0,1-.305.128,1.282,1.282,0,0,1-.393,1.426.953.953,0,0,1-.507.153,1.1,1.1,0,0,1-.334,1.322,1.269,1.269,0,0,1-1.381-2.084Z" transform="translate(-1374.368 -1777.153)" fill="#e49963"/>
        <path id="Trazado_97210" data-name="Trazado 97210" d="M1258.746,1795.683l1.94-1.124a3.663,3.663,0,0,1,3.651-2.816l-.87,2.816s1.533,1.19,5.168-.846c3.554-.8,2.035,1.792,3.214,1.978,1.738.274-1.267,3.69-4.815,4.212-4.591.677-5.135-.263-5.135-.263l-2.6.908Z" transform="translate(-1227.904 -1777.153)" fill="#e49963"/>
        <path id="c-9" data-name="c" d="M1065.217,1715.558c6.481-.452,17.537-3.654,17.537-3.654a10.449,10.449,0,0,1,1.28,6.319c-10.065,8.824-25.212,11.677-29.86,9.553-4.243-1.939-1.248-27.769,9.406-33.686h0C1067.232,1700.27,1065.217,1715.558,1065.217,1715.558Z" transform="translate(-1052.319 -1694.09)" fill="#0a94a2"/>
      </g>
      <g id="Grupo_46755" data-name="Grupo 46755" transform="translate(158.962 0)">
        <path id="Trazado_97211" data-name="Trazado 97211" d="M1768.361,2471.244c-3.612,4.817-12.48,1.861-12.186,8.376,13.486-.083,19.092,0,19.092,0a46.247,46.247,0,0,0-.6-6.439Z" transform="translate(-1732.448 -2314.824)" fill="#060f17"/>
        <path id="Trazado_97212" data-name="Trazado 97212" d="M1903.413,2472.088c-3.611,4.817-12.479,1.861-12.186,8.376,13.486-.083,19.091,0,19.091,0a46.223,46.223,0,0,0-.595-6.438Z" transform="translate(-1847.323 -2315.542)" fill="#060f17"/>
        <path id="Trazado_97213" data-name="Trazado 97213" d="M1787.381,1979.039s-2.19,30.874-1.3,37.737,4.04,15.664,3.682,38.367c4.4,1.064,10.766,0,10.766,0s.944-25.671-3.7-37.138c1.89-11.138,7.954-36.648,7.954-36.648Z" transform="translate(-1757.711 -1896.159)" fill="#060f17"/>
        <path id="Trazado_97214" data-name="Trazado 97214" d="M1851.69,1984.686s4.422,34.661,6.586,41.235,6.385,12.133,10.3,34.5a46.93,46.93,0,0,0,9.9-.894s-1.786-27.476-8.823-33.927c-.238-11.295,1.137-40.69,1.137-40.69Z" transform="translate(-1813.698 -1900.962)" fill="#060f17"/>
        <g id="Grupo_46752" data-name="Grupo 46752" transform="translate(36.217 7.964)">
          <g id="Grupo_46751" data-name="Grupo 46751">
            <g id="Grupo_46750" data-name="Grupo 46750">
              <path id="Trazado_97215" data-name="Trazado 97215" d="M1869.3,1521.024c-2.4,5.988-8.153,9.317-12.856,7.435s-6.573-8.263-4.177-14.251,8.152-9.317,12.856-7.435S1871.7,1515.035,1869.3,1521.024Z" transform="translate(-1849.523 -1501.969)" fill="#e49963"/>
              <path id="Trazado_97216" data-name="Trazado 97216" d="M1862.768,1564.806a.881.881,0,1,1-.22-1.226A.88.88,0,0,1,1862.768,1564.806Z" transform="translate(-1857.974 -1550.602)"/>
              <path id="Trazado_97217" data-name="Trazado 97217" d="M1906.183,1582.182a.954.954,0,1,1-.239-1.328A.954.954,0,0,1,1906.183,1582.182Z" transform="translate(-1894.79 -1565.285)"/>
              <path id="Trazado_97218" data-name="Trazado 97218" d="M1865.6,1582.1c-1.192.939-2.681,2.072-2.681,2.072a2.313,2.313,0,0,0,1.663,2.058c-.607-.55-1.14-1.284-.508-2.13S1865.6,1582.1,1865.6,1582.1Z" transform="translate(-1859.465 -1566.487)" fill="#d68d5d"/>
              <g id="Grupo_46747" data-name="Grupo 46747" transform="translate(10.976 13.909)">
                <path id="Trazado_97219" data-name="Trazado 97219" d="M1915.431,1573.129a.44.44,0,0,1-.427-.338c-.012-.046-.307-1.192-1.289-1.2a.44.44,0,0,1,0-.879,2.345,2.345,0,0,1,2.14,1.872.439.439,0,0,1-.326.529A.426.426,0,0,1,1915.431,1573.129Z" transform="translate(-1913.277 -1570.715)"/>
              </g>
              <g id="Grupo_46748" data-name="Grupo 46748" transform="translate(3.239 10.957)">
                <path id="Trazado_97220" data-name="Trazado 97220" d="M1863.974,1552.338a.366.366,0,0,1-.315-.179,1.068,1.068,0,0,0-.637-.46,1.2,1.2,0,0,0-.931.336.366.366,0,0,1-.458-.573,1.878,1.878,0,0,1,1.527-.483,1.8,1.8,0,0,1,1.129.807.366.366,0,0,1-.315.552Z" transform="translate(-1861.497 -1550.954)"/>
              </g>
              <path id="Trazado_97221" data-name="Trazado 97221" d="M1857.926,1497.3c-1.733-5.572.459-8.533.459-8.533-1.488-.3-2.066.217-2.066.217a3.305,3.305,0,0,1-.183-2.861c-3.075-1.2-4.607.793-7.382,1.464-3.8.919-8.493-.6-8.933-5.235a.792.792,0,0,1,1.235-.731,3.49,3.49,0,0,0,2.07.6,3.733,3.733,0,0,1-.837-2.14.792.792,0,0,1,1.308-.617c.79.658,2.255,1.279,4.869.789,1.739-.325,5.72-3.111,8.2-2.567a6.113,6.113,0,0,1,4.329,4.639,6.371,6.371,0,0,1,5.483,6c.491,5.388-5.75,9.523-5.75,9.523Z" transform="translate(-1839.818 -1477.62)" fill="#3c4973"/>
              <path id="Trazado_97222" data-name="Trazado 97222" d="M1947.785,1600.7a2.293,2.293,0,1,0,3.5.6A2.535,2.535,0,0,0,1947.785,1600.7Z" transform="translate(-1930.355 -1581.955)" fill="#e49963"/>
              <g id="Grupo_46749" data-name="Grupo 46749" transform="translate(17.302 19.551)">
                <path id="Trazado_97223" data-name="Trazado 97223" d="M1955.964,1610.918a.329.329,0,0,1-.1-.113,1.5,1.5,0,0,1,.152-1.836,1.6,1.6,0,0,1,1.82-.341.332.332,0,0,1-.3.593.946.946,0,0,0-1.045.208.847.847,0,0,0-.047,1.057.331.331,0,0,1-.481.431Z" transform="translate(-1955.623 -1608.478)" fill="#d68d5d"/>
              </g>
              <path id="Trazado_97224" data-name="Trazado 97224" d="M1864.5,1620.112a.281.281,0,0,1,.3-.423,19.921,19.921,0,0,0,5.267.47.281.281,0,0,1,.217.468,3.5,3.5,0,0,1-5.78-.516Z" transform="translate(-1860.776 -1598.457)" fill="#fff"/>
            </g>
          </g>
        </g>
        <path id="Trazado_97225" data-name="Trazado 97225" d="M1683.545,1672.344s.225-.61-19.183-.454l-5.2,6.15c5.385,4.318,23.421,5.085,23.421,5.085Z" transform="translate(-1649.933 -1634.879)" fill="#060f17"/>
        <path id="Trazado_97226" data-name="Trazado 97226" d="M1869.579,1668.469l6.121-.571,5.922,1.651-6.673,6.867Z" transform="translate(-1828.915 -1631.505)" fill="#6451a8"/>
        <path id="Trazado_97227" data-name="Trazado 97227" d="M1883.782,1646.689c2.494,2.048,3,3.464,8.3.726l.8-8.148-8.627-.68Z" transform="translate(-1840.996 -1606.574)" fill="#e49963"/>
        <path id="Trazado_97228" data-name="Trazado 97228" d="M1823.106,1676.082h0l-1.814-.718.243-2.562-5.032,4.041-1.421.227-1.358-.476-4.232-4.872-.217,2.564-1.6.321h0l-5.772.935-.687,32.039-2.277,10.9a54.933,54.933,0,0,0,24.646,2.023l-.283-10.943,5.981-31.312Z" transform="translate(-1768.827 -1634.758)" fill="#1565c0"/>
        <path id="Trazado_97229" data-name="Trazado 97229" d="M1879,1729.174l-3.616,24.462,2,2.782,2.61-2.005.888-25.036Z" transform="translate(-1833.857 -1683.626)" fill="#636363"/>
        <path id="Trazado_97230" data-name="Trazado 97230" d="M1898.15,1707.86l1.322-.348,1.347.587-.569,2.9-1.9-.17Z" transform="translate(-1853.218 -1665.2)" fill="#636363"/>
        <g id="Grupo_46753" data-name="Grupo 46753" transform="translate(25.776 37.169)">
          <path id="Trazado_97231" data-name="Trazado 97231" d="M1784.737,1673.094l-.907,29.549-3.911,19.028s-6.186-.624-9.986-4.24l4.87-14.324,1.665-29.935Z" transform="translate(-1769.933 -1673.094)" fill="#060f17"/>
          <path id="Trazado_97232" data-name="Trazado 97232" d="M1838.251,1673.094l-.9,29.154-4.5-22.342Z" transform="translate(-1823.447 -1673.094)" fill="#122739"/>
        </g>
        <g id="Grupo_46754" data-name="Grupo 46754" transform="translate(45.138 39.059)">
          <path id="Trazado_97233" data-name="Trazado 97233" d="M1907.557,1685.745l-8.032,47.906s10.659,1.309,15.042-1.574l-2.378-15.748,2.907-26.736Z" transform="translate(-1899.525 -1685.745)" fill="#060f17"/>
          <path id="Trazado_97234" data-name="Trazado 97234" d="M1926.56,1685.745l-4.694,28.078,8.406-21.184Z" transform="translate(-1918.528 -1685.745)" fill="#122739"/>
        </g>
        <path id="Trazado_97235" data-name="Trazado 97235" d="M1597.508,1435.2c.428,1.495.555,3.106,2.451,3.912,0,0-.28,4.96-.071,9.029,0,0,4.588-5.174,4.587-5.178a27.278,27.278,0,0,1-.223-6.5c.065-.457.155-.912.226-1.371a5.133,5.133,0,0,0-.153-3.593c-2.618-5.187-1.737-6.894-2.1-7.147-.586-.258-1.964.785-1.185,3.334a9.315,9.315,0,0,1,.568,3.677s-1.979-.374-2.681.318C1598.611,1432,1597.009,1433.457,1597.508,1435.2Z" transform="translate(-1597.412 -1424.318)" fill="#e49963"/>
        <path id="Trazado_97236" data-name="Trazado 97236" d="M1605.179,1536.617a17.611,17.611,0,0,1,6.161-1.292c4.916,14.649,8.42,20.169,6.958,24.374-1.218,3.506-5.074,3.226-6.958.6C1608.853,1556.833,1606.652,1543.665,1605.179,1536.617Z" transform="translate(-1604.019 -1518.74)" fill="#060f17"/>
        <path id="Trazado_97237" data-name="Trazado 97237" d="M1987.186,1711.507l15.487,24.229,18.394,10.386-5.67,5.645-18.453-8.089-12.665-17.87Z" transform="translate(-1926.478 -1668.599)" fill="#060f17"/>
        <path id="Trazado_97238" data-name="Trazado 97238" d="M1868,1677.07a12.74,12.74,0,0,1-4.373,2.889l-2.477-6.55,1.26-1.686Z" transform="translate(-1821.744 -1634.758)" fill="#fff"/>
        <path id="Trazado_97239" data-name="Trazado 97239" d="M1907,1683.218a10.971,10.971,0,0,0,3.789,3.621l3.6-5.985-.94-1.9Z" transform="translate(-1860.742 -1640.907)" fill="#fff"/>
      </g>
      <g id="с" transform="translate(81.094 103.544)">
        <path id="с-2" data-name="с" d="M1217.219,2125.087H1081.994c-3.178,0-5.755-1.734-5.755-3.873h0c0-2.138,2.576-3.872,5.755-3.872h135.225c3.178,0,5.754,1.734,5.754,3.872h0C1222.973,2123.353,1220.4,2125.087,1217.219,2125.087Z" transform="translate(-1076.239 -2117.342)" fill="url(#linear-gradient-2)"/>
        <g id="Grupo_46756" data-name="Grupo 46756" transform="translate(54.608 4.774)">
          <path id="Trazado_97240" data-name="Trazado 97240" d="M1443.561,2206.833h0a1.825,1.825,0,0,1-1.528-2.823l35.7-54.715,3.056,1.995-35.7,54.715A1.825,1.825,0,0,1,1443.561,2206.833Z" transform="translate(-1441.733 -2149.296)" fill="url(#linear-gradient-2)"/>
        </g>
        <g id="Grupo_46757" data-name="Grupo 46757" transform="translate(53.066 4.774)">
          <path id="Trazado_97241" data-name="Trazado 97241" d="M1468.645,2206.833h0a1.825,1.825,0,0,0,1.528-2.823l-35.7-54.715-3.056,1.995,35.7,54.715A1.826,1.826,0,0,0,1468.645,2206.833Z" transform="translate(-1431.413 -2149.296)" fill="url(#linear-gradient-2)"/>
        </g>
      </g>
      <g id="с-3" data-name="с" transform="translate(220.957 82.132)">
        <path id="с-4" data-name="с" d="M2045.9,2342.323h0a1.748,1.748,0,0,1-1.748-1.749V2309.6h3.5v30.97A1.748,1.748,0,0,1,2045.9,2342.323Z" transform="translate(-2039.401 -2259.468)" fill="url(#linear-gradient-2)"/>
        <path id="с-5" data-name="с" d="M2127.993,2342.323h0a1.748,1.748,0,0,1-1.748-1.749V2309.6h3.5v30.97A1.748,1.748,0,0,1,2127.993,2342.323Z" transform="translate(-2109.228 -2259.468)" fill="url(#linear-gradient-2)"/>
        <path id="с-6" data-name="с" d="M2235.715,2342.323h0a1.748,1.748,0,0,1-1.748-1.749V2309.6h3.5v30.97A1.748,1.748,0,0,1,2235.715,2342.323Z" transform="translate(-2200.855 -2259.468)" fill="url(#linear-gradient-2)"/>
        <path id="с-7" data-name="с" d="M2317.809,2342.323h0a1.748,1.748,0,0,1-1.748-1.749V2309.6h3.5v30.97A1.747,1.747,0,0,1,2317.809,2342.323Z" transform="translate(-2270.684 -2259.468)" fill="url(#linear-gradient-2)"/>
        <path id="с-8" data-name="с" d="M2040.133,1978.206v36.855a.759.759,0,0,1-.759.759h-22.851a4.174,4.174,0,0,0-4.174,4.174h0a4.174,4.174,0,0,0,4.174,4.174h27.785a4.174,4.174,0,0,0,4.175-4.174v-41.789a4.174,4.174,0,0,0-4.175-4.175h0A4.175,4.175,0,0,0,2040.133,1978.206Z" transform="translate(-2012.349 -1974.032)" fill="#344966"/>
        <rect id="с-9" data-name="с" width="18.067" height="42.466" transform="translate(31.959 0)" fill="#344966"/>
        <path id="с-10" data-name="с" d="M2161.055,1978.206v36.855a.76.76,0,0,1-.76.759h-22.851a4.174,4.174,0,0,0-4.174,4.174h0a4.174,4.174,0,0,0,4.174,4.174h27.785a4.174,4.174,0,0,0,4.174-4.174v-41.789a4.174,4.174,0,0,0-4.174-4.175h0A4.174,4.174,0,0,0,2161.055,1978.206Z" transform="translate(-2115.203 -1974.032)" fill="url(#linear-gradient-2)"/>
      </g>
      <g id="с-11" data-name="с" transform="translate(32.054 82.132)">
        <path id="с-12" data-name="с" d="M1057.321,2342.323h0a1.748,1.748,0,0,0,1.748-1.749V2309.6h-3.5v30.97A1.748,1.748,0,0,0,1057.321,2342.323Z" transform="translate(-1009.62 -2259.468)" fill="url(#linear-gradient-2)"/>
        <path id="с-13" data-name="с" d="M975.226,2342.323h0a1.748,1.748,0,0,0,1.748-1.749V2309.6h-3.5v30.97A1.748,1.748,0,0,0,975.226,2342.323Z" transform="translate(-939.791 -2259.468)" fill="url(#linear-gradient-2)"/>
        <path id="с-14" data-name="с" d="M867.505,2342.323h0a1.748,1.748,0,0,0,1.748-1.749V2309.6h-3.5v30.97A1.748,1.748,0,0,0,867.505,2342.323Z" transform="translate(-848.164 -2259.468)" fill="url(#linear-gradient-2)"/>
        <path id="с-15" data-name="с" d="M785.411,2342.323h0a1.748,1.748,0,0,0,1.748-1.749V2309.6h-3.5v30.97A1.748,1.748,0,0,0,785.411,2342.323Z" transform="translate(-778.336 -2259.468)" fill="url(#linear-gradient-2)"/>
        <path id="с-16" data-name="с" d="M877.279,1978.206v36.855a.759.759,0,0,0,.759.759h22.851a4.174,4.174,0,0,1,4.175,4.174h0a4.174,4.174,0,0,1-4.175,4.174H873.1a4.174,4.174,0,0,1-4.174-4.174v-41.789a4.175,4.175,0,0,1,4.174-4.175h0A4.175,4.175,0,0,1,877.279,1978.206Z" transform="translate(-850.863 -1974.032)" fill="#344966"/>
        <rect id="с-17" data-name="с" width="18.067" height="42.466" transform="translate(22.241 42.466) rotate(180)" fill="#344966"/>
        <path id="с-18" data-name="с" d="M756.358,1978.206v36.855a.759.759,0,0,0,.759.759h22.851a4.174,4.174,0,0,1,4.174,4.174h0a4.174,4.174,0,0,1-4.174,4.174H752.183a4.174,4.174,0,0,1-4.174-4.174v-41.789a4.175,4.175,0,0,1,4.174-4.175h0A4.174,4.174,0,0,1,756.358,1978.206Z" transform="translate(-748.009 -1974.032)" fill="url(#linear-gradient-2)"/>
      </g>
      <g id="Grupo_46762" data-name="Grupo 46762" transform="translate(169.166 41.427)">
        <path id="Trazado_97242" data-name="Trazado 97242" d="M2095.332,1732.382c-3.855-1.391-9.811-4.431-5.852-9.988s3.856-3.132,2.431-9.881,3.375-12.059,7.95-10.716,5.743,5.046,11.352,4.109,10.27,4.308,8.159,8.857-3.013,6.739-1.039,9.256,10.869,5.23,7.159,11.263-5.41,5.661-4.122,8.754-1.683,6.612-6.839,6.131-9.824-2.43-11.716-8.188S2095.332,1732.382,2095.332,1732.382Z" transform="translate(-2025.055 -1701.588)" fill="#3c4973"/>
        <path id="Trazado_97243" data-name="Trazado 97243" d="M2012.387,2461.582l-3.046.911-2.294-2.345a11.334,11.334,0,0,0-.35-3.408l5.691-.944A49.3,49.3,0,0,1,2012.387,2461.582Z" transform="translate(-1955.749 -2343.109)" fill="#e49963"/>
        <path id="Trazado_97244" data-name="Trazado 97244" d="M1953.756,2484.926a3.118,3.118,0,0,0-2.273-2.113c-3.01,4.014-10.4,1.551-10.156,6.981,11.24-.07,15.911,0,15.911,0a38.569,38.569,0,0,0-.5-5.366l-.586.1Z" transform="translate(-1900.142 -2366.091)" fill="#aaa5a5"/>
        <path id="Trazado_97245" data-name="Trazado 97245" d="M1880.729,2464.3l-3.172.218-1.824-1.943a18.543,18.543,0,0,0,.51-4.252l5.347.238A49.3,49.3,0,0,1,1880.729,2464.3Z" transform="translate(-1844.354 -2345.256)" fill="#e49963"/>
        <path id="Trazado_97246" data-name="Trazado 97246" d="M1819.457,2484.926a3.119,3.119,0,0,0-2.273-2.113c-3.009,4.014-10.4,1.551-10.156,6.981,11.239-.07,15.91,0,15.91,0a38.513,38.513,0,0,0-.5-5.366l-.586.1Z" transform="translate(-1785.909 -2366.091)" fill="#aaa5a5"/>
        <path id="Trazado_97247" data-name="Trazado 97247" d="M1912.807,2141.951c-8.659,1.166-33.053,10.205-34.412,11.841-2.808,3.378-1.328,21.76-2.662,36.928l7.09.419c3.4-12.352,3.126-17.683,4.662-31.852,0,0,27.869,2.088,37.94-4.709C1935.807,2147.568,1919.81,2140.29,1912.807,2141.951Z" transform="translate(-1844.354 -2075.953)" fill="#213755"/>
        <path id="Trazado_97248" data-name="Trazado 97248" d="M1935.953,2022.791c2.047.349,2.834,1.991,3.328,5.014-7.8,4.593-19.379,4.92-19.379,4.92l-3.692-1.826S1925.5,2027.555,1935.953,2022.791Z" transform="translate(-1878.783 -1974.8)" fill="#d68d5d"/>
        <path id="Trazado_97249" data-name="Trazado 97249" d="M2069.955,1911.5c-3.412,4.958-16.482,15.62-18.646,15.956l-2.621-7.336s12.761-13.812,15.084-16.254C2067.785,1899.631,2075.541,1903.417,2069.955,1911.5Z" transform="translate(-1991.468 -1872.154)" fill="#d68d5d"/>
        <path id="Trazado_97250" data-name="Trazado 97250" d="M2094.825,1907.524c2.736-2.948,6.3-9.6,10.937-9.13s4.971,5.395,3.573,8.044-6.224,9.179-6.224,9.179Z" transform="translate(-2030.711 -1868.969)" fill="#9b9393"/>
        <path id="Trazado_97251" data-name="Trazado 97251" d="M1961.805,2043.109c1.965.677,3.087,6.868,2.536,7.342-8.426,3.338-25.957-.272-25.957-.272l-.932-3.175A138.121,138.121,0,0,0,1961.805,2043.109Z" transform="translate(-1896.851 -1992.083)" fill="#e49963"/>
        <path id="Trazado_97252" data-name="Trazado 97252" d="M2133.5,1931.223c-1.927-9.941-2.757-13.465-3.558-18.143-1.978-11.563,3.838-19.689-6.133-25.23l-7.267,1.171c-5.877,6.182-9.494,11.794-9.8,15.67-.427,5,4.535,7.713,4.535,7.713l-2,13.614s-.47,1.112,7.725,2.66S2133.5,1931.223,2133.5,1931.223Z" transform="translate(-2040.82 -1860.02)" fill="#aaa5a5"/>
        <path id="Trazado_97253" data-name="Trazado 97253" d="M2122.2,1920.323c-3.411,5.015-17.991,17.761-20.181,17.874l-1.568-7.606s13.244-15.521,15.567-17.99C2120.029,1908.316,2127.784,1912.145,2122.2,1920.323Z" transform="translate(-2035.495 -1879.565)" fill="#e49963"/>
        <path id="Trazado_97254" data-name="Trazado 97254" d="M2152.735,1917.177c2.545-3.7,7.681-10.539,12.319-10.066s4.971,5.394,3.574,8.043-6.224,9.18-6.224,9.18Z" transform="translate(-2079.969 -1876.384)" fill="#9b9393"/>
        <path id="Trazado_97255" data-name="Trazado 97255" d="M1875.656,2064.486c-2.68-.658-8.508-2.617-10.855,3.521.589,1.126,2.747-1.655,3.673-1.913,1.471-.409,2.733.364,3.847,1.428,1.6,1.526,4.266.138,4.266.138Z" transform="translate(-1835.055 -2009.565)" fill="#e49963"/>
        <g id="Grupo_46758" data-name="Grupo 46758" transform="translate(0 36.248)">
          <path id="Trazado_97256" data-name="Trazado 97256" d="M1780.147,2097.661h-25.179v-3.381h28.56A3.381,3.381,0,0,1,1780.147,2097.661Z" transform="translate(-1741.632 -2071.855)" fill="#3c4973"/>
          <path id="Trazado_97257" data-name="Trazado 97257" d="M1666.1,1948.76,1679.045,1970l2.993-1.573-14.52-24.232h0A3.381,3.381,0,0,0,1666.1,1948.76Z" transform="translate(-1665.708 -1944.194)" fill="#3c4973"/>
        </g>
        <path id="Trazado_97258" data-name="Trazado 97258" d="M2158.714,1760.9c-1.224,5.113-5.473,8.479-9.489,7.518s-6.279-5.886-5.055-11,5.472-8.479,9.488-7.518S2159.938,1755.785,2158.714,1760.9Z" transform="translate(-2072.401 -1742.541)" fill="#e49963"/>
        <path id="Trazado_97259" data-name="Trazado 97259" d="M2186.771,1842.481l-6.675,4.137s-.592,2.95-.888,3.907c-.61,1.975,1.727,2.838,3.7,1.609a5.784,5.784,0,0,0,2.479-2.874Z" transform="translate(-2102.403 -1821.43)" fill="#e49963"/>
        <path id="Trazado_97260" data-name="Trazado 97260" d="M2142.988,1748.288c1.9.164,6.006-.166,7.5-1.943,1.069,3.608,5.61,7.042,9.366,8.652.151-3.7.124-10.511-6.512-13.341C2148.133,1739.434,2142.988,1748.288,2142.988,1748.288Z" transform="translate(-2071.679 -1735.365)" fill="#3c4973"/>
        <path id="Trazado_97261" data-name="Trazado 97261" d="M2150.91,1804.225a.718.718,0,1,1-.323-.963A.719.719,0,0,1,2150.91,1804.225Z" transform="translate(-2077.258 -1788.007)"/>
        <path id="Trazado_97262" data-name="Trazado 97262" d="M2188.025,1813.052a.778.778,0,1,1-.349-1.042A.777.777,0,0,1,2188.025,1813.052Z" transform="translate(-2108.733 -1795.442)"/>
        <g id="Grupo_46759" data-name="Grupo 46759" transform="translate(78.343 15.294)">
          <path id="Trazado_97263" data-name="Trazado 97263" d="M2191.869,1805.623a.268.268,0,0,1-.125-.128,2.059,2.059,0,0,0-1.453-1.006.27.27,0,0,1,.076-.535,2.575,2.575,0,0,1,1.868,1.314.271.271,0,0,1-.133.359A.268.268,0,0,1,2191.869,1805.623Z" transform="translate(-2190.06 -1803.951)" fill="#2e2d57"/>
        </g>
        <g id="Grupo_46760" data-name="Grupo 46760" transform="translate(71.935 14.199)">
          <path id="Trazado_97264" data-name="Trazado 97264" d="M2147.323,1797.6a.27.27,0,0,1-.069-.434,1.9,1.9,0,0,1,1.884-.462.27.27,0,0,1-.175.511,1.358,1.358,0,0,0-1.329.335A.27.27,0,0,1,2147.323,1797.6Z" transform="translate(-2147.173 -1796.623)" fill="#2e2d57"/>
        </g>
        <path id="Trazado_97265" data-name="Trazado 97265" d="M2154.656,1820.365a7.186,7.186,0,0,1-1.117,1.06.285.285,0,0,0-.094.379,3.913,3.913,0,0,0,1.735,1.214.076.076,0,0,0,.08-.127,3.7,3.7,0,0,1-.884-1.031.337.337,0,0,1,0-.307c.113-.222.337-.676.488-1.052A.127.127,0,0,0,2154.656,1820.365Z" transform="translate(-2080.542 -1802.585)" fill="#d68d5d"/>
        <path id="Trazado_97266" data-name="Trazado 97266" d="M2224.948,1821.547a1.869,1.869,0,1,0,2.891.071A2.067,2.067,0,0,0,2224.948,1821.547Z" transform="translate(-2140.567 -1803.157)" fill="#e49963"/>
        <g id="Grupo_46761" data-name="Grupo 46761" transform="translate(84.532 18.854)">
          <path id="Trazado_97267" data-name="Trazado 97267" d="M2231.889,1829.9a.262.262,0,0,1-.095-.079,1.223,1.223,0,0,1-.094-1.5,1.3,1.3,0,0,1,1.427-.49.27.27,0,1,1-.169.514.771.771,0,0,0-.819.292.693.693,0,0,0,.087.858.27.27,0,0,1-.337.4Z" transform="translate(-2231.486 -1827.777)" fill="#d68d5d"/>
        </g>
        <path id="Trazado_97268" data-name="Trazado 97268" d="M1988.539,2150.476c-8.659,1.165-33.09,9.084-34.45,10.719-2.808,3.378,3.444,17.845,5.444,36.469h8.358c-.087-13.27.972-25.478-3.111-29.8,0,0,23.417-1.562,35.091-1.562C2005.822,2166.3,2009.115,2146.189,1988.539,2150.476Z" transform="translate(-1910.396 -2082.898)" fill="#344966"/>
        <path id="Trazado_97269" data-name="Trazado 97269" d="M2159.054,1847.386a.22.22,0,0,1,.2-.351,15.658,15.658,0,0,0,4.147,0,.22.22,0,0,1,.2.351,2.748,2.748,0,0,1-4.55,0Z" transform="translate(-2085.306 -1825.302)" fill="#fff"/>
      </g>
      <g id="Grupo_46787" data-name="Grupo 46787" transform="translate(0 45.266)">
        <g id="Grupo_46763" data-name="Grupo 46763" transform="translate(56.059 30.052)">
          <path id="Trazado_97270" data-name="Trazado 97270" d="M1039.865,2047.6c-1.654,1.1-1.2,7.1-.571,7.4,8.6,1.051,23.122-6.073,23.122-6.073l.569-3.186A149.118,149.118,0,0,1,1039.865,2047.6Z" transform="translate(-1019.295 -2028.217)" fill="#e49963"/>
          <path id="Trazado_97271" data-name="Trazado 97271" d="M910.355,1937.413c3.074,4.915,16.528,17.626,18.616,17.814l1.778-7.206s-12.077-15.312-14.205-17.756C912.87,1926.024,905.321,1929.4,910.355,1937.413Z" transform="translate(-908.677 -1928.423)" fill="#e49963"/>
        </g>
        <path id="Trazado_97272" data-name="Trazado 97272" d="M799.721,1740.061c.37-5.032-1.086-9.478-5.1-11.744-4.067-2.295-9.163-.043-9.163-.043h0s-4.313-1.535-8.221,2.771-.952,8.094-2.551,11.234c-.947,1.859-5.762,2.243-4.518,8.3.359,1.747,2.46,2.923,4.239,3.039,3.127.205,6.038-1,7.305.205,4.176,3.983,13.431,2.542,14.726-1.1.4-1.129,8.727,1.056,7.9-6.637C803.915,1742.187,799.391,1744.559,799.721,1740.061Z" transform="translate(-734.631 -1727.286)" fill="#3c4973"/>
        <g id="Grupo_46766" data-name="Grupo 46766" transform="translate(48.373 27.824)">
          <g id="Grupo_46765" data-name="Grupo 46765">
            <g id="Grupo_46764" data-name="Grupo 46764">
              <path id="Trazado_97273" data-name="Trazado 97273" d="M866.323,1914.733l-6.61-1.221-2.479,3.3,5.268,10.8,7.747-6.576Z" transform="translate(-857.235 -1913.512)" fill="#e49963"/>
            </g>
          </g>
        </g>
        <g id="Grupo_46769" data-name="Grupo 46769" transform="translate(40.419 27.816)">
          <g id="Grupo_46768" data-name="Grupo 46768">
            <g id="Grupo_46767" data-name="Grupo 46767">
              <path id="Trazado_97274" data-name="Trazado 97274" d="M829.605,1940.726c-.113-2.055,3.208-10.493,1.46-14.741-1.273-3.417-3.4-9.152-6-10.109-1.229-.452-2.492-.766-4.023-1.189,0,0,.864,4.305-.936,4.45-3.465.278-5.674-5.67-5.674-5.67-1.868-.178-10.437,2.637-10.433,3.34.02,5.511,4.5,13.553,5.962,19.512.576,6.435-1.669,14.137-1.677,14.868,0,0,13.785,3.876,21.956-.623C830.407,1949.938,829.761,1943.563,829.605,1940.726Z" transform="translate(-803.995 -1913.459)" fill="#1565c0"/>
            </g>
          </g>
        </g>
        <path id="Trazado_97275" data-name="Trazado 97275" d="M824.5,2121.723s-3.043,7.677-3.785,12.51,3.446,7.934,3.446,7.934h34.829s3.728-6.047,2.655-10.222-3.544-4.84-3.544-4.84Z" transform="translate(-777.725 -2062.791)" fill="#1565c0"/>
        <path id="Trazado_97276" data-name="Trazado 97276" d="M950.4,2156.021c-4.447-.627-17.352,4.386-22.855,15.276h15.395Z" transform="translate(-868.67 -2091.92)" fill="#d68d5d"/>
        <g id="Grupo_46770" data-name="Grupo 46770" transform="translate(76.857 63.919)">
          <path id="Trazado_97277" data-name="Trazado 97277" d="M1047.879,2159.289a12.331,12.331,0,0,0,1.556-2.213,3.841,3.841,0,0,1,6.192-.726c6.419,7.078,20.1,23.211,23.154,25.219.862.567,5.891,3.463,10.672,2.89,0,0,2.36.9.788,2.772-.809.965-12.959,1.961-12.959,1.961l-.947-3.568c-7.073-5.234-15.877-4.858-23.343-14.428A28.762,28.762,0,0,1,1047.879,2159.289Z" transform="translate(-1047.879 -2155.098)" fill="#d68d5d"/>
          <path id="Trazado_97278" data-name="Trazado 97278" d="M1238.343,2348.124l4.889,3.173.672-.8-3.966-3.7c2.253-1.778,7.471-.295,7.471-.295,1.709-1.1,5.041-4.685,5.385-6.6-1.095-1.364-4.739,1.442-4.739,1.442a4.473,4.473,0,0,1-1.933,3.071c-3.981.859-7.949-.272-11.186-1.916C1234.935,2342.5,1232.23,2346.6,1238.343,2348.124Z" transform="translate(-1206.48 -2311.971)" fill="#1565c0"/>
        </g>
        <g id="Grupo_46771" data-name="Grupo 46771" transform="translate(74.136 68.998)">
          <path id="Trazado_97279" data-name="Trazado 97279" d="M1032.316,2189.164a2.3,2.3,0,0,0-1.684,1.9c-.348,2.47-2.147,7.472.286,12.711,5.973,12.859,9.5,21.333,10.126,24.652-1.56,2.922,4.661,10.9,4.754,11.426l4.477-1.4s-2.569-3.821-3.494-5.318c-2.2-3.563-2.563-7.937-2.921-11.327-1.529-14.471,1.1-23.609-9.371-32.1A2.446,2.446,0,0,0,1032.316,2189.164Z" transform="translate(-1029.666 -2189.091)" fill="#e49963"/>
          <path id="Trazado_97280" data-name="Trazado 97280" d="M1086.76,2458.485l.442,5.812,1.044.049.536-5.4c2.779.714,4.764,5.762,4.764,5.762,1.914.69,6.781,1.168,8.515.278.421-1.7-4.02-2.894-4.02-2.894a4.475,4.475,0,0,1-3.615.326,17.308,17.308,0,0,1-5.436-10.057S1084.266,2452.7,1086.76,2458.485Z" transform="translate(-1077.612 -2413.029)" fill="#1565c0"/>
        </g>
        <g id="Grupo_46774" data-name="Grupo 46774" transform="translate(50.424 22.842)">
          <g id="Grupo_46773" data-name="Grupo 46773">
            <g id="Grupo_46772" data-name="Grupo 46772">
              <path id="Trazado_97281" data-name="Trazado 97281" d="M876.33,1880.974l-5.367-.8.427,4.981s1.027,2.257,2.219,2.41l4.391-1.189Z" transform="translate(-870.963 -1880.17)" fill="#e49963"/>
            </g>
          </g>
        </g>
        <g id="Grupo_46778" data-name="Grupo 46778" transform="translate(44.001 3.81)">
          <path id="Trazado_97282" data-name="Trazado 97282" d="M835.585,1765.419c1.386,5.786,6.193,9.595,10.738,8.507s7.106-6.661,5.72-12.448-6.193-9.6-10.738-8.507S834.2,1759.632,835.585,1765.419Z" transform="translate(-834.128 -1752.785)" fill="#e49963"/>
          <path id="Trazado_97283" data-name="Trazado 97283" d="M933.138,1814.448a.813.813,0,1,0,.365-1.09A.813.813,0,0,0,933.138,1814.448Z" transform="translate(-917.353 -1804.236)"/>
          <path id="Trazado_97284" data-name="Trazado 97284" d="M890.374,1824.436a.88.88,0,1,0,.4-1.18A.88.88,0,0,0,890.374,1824.436Z" transform="translate(-880.973 -1812.648)"/>
          <g id="Grupo_46775" data-name="Grupo 46775" transform="translate(7.986 9.167)">
            <path id="Trazado_97285" data-name="Trazado 97285" d="M881.871,1816.03a.3.3,0,0,0,.141-.146,2.332,2.332,0,0,1,1.644-1.138.306.306,0,0,0-.086-.606,2.912,2.912,0,0,0-2.113,1.487.306.306,0,0,0,.414.4Z" transform="translate(-881.428 -1814.137)" fill="#2e2d57"/>
          </g>
          <g id="Grupo_46776" data-name="Grupo 46776" transform="translate(15.298 7.928)">
            <path id="Trazado_97286" data-name="Trazado 97286" d="M932.623,1806.951a.3.3,0,0,0,.081-.059.306.306,0,0,0,0-.433,2.148,2.148,0,0,0-2.132-.523.306.306,0,0,0,.2.579,1.533,1.533,0,0,1,1.5.379A.305.305,0,0,0,932.623,1806.951Z" transform="translate(-930.364 -1805.844)" fill="#2e2d57"/>
          </g>
          <path id="Trazado_97287" data-name="Trazado 97287" d="M926.055,1832.712a8.151,8.151,0,0,0,1.263,1.2.322.322,0,0,1,.106.429,4.417,4.417,0,0,1-1.964,1.373.086.086,0,0,1-.09-.143,4.17,4.17,0,0,0,1-1.167.383.383,0,0,0,0-.348c-.127-.252-.381-.765-.553-1.191A.145.145,0,0,1,926.055,1832.712Z" transform="translate(-910.793 -1820.732)" fill="#d68d5d"/>
          <path id="Trazado_97288" data-name="Trazado 97288" d="M831.619,1834.049a2.115,2.115,0,1,1-3.272.081A2.338,2.338,0,0,1,831.619,1834.049Z" transform="translate(-827.976 -1821.379)" fill="#e49963"/>
          <g id="Grupo_46777" data-name="Grupo 46777" transform="translate(1.405 13.195)">
            <path id="Trazado_97289" data-name="Trazado 97289" d="M838.987,1843.5a.3.3,0,0,0,.108-.09,1.383,1.383,0,0,0,.107-1.7,1.475,1.475,0,0,0-1.615-.555.306.306,0,0,0,.192.582.872.872,0,0,1,.926.33.783.783,0,0,1-.1.971.306.306,0,0,0,.381.458Z" transform="translate(-837.376 -1841.099)" fill="#d68d5d"/>
          </g>
          <path id="Trazado_97290" data-name="Trazado 97290" d="M896.221,1861.625a.244.244,0,0,1,.224-.389,17.319,17.319,0,0,0,4.593,0,.244.244,0,0,1,.224.389,3.044,3.044,0,0,1-5.041,0Z" transform="translate(-885.982 -1845.031)" fill="#fff"/>
        </g>
        <path id="Trazado_97291" data-name="Trazado 97291" d="M832.346,1758.64c5.424-.726,13.014-6.253,13.637-9.089-1.049-3.407-6.64-5.119-9.8-3.541S830.048,1754.353,832.346,1758.64Z" transform="translate(-787 -1742.709)" fill="#3c4973"/>
        <path id="Trazado_97292" data-name="Trazado 97292" d="M1171.222,1947.167h0a1.376,1.376,0,0,1-.881-1.734l8.373-25.649a1.375,1.375,0,0,1,1.734-.881h0a1.375,1.375,0,0,1,.88,1.734l-8.373,25.65A1.375,1.375,0,0,1,1171.222,1947.167Z" transform="translate(-1075.13 -1890.216)" fill="#fff"/>
        <path id="Trazado_97293" data-name="Trazado 97293" d="M1199.672,2017.189l1.706-5.226a7.068,7.068,0,0,1,0,5.86c-1.479,2.853-2.886,2.981-2.886,2.981Z" transform="translate(-1099.132 -1969.43)" fill="#e49963"/>
        <path id="Trazado_97294" data-name="Trazado 97294" d="M1185.139,2017.42c-.432-1.014-1.448-3.553-.432-3.541s1.181,1.244,1.181,1.244Z" transform="translate(-1087.035 -1971.059)" fill="#e49963"/>
        <g id="Grupo_46786" data-name="Grupo 46786" transform="translate(0 23.281)">
          <g id="Grupo_46781" data-name="Grupo 46781" transform="translate(14.225 3.095)">
            <g id="Grupo_46780" data-name="Grupo 46780">
              <g id="Grupo_46779" data-name="Grupo 46779">
                <path id="Trazado_97295" data-name="Trazado 97295" d="M628.678,1908.532a3.8,3.8,0,0,0,.792-4.706c1.264-.271,7.93,9.828,10.8,16.245,5.014-5.053,13.849-11.878,16.238-12.276,0,0,3.223-.866,4.381,3.03,1.034,3.478-3,5.942-3,5.942s-17.245,12.175-19.795,11.092C634.132,1926.177,630.54,1911.686,628.678,1908.532Z" transform="translate(-628.678 -1903.821)" fill="#e49963"/>
              </g>
            </g>
          </g>
          <g id="Grupo_46785" data-name="Grupo 46785">
            <g id="Grupo_46784" data-name="Grupo 46784">
              <g id="Grupo_46783" data-name="Grupo 46783">
                <g id="Grupo_46782" data-name="Grupo 46782">
                  <path id="Trazado_97296" data-name="Trazado 97296" d="M544.1,1890.626c1.407.086,3.147-.61,3.689.652l2.777-1.354.168-1.675c-2.386-3.824-8.2-4.909-8.779-4.96-1.5-.131-2.191-.285-2.308-.085s-.483,1.532,1.688,1.793c2.725.327.916,2.505-4.612.432-1.384-.519-3.989.155-3.047,1.166C534.711,1887.709,537.693,1890.235,544.1,1890.626Z" transform="translate(-533.472 -1883.108)" fill="#e49963"/>
                </g>
              </g>
            </g>
          </g>
        </g>
      </g>
    </g>
    <g id="Grupo_46790" data-name="Grupo 46790" transform="translate(441.036 798.768)">
      <path id="Trazado_97297" data-name="Trazado 97297" d="M1404.036,1412.273a8.629,8.629,0,0,1-.488,2.86c-1.593,4.573-6.91,7.932-13.225,7.932s-11.632-3.359-13.224-7.932a8.626,8.626,0,0,1-.488-2.86Z" transform="translate(-1339.119 -1337.297)" fill="#3c4973"/>
      <path id="Trazado_97298" data-name="Trazado 97298" d="M1404.036,1412.273a8.629,8.629,0,0,1-.488,2.86H1377.1a8.626,8.626,0,0,1-.488-2.86Z" transform="translate(-1339.119 -1337.297)" fill="#00223d"/>
      <path id="Trazado_97299" data-name="Trazado 97299" d="M1305.486,798.581a28.716,28.716,0,1,0-51.413,17.593,35.946,35.946,0,0,1,7.62,22.032v.142h30.153v-.141a36.049,36.049,0,0,1,7.64-22.059A28.586,28.586,0,0,0,1305.486,798.581Z" transform="translate(-1225.565 -769.865)" fill="url(#linear-gradient-2)"/>
      <g id="Grupo_46789" data-name="Grupo 46789" transform="translate(37.9 21.069)">
        <path id="Trazado_97300" data-name="Trazado 97300" d="M1397.756,994.554a.734.734,0,0,1-.693-.976c.034-.1,3.42-9.854,5.88-19.788,4.362-17.609,2.117-20.472.95-20.885-3.432-1.215-6.165.582-7.853,2.3a14.633,14.633,0,0,0-1.42,1.7,27.827,27.827,0,0,1,1.948,4.149c1.521,4.063,1.925,7.857,1.081,10.151a3.6,3.6,0,0,1-3.9,2.526,4.161,4.161,0,0,1-3.715-2.94c-.773-2.054-.674-5.075.274-8.288a22.123,22.123,0,0,1,2.578-5.662,14.24,14.24,0,0,0-3.457-3.908c-1.89-1.377-3.665-1.438-5.275-.178-3.326,2.6-3.453,10.418-.368,22.61a161.607,161.607,0,0,0,5.9,18.177.734.734,0,0,1-1.361.549,163.079,163.079,0,0,1-5.961-18.352c-3.288-12.99-2.991-21.112.883-24.14,2.129-1.664,4.63-1.611,7.044.148a15.217,15.217,0,0,1,3.49,3.821,15.523,15.523,0,0,1,1.2-1.389c2.809-2.865,6.144-3.81,9.391-2.661,2.022.716,2.851,3.437,2.536,8.318a86.205,86.205,0,0,1-2.552,14.312c-2.477,10-5.883,19.812-5.917,19.91A.734.734,0,0,1,1397.756,994.554Zm-4.03-36.271a20.841,20.841,0,0,0-2.005,4.639c-.847,2.87-.962,5.619-.309,7.355a2.716,2.716,0,0,0,2.451,1.993,2.137,2.137,0,0,0,2.408-1.569C1397.244,968.057,1396.063,962.656,1393.726,958.284Z" transform="translate(-1380.108 -950.391)" fill="#f5ca56"/>
      </g>
      <path id="Rectángulo_28256" data-name="Rectángulo 28256" d="M5.524,0h24.84a5.524,5.524,0,0,1,5.524,5.524v0a5.524,5.524,0,0,1-5.524,5.524H5.524A5.524,5.524,0,0,1,0,5.524v0A5.524,5.524,0,0,1,5.524,0Z" transform="translate(33.26 64.867)" fill="#3c4973"/>
      <path id="Trazado_97301" data-name="Trazado 97301" d="M1822.725,989.4h-9.389a2.42,2.42,0,0,1-2.42-2.42h0a2.42,2.42,0,0,1,2.42-2.42h9.389a2.42,2.42,0,0,1,2.42,2.42h0A2.42,2.42,0,0,1,1822.725,989.4Z" transform="translate(-1722.736 -959.503)" fill="#f5ca56"/>
      <path id="Trazado_97302" data-name="Trazado 97302" d="M1067.18,989.4h-9.389a2.42,2.42,0,0,1-2.42-2.42h0a2.42,2.42,0,0,1,2.42-2.42h9.389a2.42,2.42,0,0,1,2.42,2.42h0A2.42,2.42,0,0,1,1067.18,989.4Z" transform="translate(-1055.371 -959.503)" fill="#f5ca56"/>
      <path id="Trazado_97303" data-name="Trazado 97303" d="M1143.9,779.895l-7.472-5.686a2.42,2.42,0,0,1-.461-3.391h0a2.42,2.42,0,0,1,3.391-.46l7.472,5.685a2.42,2.42,0,0,1,.46,3.391h0A2.42,2.42,0,0,1,1143.9,779.895Z" transform="translate(-1126.129 -769.864)" fill="#f5ca56"/>
      <path id="Trazado_97304" data-name="Trazado 97304" d="M1747.017,779.895l7.471-5.686a2.42,2.42,0,0,0,.461-3.391h0a2.42,2.42,0,0,0-3.391-.46l-7.472,5.685a2.42,2.42,0,0,0-.461,3.391h0A2.42,2.42,0,0,0,1747.017,779.895Z" transform="translate(-1662.863 -769.864)" fill="#f5ca56"/>
      <path id="Trazado_97305" data-name="Trazado 97305" d="M1143.9,1176.741l-7.472,5.686a2.42,2.42,0,0,0-.461,3.391h0a2.42,2.42,0,0,0,3.391.46l7.472-5.686a2.42,2.42,0,0,0,.46-3.391h0A2.42,2.42,0,0,0,1143.9,1176.741Z" transform="translate(-1126.129 -1128.818)" fill="#f5ca56"/>
      <path id="Trazado_97306" data-name="Trazado 97306" d="M1747.017,1176.741l7.471,5.686a2.42,2.42,0,0,1,.461,3.391h0a2.42,2.42,0,0,1-3.391.46l-7.472-5.686a2.42,2.42,0,0,1-.461-3.391h0A2.42,2.42,0,0,1,1747.017,1176.741Z" transform="translate(-1662.863 -1128.818)" fill="#f5ca56"/>
    </g>
    <g id="Grupo_46794" data-name="Grupo 46794" transform="translate(480.136 954.127)">
      <g id="Grupo_46792" data-name="Grupo 46792" transform="translate(3.09 10.107)">
        <path id="Trazado_97307" data-name="Trazado 97307" d="M1383.351,2091.456v2.009h.547a.481.481,0,0,1,.481.481v.08a.481.481,0,0,1-.481.481h-23.318a.56.56,0,0,1-.56-.56v-2.894a.559.559,0,0,1,.56-.559H1383.9a.48.48,0,0,1,.481.48h0a.481.481,0,0,1-.481.481Z" transform="translate(-1360.02 -2090.494)" fill="#f5ca56"/>
        <path id="Rectángulo_28257" data-name="Rectángulo 28257" d="M1,0H20.8a0,0,0,0,1,0,0V2.009a0,0,0,0,1,0,0H1A1,1,0,0,1,0,1V1A1,1,0,0,1,1,0Z" transform="translate(2.597 0.962)" fill="#fff"/>
      </g>
      <g id="Grupo_46793" data-name="Grupo 46793" transform="translate(0 5.666)">
        <path id="Trazado_97308" data-name="Trazado 97308" d="M1340.368,2061.833v2.224h-.548a.509.509,0,0,0-.48.532v.09a.508.508,0,0,0,.48.531h23.319a.592.592,0,0,0,.56-.619v-3.2a.592.592,0,0,0-.56-.619H1339.82a.508.508,0,0,0-.48.532h0a.508.508,0,0,0,.48.531Z" transform="translate(-1339.34 -2060.77)" fill="#1565c0"/>
        <path id="Rectángulo_28258" data-name="Rectángulo 28258" d="M1.112,0H20.8a0,0,0,0,1,0,0V2.223a0,0,0,0,1,0,0H1.112A1.112,1.112,0,0,1,0,1.112v0A1.112,1.112,0,0,1,1.112,0Z" transform="translate(21.762 3.287) rotate(180)" fill="#fff"/>
      </g>
      <path id="Rectángulo_28259" data-name="Rectángulo 28259" d="M1.8,0h19.36a1.8,1.8,0,0,1,1.8,1.8v0a1.8,1.8,0,0,1-1.8,1.8H1.8A1.8,1.8,0,0,1,0,1.8v0A1.8,1.8,0,0,1,1.8,0Z" transform="translate(1.9 0)" fill="#f5ca56"/>
      <rect id="Rectángulo_28260" data-name="Rectángulo 28260" width="22.965" height="2.06" rx="1.03" transform="translate(3.401 3.606)" fill="#26aab7"/>
    </g>
  </g>
</svg>
