<svg xmlns="http://www.w3.org/2000/svg" xmlns:xlink="http://www.w3.org/1999/xlink" width="250" height="148" viewBox="0 0 250 148">
  <defs>
    <clipPath id="clip-path">
      <rect id="Rectángulo_59599" data-name="Rectángulo 59599" width="150.806" height="138.567" fill="none"/>
    </clipPath>
    <clipPath id="clip-path-2">
      <rect id="Rectángulo_59526" data-name="Rectángulo 59526" width="190.638" height="138.567" fill="none"/>
    </clipPath>
    <clipPath id="clip-path-3">
      <rect id="Rectángulo_59531" data-name="Rectángulo 59531" width="3.422" height="3.46" fill="none"/>
    </clipPath>
    <clipPath id="clip-path-6">
      <rect id="Rectángulo_59535" data-name="Rectángulo 59535" width="4.4" height="4.448" fill="none"/>
    </clipPath>
    <clipPath id="clip-path-9">
      <rect id="Rectángulo_59552" data-name="Rectángulo 59552" width="3.302" height="3.874" fill="none"/>
    </clipPath>
    <clipPath id="clip-path-12">
      <rect id="Rectángulo_59564" data-name="Rectángulo 59564" width="16.471" height="13.535" fill="#f4a338"/>
    </clipPath>
    <clipPath id="clip-path-14">
      <rect id="Rectángulo_59573" data-name="Rectángulo 59573" width="27.142" height="22.427" fill="none"/>
    </clipPath>
    <clipPath id="clip-path-15">
      <rect id="Rectángulo_59574" data-name="Rectángulo 59574" width="25.371" height="11.774" fill="none"/>
    </clipPath>
    <clipPath id="clip-path-16">
      <rect id="Rectángulo_59575" data-name="Rectángulo 59575" width="3.717" height="3.717" fill="none"/>
    </clipPath>
    <clipPath id="clip-path-18">
      <path id="Trazado_236867" data-name="Trazado 236867" d="M174.79,159.21c-.377.458-5.505,4.209-5.505,4.209l.907,1.979s5.578-2.612,6.787-4.133c.309-.393.736-1.018,1.2-1.731.759-1.178,1.617-2.6,2.211-3.592.442-.743.74-1.251.74-1.251l-3.157-4.979c-.69.53-2.8,9.04-3.18,9.5" transform="translate(-169.285 -149.712)" fill="none"/>
    </clipPath>
    <clipPath id="clip-path-19">
      <rect id="Rectángulo_59586" data-name="Rectángulo 59586" width="2.214" height="7.214" fill="none"/>
    </clipPath>
    <clipPath id="clip-path-21">
      <rect id="Rectángulo_59587" data-name="Rectángulo 59587" width="3.568" height="4.008" fill="none"/>
    </clipPath>
    <clipPath id="clip-path-22">
      <rect id="Rectángulo_59588" data-name="Rectángulo 59588" width="3.049" height="3.743" fill="none"/>
    </clipPath>
    <clipPath id="clip-path-23">
      <rect id="Rectángulo_59589" data-name="Rectángulo 59589" width="4.881" height="3.363" fill="none"/>
    </clipPath>
    <clipPath id="clip-path-24">
      <rect id="Rectángulo_59590" data-name="Rectángulo 59590" width="5.088" height="2.599" fill="none"/>
    </clipPath>
    <clipPath id="clip-path-25">
      <rect id="Rectángulo_59591" data-name="Rectángulo 59591" width="3.336" height="25.225" fill="none"/>
    </clipPath>
    <clipPath id="clip-path-26">
      <rect id="Rectángulo_59592" data-name="Rectángulo 59592" width="4.847" height="1.097" fill="none"/>
    </clipPath>
    <clipPath id="clip-path-27">
      <path id="Trazado_236892" data-name="Trazado 236892" d="M192.065,145.422s2.213,6.018,2.543,16.957h12.023s2.218-13.515-1.594-19.575c0,0-.419-.026-1.129-.026-2.318,0-7.742.278-11.843,2.645" transform="translate(-192.065 -142.777)" fill="none"/>
    </clipPath>
    <clipPath id="clip-path-28">
      <rect id="Rectángulo_59594" data-name="Rectángulo 59594" width="3.048" height="8.013" fill="none"/>
    </clipPath>
  </defs>
  <g id="Grupo_985460" data-name="Grupo 985460" transform="translate(3032 6007)">
    <g id="Grupo_985450" data-name="Grupo 985450" transform="translate(-3925.383 -11155.221)">
      <g id="Grupo_182281" data-name="Grupo 182281" transform="translate(943.383 5152.22)">
        <g id="Grupo_182280" data-name="Grupo 182280" transform="translate(0)" clip-path="url(#clip-path)">
          <rect id="Rectángulo_59470" data-name="Rectángulo 59470" width="190.638" height="0.095" transform="translate(-20.165 124.847)" fill="#ebebeb"/>
          <rect id="Rectángulo_59471" data-name="Rectángulo 59471" width="12.629" height="0.095" transform="translate(138.743 130.984)" fill="#ebebeb"/>
          <rect id="Rectángulo_59472" data-name="Rectángulo 59472" width="3.314" height="0.095" transform="translate(102.807 132.02)" fill="#ebebeb"/>
          <rect id="Rectángulo_59473" data-name="Rectángulo 59473" width="7.317" height="0.095" transform="translate(131.044 127.444)" fill="#ebebeb"/>
          <rect id="Rectángulo_59474" data-name="Rectángulo 59474" width="16.468" height="0.095" transform="translate(-0.163 128.084)" fill="#ebebeb"/>
          <rect id="Rectángulo_59475" data-name="Rectángulo 59475" width="2.415" height="0.095" transform="translate(19.7 128.084)" fill="#ebebeb"/>
          <rect id="Rectángulo_59476" data-name="Rectángulo 59476" width="35.716" height="0.095" transform="translate(29.962 129.695)" fill="#ebebeb"/>
          <g id="Grupo_182179" data-name="Grupo 182179" transform="translate(-20.165)">
            <g id="Grupo_182178" data-name="Grupo 182178" clip-path="url(#clip-path-2)">
              <rect id="Rectángulo_59477" data-name="Rectángulo 59477" width="38.785" height="77.985" transform="translate(51.862 27.763)" fill="#fafafa"/>
              <rect id="Rectángulo_59478" data-name="Rectángulo 59478" width="40.575" height="3.827" transform="translate(50.967 26.705)" fill="#f0f0f0"/>
              <rect id="Rectángulo_59479" data-name="Rectángulo 59479" width="40.575" height="1.914" transform="translate(50.967 30.955)" fill="#f0f0f0"/>
              <rect id="Rectángulo_59480" data-name="Rectángulo 59480" width="40.575" height="1.914" transform="translate(50.967 33.795)" fill="#f0f0f0"/>
              <rect id="Rectángulo_59481" data-name="Rectángulo 59481" width="40.575" height="1.913" transform="translate(50.967 36.635)" fill="#f0f0f0"/>
              <rect id="Rectángulo_59482" data-name="Rectángulo 59482" width="40.575" height="1.914" transform="translate(50.967 39.475)" fill="#f0f0f0"/>
              <rect id="Rectángulo_59483" data-name="Rectángulo 59483" width="40.575" height="1.914" transform="translate(50.967 42.314)" fill="#f0f0f0"/>
              <rect id="Rectángulo_59484" data-name="Rectángulo 59484" width="40.575" height="1.914" transform="translate(50.967 45.154)" fill="#f0f0f0"/>
              <rect id="Rectángulo_59485" data-name="Rectángulo 59485" width="40.575" height="1.913" transform="translate(50.967 47.995)" fill="#f0f0f0"/>
              <rect id="Rectángulo_59486" data-name="Rectángulo 59486" width="40.575" height="1.914" transform="translate(50.967 50.834)" fill="#f0f0f0"/>
              <rect id="Rectángulo_59487" data-name="Rectángulo 59487" width="40.575" height="1.914" transform="translate(50.967 53.674)" fill="#f0f0f0"/>
              <rect id="Rectángulo_59488" data-name="Rectángulo 59488" width="40.575" height="1.913" transform="translate(50.967 56.514)" fill="#f0f0f0"/>
              <rect id="Rectángulo_59489" data-name="Rectángulo 59489" width="40.575" height="1.914" transform="translate(50.967 59.354)" fill="#f0f0f0"/>
              <rect id="Rectángulo_59490" data-name="Rectángulo 59490" width="40.575" height="1.914" transform="translate(50.967 62.193)" fill="#f0f0f0"/>
              <rect id="Rectángulo_59491" data-name="Rectángulo 59491" width="40.575" height="1.914" transform="translate(50.967 65.033)" fill="#f0f0f0"/>
              <rect id="Rectángulo_59492" data-name="Rectángulo 59492" width="40.575" height="1.914" transform="translate(50.967 67.873)" fill="#f0f0f0"/>
              <rect id="Rectángulo_59493" data-name="Rectángulo 59493" width="40.575" height="1.914" transform="translate(50.967 70.713)" fill="#f0f0f0"/>
              <rect id="Rectángulo_59494" data-name="Rectángulo 59494" width="40.575" height="1.914" transform="translate(50.967 73.553)" fill="#f0f0f0"/>
              <rect id="Rectángulo_59495" data-name="Rectángulo 59495" width="40.575" height="1.913" transform="translate(50.967 76.393)" fill="#f0f0f0"/>
              <rect id="Rectángulo_59496" data-name="Rectángulo 59496" width="40.575" height="1.914" transform="translate(50.967 79.232)" fill="#f0f0f0"/>
              <rect id="Rectángulo_59497" data-name="Rectángulo 59497" width="40.575" height="1.913" transform="translate(50.967 82.072)" fill="#f0f0f0"/>
              <rect id="Rectángulo_59498" data-name="Rectángulo 59498" width="40.575" height="1.913" transform="translate(50.967 84.912)" fill="#f0f0f0"/>
              <rect id="Rectángulo_59499" data-name="Rectángulo 59499" width="40.575" height="1.914" transform="translate(50.967 87.752)" fill="#f0f0f0"/>
              <rect id="Rectángulo_59500" data-name="Rectángulo 59500" width="40.575" height="1.914" transform="translate(50.967 90.592)" fill="#f0f0f0"/>
              <rect id="Rectángulo_59501" data-name="Rectángulo 59501" width="40.575" height="1.914" transform="translate(50.967 93.431)" fill="#f0f0f0"/>
              <rect id="Rectángulo_59502" data-name="Rectángulo 59502" width="40.575" height="1.914" transform="translate(50.967 96.271)" fill="#f0f0f0"/>
              <rect id="Rectángulo_59503" data-name="Rectángulo 59503" width="40.575" height="1.914" transform="translate(50.967 99.111)" fill="#f0f0f0"/>
              <rect id="Rectángulo_59504" data-name="Rectángulo 59504" width="40.575" height="1.914" transform="translate(50.967 101.951)" fill="#f0f0f0"/>
              <rect id="Rectángulo_59505" data-name="Rectángulo 59505" width="40.575" height="1.914" transform="translate(50.967 104.791)" fill="#f0f0f0"/>
              <rect id="Rectángulo_59506" data-name="Rectángulo 59506" width="38.785" height="77.985" transform="translate(99.992 27.763)" fill="#fafafa"/>
              <rect id="Rectángulo_59507" data-name="Rectángulo 59507" width="40.575" height="3.827" transform="translate(99.097 26.705)" fill="#f0f0f0"/>
              <rect id="Rectángulo_59508" data-name="Rectángulo 59508" width="40.575" height="0.352" transform="translate(99.097 30.955)" fill="#f0f0f0"/>
              <rect id="Rectángulo_59509" data-name="Rectángulo 59509" width="40.575" height="0.352" transform="translate(99.097 31.755)" fill="#f0f0f0"/>
              <rect id="Rectángulo_59510" data-name="Rectángulo 59510" width="40.575" height="0.352" transform="translate(99.097 32.553)" fill="#f0f0f0"/>
              <rect id="Rectángulo_59511" data-name="Rectángulo 59511" width="40.575" height="0.352" transform="translate(99.097 33.353)" fill="#f0f0f0"/>
              <rect id="Rectángulo_59512" data-name="Rectángulo 59512" width="40.575" height="0.352" transform="translate(99.097 34.151)" fill="#f0f0f0"/>
              <rect id="Rectángulo_59513" data-name="Rectángulo 59513" width="40.575" height="0.352" transform="translate(99.097 34.95)" fill="#f0f0f0"/>
              <rect id="Rectángulo_59514" data-name="Rectángulo 59514" width="40.575" height="0.352" transform="translate(99.097 35.75)" fill="#f0f0f0"/>
              <rect id="Rectángulo_59515" data-name="Rectángulo 59515" width="40.575" height="0.352" transform="translate(99.097 36.548)" fill="#f0f0f0"/>
              <rect id="Rectángulo_59516" data-name="Rectángulo 59516" width="40.575" height="0.352" transform="translate(99.097 37.348)" fill="#f0f0f0"/>
              <rect id="Rectángulo_59517" data-name="Rectángulo 59517" width="40.575" height="0.352" transform="translate(99.097 38.147)" fill="#f0f0f0"/>
              <rect id="Rectángulo_59518" data-name="Rectángulo 59518" width="40.575" height="0.352" transform="translate(99.097 38.945)" fill="#f0f0f0"/>
              <rect id="Rectángulo_59519" data-name="Rectángulo 59519" width="40.575" height="0.352" transform="translate(99.097 39.745)" fill="#f0f0f0"/>
              <rect id="Rectángulo_59520" data-name="Rectángulo 59520" width="40.575" height="0.352" transform="translate(99.097 40.543)" fill="#f0f0f0"/>
              <rect id="Rectángulo_59521" data-name="Rectángulo 59521" width="40.575" height="0.352" transform="translate(99.097 41.343)" fill="#f0f0f0"/>
              <rect id="Rectángulo_59522" data-name="Rectángulo 59522" width="40.575" height="0.352" transform="translate(99.097 42.142)" fill="#f0f0f0"/>
              <rect id="Rectángulo_59523" data-name="Rectángulo 59523" width="40.575" height="0.352" transform="translate(99.097 42.94)" fill="#f0f0f0"/>
              <rect id="Rectángulo_59524" data-name="Rectángulo 59524" width="40.575" height="0.352" transform="translate(99.097 43.74)" fill="#f0f0f0"/>
              <rect id="Rectángulo_59525" data-name="Rectángulo 59525" width="40.575" height="0.352" transform="translate(99.097 44.538)" fill="#f0f0f0"/>
              <path id="Trazado_236833" data-name="Trazado 236833" d="M246.4,31.944a5.784,5.784,0,1,1-5.784-5.784,5.784,5.784,0,0,1,5.784,5.784" transform="translate(-145.295 -16.186)" fill="#f0f0f0"/>
              <path id="Trazado_236834" data-name="Trazado 236834" d="M246.937,33.349a4.918,4.918,0,1,1-4.918-4.918,4.918,4.918,0,0,1,4.918,4.918" transform="translate(-146.701 -17.591)" fill="#fafafa"/>
              <path id="Trazado_236835" data-name="Trazado 236835" d="M245.695,32.481v3.438l-2.278-1.289" transform="translate(-150.608 -20.097)" fill="#f0f0f0"/>
              <path id="Trazado_236836" data-name="Trazado 236836" d="M245.695,32.481v3.438l-2.278-1.289" transform="translate(-150.608 -20.097)" fill="none" stroke="#e0e0e0" stroke-linecap="round" stroke-linejoin="round" stroke-width="2"/>
            </g>
          </g>
          <g id="Grupo_182205" data-name="Grupo 182205" transform="translate(12.903 13.862)">
            <g id="Grupo_891081" data-name="Grupo 891081">
              <g id="Grupo_182182" data-name="Grupo 182182" transform="translate(63.056 23.81)" opacity="0.5">
                <g id="Grupo_182181" data-name="Grupo 182181" transform="translate(0 0)">
                  <g id="Grupo_182283" data-name="Grupo 182283">
                    <path id="Trazado_236837" data-name="Trazado 236837" d="M323.165,177.639H253.5a1.393,1.393,0,0,1-1.393-1.393V100.2a1.393,1.393,0,0,1,1.393-1.393h69.663a1.393,1.393,0,0,1,1.393,1.393v76.048a1.393,1.393,0,0,1-1.393,1.393" transform="translate(-252.109 -98.805)" fill="#afafaf"/>
                  </g>
                </g>
              </g>
              <path id="Trazado_236838" data-name="Trazado 236838" d="M317.165,173.639H247.5a1.393,1.393,0,0,1-1.393-1.393V96.2a1.393,1.393,0,0,1,1.393-1.393h69.663a1.393,1.393,0,0,1,1.393,1.393v76.048a1.393,1.393,0,0,1-1.393,1.393" transform="translate(-185.341 -72.52)" fill="#b0c0d2"/>
              <g id="Grupo_182188" data-name="Grupo 182188" transform="translate(2.288 21.947)" opacity="0.5">
                <g id="Grupo_182187" data-name="Grupo 182187" transform="translate(0 0)">
                  <g id="Grupo_182282" data-name="Grupo 182282">
                    <path id="Trazado_236840" data-name="Trazado 236840" d="M129.47,161.313H94.121a1.393,1.393,0,0,1-1.393-1.393V95.31a1.393,1.393,0,0,1,1.393-1.393H129.47a1.393,1.393,0,0,1,1.393,1.393v64.61a1.393,1.393,0,0,1-1.393,1.393" transform="translate(-92.728 -93.917)" fill="#12263f"/>
                  </g>
                </g>
              </g>
              <path id="Trazado_236841" data-name="Trazado 236841" d="M123.47,155.312H88.121a1.393,1.393,0,0,1-1.393-1.393V89.31a1.393,1.393,0,0,1,1.393-1.393H123.47a1.393,1.393,0,0,1,1.393,1.393v64.61a1.393,1.393,0,0,1-1.393,1.393" transform="translate(-86.728 -68.258)" fill="#b0c0d2"/>
              <path id="Trazado_236843" data-name="Trazado 236843" d="M218.781,45.223H88.2a1.469,1.469,0,0,1-1.469-1.469v-5.93A1.469,1.469,0,0,1,88.2,36.356H218.781a1.469,1.469,0,0,1,1.469,1.469v5.93a1.469,1.469,0,0,1-1.469,1.469" transform="translate(-86.728 -36.356)" fill="#12263f"/>
              <g id="Grupo_182194" data-name="Grupo 182194" transform="translate(116.55 2.704)" opacity="0.6" style="isolation: isolate">
                <g id="Grupo_182193" data-name="Grupo 182193">
                  <g id="Grupo_182192" data-name="Grupo 182192" clip-path="url(#clip-path-3)">
                    <path id="Trazado_236844" data-name="Trazado 236844" d="M395.834,45.177a1.711,1.711,0,1,1-1.711-1.73,1.72,1.72,0,0,1,1.711,1.73" transform="translate(-392.412 -43.447)" fill="#fff"/>
                  </g>
                </g>
              </g>
              <g id="Grupo_182197" data-name="Grupo 182197" transform="translate(121.902 2.704)" opacity="0.6" style="isolation: isolate">
                <g id="Grupo_182196" data-name="Grupo 182196">
                  <g id="Grupo_182195" data-name="Grupo 182195" clip-path="url(#clip-path-3)">
                    <path id="Trazado_236845" data-name="Trazado 236845" d="M409.871,45.177a1.711,1.711,0,1,1-1.711-1.73,1.72,1.72,0,0,1,1.711,1.73" transform="translate(-406.449 -43.447)" fill="#fff"/>
                  </g>
                </g>
              </g>
              <g id="Grupo_182200" data-name="Grupo 182200" transform="translate(127.254 2.704)" opacity="0.6" style="isolation: isolate">
                <g id="Grupo_182199" data-name="Grupo 182199">
                  <g id="Grupo_182198" data-name="Grupo 182198" clip-path="url(#clip-path-3)">
                    <path id="Trazado_236846" data-name="Trazado 236846" d="M423.908,45.177a1.711,1.711,0,1,1-1.711-1.73,1.72,1.72,0,0,1,1.711,1.73" transform="translate(-420.486 -43.447)" fill="#fff"/>
                  </g>
                </g>
              </g>
              <g id="Grupo_182203" data-name="Grupo 182203" transform="translate(3.113 2.209)" opacity="0.6" style="isolation: isolate">
                <g id="Grupo_182202" data-name="Grupo 182202">
                  <g id="Grupo_182201" data-name="Grupo 182201" clip-path="url(#clip-path-6)">
                    <rect id="Rectángulo_59534" data-name="Rectángulo 59534" width="4.4" height="4.448" transform="translate(0)" fill="#fff"/>
                  </g>
                </g>
              </g>
            </g>
          </g>
          <path id="Trazado_609954" data-name="Trazado 609954" d="M0,0H41.115V7.865H0Z" transform="translate(7.543 44.263)" fill="#12263f"/>
          <rect id="Rectángulo_59541" data-name="Rectángulo 59541" width="3.284" height="3.284" transform="translate(10.177 46.554)" fill="#fff"/>
          <path id="Trazado_236847" data-name="Trazado 236847" d="M81.464,125.123l.612.788,1.235-1.591" transform="translate(-70.569 -76.92)" fill="none" stroke="#12263f" stroke-linecap="round" stroke-linejoin="round" stroke-width="1.5"/>
          <g id="Grupo_182221" data-name="Grupo 182221" transform="translate(-20.165)">
            <g id="Grupo_182220" data-name="Grupo 182220" clip-path="url(#clip-path-2)">
              <path id="Trazado_236848" data-name="Trazado 236848" d="M169.469,124.95h-3.3v-2.232h3.3Zm-1.651-3.874a1.4,1.4,0,0,0-1.4,1.4h.381a1.019,1.019,0,1,1,2.038,0h.381a1.4,1.4,0,0,0-1.4-1.4" transform="translate(-102.811 -74.913)" fill="#fff"/>
              <path id="Trazado_609953" data-name="Trazado 609953" d="M0,0H41.115V7.865H0Z" transform="translate(21.666 58.802)" fill="#fb8c00"/>
              <rect id="Rectángulo_59545" data-name="Rectángulo 59545" width="3.284" height="3.284" transform="translate(24.3 61.092)" fill="#fff"/>
              <rect id="Rectángulo_59546" data-name="Rectángulo 59546" width="3.302" height="2.232" transform="translate(57.313 62.344)" fill="#fff"/>
              <path id="Trazado_236849" data-name="Trazado 236849" d="M153.778,160.607H153.4a1.019,1.019,0,0,0-2.039,0h-.381a1.4,1.4,0,0,1,2.8,0" transform="translate(-93.413 -98.505)" fill="#fff"/>
              <rect id="Rectángulo_59547" data-name="Rectángulo 59547" width="41.115" height="7.865" transform="translate(27.92 74.023)" fill="#26aab7"/>
              <rect id="Rectángulo_59550" data-name="Rectángulo 59550" width="3.284" height="3.284" transform="translate(30.555 76.314)" fill="#fff"/>
              <path id="Trazado_236850" data-name="Trazado 236850" d="M82.023,203.177l.612.788,1.235-1.591" transform="translate(-50.749 -125.214)" fill="none" stroke="#4adbd1" stroke-linecap="round" stroke-linejoin="round" stroke-width="1.5"/>
              <g id="Grupo_182219" data-name="Grupo 182219" transform="translate(63.568 75.923)" opacity="0.6" style="isolation: isolate">
                <g id="Grupo_182218" data-name="Grupo 182218">
                  <g id="Grupo_182217" data-name="Grupo 182217" clip-path="url(#clip-path-9)">
                    <rect id="Rectángulo_59551" data-name="Rectángulo 59551" width="3.302" height="2.232" transform="translate(0 1.642)" fill="#fff"/>
                    <path id="Trazado_236851" data-name="Trazado 236851" d="M170.183,200.531H169.8a1.019,1.019,0,1,0-2.039,0h-.381a1.4,1.4,0,1,1,2.8,0" transform="translate(-167.131 -199.13)" fill="#fff"/>
                  </g>
                </g>
              </g>
            </g>
          </g>
          <rect id="Rectángulo_59554" data-name="Rectángulo 59554" width="32.106" height="20.882" transform="translate(104.5 65.451)" fill="#afafaf"/>
          <rect id="Rectángulo_59558" data-name="Rectángulo 59558" width="29.757" height="15.922" transform="translate(105.674 69.367)" fill="#f6f6f6"/>
          <rect id="Rectángulo_59559" data-name="Rectángulo 59559" width="22.012" height="0.685" transform="translate(108.099 71.745)" fill="#fff"/>
          <rect id="Rectángulo_59560" data-name="Rectángulo 59560" width="10.561" height="0.685" transform="translate(108.099 73.844)" fill="#fff"/>
          <rect id="Rectángulo_59561" data-name="Rectángulo 59561" width="13.302" height="0.685" transform="translate(108.099 75.941)" fill="#fff"/>
          <rect id="Rectángulo_59562" data-name="Rectángulo 59562" width="4.688" height="0.685" transform="translate(108.099 78.039)" fill="#fff"/>
          <rect id="Rectángulo_59563" data-name="Rectángulo 59563" width="3.036" height="0.685" transform="translate(108.099 80.137)" fill="#fff"/>
          <g id="Grupo_182234" data-name="Grupo 182234" transform="translate(-20.165)">
            <g id="Grupo_182233" data-name="Grupo 182233" clip-path="url(#clip-path-2)">
              <path id="Trazado_236852" data-name="Trazado 236852" d="M385.04,274.577V286.22a1.312,1.312,0,0,1-1.12,1.3,1.019,1.019,0,0,1-.2.017H368.765a1.317,1.317,0,0,1-1.317-1.317V274.577a1.262,1.262,0,0,1,.134-.575,1.313,1.313,0,0,1,1.183-.747h5.861A1.329,1.329,0,0,0,375.4,273a1.29,1.29,0,0,0,.478-.655,1.32,1.32,0,0,1,1.254-.91h3.121a1.316,1.316,0,0,1,1.254.91,1.318,1.318,0,0,0,1.254.906h.957a1.32,1.32,0,0,1,1.317,1.322" transform="translate(-227.349 -167.946)" fill="#c17d23"/>
              <g id="Grupo_182229" data-name="Grupo 182229" transform="translate(140.099 106.057)" style="isolation: isolate">
                <g id="Grupo_182228" data-name="Grupo 182228">
                  <g id="Grupo_182227" data-name="Grupo 182227" clip-path="url(#clip-path-12)">
                    <path id="Trazado_236853" data-name="Trazado 236853" d="M383.918,279.287V291.68l-.017.017H368.764a1.317,1.317,0,0,1-1.317-1.318V278.737a1.261,1.261,0,0,1,.134-.575h15.213a1.125,1.125,0,0,1,1.125,1.125" transform="translate(-367.447 -278.162)" fill="#f4a338"/>
                  </g>
                </g>
              </g>
              <path id="Trazado_236854" data-name="Trazado 236854" d="M298.426,234.718v14.561l-2.844,2.844H285.15V234.718Z" transform="translate(-176.429 -145.225)" fill="#afafaf"/>
              <path id="Trazado_236856" data-name="Trazado 236856" d="M315.354,272.908H312.51v2.844Z" transform="translate(-193.357 -168.855)" fill="#e8e8e8"/>
              <rect id="Rectángulo_59566" data-name="Rectángulo 59566" width="10.011" height="0.546" transform="translate(110.376 92.446)" fill="#e8e8e8"/>
              <rect id="Rectángulo_59567" data-name="Rectángulo 59567" width="8.422" height="0.546" transform="translate(110.376 94.119)" fill="#e8e8e8"/>
              <rect id="Rectángulo_59568" data-name="Rectángulo 59568" width="10.011" height="0.546" transform="translate(110.376 95.792)" fill="#e8e8e8"/>
              <rect id="Rectángulo_59569" data-name="Rectángulo 59569" width="3.738" height="0.546" transform="translate(110.376 97.464)" fill="#e8e8e8"/>
              <rect id="Rectángulo_59570" data-name="Rectángulo 59570" width="2.421" height="0.546" transform="translate(110.376 99.137)" fill="#e8e8e8"/>
            </g>
          </g>
          <rect id="Rectángulo_59572" data-name="Rectángulo 59572" width="27.142" height="22.427" transform="translate(83.639 33.914)" fill="#afafaf"/>
          <g id="Grupo_182245" data-name="Grupo 182245" transform="translate(-20.165)">
            <g id="Grupo_182244" data-name="Grupo 182244" clip-path="url(#clip-path-2)">
              <g id="Grupo_182237" data-name="Grupo 182237" transform="translate(103.804 33.914)" opacity="0.6" style="isolation: isolate">
                <g id="Grupo_182236" data-name="Grupo 182236">
                  <g id="Grupo_182235" data-name="Grupo 182235" clip-path="url(#clip-path-14)">
                    <path id="Trazado_236857" data-name="Trazado 236857" d="M272.254,111.375H299.4V88.948H272.254Zm26.256-.885H273.139V89.833H298.51Z" transform="translate(-272.254 -88.948)" fill="#fff"/>
                  </g>
                </g>
              </g>
              <g id="Grupo_182240" data-name="Grupo 182240" transform="translate(104.689 43.682)" opacity="0.3" style="isolation: isolate">
                <g id="Grupo_182239" data-name="Grupo 182239">
                  <g id="Grupo_182238" data-name="Grupo 182238" clip-path="url(#clip-path-15)">
                    <path id="Trazado_236858" data-name="Trazado 236858" d="M274.576,120.219l7.781-5.653,5.779,5.653,5.779-3.305,6.032,3.714v5.712H274.576Z" transform="translate(-274.576 -114.567)" fill="#fff"/>
                  </g>
                </g>
              </g>
              <g id="Grupo_182243" data-name="Grupo 182243" transform="translate(119.3 38.036)" opacity="0.6" style="isolation: isolate">
                <g id="Grupo_182242" data-name="Grupo 182242">
                  <g id="Grupo_182241" data-name="Grupo 182241" clip-path="url(#clip-path-16)">
                    <path id="Trazado_236859" data-name="Trazado 236859" d="M316.613,101.618a1.859,1.859,0,1,1-1.859-1.858,1.859,1.859,0,0,1,1.859,1.858" transform="translate(-312.896 -99.76)" fill="#fff"/>
                  </g>
                </g>
              </g>
            </g>
          </g>
          <path id="Trazado_236860" data-name="Trazado 236860" d="M346.85,150.213v.763h-.763" transform="translate(-234.297 -92.94)" fill="none" stroke="#263238" stroke-miterlimit="10" stroke-width="1"/>
          <line id="Línea_1952" data-name="Línea 1952" x1="27.301" transform="translate(83.293 58.035)" fill="none" stroke="#263238" stroke-miterlimit="10" stroke-width="1" stroke-dasharray="4.181 3.136"/>
          <path id="Trazado_236861" data-name="Trazado 236861" d="M268.542,150.976h-.763v-.763" transform="translate(-185.846 -92.94)" fill="none" stroke="#263238" stroke-miterlimit="10" stroke-width="1"/>
          <line id="Línea_1953" data-name="Línea 1953" y1="22.597" transform="translate(81.933 33.573)" fill="none" stroke="#263238" stroke-miterlimit="10" stroke-width="1" stroke-dasharray="3.855 2.891"/>
          <path id="Trazado_236862" data-name="Trazado 236862" d="M267.78,85.371v-.763h.763" transform="translate(-185.846 -52.349)" fill="none" stroke="#263238" stroke-miterlimit="10" stroke-width="1"/>
          <line id="Línea_1954" data-name="Línea 1954" x2="27.301" transform="translate(83.891 32.259)" fill="none" stroke="#263238" stroke-miterlimit="10" stroke-width="1" stroke-dasharray="4.181 3.136"/>
          <path id="Trazado_236863" data-name="Trazado 236863" d="M346.087,84.608h.763v.763" transform="translate(-234.297 -52.349)" fill="none" stroke="#263238" stroke-miterlimit="10" stroke-width="1"/>
          <line id="Línea_1955" data-name="Línea 1955" y2="22.597" transform="translate(112.553 34.124)" fill="none" stroke="#263238" stroke-miterlimit="10" stroke-width="1" stroke-dasharray="3.855 2.891"/>
          <rect id="Rectángulo_59577" data-name="Rectángulo 59577" width="1.203" height="1.203" transform="translate(111.951 31.658)" fill="#263238"/>
          <rect id="Rectángulo_59578" data-name="Rectángulo 59578" width="1.203" height="1.203" transform="translate(111.951 57.434)" fill="#263238"/>
          <rect id="Rectángulo_59579" data-name="Rectángulo 59579" width="1.203" height="1.203" transform="translate(81.332 57.434)" fill="#263238"/>
          <rect id="Rectángulo_59580" data-name="Rectángulo 59580" width="1.203" height="1.203" transform="translate(81.332 31.658)" fill="#263238"/>
          <rect id="Rectángulo_59581" data-name="Rectángulo 59581" width="1.203" height="1.203" transform="translate(96.609 31.658)" fill="#263238"/>
          <rect id="Rectángulo_59582" data-name="Rectángulo 59582" width="1.203" height="1.203" transform="translate(96.642 57.434)" fill="#263238"/>
          <rect id="Rectángulo_59583" data-name="Rectángulo 59583" width="1.203" height="1.203" transform="translate(111.951 44.546)" fill="#263238"/>
          <rect id="Rectángulo_59584" data-name="Rectángulo 59584" width="1.203" height="1.203" transform="translate(81.332 44.546)" fill="#263238"/>
          <g id="Grupo_182247" data-name="Grupo 182247" transform="translate(-20.165)">
            <g id="Grupo_182246" data-name="Grupo 182246" clip-path="url(#clip-path-2)">
              <path id="Trazado_236864" data-name="Trazado 236864" d="M164.089,181.667l-4.056,3.295s-.992.021-1.3.348-1.509,2.762-1.339,3.094,2.172.988,2.594.6a9.191,9.191,0,0,0,1.141-2.886l5.183-3.477Z" transform="translate(-97.371 -112.402)" fill="#ebb376"/>
              <path id="Trazado_236865" data-name="Trazado 236865" d="M169.284,163.419l.907,1.979s5.578-2.612,6.787-4.133c.309-.393.736-1.018,1.2-1.731.759-1.178,1.617-2.6,2.211-3.592.442-.743.74-1.251.74-1.251l-3.157-4.979c-.69.53-2.8,9.04-3.18,9.5s-5.506,4.209-5.506,4.209" transform="translate(-104.74 -92.63)" fill="#e8e8e8"/>
            </g>
          </g>
          <g id="Grupo_182252" data-name="Grupo 182252" transform="translate(44.38 57.082)">
            <g id="Grupo_182251" data-name="Grupo 182251" clip-path="url(#clip-path-18)">
              <g id="Grupo_182250" data-name="Grupo 182250" transform="translate(8.889 2.608)" opacity="0.1" style="isolation: isolate">
                <g id="Grupo_182249" data-name="Grupo 182249">
                  <g id="Grupo_182248" data-name="Grupo 182248" clip-path="url(#clip-path-19)">
                    <path id="Trazado_236866" data-name="Trazado 236866" d="M192.6,163.766c.759-1.178,1.617-2.6,2.211-3.592l-1.468-3.622a43.186,43.186,0,0,0-.743,7.214" transform="translate(-192.598 -156.552)"/>
                  </g>
                </g>
              </g>
            </g>
          </g>
          <g id="Grupo_182272" data-name="Grupo 182272" transform="translate(-20.165)">
            <g id="Grupo_182271" data-name="Grupo 182271" clip-path="url(#clip-path-2)">
              <path id="Trazado_236868" data-name="Trazado 236868" d="M260.048,124.752l4-3.1s.323-.938.731-1.134,3.091-.591,3.356-.327.276,2.37-.227,2.651a9.184,9.184,0,0,1-3.1.2l-4.367,3.19Z" transform="translate(-160.898 -74.308)" fill="#ebb376"/>
              <path id="Trazado_236869" data-name="Trazado 236869" d="M171.525,345.01l2.393.422.982-3.263.9-3-2.76-.964-.8,3.6Z" transform="translate(-106.126 -209.258)" fill="#ebb376"/>
              <g id="Grupo_182255" data-name="Grupo 182255" transform="translate(66.095 128.968)" opacity="0.2" style="isolation: isolate">
                <g id="Grupo_182254" data-name="Grupo 182254">
                  <g id="Grupo_182253" data-name="Grupo 182253" clip-path="url(#clip-path-21)">
                    <path id="Trazado_236870" data-name="Trazado 236870" d="M173.351,341.911l2.667.351.9-3.028-2.757-.98Z" transform="translate(-173.351 -338.253)"/>
                  </g>
                </g>
              </g>
              <path id="Trazado_236871" data-name="Trazado 236871" d="M213.433,345.26h2.43l.4-3.261.361-3.044-2.885-.438-.163,3.576Z" transform="translate(-132.056 -209.449)" fill="#ebb376"/>
              <g id="Grupo_182258" data-name="Grupo 182258" transform="translate(81.519 129.116)" opacity="0.2" style="isolation: isolate">
                <g id="Grupo_182257" data-name="Grupo 182257">
                  <g id="Grupo_182256" data-name="Grupo 182256" clip-path="url(#clip-path-22)">
                    <path id="Trazado_236872" data-name="Trazado 236872" d="M213.806,342.385l2.687-.118.361-3.139-2.885-.486Z" transform="translate(-213.806 -338.642)"/>
                  </g>
                </g>
              </g>
              <path id="Trazado_236873" data-name="Trazado 236873" d="M172.76,246.93l3.935.694c3.97-9.892,6.795-18.149,8.789-25,1.074-3.7,1.926-6.985,2.569-9.9l-.166,10.769v24.29h3.968c9.719-46.134,2.831-56.86,2.831-56.86l-11.628-1.944a52.929,52.929,0,0,0-.974,6.529l-.525,3.856-4.546,23.476Z" transform="translate(-106.891 -116.923)" fill="#12263f"/>
              <path id="Trazado_236874" data-name="Trazado 236874" d="M176.778,338.9l-4.881-1.618.066,2.076L176,340.643Z" transform="translate(-106.357 -208.683)" fill="#407bff"/>
              <g id="Grupo_182261" data-name="Grupo 182261" transform="translate(65.54 128.597)" opacity="0.6" style="isolation: isolate">
                <g id="Grupo_182260" data-name="Grupo 182260">
                  <g id="Grupo_182259" data-name="Grupo 182259" clip-path="url(#clip-path-23)">
                    <path id="Trazado_236875" data-name="Trazado 236875" d="M176.778,338.9l-4.881-1.618.066,2.076L176,340.643Z" transform="translate(-171.897 -337.28)" fill="#fff"/>
                  </g>
                </g>
              </g>
              <path id="Trazado_236876" data-name="Trazado 236876" d="M215.952,340.907l-5.088-.745.426,2.033,4.2.566Z" transform="translate(-130.467 -210.467)" fill="#407bff"/>
              <g id="Grupo_182264" data-name="Grupo 182264" transform="translate(80.398 129.696)" opacity="0.6" style="isolation: isolate">
                <g id="Grupo_182263" data-name="Grupo 182263">
                  <g id="Grupo_182262" data-name="Grupo 182262" clip-path="url(#clip-path-24)">
                    <path id="Trazado_236877" data-name="Trazado 236877" d="M215.952,340.907l-5.088-.745.426,2.033,4.2.566Z" transform="translate(-210.865 -340.162)" fill="#fff"/>
                  </g>
                </g>
              </g>
              <g id="Grupo_182267" data-name="Grupo 182267" transform="translate(78.058 82.285)" opacity="0.2" style="isolation: isolate">
                <g id="Grupo_182266" data-name="Grupo 182266">
                  <g id="Grupo_182265" data-name="Grupo 182265" clip-path="url(#clip-path-25)">
                    <path id="Trazado_236878" data-name="Trazado 236878" d="M204.727,241.04c.183-.614.379-1.218.551-1.811.974-3.356,1.625-6.374,2.387-9.084v-.007l.4-4.987s-2.487-5.48-1.557-9.335a18.547,18.547,0,0,0-1.085,8.616,122.238,122.238,0,0,1-.694,16.608" transform="translate(-204.727 -215.816)"/>
                  </g>
                </g>
              </g>
              <path id="Trazado_236879" data-name="Trazado 236879" d="M199.306,120.087a.561.561,0,0,0,.1.056,4.29,4.29,0,0,0,1.584.535c1.622.158,2.67-.2,3.28-1h0c.844-1.2.844-3.123.408-5.389a8.639,8.639,0,0,0-.846-2.6c0-.006-.008-.033-.012-.04-.018-.027-.034-.065-.052-.092a3.145,3.145,0,0,0-2.539-1.605,6.377,6.377,0,0,0-1.37.024c-4.46.533-4.3,8.015-.557,10.115" transform="translate(-121.583 -68.011)" fill="#ebb376"/>
              <g id="Grupo_182270" data-name="Grupo 182270" transform="translate(77.825 51.54)" opacity="0.2" style="isolation: isolate">
                <g id="Grupo_182269" data-name="Grupo 182269">
                  <g id="Grupo_182268" data-name="Grupo 182268" clip-path="url(#clip-path-26)">
                    <path id="Trazado_236880" data-name="Trazado 236880" d="M204.117,135.769a4.166,4.166,0,0,0,1.576.472c1.622.159,2.664-.249,3.271-1.063a4.478,4.478,0,0,1-2.856.136,2.335,2.335,0,0,0-1.991.455" transform="translate(-204.117 -135.178)"/>
                  </g>
                </g>
              </g>
              <path id="Trazado_236881" data-name="Trazado 236881" d="M202.814,138.191c-.4,1.246,1.2,1.926,1.2,1.926,2.81-.886,3.451-2.272,3.451-2.272-2.134-1.394-1.158-4.648-1.158-4.648l-.48.18-3.274.313s.723,1.8.8,2.2c0,0,0,.007,0,.011.4,2.1-.543,2.29-.543,2.29" transform="translate(-125.323 -82.412)" fill="#ebb376"/>
              <path id="Trazado_236882" data-name="Trazado 236882" d="M199.907,109.988a4.722,4.722,0,0,1-2.133,4.818s-.849,3.41-2.714,3.7c-2.543.395-5.264-2.943-4.861-6.755.522-4.943,7.734-6.278,9.708-1.763" transform="translate(-117.656 -66.345)" fill="#263238"/>
              <path id="Trazado_236883" data-name="Trazado 236883" d="M210.759,122.486c-.064-.487-.563-1.254-1.305-1.045-.769.217-.952,2.206,1.031,2.387.284.026.409-.326.275-1.342" transform="translate(-129.259 -75.117)" fill="#ebb376"/>
              <path id="Trazado_236884" data-name="Trazado 236884" d="M214.771,354.995h-2.713a.248.248,0,0,0-.241.194l-.557,2.515a.417.417,0,0,0,.321.494.444.444,0,0,0,.092.009c1.11-.018,1.2-.086,2.594-.086.859,0,3.449.09,4.635.09s1.34-1.172.855-1.279a11.189,11.189,0,0,1-4.514-1.757.681.681,0,0,0-.474-.18" transform="translate(-130.706 -219.644)" fill="#263238"/>
              <path id="Trazado_236885" data-name="Trazado 236885" d="M220.907,355.024a.069.069,0,0,1-.05-.058.061.061,0,0,1,.032-.064c.1-.065,1.013-.625,1.326-.464a.2.2,0,0,1,.115.187.4.4,0,0,1-.14.359.842.842,0,0,1-.543.144,3.367,3.367,0,0,1-.74-.1m.194-.093a1.373,1.373,0,0,0,1.006-.05.277.277,0,0,0,.09-.241c0-.054-.025-.079-.043-.079a.157.157,0,0,0-.086-.018,2.741,2.741,0,0,0-.967.388" transform="translate(-136.649 -219.282)" fill="#407bff"/>
              <path id="Trazado_236886" data-name="Trazado 236886" d="M220.891,354a.072.072,0,0,1-.032-.061c0-.039.072-.851.4-1.117a.358.358,0,0,1,.284-.087.22.22,0,0,1,.216.176c.058.3-.507.92-.8,1.078h-.032a.061.061,0,0,1-.036.011m.453-1.1a1.583,1.583,0,0,0-.334.884c.291-.219.65-.69.614-.873,0-.018-.011-.068-.1-.068h-.032a.231.231,0,0,0-.151.058" transform="translate(-136.651 -218.245)" fill="#407bff"/>
              <path id="Trazado_236887" data-name="Trazado 236887" d="M172.335,354.995h-2.712a.248.248,0,0,0-.241.194l-.557,2.515a.417.417,0,0,0,.321.494.442.442,0,0,0,.092.009c1.11-.018,1.2-.086,2.594-.086.859,0,3.449.09,4.635.09s1.34-1.172.855-1.279a11.187,11.187,0,0,1-4.513-1.757.682.682,0,0,0-.474-.18" transform="translate(-104.451 -219.644)" fill="#263238"/>
              <path id="Trazado_236888" data-name="Trazado 236888" d="M178.471,355.024a.069.069,0,0,1-.05-.058.061.061,0,0,1,.032-.064c.1-.065,1.013-.625,1.326-.464a.2.2,0,0,1,.115.187.4.4,0,0,1-.14.359.842.842,0,0,1-.543.144,3.368,3.368,0,0,1-.74-.1m.194-.093a1.373,1.373,0,0,0,1.006-.05.277.277,0,0,0,.09-.241c0-.054-.025-.079-.043-.079a.156.156,0,0,0-.086-.018,2.74,2.74,0,0,0-.967.388" transform="translate(-110.393 -219.282)" fill="#407bff"/>
              <path id="Trazado_236889" data-name="Trazado 236889" d="M178.455,354a.072.072,0,0,1-.032-.061c0-.039.072-.851.4-1.117a.358.358,0,0,1,.284-.087.22.22,0,0,1,.216.176c.057.3-.507.92-.8,1.078h-.032a.061.061,0,0,1-.036.011m.453-1.1a1.583,1.583,0,0,0-.334.884c.291-.219.65-.69.614-.873,0-.018-.011-.068-.1-.068h-.032a.231.231,0,0,0-.151.058" transform="translate(-110.395 -218.245)" fill="#407bff"/>
              <path id="Trazado_236890" data-name="Trazado 236890" d="M206.63,162.378s2.218-13.516-1.594-19.575c0,0-7.614-.473-12.971,2.619,0,0,2.214,6.017,2.543,16.956Z" transform="translate(-118.835 -88.339)" fill="#afafaf"/>
            </g>
          </g>
          <g id="Grupo_182277" data-name="Grupo 182277" transform="translate(53.065 54.437)">
            <g id="Grupo_182276" data-name="Grupo 182276" clip-path="url(#clip-path-27)">
              <g id="Grupo_182275" data-name="Grupo 182275" transform="translate(12.244 1.245)" opacity="0.1" style="isolation: isolate">
                <g id="Grupo_182274" data-name="Grupo 182274">
                  <g id="Grupo_182273" data-name="Grupo 182273" clip-path="url(#clip-path-28)">
                    <path id="Trazado_236891" data-name="Trazado 236891" d="M227.193,154.055c.164-1.834-.366-3.6-.458-5.155a14.959,14.959,0,0,1-2.507-2.858s-.694,5.475,2.964,8.012" transform="translate(-224.177 -146.043)"/>
                  </g>
                </g>
              </g>
            </g>
          </g>
          <g id="Grupo_182279" data-name="Grupo 182279" transform="translate(-20.165)">
            <g id="Grupo_182278" data-name="Grupo 182278" clip-path="url(#clip-path-2)">
              <path id="Trazado_236893" data-name="Trazado 236893" d="M223.417,134.2s7.546-.885,8.681-1.36c.711-.3,6.257-3.923,6.257-3.923l1.3,1.936s-5.675,4.583-6.634,5.109a66.262,66.262,0,0,1-7.306,2.979s-3.055-2.123-2.3-4.742" transform="translate(-138.159 -79.766)" fill="#f6f6f6"/>
              <path id="Trazado_236894" data-name="Trazado 236894" d="M192.281,110.025s3.136-3.136.179-5.248-5.931.643-5.931.643-7.08,1.71-5.573,6.416,2.492,5.107.25,7.521-4.533,5.99-2.241,8.274,10.3-.066,12.732-3.516-1.865-10.854.585-14.09" transform="translate(-110.142 -64.335)" fill="#263238"/>
              <path id="Trazado_236895" data-name="Trazado 236895" d="M198.657,192.107l-.048-1.282,12.21.31v1.185Z" transform="translate(-122.884 -118.068)"/>
              <rect id="Rectángulo_59595" data-name="Rectángulo 59595" width="0.492" height="1.263" transform="translate(79.152 72.844)" fill="#263238"/>
              <rect id="Rectángulo_59596" data-name="Rectángulo 59596" width="0.434" height="1.378" transform="translate(84.846 72.989)" fill="#263238"/>
              <rect id="Rectángulo_59597" data-name="Rectángulo 59597" width="0.415" height="1.476" transform="translate(76.06 72.776)" fill="#263238"/>
            </g>
          </g>
        </g>
      </g>
      <g id="Window_1" data-name="Window 1" transform="translate(1066.708 5180.808)">
        <g id="Grupo_892931" data-name="Grupo 892931" transform="translate(0 0)">
          <g id="Grupo_892922" data-name="Grupo 892922">
            <g id="Grupo_892919" data-name="Grupo 892919" transform="translate(0.095 0.095)">
              <rect id="Rectángulo_303250" data-name="Rectángulo 303250" width="24.586" height="21.124" rx="3.922" fill="#fff"/>
            </g>
            <g id="Grupo_892921" data-name="Grupo 892921">
              <g id="Grupo_892920" data-name="Grupo 892920">
                <path id="Trazado_612438" data-name="Trazado 612438" d="M312,170.614c0-.007.078,0,.227-.03a1.42,1.42,0,0,0,.606-.264,1.394,1.394,0,0,0,.547-.9,5.176,5.176,0,0,0,.017-.693q0-.375,0-.8c-.007-2.258-.017-5.513-.03-9.533,0-2.013-.007-4.217-.012-6.583-.029-.586.114-1.23-.266-1.7a1.348,1.348,0,0,0-.7-.493,3.471,3.471,0,0,0-.909-.055l-3.888,0-17.312.007a1.332,1.332,0,0,0-.961.407,1.351,1.351,0,0,0-.376.97q0,1.137,0,2.26,0,2.244,0,4.417c0,2.9,0,5.69-.005,8.351l0,1.97v.966a1.657,1.657,0,0,0,.155.887,1.353,1.353,0,0,0,.63.6,1.4,1.4,0,0,0,.419.116c.141.011.3.007.452.008l1.8,0,6.583.012,9.533.03,2.592.017.674.009c.152,0,.23.01.23.01s-.078.007-.23.01l-.674.009-2.592.018-9.533.03-6.583.012-1.8,0c-.154,0-.3,0-.469-.008a1.566,1.566,0,0,1-.471-.129,1.519,1.519,0,0,1-.709-.669,1.831,1.831,0,0,1-.176-.965v-.966l0-1.97c0-2.661,0-5.455-.005-8.351q0-2.172,0-4.417,0-1.122,0-2.26a1.542,1.542,0,0,1,.429-1.1,1.52,1.52,0,0,1,1.1-.465l17.312.008,3.888,0h.471a1.645,1.645,0,0,1,.485.064,1.516,1.516,0,0,1,1.078,1.452q0,.451,0,.895c0,2.366-.008,4.57-.012,6.583-.013,4.02-.023,7.275-.03,9.533q0,.422,0,.8a5.03,5.03,0,0,1-.027.7,1.429,1.429,0,0,1-.58.919,1.4,1.4,0,0,1-.625.252A.928.928,0,0,1,312,170.614Z" transform="translate(-288.75 -149.395)" fill="#263238"/>
              </g>
            </g>
          </g>
          <g id="Grupo_892923" data-name="Grupo 892923" transform="translate(3.986 4.359)">
            <path id="Trazado_612439" data-name="Trazado 612439" d="M311.025,163.709H300.876a1.166,1.166,0,0,1-1.166-1.166h0a1.166,1.166,0,0,1,1.166-1.166h10.149a1.166,1.166,0,0,1,1.166,1.166h0A1.166,1.166,0,0,1,311.025,163.709Z" transform="translate(-299.701 -161.368)" fill="#fb8c00"/>
            <path id="Trazado_612440" data-name="Trazado 612440" d="M311.009,163.7H300.86a1.175,1.175,0,1,1,0-2.35h10.149a1.175,1.175,0,0,1,0,2.35ZM300.86,161.37a1.157,1.157,0,1,0,0,2.314h10.149a1.157,1.157,0,0,0,0-2.314Z" transform="translate(-299.685 -161.352)" fill="#fff"/>
          </g>
          <g id="Grupo_892924" data-name="Grupo 892924" transform="translate(3.986 9.843)">
            <path id="Trazado_612441" data-name="Trazado 612441" d="M316.714,178.751H300.876a1.166,1.166,0,0,1-1.166-1.166h0a1.166,1.166,0,0,1,1.166-1.166h15.838a1.166,1.166,0,0,1,1.166,1.166h0A1.166,1.166,0,0,1,316.714,178.751Z" transform="translate(-299.701 -176.41)" fill="#263238"/>
            <path id="Trazado_612442" data-name="Trazado 612442" d="M316.7,178.744H300.86a1.175,1.175,0,1,1,0-2.35H316.7a1.175,1.175,0,0,1,0,2.35Zm-15.838-2.332a1.157,1.157,0,1,0,0,2.314H316.7a1.157,1.157,0,0,0,0-2.314Z" transform="translate(-299.685 -176.394)" fill="#fff"/>
          </g>
          <g id="Grupo_892928" data-name="Grupo 892928" transform="translate(21.02 2.78)">
            <g id="Grupo_892925" data-name="Grupo 892925">
              <path id="Trazado_612443" data-name="Trazado 612443" d="M347.631,157.645a.6.6,0,1,1-.6-.6A.6.6,0,0,1,347.631,157.645Z" transform="translate(-346.425 -157.037)" fill="#263238"/>
              <path id="Trazado_612444" data-name="Trazado 612444" d="M347.017,158.236a.608.608,0,1,1,.607-.608A.608.608,0,0,1,347.017,158.236Zm0-1.2a.589.589,0,1,0,.589.589A.59.59,0,0,0,347.017,157.039Z" transform="translate(-346.409 -157.021)" fill="#fff"/>
            </g>
            <g id="Grupo_892926" data-name="Grupo 892926" transform="translate(0 1.526)">
              <circle id="Elipse_8181" data-name="Elipse 8181" cx="0.599" cy="0.599" r="0.599" transform="translate(0.009 0.009)" fill="#263238"/>
              <path id="Trazado_612445" data-name="Trazado 612445" d="M347.017,162.422a.608.608,0,1,1,.607-.607A.608.608,0,0,1,347.017,162.422Zm0-1.2a.589.589,0,1,0,.589.589A.59.59,0,0,0,347.017,161.225Z" transform="translate(-346.409 -161.207)" fill="#fff"/>
            </g>
            <g id="Grupo_892927" data-name="Grupo 892927" transform="translate(0 3.052)">
              <path id="Trazado_612446" data-name="Trazado 612446" d="M347.631,166.016a.6.6,0,1,1-.6-.6A.6.6,0,0,1,347.631,166.016Z" transform="translate(-346.425 -165.408)" fill="#263238"/>
              <path id="Trazado_612447" data-name="Trazado 612447" d="M347.017,166.607a.608.608,0,1,1,.607-.608A.608.608,0,0,1,347.017,166.607Zm0-1.2a.589.589,0,1,0,.589.589A.59.59,0,0,0,347.017,165.41Z" transform="translate(-346.409 -165.392)" fill="#fff"/>
            </g>
          </g>
          <g id="Grupo_892929" data-name="Grupo 892929" transform="translate(3.986 14.768)">
            <circle id="Elipse_8182" data-name="Elipse 8182" cx="1.71" cy="1.71" r="1.71" transform="translate(0.009 0.009)" fill="#1565c0"/>
            <path id="Trazado_612448" data-name="Trazado 612448" d="M301.4,193.342a1.719,1.719,0,1,1,1.719-1.719A1.721,1.721,0,0,1,301.4,193.342Zm0-3.42a1.7,1.7,0,1,0,1.7,1.7A1.7,1.7,0,0,0,301.4,189.922Z" transform="translate(-299.685 -189.904)" fill="#fff"/>
          </g>
          <g id="Grupo_892930" data-name="Grupo 892930" transform="translate(8.357 14.768)">
            <circle id="Elipse_8183" data-name="Elipse 8183" cx="1.71" cy="1.71" r="1.71" transform="translate(0.009 0.009)" fill="#455a64"/>
            <path id="Trazado_612449" data-name="Trazado 612449" d="M313.393,193.342a1.719,1.719,0,1,1,1.719-1.719A1.721,1.721,0,0,1,313.393,193.342Zm0-3.42a1.7,1.7,0,1,0,1.7,1.7A1.7,1.7,0,0,0,313.393,189.922Z" transform="translate(-311.674 -189.904)" fill="#fff"/>
          </g>
        </g>
      </g>
      <g id="Grupo_897514" data-name="Grupo 897514" transform="translate(944.047 5240.131)">
        <g id="Grupo_892909" data-name="Grupo 892909">
          <g id="Grupo_892906" data-name="Grupo 892906" transform="translate(0.095 0.095)">
            <rect id="Rectángulo_303249" data-name="Rectángulo 303249" width="24.586" height="21.124" rx="3.922" fill="#fff"/>
          </g>
          <g id="Grupo_892908" data-name="Grupo 892908">
            <g id="Grupo_892907" data-name="Grupo 892907">
              <path id="Trazado_612426" data-name="Trazado 612426" d="M94.8,65.456c0-.007.078,0,.227-.03a1.422,1.422,0,0,0,.606-.263,1.4,1.4,0,0,0,.547-.9,5.06,5.06,0,0,0,.018-.693q0-.375,0-.8c-.007-2.258-.017-5.513-.03-9.533,0-2.013-.007-4.217-.012-6.583-.029-.587.114-1.23-.266-1.7a1.35,1.35,0,0,0-.7-.493,3.486,3.486,0,0,0-.909-.055l-3.888,0-17.313.008a1.329,1.329,0,0,0-.961.407,1.35,1.35,0,0,0-.376.97q0,1.137,0,2.259,0,2.244,0,4.418c0,2.9,0,5.689-.005,8.35l0,1.97v.966a1.656,1.656,0,0,0,.155.886,1.353,1.353,0,0,0,.63.6,1.415,1.415,0,0,0,.42.116c.141.011.3.007.452.008l1.8,0,6.583.012,9.533.03,2.592.018.674.009c.152,0,.23.009.23.009s-.078.007-.23.01l-.674.009-2.592.018-9.533.03-6.583.012-1.8,0c-.154,0-.3,0-.469-.008a1.555,1.555,0,0,1-.471-.129,1.519,1.519,0,0,1-.709-.669,1.831,1.831,0,0,1-.176-.964V62.8l0-1.97c0-2.661,0-5.455-.005-8.35q0-2.173,0-4.418,0-1.122,0-2.259a1.54,1.54,0,0,1,.429-1.1,1.52,1.52,0,0,1,1.1-.465l17.313.007,3.888,0h.471a1.645,1.645,0,0,1,.485.064,1.517,1.517,0,0,1,1.078,1.452q0,.451,0,.895c0,2.366-.008,4.57-.012,6.583-.013,4.02-.023,7.275-.03,9.533q0,.422,0,.8a5.026,5.026,0,0,1-.027.7,1.428,1.428,0,0,1-.58.919,1.392,1.392,0,0,1-.625.252A.907.907,0,0,1,94.8,65.456Z" transform="translate(-71.553 -44.237)" fill="#263238"/>
            </g>
          </g>
        </g>
        <g id="Grupo_892910" data-name="Grupo 892910" transform="translate(3.986 4.359)">
          <path id="Trazado_612427" data-name="Trazado 612427" d="M93.828,58.55H83.679a1.166,1.166,0,0,1-1.166-1.166h0a1.166,1.166,0,0,1,1.166-1.166H93.828a1.166,1.166,0,0,1,1.166,1.166h0A1.166,1.166,0,0,1,93.828,58.55Z" transform="translate(-82.504 -56.209)" fill="#26aab7"/>
          <path id="Trazado_612428" data-name="Trazado 612428" d="M93.812,58.544H83.663a1.175,1.175,0,1,1,0-2.35H93.812a1.175,1.175,0,0,1,0,2.35ZM83.663,56.212a1.157,1.157,0,1,0,0,2.314H93.812a1.157,1.157,0,1,0,0-2.314Z" transform="translate(-82.488 -56.194)" fill="#fff"/>
        </g>
        <g id="Grupo_892911" data-name="Grupo 892911" transform="translate(3.986 9.842)">
          <path id="Trazado_612429" data-name="Trazado 612429" d="M99.518,73.592H83.679a1.166,1.166,0,0,1-1.166-1.166h0a1.166,1.166,0,0,1,1.166-1.166H99.518a1.166,1.166,0,0,1,1.166,1.166h0A1.166,1.166,0,0,1,99.518,73.592Z" transform="translate(-82.504 -71.251)" fill="#263238"/>
          <path id="Trazado_612430" data-name="Trazado 612430" d="M99.5,73.585H83.663a1.175,1.175,0,1,1,0-2.35H99.5a1.175,1.175,0,0,1,0,2.35ZM83.663,71.253a1.157,1.157,0,1,0,0,2.314H99.5a1.157,1.157,0,0,0,0-2.314Z" transform="translate(-82.488 -71.235)" fill="#fff"/>
        </g>
        <g id="Grupo_892915" data-name="Grupo 892915" transform="translate(21.02 2.78)">
          <g id="Grupo_892912" data-name="Grupo 892912">
            <path id="Trazado_612431" data-name="Trazado 612431" d="M130.434,52.487a.6.6,0,1,1-.6-.6A.6.6,0,0,1,130.434,52.487Z" transform="translate(-129.228 -51.879)" fill="#263238"/>
            <path id="Trazado_612432" data-name="Trazado 612432" d="M129.82,53.078a.608.608,0,1,1,.607-.607A.608.608,0,0,1,129.82,53.078Zm0-1.2a.589.589,0,1,0,.589.589A.59.59,0,0,0,129.82,51.881Z" transform="translate(-129.212 -51.863)" fill="#fff"/>
          </g>
          <g id="Grupo_892913" data-name="Grupo 892913" transform="translate(0 1.526)">
            <circle id="Elipse_8178" data-name="Elipse 8178" cx="0.599" cy="0.599" r="0.599" transform="translate(0.009 0.009)" fill="#263238"/>
            <path id="Trazado_612433" data-name="Trazado 612433" d="M129.82,57.263a.608.608,0,1,1,.607-.608A.608.608,0,0,1,129.82,57.263Zm0-1.2a.589.589,0,1,0,.589.589A.59.59,0,0,0,129.82,56.066Z" transform="translate(-129.212 -56.048)" fill="#fff"/>
          </g>
          <g id="Grupo_892914" data-name="Grupo 892914" transform="translate(0 3.052)">
            <path id="Trazado_612434" data-name="Trazado 612434" d="M130.434,60.857a.6.6,0,1,1-.6-.6A.6.6,0,0,1,130.434,60.857Z" transform="translate(-129.228 -60.249)" fill="#263238"/>
            <path id="Trazado_612435" data-name="Trazado 612435" d="M129.82,61.449a.608.608,0,1,1,.607-.608A.608.608,0,0,1,129.82,61.449Zm0-1.2a.589.589,0,1,0,.589.589A.59.59,0,0,0,129.82,60.252Z" transform="translate(-129.212 -60.234)" fill="#fff"/>
          </g>
        </g>
        <g id="Grupo_892916" data-name="Grupo 892916" transform="translate(3.986 14.768)">
          <circle id="Elipse_8179" data-name="Elipse 8179" cx="1.71" cy="1.71" r="1.71" transform="translate(0.009 0.009)" fill="#1565c0"/>
          <path id="Trazado_612436" data-name="Trazado 612436" d="M84.207,88.184a1.719,1.719,0,1,1,1.719-1.719A1.721,1.721,0,0,1,84.207,88.184Zm0-3.42a1.7,1.7,0,1,0,1.7,1.7A1.7,1.7,0,0,0,84.207,84.764Z" transform="translate(-82.488 -84.746)" fill="#fff"/>
        </g>
        <g id="Grupo_892917" data-name="Grupo 892917" transform="translate(8.357 14.768)">
          <circle id="Elipse_8180" data-name="Elipse 8180" cx="1.71" cy="1.71" r="1.71" transform="translate(0.009 0.009)" fill="#455a64"/>
          <path id="Trazado_612437" data-name="Trazado 612437" d="M96.2,88.184a1.719,1.719,0,1,1,1.719-1.719A1.721,1.721,0,0,1,96.2,88.184Zm0-3.42a1.7,1.7,0,1,0,1.7,1.7A1.7,1.7,0,0,0,96.2,84.764Z" transform="translate(-94.477 -84.746)" fill="#fff"/>
        </g>
      </g>
      <g id="Grupo_897515" data-name="Grupo 897515" transform="translate(992.95 5161.891)">
        <g id="Grupo_54766" data-name="Grupo 54766">
          <rect id="Rectángulo_29427" data-name="Rectángulo 29427" width="28.86" height="11.219" transform="translate(0.04 0.04)" fill="#fafafa"/>
          <path id="Trazado_117066" data-name="Trazado 117066" d="M397.62,272.307H368.679v-11.3H397.62Zm-28.861-.08h28.78v-11.14h-28.78Z" transform="translate(-368.679 -261.007)" fill="#222221"/>
        </g>
        <g id="Grupo_54767" data-name="Grupo 54767" transform="translate(0.04 0.04)">
          <rect id="Rectángulo_29428" data-name="Rectángulo 29428" width="28.86" height="2.404" fill="#263238"/>
        </g>
        <g id="Grupo_54776" data-name="Grupo 54776" transform="translate(1.565 5.36)">
          <g id="Grupo_54771" data-name="Grupo 54771">
            <g id="Grupo_54768" data-name="Grupo 54768" transform="translate(0.102 0.085)">
              <rect id="Rectángulo_29429" data-name="Rectángulo 29429" width="2.851" height="2.851" fill="#f5f5f5"/>
            </g>
            <g id="Grupo_54770" data-name="Grupo 54770">
              <g id="Grupo_54769" data-name="Grupo 54769">
                <path id="Trazado_117067" data-name="Trazado 117067" d="M376.51,280.656a1.364,1.364,0,0,1-.016-.22c-.005-.162-.012-.356-.019-.588-.013-.5-.03-1.2-.037-2.044l.072.072-2.851.012.083-.083h0v.387c0,.128,0,.255,0,.381q0,.377,0,.737c0,.477-.006.928-.008,1.345l-.072-.072c.839.007,1.543.023,2.044.037l.588.019a1.363,1.363,0,0,1,.22.016,6.968,6.968,0,0,1-.761.036c-.5.013-1.219.03-2.09.037h-.072v-.073c0-.417-.005-.868-.008-1.345q0-.36,0-.737v-.768h0l.084-.084,2.851.011h.073v.072c-.007.871-.023,1.593-.037,2.09A6.97,6.97,0,0,1,376.51,280.656Z" transform="translate(-373.557 -277.72)" fill="#263238"/>
              </g>
            </g>
          </g>
          <g id="Grupo_54775" data-name="Grupo 54775" transform="translate(0.101 0.083)">
            <g id="Grupo_54772" data-name="Grupo 54772" transform="translate(0.001 0.001)">
              <line id="Línea_1592" data-name="Línea 1592" x1="2.851" y2="2.851" fill="#fafafa"/>
            </g>
            <g id="Grupo_54774" data-name="Grupo 54774">
              <g id="Grupo_54773" data-name="Grupo 54773">
                <path id="Trazado_117068" data-name="Trazado 117068" d="M373.872,280.833a24.391,24.391,0,0,1,2.851-2.851,24.328,24.328,0,0,1-2.851,2.851Z" transform="translate(-373.871 -277.98)" fill="#e8505b"/>
              </g>
            </g>
          </g>
        </g>
        <g id="Grupo_54778" data-name="Grupo 54778" transform="translate(5.377 5.445)">
          <g id="Grupo_54777" data-name="Grupo 54777">
            <rect id="Rectángulo_29430" data-name="Rectángulo 29430" width="2.851" height="2.851" fill="#263238"/>
          </g>
        </g>
        <g id="Grupo_54780" data-name="Grupo 54780" transform="translate(9.087 5.445)">
          <g id="Grupo_54779" data-name="Grupo 54779">
            <rect id="Rectángulo_29431" data-name="Rectángulo 29431" width="2.851" height="2.851" fill="#455a64"/>
          </g>
        </g>
        <g id="Grupo_54782" data-name="Grupo 54782" transform="translate(12.798 5.445)">
          <g id="Grupo_54781" data-name="Grupo 54781">
            <rect id="Rectángulo_29432" data-name="Rectángulo 29432" width="2.851" height="2.851" fill="#26aab7"/>
          </g>
        </g>
        <g id="Grupo_54784" data-name="Grupo 54784" transform="translate(16.508 5.445)">
          <g id="Grupo_54783" data-name="Grupo 54783">
            <rect id="Rectángulo_29433" data-name="Rectángulo 29433" width="2.851" height="2.851" fill="#e8505b"/>
          </g>
        </g>
        <g id="Grupo_54786" data-name="Grupo 54786" transform="translate(16.508 5.445)" opacity="0.5">
          <g id="Grupo_54785" data-name="Grupo 54785">
            <rect id="Rectángulo_29434" data-name="Rectángulo 29434" width="2.851" height="2.851" fill="#ffd947"/>
          </g>
        </g>
        <g id="Grupo_54788" data-name="Grupo 54788" transform="translate(20.218 5.445)">
          <g id="Grupo_54787" data-name="Grupo 54787">
            <rect id="Rectángulo_29435" data-name="Rectángulo 29435" width="2.851" height="2.851" fill="#1565c0"/>
          </g>
        </g>
        <g id="Grupo_54792" data-name="Grupo 54792" transform="translate(23.929 5.445)">
          <g id="Grupo_54791" data-name="Grupo 54791">
            <rect id="Rectángulo_29437" data-name="Rectángulo 29437" width="2.851" height="2.851" fill="#167377"/>
          </g>
        </g>
      </g>
      <g id="Window_2" data-name="Window 2" transform="translate(1020.087 5253.516)">
        <g id="Grupo_892905" data-name="Grupo 892905">
          <g id="Grupo_892883" data-name="Grupo 892883">
            <g id="Grupo_892880" data-name="Grupo 892880" transform="translate(0.081 0.072)">
              <rect id="Rectángulo_303247" data-name="Rectángulo 303247" width="46.474" height="35.723" rx="3.358" fill="#fff"/>
            </g>
            <g id="Grupo_892882" data-name="Grupo 892882">
              <g id="Grupo_892881" data-name="Grupo 892881">
                <path id="Trazado_612408" data-name="Trazado 612408" d="M294.46,376.9a1.444,1.444,0,0,0-.08-.408,1.219,1.219,0,0,0-.877-.769,5.748,5.748,0,0,0-.9-.027l-1.094,0-2.729.008-17.39.026-12.009.01-6.69,0-3.5,0a1.157,1.157,0,0,0-1.128,1.038c-.011.585,0,1.2-.005,1.8,0,9.708,0,20.38.007,31.582a1.147,1.147,0,0,0,.393.865,1.117,1.117,0,0,0,.424.234,1.575,1.575,0,0,0,.494.048h14.262l15.234,0,13.784.008a6.644,6.644,0,0,0,.793-.02,1.16,1.16,0,0,0,.939-1.039c.01-.252,0-.521.005-.779q0-1.562,0-3.066,0-3.005.005-5.762c.011-7.34.02-13.281.026-17.39.007-2.051.012-3.644.015-4.728,0-.538.006-.95.008-1.23s.008-.419.008-.419.005.142.008.419,0,.691.008,1.23c0,1.083.008,2.677.015,4.728.006,4.109.015,10.049.026,17.39q0,2.753.005,5.762,0,1.5,0,3.066c0,.263.006.517,0,.79a1.292,1.292,0,0,1-1.045,1.16,6.526,6.526,0,0,1-.817.023l-13.784.008-15.234,0H249.379a1.733,1.733,0,0,1-.541-.054,1.281,1.281,0,0,1-.485-.268,1.31,1.31,0,0,1-.448-.987c0-11.2,0-21.874.006-31.582,0-.61-.006-1.2.007-1.816a1.3,1.3,0,0,1,1.273-1.17h3.5l6.69,0,12.009.01,17.39.026,2.729.008,1.094,0a5.683,5.683,0,0,1,.907.036,1.231,1.231,0,0,1,.885.8,1.184,1.184,0,0,1,.063.308C294.461,376.865,294.46,376.9,294.46,376.9Z" transform="translate(-247.905 -375.604)" fill="#263238"/>
              </g>
            </g>
          </g>
          <g id="Grupo_892884" data-name="Grupo 892884" transform="translate(3.335 12.441)">
            <path id="Trazado_612409" data-name="Trazado 612409" d="M259.07,410.753v17.488a1,1,0,0,1-1,1h0a1,1,0,0,1-1-1V410.753a1,1,0,0,1,1-1h0A1,1,0,0,1,259.07,410.753Z" transform="translate(-257.065 -409.746)" fill="#fb8c00"/>
            <path id="Trazado_612410" data-name="Trazado 612410" d="M258.058,429.233a1.007,1.007,0,0,1-1.006-1.006V410.739a1.006,1.006,0,1,1,2.012,0v17.488A1.007,1.007,0,0,1,258.058,429.233Zm0-19.485a.991.991,0,0,0-.99.991v17.488a.99.99,0,0,0,1.981,0V410.739A.991.991,0,0,0,258.058,409.748Z" transform="translate(-257.052 -409.732)" fill="#fff"/>
          </g>
          <g id="Grupo_892885" data-name="Grupo 892885" transform="translate(35.899 16.918)">
            <path id="Trazado_612411" data-name="Trazado 612411" d="M348.4,423.031v13.012a1,1,0,0,1-1,1h0a1,1,0,0,1-1-1V423.031a1,1,0,0,1,1-1h0A1,1,0,0,1,348.4,423.031Z" transform="translate(-346.392 -422.024)" fill="#e0e0e0"/>
            <path id="Trazado_612412" data-name="Trazado 612412" d="M347.385,437.035a1.007,1.007,0,0,1-1.007-1.006V423.017a1.006,1.006,0,0,1,2.013,0v13.012A1.007,1.007,0,0,1,347.385,437.035Zm0-15.009a.992.992,0,0,0-.99.99v13.012a.99.99,0,0,0,1.981,0V423.017A.991.991,0,0,0,347.385,422.027Z" transform="translate(-346.378 -422.011)" fill="#fff"/>
          </g>
          <g id="Grupo_892889" data-name="Grupo 892889" transform="translate(2.514 3.361)">
            <g id="Grupo_892886" data-name="Grupo 892886">
              <circle id="Elipse_8176" data-name="Elipse 8176" cx="0.513" cy="0.513" r="0.513" transform="translate(0.008 0.008)" fill="#263238"/>
              <path id="Trazado_612413" data-name="Trazado 612413" d="M255.321,385.864a.52.52,0,1,1,.52-.52A.521.521,0,0,1,255.321,385.864Zm0-1.025a.5.5,0,1,0,.5.5A.505.505,0,0,0,255.321,384.839Z" transform="translate(-254.801 -384.823)" fill="#fff"/>
            </g>
            <g id="Grupo_892887" data-name="Grupo 892887" transform="translate(1.306)">
              <path id="Trazado_612414" data-name="Trazado 612414" d="M258.919,384.845a.513.513,0,1,1-.513.513A.513.513,0,0,1,258.919,384.845Z" transform="translate(-258.398 -384.837)" fill="#263238"/>
              <path id="Trazado_612415" data-name="Trazado 612415" d="M258.9,385.864a.52.52,0,1,1,.52-.52A.521.521,0,0,1,258.9,385.864Zm0-1.025a.5.5,0,1,0,.5.5A.505.505,0,0,0,258.9,384.839Z" transform="translate(-258.384 -384.823)" fill="#fff"/>
            </g>
            <g id="Grupo_892888" data-name="Grupo 892888" transform="translate(2.613)">
              <circle id="Elipse_8177" data-name="Elipse 8177" cx="0.513" cy="0.513" r="0.513" transform="translate(0.008 0.008)" fill="#263238"/>
              <path id="Trazado_612416" data-name="Trazado 612416" d="M262.489,385.864a.52.52,0,1,1,.52-.52A.521.521,0,0,1,262.489,385.864Zm0-1.025a.5.5,0,1,0,.5.5A.505.505,0,0,0,262.489,384.839Z" transform="translate(-261.968 -384.823)" fill="#fff"/>
            </g>
          </g>
          <g id="Grupo_892890" data-name="Grupo 892890" transform="translate(40.627 28.998)">
            <path id="Trazado_612417" data-name="Trazado 612417" d="M360.834,455.17a1.464,1.464,0,1,1-1.464,1.464A1.464,1.464,0,0,1,360.834,455.17Z" transform="translate(-359.362 -455.162)" fill="#1565c0"/>
            <path id="Trazado_612418" data-name="Trazado 612418" d="M360.82,458.093a1.472,1.472,0,1,1,1.472-1.472A1.474,1.474,0,0,1,360.82,458.093Zm0-2.928a1.456,1.456,0,1,0,1.456,1.456A1.458,1.458,0,0,0,360.82,455.165Z" transform="translate(-359.348 -455.149)" fill="#fff"/>
          </g>
          <g id="Grupo_892891" data-name="Grupo 892891" transform="translate(40.627 25.256)">
            <path id="Trazado_612419" data-name="Trazado 612419" d="M360.834,444.9a1.464,1.464,0,1,1-1.464,1.464A1.464,1.464,0,0,1,360.834,444.9Z" transform="translate(-359.362 -444.897)" fill="#263238"/>
            <path id="Trazado_612420" data-name="Trazado 612420" d="M360.82,447.827a1.472,1.472,0,1,1,1.472-1.472A1.474,1.474,0,0,1,360.82,447.827Zm0-2.928a1.456,1.456,0,1,0,1.456,1.456A1.458,1.458,0,0,0,360.82,444.9Z" transform="translate(-359.348 -444.883)" fill="#fff"/>
          </g>
          <g id="Grupo_892892" data-name="Grupo 892892" transform="translate(40.627 21.514)">
            <path id="Trazado_612421" data-name="Trazado 612421" d="M360.834,434.64a1.464,1.464,0,1,1-1.464,1.464A1.464,1.464,0,0,1,360.834,434.64Z" transform="translate(-359.362 -434.632)" fill="#455a64"/>
            <path id="Trazado_612422" data-name="Trazado 612422" d="M360.82,437.562a1.472,1.472,0,1,1,1.472-1.472A1.474,1.474,0,0,1,360.82,437.562Zm0-2.928a1.456,1.456,0,1,0,1.456,1.456A1.458,1.458,0,0,0,360.82,434.634Z" transform="translate(-359.348 -434.618)" fill="#fff"/>
          </g>
          <g id="Grupo_892900" data-name="Grupo 892900" transform="translate(8.271 4.394)">
            <g id="Grupo_892895" data-name="Grupo 892895" transform="translate(0)">
              <g id="Grupo_892894" data-name="Grupo 892894" transform="translate(0)">
                <g id="Grupo_892893" data-name="Grupo 892893">
                  <rect id="Rectángulo_303248" data-name="Rectángulo 303248" width="27.823" height="25.524" rx="3.99" transform="translate(0 27.823) rotate(-90)" fill="#fff"/>
                </g>
              </g>
            </g>
            <g id="Grupo_892897" data-name="Grupo 892897" transform="translate(9.369 0)">
              <g id="Grupo_892896" data-name="Grupo 892896">
                <path id="Trazado_612423" data-name="Trazado 612423" d="M305.209,415.48h4.768a2.222,2.222,0,0,0,2.472-2.248V389.9a2.232,2.232,0,0,0-2.518-2.248h-7.665l-5.533,6.488a1.9,1.9,0,0,0,.123,2.561l5.338,5.077-2.169,5a2.7,2.7,0,0,0,.359,2.746Z" transform="translate(-296.295 -387.657)" fill="#455a64"/>
              </g>
            </g>
            <g id="Grupo_892899" data-name="Grupo 892899" transform="translate(4.459 12.467)">
              <g id="Grupo_892898" data-name="Grupo 892898">
                <path id="Trazado_612424" data-name="Trazado 612424" d="M285.128,421.855a2.245,2.245,0,1,1-2.3,2.244A2.274,2.274,0,0,1,285.128,421.855Z" transform="translate(-282.824 -421.855)" fill="#455a64"/>
              </g>
            </g>
          </g>
          <g id="Grupo_892904" data-name="Grupo 892904" transform="translate(8.19 4.324)">
            <g id="Grupo_892903" data-name="Grupo 892903">
              <g id="Grupo_892902" data-name="Grupo 892902">
                <g id="Grupo_892901" data-name="Grupo 892901">
                  <path id="Trazado_612425" data-name="Trazado 612425" d="M295.976,390.128a2.9,2.9,0,0,0-.22-1.005,2.665,2.665,0,0,0-.75-.985,2.569,2.569,0,0,0-1.569-.568l-10.955.023-7.565.01c-.677.005-1.377-.009-2.068.012a2.517,2.517,0,0,0-2.246,1.9,4.243,4.243,0,0,0-.077,1.085q0,1.118,0,2.265c0,6.116,0,12.839.007,19.9a2.572,2.572,0,0,0,.318,1.224,2.523,2.523,0,0,0,.868.908,2.444,2.444,0,0,0,1.19.374c.424.014.862,0,1.289.007h5.076l9.6,0,4.469,0a2.515,2.515,0,0,0,1.868-.782,2.56,2.56,0,0,0,.7-1.84c0-2.719.007-5.252.01-7.566.011-4.622.02-8.364.026-10.955.006-1.29.012-2.293.015-2.978q.005-.506.008-.774c0-.175.008-.264.008-.264s.005.089.008.264,0,.437.008.774c0,.686.009,1.688.015,2.978.006,2.591.015,6.332.026,10.955,0,2.313.006,4.846.01,7.566a2.7,2.7,0,0,1-.735,1.936,2.657,2.657,0,0,1-1.968.829l-4.469,0-9.6,0H274.2c-.432,0-.857.007-1.3-.007a2.608,2.608,0,0,1-1.268-.4,2.686,2.686,0,0,1-.924-.967,2.736,2.736,0,0,1-.339-1.3c0-7.057,0-13.78.006-19.9q0-1.147,0-2.265a4.375,4.375,0,0,1,.083-1.12,2.658,2.658,0,0,1,2.376-2.006c.713-.02,1.4,0,2.079-.008l7.565.01,10.956.028a2.617,2.617,0,0,1,1.6.594,2.677,2.677,0,0,1,.75,1.009,2.744,2.744,0,0,1,.185.754C295.977,390.039,295.976,390.128,295.976,390.128Z" transform="translate(-270.371 -387.466)" fill="#263238"/>
                </g>
              </g>
            </g>
          </g>
        </g>
      </g>
      <g id="Grupo_897516" data-name="Grupo 897516" transform="translate(968.809 5180.807)">
        <path id="Trazado_617726" data-name="Trazado 617726" d="M14.859,82.884l-.45-1.669a5.564,5.564,0,1,0-1.322,1.492l0,0Z" transform="translate(-4.102 -72.787)" fill="#fff"/>
        <path id="Trazado_617727" data-name="Trazado 617727" d="M14.672,82.7s-.042-.007-.12-.016l-.342-.04L12.9,82.5l.018.041,0,0a.026.026,0,0,0-.036-.036,5.565,5.565,0,0,1-2.478,1.088,5.589,5.589,0,0,1-3.642-.646,5.493,5.493,0,0,1-1.425-8.4l.227-.251.248-.228a5.849,5.849,0,0,1,.522-.418A5.516,5.516,0,0,1,14.2,81.016l0,.02.347,1.229.092.321c.021.073.035.112.035.112s-.006-.033-.024-.1l-.08-.317-.322-1.254,0,.02a5.529,5.529,0,0,0,.812-2.611A5.614,5.614,0,0,0,10,72.568a5.685,5.685,0,0,0-3.737.976,6.032,6.032,0,0,0-.534.427l-.253.234-.232.257a5.6,5.6,0,0,0,1.466,8.571,5.555,5.555,0,0,0,1.916.654,5.483,5.483,0,0,0,1.79-.018,5.56,5.56,0,0,0,2.5-1.126l-.037-.036,0,0a.026.026,0,0,0,0,.036.028.028,0,0,0,.013.005l1.33.115.336.027c.075.006.112.008.11.006" transform="translate(-3.859 -72.545)" fill="#263238"/>
        <path id="Trazado_617728" data-name="Trazado 617728" d="M17.9,92.1l-2.92-1.953.682-1.019,1.958,1.31,2.437-3.224.978.739Z" transform="translate(-12.392 -83.804)" fill="#f4a338"/>
      </g>
      <g id="Grupo_897517" data-name="Grupo 897517" transform="translate(955.006 5257.676)">
        <g id="Grupo_892618" data-name="Grupo 892618">
          <g id="Grupo_892615" data-name="Grupo 892615" transform="translate(0.078 0.083)">
            <path id="Trazado_612246" data-name="Trazado 612246" d="M327.96,7.4H302.839a1.206,1.206,0,0,1-1.168-1.24V-26.513a1.206,1.206,0,0,1,1.168-1.24H327.96a1.206,1.206,0,0,1,1.168,1.24V6.157A1.206,1.206,0,0,1,327.96,7.4Z" transform="translate(-301.671 27.753)" fill="#fff"/>
          </g>
          <g id="Grupo_892617" data-name="Grupo 892617">
            <g id="Grupo_892616" data-name="Grupo 892616">
              <path id="Trazado_612247" data-name="Trazado 612247" d="M327.824,7.253a1.71,1.71,0,0,0,.3-.052,1.16,1.16,0,0,0,.689-.566,3.258,3.258,0,0,0,.154-1.519c0-.616,0-1.327-.007-2.127-.006-3.2-.014-7.834-.025-13.554,0-2.861-.006-6-.009-9.36q0-2.524,0-5.215,0-.672,0-1.354a1.457,1.457,0,0,0-.1-.639,1.171,1.171,0,0,0-.386-.491,1.055,1.055,0,0,0-.576-.2l-.654,0h-1.328l-23.176.007a1.108,1.108,0,0,0-1.056.864,3.861,3.861,0,0,0-.036.788v4.022q0,3.19,0,6.281c0,4.118,0,8.089,0,11.873q0,2.838,0,5.529,0,1.344,0,2.649,0,.652,0,1.293c0,.211-.005.433,0,.633a1.233,1.233,0,0,0,.187.557,1.1,1.1,0,0,0,.955.511H303.9l2.249,0,4.229.005,12.762.026,3.469.016.9.008c.2,0,.307.008.307.008s-.1.006-.307.008l-.9.008-3.469.015-12.762.026-4.229.005-2.249,0h-1.157a1.221,1.221,0,0,1-1.061-.568,1.377,1.377,0,0,1-.211-.622c-.011-.224,0-.428-.006-.645q0-.641,0-1.293,0-1.3,0-2.649,0-2.689,0-5.529c0-3.784,0-7.756,0-11.873q0-3.088,0-6.281v-4.428a1.582,1.582,0,0,1,.042-.424,1.266,1.266,0,0,1,1.206-.988l23.176.007h1.328l.659,0a1.19,1.19,0,0,1,.65.225,1.317,1.317,0,0,1,.435.553,1.615,1.615,0,0,1,.107.7q0,.681,0,1.354,0,2.688,0,5.215c0,3.364-.007,6.5-.009,9.36-.011,5.72-.019,10.35-.025,13.554,0,.8-.005,1.51-.007,2.127q0,.462,0,.852a1.33,1.33,0,0,1-.17.683,1.162,1.162,0,0,1-.712.565A.884.884,0,0,1,327.824,7.253Z" transform="translate(-301.457 27.979)" fill="#e0e0e0"/>
            </g>
          </g>
        </g>
        <g id="Grupo_892619" data-name="Grupo 892619" transform="translate(3.424 2.541)">
          <path id="Trazado_612248" data-name="Trazado 612248" d="M324.852-19.478H311.625a.755.755,0,0,1-.755-.755h0a.756.756,0,0,1,.755-.755h13.227a.755.755,0,0,1,.755.755h0A.755.755,0,0,1,324.852-19.478Z" transform="translate(-310.862 20.996)" fill="#e0e0e0"/>
          <path id="Trazado_612249" data-name="Trazado 612249" d="M324.839-19.483H311.612a.764.764,0,0,1-.763-.763.764.764,0,0,1,.763-.763h13.227a.764.764,0,0,1,.763.763A.764.764,0,0,1,324.839-19.483Zm-13.227-1.51a.748.748,0,0,0-.747.747.748.748,0,0,0,.747.747h13.227a.748.748,0,0,0,.747-.747.748.748,0,0,0-.747-.747Z" transform="translate(-310.849 21.009)" fill="#fff"/>
        </g>
        <g id="Grupo_892620" data-name="Grupo 892620" transform="translate(3.424 27.171)">
          <path id="Trazado_612250" data-name="Trazado 612250" d="M321.467,48.084h-9.841a.756.756,0,0,1-.755-.755h0a.755.755,0,0,1,.755-.755h9.841a.755.755,0,0,1,.755.755h0A.755.755,0,0,1,321.467,48.084Z" transform="translate(-310.862 -46.566)" fill="#e0e0e0"/>
          <path id="Trazado_612251" data-name="Trazado 612251" d="M321.453,48.078h-9.841a.763.763,0,0,1,0-1.526h9.841a.763.763,0,1,1,0,1.526Zm-9.841-1.51a.747.747,0,0,0,0,1.494h9.841a.747.747,0,1,0,0-1.494Z" transform="translate(-310.849 -46.552)" fill="#fff"/>
        </g>
        <g id="Grupo_892624" data-name="Grupo 892624" transform="translate(24.261 1.928)">
          <g id="Grupo_892621" data-name="Grupo 892621" transform="translate(0)">
            <circle id="Elipse_8167" data-name="Elipse 8167" cx="0.388" cy="0.388" r="0.388" fill="#e0e0e0"/>
          </g>
          <g id="Grupo_892622" data-name="Grupo 892622" transform="translate(0 0.988)">
            <path id="Trazado_612252" data-name="Trazado 612252" d="M368.783-19.592a.388.388,0,0,1-.388.388.388.388,0,0,1-.388-.388.388.388,0,0,1,.388-.388A.388.388,0,0,1,368.783-19.592Z" transform="translate(-368.008 19.98)" fill="#e0e0e0"/>
          </g>
          <g id="Grupo_892623" data-name="Grupo 892623" transform="translate(0 1.976)">
            <circle id="Elipse_8168" data-name="Elipse 8168" cx="0.388" cy="0.388" r="0.388" fill="#e0e0e0"/>
          </g>
        </g>
        <g id="Grupo_892625" data-name="Grupo 892625" transform="translate(3.424 30.747)">
          <circle id="Elipse_8169" data-name="Elipse 8169" cx="1.107" cy="1.107" r="1.107" transform="translate(0.008 0.008)" fill="#e0e0e0"/>
          <path id="Trazado_612253" data-name="Trazado 612253" d="M311.964,58.592a1.115,1.115,0,1,1,1.115-1.115A1.117,1.117,0,0,1,311.964,58.592Zm0-2.215a1.1,1.1,0,1,0,1.1,1.1A1.1,1.1,0,0,0,311.964,56.377Z" transform="translate(-310.849 -56.361)" fill="#fff"/>
        </g>
        <g id="Grupo_892626" data-name="Grupo 892626" transform="translate(6.254 30.747)">
          <circle id="Elipse_8170" data-name="Elipse 8170" cx="1.107" cy="1.107" r="1.107" transform="translate(0.008 0.008)" fill="#e0e0e0"/>
          <path id="Trazado_612254" data-name="Trazado 612254" d="M319.728,58.592a1.115,1.115,0,1,1,1.115-1.115A1.117,1.117,0,0,1,319.728,58.592Zm0-2.215a1.1,1.1,0,1,0,1.1,1.1A1.1,1.1,0,0,0,319.728,56.377Z" transform="translate(-318.612 -56.361)" fill="#fff"/>
        </g>
        <g id="Grupo_892627" data-name="Grupo 892627" transform="translate(9.085 30.747)">
          <path id="Trazado_612255" data-name="Trazado 612255" d="M328.613,57.491a1.107,1.107,0,1,1-1.107-1.108A1.107,1.107,0,0,1,328.613,57.491Z" transform="translate(-326.39 -56.375)" fill="#e0e0e0"/>
          <path id="Trazado_612256" data-name="Trazado 612256" d="M327.492,58.592a1.115,1.115,0,1,1,1.115-1.115A1.117,1.117,0,0,1,327.492,58.592Zm0-2.215a1.1,1.1,0,1,0,1.1,1.1A1.1,1.1,0,0,0,327.492,56.377Z" transform="translate(-326.377 -56.361)" fill="#fff"/>
        </g>
        <g id="Grupo_892635" data-name="Grupo 892635" transform="translate(3.21 6.277)">
          <g id="Grupo_892630" data-name="Grupo 892630" transform="translate(0.008 0)">
            <g id="Grupo_892629" data-name="Grupo 892629">
              <g id="Grupo_892628" data-name="Grupo 892628">
                <path id="Rectángulo_303233" data-name="Rectángulo 303233" d="M8.908,0H13.35a7.693,7.693,0,0,1,7.693,7.693v5.028A6.584,6.584,0,0,1,14.46,19.3H6.608A6.608,6.608,0,0,1,0,12.7V8.908A8.908,8.908,0,0,1,8.908,0Z" fill="#fff"/>
              </g>
            </g>
          </g>
          <g id="Grupo_892632" data-name="Grupo 892632" transform="translate(0 7.079)">
            <g id="Grupo_892631" data-name="Grupo 892631" transform="translate(0 0)">
              <path id="Trazado_612257" data-name="Trazado 612257" d="M310.285,15.42v3.606a1.68,1.68,0,0,0,1.7,1.87h17.643a1.688,1.688,0,0,0,1.7-1.9v-5.8l-4.907-4.185a1.436,1.436,0,0,0-1.937.093l-3.84,4.038L316.86,11.5a2.042,2.042,0,0,0-2.077.271Z" transform="translate(-310.277 -8.67)" fill="#e0e0e0"/>
              <path id="Trazado_612258" data-name="Trazado 612258" d="M329.613,20.89H311.971a1.607,1.607,0,0,1-1.278-.55,2.028,2.028,0,0,1-.43-1.327V15.4l0,0,4.5-3.65a2.047,2.047,0,0,1,2.085-.272l3.779,1.638,3.836-4.033a1.4,1.4,0,0,1,.953-.425h.073a1.417,1.417,0,0,1,.923.333l4.91,4.187v5.8a2.1,2.1,0,0,1-.422,1.351A1.6,1.6,0,0,1,329.613,20.89Zm-19.335-5.48v3.6a2.014,2.014,0,0,0,.426,1.317,1.592,1.592,0,0,0,1.266.545h17.643a1.579,1.579,0,0,0,1.274-.555,2.089,2.089,0,0,0,.418-1.342V13.184L326.4,9a1.4,1.4,0,0,0-.912-.33l-.072,0a1.38,1.38,0,0,0-.942.42l-3.844,4.041-.005,0-3.784-1.64a2.031,2.031,0,0,0-2.069.27Z" transform="translate(-310.262 -8.656)" fill="#fff"/>
            </g>
          </g>
          <g id="Grupo_892634" data-name="Grupo 892634" transform="translate(8.22 3.364)">
            <g id="Grupo_892633" data-name="Grupo 892633" transform="translate(0 0)">
              <path id="Trazado_612259" data-name="Trazado 612259" d="M336.226.232a1.7,1.7,0,1,1-3.394,0,1.7,1.7,0,1,1,3.394,0Z" transform="translate(-332.824 1.519)" fill="#e0e0e0"/>
              <path id="Trazado_612260" data-name="Trazado 612260" d="M334.515,1.968A1.73,1.73,0,0,1,332.81.218a1.706,1.706,0,1,1,3.41,0A1.73,1.73,0,0,1,334.515,1.968Zm0-3.485A1.714,1.714,0,0,0,332.826.218a1.69,1.69,0,1,0,3.378,0A1.714,1.714,0,0,0,334.515-1.517Z" transform="translate(-332.81 1.533)" fill="#fff"/>
            </g>
          </g>
        </g>
        <g id="Grupo_892639" data-name="Grupo 892639" transform="translate(3.136 6.195)">
          <g id="Grupo_892638" data-name="Grupo 892638">
            <g id="Grupo_892637" data-name="Grupo 892637">
              <g id="Grupo_892636" data-name="Grupo 892636">
                <path id="Trazado_612261" data-name="Trazado 612261" d="M328.558,8.4a3.686,3.686,0,0,0,.758-.129,2.7,2.7,0,0,0,.819-.431,2.565,2.565,0,0,0,.778-.984,2.467,2.467,0,0,0,.207-.721,6.214,6.214,0,0,0,.025-.835c0-.587,0-1.224-.007-1.908,0-1.37-.008-2.929-.012-4.651s-.007-3.611-.01-5.637c0-.5.007-1.027-.01-1.541a2.53,2.53,0,0,0-.547-1.425,2.542,2.542,0,0,0-1.307-.87,2.728,2.728,0,0,0-.809-.1h-.849l-14.826.007a2.549,2.549,0,0,0-1.727.678,2.55,2.55,0,0,0-.808,1.643c-.023,1.266-.007,2.539-.012,3.775,0,2.48,0,4.872,0,7.151q0,1.709,0,3.33a2.851,2.851,0,0,0,.112.771,2.777,2.777,0,0,0,.333.691,2.593,2.593,0,0,0,1.156.929,2.657,2.657,0,0,0,.71.174c.24.018.49.012.733.013l1.439,0,2.7.005,8.163.026,2.219.015.577.008c.13,0,.2.008.2.008s-.066.005-.2.008l-.577.008-2.219.016-8.163.026-2.7.005-1.439,0c-.245,0-.488.007-.746-.012a2.8,2.8,0,0,1-.748-.181,2.725,2.725,0,0,1-1.221-.977,2.906,2.906,0,0,1-.354-.729,2.976,2.976,0,0,1-.12-.813q0-1.619,0-3.33c0-2.279,0-4.671,0-7.151,0-1.243-.013-2.5.011-3.79a2.713,2.713,0,0,1,.86-1.749,2.717,2.717,0,0,1,1.838-.721l14.826.007h.849a2.88,2.88,0,0,1,.849.1,2.692,2.692,0,0,1,1.38.923,2.675,2.675,0,0,1,.574,1.507c.016.532,0,1.041.006,1.55,0,2.026-.007,3.913-.01,5.637s-.009,3.281-.012,4.651c0,.684,0,1.322-.007,1.908a6.219,6.219,0,0,1-.032.845,2.539,2.539,0,0,1-.219.737,2.6,2.6,0,0,1-.806,1,2.686,2.686,0,0,1-.84.424,2.616,2.616,0,0,1-.571.1C328.624,8.4,328.558,8.4,328.558,8.4Z" transform="translate(-310.058 10.987)" fill="#e0e0e0"/>
              </g>
            </g>
          </g>
        </g>
      </g>
    </g>
    <rect id="Rectángulo_344409" data-name="Rectángulo 344409" width="250" height="148" transform="translate(-3032 -6007)" fill="none"/>
  </g>
</svg>
